M48
;DRILL file {KiCad 5.0.0} date Fri Aug  9 00:55:24 2019
;FORMAT={-:-/ absolute / inch / decimal}
FMAT,2
INCH,TZ
T1C0.0100
%
G90
G05
M72
T1
X2.0425Y-2.33
X2.282Y-1.906
X2.308Y-1.83
X2.314Y-1.892
X2.3175Y-2.3325
X2.345Y-1.52
X2.352Y-1.86
X2.39Y-1.575
X2.41Y-1.59
X2.4125Y-1.4225
X2.53Y-1.5
X2.5928Y-2.3315
X2.6475Y-2.0775
X2.7125Y-1.775
X2.8225Y-2.0775
X2.8325Y-1.69
X2.8475Y-2.0775
X2.8675Y-2.33
X3.01Y-1.53
X3.01Y-1.88
X3.144Y-2.3315
X3.33Y-1.58
X3.36Y-1.88
X3.42Y-2.33
T0
M30
