G04 #@! TF.GenerationSoftware,KiCad,Pcbnew,5.0.0*
G04 #@! TF.CreationDate,2019-08-09T00:55:27-06:00*
G04 #@! TF.ProjectId,SX8634-Breakout,5358383633342D427265616B6F75742E,1*
G04 #@! TF.SameCoordinates,Original*
G04 #@! TF.FileFunction,Legend,Bot*
G04 #@! TF.FilePolarity,Positive*
%FSLAX46Y46*%
G04 Gerber Fmt 4.6, Leading zero omitted, Abs format (unit mm)*
G04 Created by KiCad (PCBNEW 5.0.0) date Fri Aug  9 00:55:27 2019*
%MOMM*%
%LPD*%
G01*
G04 APERTURE LIST*
%ADD10C,0.300000*%
%ADD11C,0.120000*%
%ADD12C,0.080000*%
%ADD13C,0.150000*%
%ADD14C,0.070000*%
G04 APERTURE END LIST*
D10*
X89311880Y-63644862D02*
X89097594Y-63716291D01*
X88740451Y-63716291D01*
X88597594Y-63644862D01*
X88526165Y-63573434D01*
X88454737Y-63430577D01*
X88454737Y-63287720D01*
X88526165Y-63144862D01*
X88597594Y-63073434D01*
X88740451Y-63002005D01*
X89026165Y-62930577D01*
X89169022Y-62859148D01*
X89240451Y-62787720D01*
X89311880Y-62644862D01*
X89311880Y-62502005D01*
X89240451Y-62359148D01*
X89169022Y-62287720D01*
X89026165Y-62216291D01*
X88669022Y-62216291D01*
X88454737Y-62287720D01*
X87954737Y-62216291D02*
X86954737Y-63716291D01*
X86954737Y-62216291D02*
X87954737Y-63716291D01*
X86169022Y-62859148D02*
X86311880Y-62787720D01*
X86383308Y-62716291D01*
X86454737Y-62573434D01*
X86454737Y-62502005D01*
X86383308Y-62359148D01*
X86311880Y-62287720D01*
X86169022Y-62216291D01*
X85883308Y-62216291D01*
X85740451Y-62287720D01*
X85669022Y-62359148D01*
X85597594Y-62502005D01*
X85597594Y-62573434D01*
X85669022Y-62716291D01*
X85740451Y-62787720D01*
X85883308Y-62859148D01*
X86169022Y-62859148D01*
X86311880Y-62930577D01*
X86383308Y-63002005D01*
X86454737Y-63144862D01*
X86454737Y-63430577D01*
X86383308Y-63573434D01*
X86311880Y-63644862D01*
X86169022Y-63716291D01*
X85883308Y-63716291D01*
X85740451Y-63644862D01*
X85669022Y-63573434D01*
X85597594Y-63430577D01*
X85597594Y-63144862D01*
X85669022Y-63002005D01*
X85740451Y-62930577D01*
X85883308Y-62859148D01*
X84311880Y-62216291D02*
X84597594Y-62216291D01*
X84740451Y-62287720D01*
X84811880Y-62359148D01*
X84954737Y-62573434D01*
X85026165Y-62859148D01*
X85026165Y-63430577D01*
X84954737Y-63573434D01*
X84883308Y-63644862D01*
X84740451Y-63716291D01*
X84454737Y-63716291D01*
X84311880Y-63644862D01*
X84240451Y-63573434D01*
X84169022Y-63430577D01*
X84169022Y-63073434D01*
X84240451Y-62930577D01*
X84311880Y-62859148D01*
X84454737Y-62787720D01*
X84740451Y-62787720D01*
X84883308Y-62859148D01*
X84954737Y-62930577D01*
X85026165Y-63073434D01*
X83669022Y-62216291D02*
X82740451Y-62216291D01*
X83240451Y-62787720D01*
X83026165Y-62787720D01*
X82883308Y-62859148D01*
X82811880Y-62930577D01*
X82740451Y-63073434D01*
X82740451Y-63430577D01*
X82811880Y-63573434D01*
X82883308Y-63644862D01*
X83026165Y-63716291D01*
X83454737Y-63716291D01*
X83597594Y-63644862D01*
X83669022Y-63573434D01*
X81454737Y-62716291D02*
X81454737Y-63716291D01*
X81811880Y-62144862D02*
X82169022Y-63216291D01*
X81240451Y-63216291D01*
X79026165Y-62930577D02*
X78811880Y-63002005D01*
X78740451Y-63073434D01*
X78669022Y-63216291D01*
X78669022Y-63430577D01*
X78740451Y-63573434D01*
X78811880Y-63644862D01*
X78954737Y-63716291D01*
X79526165Y-63716291D01*
X79526165Y-62216291D01*
X79026165Y-62216291D01*
X78883308Y-62287720D01*
X78811880Y-62359148D01*
X78740451Y-62502005D01*
X78740451Y-62644862D01*
X78811880Y-62787720D01*
X78883308Y-62859148D01*
X79026165Y-62930577D01*
X79526165Y-62930577D01*
X78026165Y-63716291D02*
X78026165Y-62716291D01*
X78026165Y-63002005D02*
X77954737Y-62859148D01*
X77883308Y-62787720D01*
X77740451Y-62716291D01*
X77597594Y-62716291D01*
X76526165Y-63644862D02*
X76669022Y-63716291D01*
X76954737Y-63716291D01*
X77097594Y-63644862D01*
X77169022Y-63502005D01*
X77169022Y-62930577D01*
X77097594Y-62787720D01*
X76954737Y-62716291D01*
X76669022Y-62716291D01*
X76526165Y-62787720D01*
X76454737Y-62930577D01*
X76454737Y-63073434D01*
X77169022Y-63216291D01*
X75169022Y-63716291D02*
X75169022Y-62930577D01*
X75240451Y-62787720D01*
X75383308Y-62716291D01*
X75669022Y-62716291D01*
X75811880Y-62787720D01*
X75169022Y-63644862D02*
X75311880Y-63716291D01*
X75669022Y-63716291D01*
X75811880Y-63644862D01*
X75883308Y-63502005D01*
X75883308Y-63359148D01*
X75811880Y-63216291D01*
X75669022Y-63144862D01*
X75311880Y-63144862D01*
X75169022Y-63073434D01*
X74454737Y-63716291D02*
X74454737Y-62216291D01*
X74311880Y-63144862D02*
X73883308Y-63716291D01*
X73883308Y-62716291D02*
X74454737Y-63287720D01*
X73026165Y-63716291D02*
X73169022Y-63644862D01*
X73240451Y-63573434D01*
X73311880Y-63430577D01*
X73311880Y-63002005D01*
X73240451Y-62859148D01*
X73169022Y-62787720D01*
X73026165Y-62716291D01*
X72811880Y-62716291D01*
X72669022Y-62787720D01*
X72597594Y-62859148D01*
X72526165Y-63002005D01*
X72526165Y-63430577D01*
X72597594Y-63573434D01*
X72669022Y-63644862D01*
X72811880Y-63716291D01*
X73026165Y-63716291D01*
X71240451Y-62716291D02*
X71240451Y-63716291D01*
X71883308Y-62716291D02*
X71883308Y-63502005D01*
X71811880Y-63644862D01*
X71669022Y-63716291D01*
X71454737Y-63716291D01*
X71311880Y-63644862D01*
X71240451Y-63573434D01*
X70740451Y-62716291D02*
X70169022Y-62716291D01*
X70526165Y-62216291D02*
X70526165Y-63502005D01*
X70454737Y-63644862D01*
X70311880Y-63716291D01*
X70169022Y-63716291D01*
X79441834Y-35680440D02*
X77941834Y-35680440D01*
X78227548Y-37829011D02*
X78727548Y-37114725D01*
X79084691Y-37829011D02*
X79084691Y-36329011D01*
X78513262Y-36329011D01*
X78370405Y-36400440D01*
X78298977Y-36471868D01*
X78227548Y-36614725D01*
X78227548Y-36829011D01*
X78298977Y-36971868D01*
X78370405Y-37043297D01*
X78513262Y-37114725D01*
X79084691Y-37114725D01*
X77941834Y-35680440D02*
X76584691Y-35680440D01*
X77584691Y-37043297D02*
X77084691Y-37043297D01*
X76870405Y-37829011D02*
X77584691Y-37829011D01*
X77584691Y-36329011D01*
X76870405Y-36329011D01*
X76584691Y-35680440D02*
X75156120Y-35680440D01*
X76298977Y-37757582D02*
X76084691Y-37829011D01*
X75727548Y-37829011D01*
X75584691Y-37757582D01*
X75513262Y-37686154D01*
X75441834Y-37543297D01*
X75441834Y-37400440D01*
X75513262Y-37257582D01*
X75584691Y-37186154D01*
X75727548Y-37114725D01*
X76013262Y-37043297D01*
X76156120Y-36971868D01*
X76227548Y-36900440D01*
X76298977Y-36757582D01*
X76298977Y-36614725D01*
X76227548Y-36471868D01*
X76156120Y-36400440D01*
X76013262Y-36329011D01*
X75656120Y-36329011D01*
X75441834Y-36400440D01*
X75156120Y-35680440D02*
X73798977Y-35680440D01*
X74798977Y-37043297D02*
X74298977Y-37043297D01*
X74084691Y-37829011D02*
X74798977Y-37829011D01*
X74798977Y-36329011D01*
X74084691Y-36329011D01*
X73798977Y-35680440D02*
X72656120Y-35680440D01*
X73656120Y-36329011D02*
X72798977Y-36329011D01*
X73227548Y-37829011D02*
X73227548Y-36329011D01*
X76084691Y-38950440D02*
X76227548Y-38879011D01*
X76441834Y-38879011D01*
X76656120Y-38950440D01*
X76798977Y-39093297D01*
X76870405Y-39236154D01*
X76941834Y-39521868D01*
X76941834Y-39736154D01*
X76870405Y-40021868D01*
X76798977Y-40164725D01*
X76656120Y-40307582D01*
X76441834Y-40379011D01*
X76298977Y-40379011D01*
X76084691Y-40307582D01*
X76013262Y-40236154D01*
X76013262Y-39736154D01*
X76298977Y-39736154D01*
X75370405Y-40379011D02*
X75370405Y-38879011D01*
X74513262Y-40379011D01*
X74513262Y-38879011D01*
X73798977Y-40379011D02*
X73798977Y-38879011D01*
X73441834Y-38879011D01*
X73227548Y-38950440D01*
X73084691Y-39093297D01*
X73013262Y-39236154D01*
X72941834Y-39521868D01*
X72941834Y-39736154D01*
X73013262Y-40021868D01*
X73084691Y-40164725D01*
X73227548Y-40307582D01*
X73441834Y-40379011D01*
X73798977Y-40379011D01*
X76798977Y-41429011D02*
X76298977Y-42929011D01*
X75798977Y-41429011D01*
X74441834Y-42786154D02*
X74513262Y-42857582D01*
X74727548Y-42929011D01*
X74870405Y-42929011D01*
X75084691Y-42857582D01*
X75227548Y-42714725D01*
X75298977Y-42571868D01*
X75370405Y-42286154D01*
X75370405Y-42071868D01*
X75298977Y-41786154D01*
X75227548Y-41643297D01*
X75084691Y-41500440D01*
X74870405Y-41429011D01*
X74727548Y-41429011D01*
X74513262Y-41500440D01*
X74441834Y-41571868D01*
X72941834Y-42786154D02*
X73013262Y-42857582D01*
X73227548Y-42929011D01*
X73370405Y-42929011D01*
X73584691Y-42857582D01*
X73727548Y-42714725D01*
X73798977Y-42571868D01*
X73870405Y-42286154D01*
X73870405Y-42071868D01*
X73798977Y-41786154D01*
X73727548Y-41643297D01*
X73584691Y-41500440D01*
X73370405Y-41429011D01*
X73227548Y-41429011D01*
X73013262Y-41500440D01*
X72941834Y-41571868D01*
X76441834Y-43330440D02*
X75727548Y-43330440D01*
X76084691Y-45479011D02*
X76084691Y-43979011D01*
X75727548Y-43330440D02*
X74227548Y-43330440D01*
X74513262Y-45479011D02*
X75013262Y-44764725D01*
X75370405Y-45479011D02*
X75370405Y-43979011D01*
X74798977Y-43979011D01*
X74656120Y-44050440D01*
X74584691Y-44121868D01*
X74513262Y-44264725D01*
X74513262Y-44479011D01*
X74584691Y-44621868D01*
X74656120Y-44693297D01*
X74798977Y-44764725D01*
X75370405Y-44764725D01*
X74227548Y-43330440D02*
X72656120Y-43330440D01*
X72870405Y-45621868D02*
X73013262Y-45550440D01*
X73156120Y-45407582D01*
X73370405Y-45193297D01*
X73513262Y-45121868D01*
X73656120Y-45121868D01*
X73584691Y-45479011D02*
X73727548Y-45407582D01*
X73870405Y-45264725D01*
X73941834Y-44979011D01*
X73941834Y-44479011D01*
X73870405Y-44193297D01*
X73727548Y-44050440D01*
X73584691Y-43979011D01*
X73298977Y-43979011D01*
X73156120Y-44050440D01*
X73013262Y-44193297D01*
X72941834Y-44479011D01*
X72941834Y-44979011D01*
X73013262Y-45264725D01*
X73156120Y-45407582D01*
X73298977Y-45479011D01*
X73584691Y-45479011D01*
X76584691Y-47957582D02*
X76370405Y-48029011D01*
X76013262Y-48029011D01*
X75870405Y-47957582D01*
X75798977Y-47886154D01*
X75727548Y-47743297D01*
X75727548Y-47600440D01*
X75798977Y-47457582D01*
X75870405Y-47386154D01*
X76013262Y-47314725D01*
X76298977Y-47243297D01*
X76441834Y-47171868D01*
X76513262Y-47100440D01*
X76584691Y-46957582D01*
X76584691Y-46814725D01*
X76513262Y-46671868D01*
X76441834Y-46600440D01*
X76298977Y-46529011D01*
X75941834Y-46529011D01*
X75727548Y-46600440D01*
X75084691Y-48029011D02*
X75084691Y-46529011D01*
X74727548Y-46529011D01*
X74513262Y-46600440D01*
X74370405Y-46743297D01*
X74298977Y-46886154D01*
X74227548Y-47171868D01*
X74227548Y-47386154D01*
X74298977Y-47671868D01*
X74370405Y-47814725D01*
X74513262Y-47957582D01*
X74727548Y-48029011D01*
X75084691Y-48029011D01*
X73656120Y-47600440D02*
X72941834Y-47600440D01*
X73798977Y-48029011D02*
X73298977Y-46529011D01*
X72798977Y-48029011D01*
X76513262Y-50507582D02*
X76298977Y-50579011D01*
X75941834Y-50579011D01*
X75798977Y-50507582D01*
X75727548Y-50436154D01*
X75656120Y-50293297D01*
X75656120Y-50150440D01*
X75727548Y-50007582D01*
X75798977Y-49936154D01*
X75941834Y-49864725D01*
X76227548Y-49793297D01*
X76370405Y-49721868D01*
X76441834Y-49650440D01*
X76513262Y-49507582D01*
X76513262Y-49364725D01*
X76441834Y-49221868D01*
X76370405Y-49150440D01*
X76227548Y-49079011D01*
X75870405Y-49079011D01*
X75656120Y-49150440D01*
X74156120Y-50436154D02*
X74227548Y-50507582D01*
X74441834Y-50579011D01*
X74584691Y-50579011D01*
X74798977Y-50507582D01*
X74941834Y-50364725D01*
X75013262Y-50221868D01*
X75084691Y-49936154D01*
X75084691Y-49721868D01*
X75013262Y-49436154D01*
X74941834Y-49293297D01*
X74798977Y-49150440D01*
X74584691Y-49079011D01*
X74441834Y-49079011D01*
X74227548Y-49150440D01*
X74156120Y-49221868D01*
X72798977Y-50579011D02*
X73513262Y-50579011D01*
X73513262Y-49079011D01*
X62148125Y-36009440D02*
X62290982Y-35938011D01*
X62505268Y-35938011D01*
X62719554Y-36009440D01*
X62862411Y-36152297D01*
X62933840Y-36295154D01*
X63005268Y-36580868D01*
X63005268Y-36795154D01*
X62933840Y-37080868D01*
X62862411Y-37223725D01*
X62719554Y-37366582D01*
X62505268Y-37438011D01*
X62362411Y-37438011D01*
X62148125Y-37366582D01*
X62076697Y-37295154D01*
X62076697Y-36795154D01*
X62362411Y-36795154D01*
X61433840Y-37438011D02*
X61433840Y-35938011D01*
X60862411Y-35938011D01*
X60719554Y-36009440D01*
X60648125Y-36080868D01*
X60576697Y-36223725D01*
X60576697Y-36438011D01*
X60648125Y-36580868D01*
X60719554Y-36652297D01*
X60862411Y-36723725D01*
X61433840Y-36723725D01*
X59933840Y-37438011D02*
X59933840Y-35938011D01*
X58933840Y-35938011D02*
X58648125Y-35938011D01*
X58505268Y-36009440D01*
X58362411Y-36152297D01*
X58290982Y-36438011D01*
X58290982Y-36938011D01*
X58362411Y-37223725D01*
X58505268Y-37366582D01*
X58648125Y-37438011D01*
X58933840Y-37438011D01*
X59076697Y-37366582D01*
X59219554Y-37223725D01*
X59290982Y-36938011D01*
X59290982Y-36438011D01*
X59219554Y-36152297D01*
X59076697Y-36009440D01*
X58933840Y-35938011D01*
X57790982Y-35938011D02*
X56790982Y-35938011D01*
X57433840Y-37438011D01*
X62148125Y-53859440D02*
X62290982Y-53788011D01*
X62505268Y-53788011D01*
X62719554Y-53859440D01*
X62862411Y-54002297D01*
X62933840Y-54145154D01*
X63005268Y-54430868D01*
X63005268Y-54645154D01*
X62933840Y-54930868D01*
X62862411Y-55073725D01*
X62719554Y-55216582D01*
X62505268Y-55288011D01*
X62362411Y-55288011D01*
X62148125Y-55216582D01*
X62076697Y-55145154D01*
X62076697Y-54645154D01*
X62362411Y-54645154D01*
X61433840Y-55288011D02*
X61433840Y-53788011D01*
X60862411Y-53788011D01*
X60719554Y-53859440D01*
X60648125Y-53930868D01*
X60576697Y-54073725D01*
X60576697Y-54288011D01*
X60648125Y-54430868D01*
X60719554Y-54502297D01*
X60862411Y-54573725D01*
X61433840Y-54573725D01*
X59933840Y-55288011D02*
X59933840Y-53788011D01*
X58933840Y-53788011D02*
X58648125Y-53788011D01*
X58505268Y-53859440D01*
X58362411Y-54002297D01*
X58290982Y-54288011D01*
X58290982Y-54788011D01*
X58362411Y-55073725D01*
X58505268Y-55216582D01*
X58648125Y-55288011D01*
X58933840Y-55288011D01*
X59076697Y-55216582D01*
X59219554Y-55073725D01*
X59290982Y-54788011D01*
X59290982Y-54288011D01*
X59219554Y-54002297D01*
X59076697Y-53859440D01*
X58933840Y-53788011D01*
X57362411Y-53788011D02*
X57219554Y-53788011D01*
X57076697Y-53859440D01*
X57005268Y-53930868D01*
X56933840Y-54073725D01*
X56862411Y-54359440D01*
X56862411Y-54716582D01*
X56933840Y-55002297D01*
X57005268Y-55145154D01*
X57076697Y-55216582D01*
X57219554Y-55288011D01*
X57362411Y-55288011D01*
X57505268Y-55216582D01*
X57576697Y-55145154D01*
X57648125Y-55002297D01*
X57719554Y-54716582D01*
X57719554Y-54359440D01*
X57648125Y-54073725D01*
X57576697Y-53930868D01*
X57505268Y-53859440D01*
X57362411Y-53788011D01*
D11*
G04 #@! TO.C,C1*
X61813221Y-48389000D02*
X62138779Y-48389000D01*
X61813221Y-47369000D02*
X62138779Y-47369000D01*
G04 #@! TO.C,C2*
X57710000Y-50033422D02*
X57710000Y-50550578D01*
X59130000Y-50033422D02*
X59130000Y-50550578D01*
D12*
G04 #@! TO.C,CARY1*
X60085000Y-37733000D02*
X60085000Y-39483000D01*
X60085000Y-39483000D02*
X61835000Y-39483000D01*
X61835000Y-37733000D02*
X60085000Y-37733000D01*
X61835000Y-37733000D02*
X61835000Y-39483000D01*
D11*
G04 #@! TO.C,U1*
X58825000Y-41078000D02*
X58350000Y-41078000D01*
X58350000Y-41078000D02*
X58350000Y-41553000D01*
X63095000Y-46298000D02*
X63570000Y-46298000D01*
X63570000Y-46298000D02*
X63570000Y-45823000D01*
X58825000Y-46298000D02*
X58350000Y-46298000D01*
X58350000Y-46298000D02*
X58350000Y-45823000D01*
X63095000Y-41078000D02*
X63570000Y-41078000D01*
G04 #@! TO.C,J2*
X67250000Y-50860000D02*
X69910000Y-50860000D01*
X67250000Y-35500000D02*
X69910000Y-35500000D01*
X69910000Y-50860000D02*
X69910000Y-47750000D01*
X67250000Y-50290000D02*
X65730000Y-50290000D01*
X67250000Y-50860000D02*
X67250000Y-50290000D01*
X69910000Y-36070000D02*
X69910000Y-35500000D01*
X69910000Y-46230000D02*
X69910000Y-42670000D01*
X69910000Y-41150000D02*
X69910000Y-37590000D01*
X67250000Y-48770000D02*
X67250000Y-45210000D01*
X67250000Y-43690000D02*
X67250000Y-40130000D01*
X67250000Y-38610000D02*
X67250000Y-35500000D01*
G04 #@! TO.C,J3*
X52010000Y-55940000D02*
X54670000Y-55940000D01*
X52010000Y-35500000D02*
X54670000Y-35500000D01*
X54670000Y-55940000D02*
X54670000Y-52830000D01*
X52010000Y-55370000D02*
X50490000Y-55370000D01*
X52010000Y-55940000D02*
X52010000Y-55370000D01*
X54670000Y-36070000D02*
X54670000Y-35500000D01*
X54670000Y-51310000D02*
X54670000Y-47750000D01*
X54670000Y-46230000D02*
X54670000Y-42670000D01*
X54670000Y-41150000D02*
X54670000Y-37590000D01*
X52010000Y-53850000D02*
X52010000Y-50290000D01*
X52010000Y-48770000D02*
X52010000Y-45210000D01*
X52010000Y-43690000D02*
X52010000Y-40130000D01*
X52010000Y-38610000D02*
X52010000Y-35500000D01*
G04 #@! TO.C,C1*
D13*
X59602666Y-48109142D02*
X59650285Y-48156761D01*
X59793142Y-48204380D01*
X59888380Y-48204380D01*
X60031238Y-48156761D01*
X60126476Y-48061523D01*
X60174095Y-47966285D01*
X60221714Y-47775809D01*
X60221714Y-47632952D01*
X60174095Y-47442476D01*
X60126476Y-47347238D01*
X60031238Y-47252000D01*
X59888380Y-47204380D01*
X59793142Y-47204380D01*
X59650285Y-47252000D01*
X59602666Y-47299619D01*
X58650285Y-48204380D02*
X59221714Y-48204380D01*
X58936000Y-48204380D02*
X58936000Y-47204380D01*
X59031238Y-47347238D01*
X59126476Y-47442476D01*
X59221714Y-47490095D01*
G04 #@! TO.C,C2*
X60428142Y-50760333D02*
X60475761Y-50712714D01*
X60523380Y-50569857D01*
X60523380Y-50474619D01*
X60475761Y-50331761D01*
X60380523Y-50236523D01*
X60285285Y-50188904D01*
X60094809Y-50141285D01*
X59951952Y-50141285D01*
X59761476Y-50188904D01*
X59666238Y-50236523D01*
X59571000Y-50331761D01*
X59523380Y-50474619D01*
X59523380Y-50569857D01*
X59571000Y-50712714D01*
X59618619Y-50760333D01*
X59618619Y-51141285D02*
X59571000Y-51188904D01*
X59523380Y-51284142D01*
X59523380Y-51522238D01*
X59571000Y-51617476D01*
X59618619Y-51665095D01*
X59713857Y-51712714D01*
X59809095Y-51712714D01*
X59951952Y-51665095D01*
X60523380Y-51093666D01*
X60523380Y-51712714D01*
G04 #@! TO.C,CARY1*
D12*
X61594523Y-37325857D02*
X61613571Y-37344904D01*
X61670714Y-37363952D01*
X61708809Y-37363952D01*
X61765952Y-37344904D01*
X61804047Y-37306809D01*
X61823095Y-37268714D01*
X61842142Y-37192523D01*
X61842142Y-37135380D01*
X61823095Y-37059190D01*
X61804047Y-37021095D01*
X61765952Y-36983000D01*
X61708809Y-36963952D01*
X61670714Y-36963952D01*
X61613571Y-36983000D01*
X61594523Y-37002047D01*
X61442142Y-37249666D02*
X61251666Y-37249666D01*
X61480238Y-37363952D02*
X61346904Y-36963952D01*
X61213571Y-37363952D01*
X60851666Y-37363952D02*
X60985000Y-37173476D01*
X61080238Y-37363952D02*
X61080238Y-36963952D01*
X60927857Y-36963952D01*
X60889761Y-36983000D01*
X60870714Y-37002047D01*
X60851666Y-37040142D01*
X60851666Y-37097285D01*
X60870714Y-37135380D01*
X60889761Y-37154428D01*
X60927857Y-37173476D01*
X61080238Y-37173476D01*
X60604047Y-37173476D02*
X60604047Y-37363952D01*
X60737380Y-36963952D02*
X60604047Y-37173476D01*
X60470714Y-36963952D01*
X60127857Y-37363952D02*
X60356428Y-37363952D01*
X60242142Y-37363952D02*
X60242142Y-36963952D01*
X60280238Y-37021095D01*
X60318333Y-37059190D01*
X60356428Y-37078238D01*
D14*
X61579047Y-38788952D02*
X61807619Y-38788952D01*
X61693333Y-38788952D02*
X61693333Y-38388952D01*
X61731428Y-38446095D01*
X61769523Y-38484190D01*
X61807619Y-38503238D01*
X61331428Y-38388952D02*
X61293333Y-38388952D01*
X61255238Y-38408000D01*
X61236190Y-38427047D01*
X61217142Y-38465142D01*
X61198095Y-38541333D01*
X61198095Y-38636571D01*
X61217142Y-38712761D01*
X61236190Y-38750857D01*
X61255238Y-38769904D01*
X61293333Y-38788952D01*
X61331428Y-38788952D01*
X61369523Y-38769904D01*
X61388571Y-38750857D01*
X61407619Y-38712761D01*
X61426666Y-38636571D01*
X61426666Y-38541333D01*
X61407619Y-38465142D01*
X61388571Y-38427047D01*
X61369523Y-38408000D01*
X61331428Y-38388952D01*
X60950476Y-38388952D02*
X60912380Y-38388952D01*
X60874285Y-38408000D01*
X60855238Y-38427047D01*
X60836190Y-38465142D01*
X60817142Y-38541333D01*
X60817142Y-38636571D01*
X60836190Y-38712761D01*
X60855238Y-38750857D01*
X60874285Y-38769904D01*
X60912380Y-38788952D01*
X60950476Y-38788952D01*
X60988571Y-38769904D01*
X61007619Y-38750857D01*
X61026666Y-38712761D01*
X61045714Y-38636571D01*
X61045714Y-38541333D01*
X61026666Y-38465142D01*
X61007619Y-38427047D01*
X60988571Y-38408000D01*
X60950476Y-38388952D01*
X60645714Y-38522285D02*
X60645714Y-38788952D01*
X60645714Y-38560380D02*
X60626666Y-38541333D01*
X60588571Y-38522285D01*
X60531428Y-38522285D01*
X60493333Y-38541333D01*
X60474285Y-38579428D01*
X60474285Y-38788952D01*
X60150476Y-38579428D02*
X60283809Y-38579428D01*
X60283809Y-38788952D02*
X60283809Y-38388952D01*
X60093333Y-38388952D01*
G04 #@! TO.C,U1*
D13*
X59435904Y-39330380D02*
X59435904Y-40139904D01*
X59388285Y-40235142D01*
X59340666Y-40282761D01*
X59245428Y-40330380D01*
X59054952Y-40330380D01*
X58959714Y-40282761D01*
X58912095Y-40235142D01*
X58864476Y-40139904D01*
X58864476Y-39330380D01*
X57864476Y-40330380D02*
X58435904Y-40330380D01*
X58150190Y-40330380D02*
X58150190Y-39330380D01*
X58245428Y-39473238D01*
X58340666Y-39568476D01*
X58435904Y-39616095D01*
G04 #@! TO.C,J2*
X68540380Y-48942666D02*
X69254666Y-48942666D01*
X69397523Y-48895047D01*
X69492761Y-48799809D01*
X69540380Y-48656952D01*
X69540380Y-48561714D01*
X68635619Y-49371238D02*
X68588000Y-49418857D01*
X68540380Y-49514095D01*
X68540380Y-49752190D01*
X68588000Y-49847428D01*
X68635619Y-49895047D01*
X68730857Y-49942666D01*
X68826095Y-49942666D01*
X68968952Y-49895047D01*
X69540380Y-49323619D01*
X69540380Y-49942666D01*
G04 #@! TO.C,J3*
X53300380Y-48942666D02*
X54014666Y-48942666D01*
X54157523Y-48895047D01*
X54252761Y-48799809D01*
X54300380Y-48656952D01*
X54300380Y-48561714D01*
X53300380Y-49323619D02*
X53300380Y-49942666D01*
X53681333Y-49609333D01*
X53681333Y-49752190D01*
X53728952Y-49847428D01*
X53776571Y-49895047D01*
X53871809Y-49942666D01*
X54109904Y-49942666D01*
X54205142Y-49895047D01*
X54252761Y-49847428D01*
X54300380Y-49752190D01*
X54300380Y-49466476D01*
X54252761Y-49371238D01*
X54205142Y-49323619D01*
G04 #@! TD*
M02*
