G04 #@! TF.GenerationSoftware,KiCad,Pcbnew,5.0.0*
G04 #@! TF.CreationDate,2019-08-09T00:55:27-06:00*
G04 #@! TF.ProjectId,SX8634-Breakout,5358383633342D427265616B6F75742E,1*
G04 #@! TF.SameCoordinates,Original*
G04 #@! TF.FileFunction,Copper,L3,Inr,Signal*
G04 #@! TF.FilePolarity,Positive*
%FSLAX46Y46*%
G04 Gerber Fmt 4.6, Leading zero omitted, Abs format (unit mm)*
G04 Created by KiCad (PCBNEW 5.0.0) date Fri Aug  9 00:55:27 2019*
%MOMM*%
%LPD*%
G01*
G04 APERTURE LIST*
G04 #@! TA.AperFunction,ViaPad*
%ADD10C,0.354000*%
G04 #@! TD*
G04 #@! TA.AperFunction,Conductor*
%ADD11C,0.160000*%
G04 #@! TD*
G04 APERTURE END LIST*
D10*
G04 #@! TO.N,/VCC*
X59563000Y-38608000D03*
X57962800Y-48412400D03*
X71945500Y-42926000D03*
G04 #@! TO.N,GND*
X60706000Y-40005000D03*
G04 #@! TO.N,/I2C_SDA*
X58623200Y-46482000D03*
X71691500Y-52768500D03*
G04 #@! TO.N,/I2C_SCL*
X58775600Y-48056800D03*
X67246500Y-52768500D03*
G04 #@! TO.N,/~Touch_Reset*
X61214000Y-40386000D03*
X61277500Y-36131500D03*
G04 #@! TO.N,/~Touch_IRQ*
X59740800Y-47244000D03*
X72326500Y-52768500D03*
G04 #@! TO.N,/cap3*
X85344000Y-47752000D03*
G04 #@! TO.N,/cap7*
X79858000Y-59220000D03*
G04 #@! TO.N,/cap8*
X72834500Y-59182000D03*
G04 #@! TO.N,/cap9*
X65858000Y-59220000D03*
G04 #@! TO.N,/cap10*
X58864500Y-59245500D03*
G04 #@! TO.N,/cap0*
X64262000Y-38100000D03*
G04 #@! TO.N,/cap5*
X68897500Y-45085000D03*
G04 #@! TO.N,/cap2*
X84582000Y-40132000D03*
G04 #@! TO.N,/cap4*
X76454000Y-47752000D03*
G04 #@! TO.N,/cap1*
X76454000Y-38862000D03*
G04 #@! TO.N,/cap6*
X86868000Y-59182000D03*
G04 #@! TO.N,/cap11*
X51879500Y-59182000D03*
G04 #@! TD*
D11*
G04 #@! TO.N,/VCC*
X59563000Y-39954200D02*
X59563000Y-38608000D01*
X61518800Y-41910000D02*
X59563000Y-39954200D01*
X70866000Y-41910000D02*
X61518800Y-41910000D01*
X61518800Y-41910000D02*
X57861200Y-45567600D01*
X57861200Y-45567600D02*
X57861200Y-48310800D01*
X57861200Y-48310800D02*
X57962800Y-48412400D01*
X71882000Y-42926000D02*
X70866000Y-41910000D01*
X71945500Y-42926000D02*
X71882000Y-42926000D01*
G04 #@! TO.N,/I2C_SDA*
X59537600Y-48056800D02*
X63614300Y-48056800D01*
X58623200Y-46482000D02*
X58623200Y-47142400D01*
X58623200Y-47142400D02*
X59537600Y-48056800D01*
X68326000Y-52768500D02*
X63614300Y-48056800D01*
X71691500Y-52768500D02*
X68326000Y-52768500D01*
G04 #@! TO.N,/I2C_SCL*
X63487300Y-52768500D02*
X58775600Y-48056800D01*
X67246500Y-52768500D02*
X63487300Y-52768500D01*
G04 #@! TO.N,/~Touch_Reset*
X61214000Y-36195000D02*
X61277500Y-36131500D01*
X61214000Y-36195000D02*
X61214000Y-40386000D01*
G04 #@! TO.N,/~Touch_IRQ*
X60238598Y-47741798D02*
X59740800Y-47244000D01*
X63754000Y-47752000D02*
X63754000Y-47741798D01*
X63744778Y-47742778D02*
X63754000Y-47752000D01*
X63744778Y-47741798D02*
X63744778Y-47742778D01*
X68263480Y-52260500D02*
X63744778Y-47741798D01*
X71882000Y-52260500D02*
X68263480Y-52260500D01*
X72326500Y-52705000D02*
X71882000Y-52260500D01*
X72326500Y-52768500D02*
X72326500Y-52705000D01*
X63754000Y-47741798D02*
X60238598Y-47741798D01*
G04 #@! TD*
M02*
