G04 #@! TF.GenerationSoftware,KiCad,Pcbnew,5.0.0*
G04 #@! TF.CreationDate,2019-08-09T00:55:27-06:00*
G04 #@! TF.ProjectId,SX8634-Breakout,5358383633342D427265616B6F75742E,1*
G04 #@! TF.SameCoordinates,Original*
G04 #@! TF.FileFunction,Copper,L4,Bot,Signal*
G04 #@! TF.FilePolarity,Positive*
%FSLAX46Y46*%
G04 Gerber Fmt 4.6, Leading zero omitted, Abs format (unit mm)*
G04 Created by KiCad (PCBNEW 5.0.0) date Fri Aug  9 00:55:27 2019*
%MOMM*%
%LPD*%
G01*
G04 APERTURE LIST*
G04 #@! TA.AperFunction,Conductor*
%ADD10C,0.100000*%
G04 #@! TD*
G04 #@! TA.AperFunction,SMDPad,CuDef*
%ADD11C,0.875000*%
G04 #@! TD*
G04 #@! TA.AperFunction,SMDPad,CuDef*
%ADD12C,0.975000*%
G04 #@! TD*
G04 #@! TA.AperFunction,SMDPad,CuDef*
%ADD13R,0.250000X0.600000*%
G04 #@! TD*
G04 #@! TA.AperFunction,SMDPad,CuDef*
%ADD14C,3.650000*%
G04 #@! TD*
G04 #@! TA.AperFunction,SMDPad,CuDef*
%ADD15C,0.250000*%
G04 #@! TD*
G04 #@! TA.AperFunction,SMDPad,CuDef*
%ADD16R,2.510000X1.000000*%
G04 #@! TD*
G04 #@! TA.AperFunction,ViaPad*
%ADD17C,0.354000*%
G04 #@! TD*
G04 #@! TA.AperFunction,Conductor*
%ADD18C,0.160000*%
G04 #@! TD*
G04 #@! TA.AperFunction,Conductor*
%ADD19C,0.200000*%
G04 #@! TD*
%ADD20C,0.200000*%
G04 APERTURE END LIST*
D10*
G04 #@! TO.N,Net-(C1-Pad1)*
G04 #@! TO.C,C1*
G36*
X61428691Y-47405053D02*
X61449926Y-47408203D01*
X61470750Y-47413419D01*
X61490962Y-47420651D01*
X61510368Y-47429830D01*
X61528781Y-47440866D01*
X61546024Y-47453654D01*
X61561930Y-47468070D01*
X61576346Y-47483976D01*
X61589134Y-47501219D01*
X61600170Y-47519632D01*
X61609349Y-47539038D01*
X61616581Y-47559250D01*
X61621797Y-47580074D01*
X61624947Y-47601309D01*
X61626000Y-47622750D01*
X61626000Y-48135250D01*
X61624947Y-48156691D01*
X61621797Y-48177926D01*
X61616581Y-48198750D01*
X61609349Y-48218962D01*
X61600170Y-48238368D01*
X61589134Y-48256781D01*
X61576346Y-48274024D01*
X61561930Y-48289930D01*
X61546024Y-48304346D01*
X61528781Y-48317134D01*
X61510368Y-48328170D01*
X61490962Y-48337349D01*
X61470750Y-48344581D01*
X61449926Y-48349797D01*
X61428691Y-48352947D01*
X61407250Y-48354000D01*
X60969750Y-48354000D01*
X60948309Y-48352947D01*
X60927074Y-48349797D01*
X60906250Y-48344581D01*
X60886038Y-48337349D01*
X60866632Y-48328170D01*
X60848219Y-48317134D01*
X60830976Y-48304346D01*
X60815070Y-48289930D01*
X60800654Y-48274024D01*
X60787866Y-48256781D01*
X60776830Y-48238368D01*
X60767651Y-48218962D01*
X60760419Y-48198750D01*
X60755203Y-48177926D01*
X60752053Y-48156691D01*
X60751000Y-48135250D01*
X60751000Y-47622750D01*
X60752053Y-47601309D01*
X60755203Y-47580074D01*
X60760419Y-47559250D01*
X60767651Y-47539038D01*
X60776830Y-47519632D01*
X60787866Y-47501219D01*
X60800654Y-47483976D01*
X60815070Y-47468070D01*
X60830976Y-47453654D01*
X60848219Y-47440866D01*
X60866632Y-47429830D01*
X60886038Y-47420651D01*
X60906250Y-47413419D01*
X60927074Y-47408203D01*
X60948309Y-47405053D01*
X60969750Y-47404000D01*
X61407250Y-47404000D01*
X61428691Y-47405053D01*
X61428691Y-47405053D01*
G37*
D11*
G04 #@! TD*
G04 #@! TO.P,C1,1*
G04 #@! TO.N,Net-(C1-Pad1)*
X61188500Y-47879000D03*
D10*
G04 #@! TO.N,Net-(C1-Pad2)*
G04 #@! TO.C,C1*
G36*
X63003691Y-47405053D02*
X63024926Y-47408203D01*
X63045750Y-47413419D01*
X63065962Y-47420651D01*
X63085368Y-47429830D01*
X63103781Y-47440866D01*
X63121024Y-47453654D01*
X63136930Y-47468070D01*
X63151346Y-47483976D01*
X63164134Y-47501219D01*
X63175170Y-47519632D01*
X63184349Y-47539038D01*
X63191581Y-47559250D01*
X63196797Y-47580074D01*
X63199947Y-47601309D01*
X63201000Y-47622750D01*
X63201000Y-48135250D01*
X63199947Y-48156691D01*
X63196797Y-48177926D01*
X63191581Y-48198750D01*
X63184349Y-48218962D01*
X63175170Y-48238368D01*
X63164134Y-48256781D01*
X63151346Y-48274024D01*
X63136930Y-48289930D01*
X63121024Y-48304346D01*
X63103781Y-48317134D01*
X63085368Y-48328170D01*
X63065962Y-48337349D01*
X63045750Y-48344581D01*
X63024926Y-48349797D01*
X63003691Y-48352947D01*
X62982250Y-48354000D01*
X62544750Y-48354000D01*
X62523309Y-48352947D01*
X62502074Y-48349797D01*
X62481250Y-48344581D01*
X62461038Y-48337349D01*
X62441632Y-48328170D01*
X62423219Y-48317134D01*
X62405976Y-48304346D01*
X62390070Y-48289930D01*
X62375654Y-48274024D01*
X62362866Y-48256781D01*
X62351830Y-48238368D01*
X62342651Y-48218962D01*
X62335419Y-48198750D01*
X62330203Y-48177926D01*
X62327053Y-48156691D01*
X62326000Y-48135250D01*
X62326000Y-47622750D01*
X62327053Y-47601309D01*
X62330203Y-47580074D01*
X62335419Y-47559250D01*
X62342651Y-47539038D01*
X62351830Y-47519632D01*
X62362866Y-47501219D01*
X62375654Y-47483976D01*
X62390070Y-47468070D01*
X62405976Y-47453654D01*
X62423219Y-47440866D01*
X62441632Y-47429830D01*
X62461038Y-47420651D01*
X62481250Y-47413419D01*
X62502074Y-47408203D01*
X62523309Y-47405053D01*
X62544750Y-47404000D01*
X62982250Y-47404000D01*
X63003691Y-47405053D01*
X63003691Y-47405053D01*
G37*
D11*
G04 #@! TD*
G04 #@! TO.P,C1,2*
G04 #@! TO.N,Net-(C1-Pad2)*
X62763500Y-47879000D03*
D10*
G04 #@! TO.N,/VCC*
G04 #@! TO.C,C2*
G36*
X58900142Y-48868174D02*
X58923803Y-48871684D01*
X58947007Y-48877496D01*
X58969529Y-48885554D01*
X58991153Y-48895782D01*
X59011670Y-48908079D01*
X59030883Y-48922329D01*
X59048607Y-48938393D01*
X59064671Y-48956117D01*
X59078921Y-48975330D01*
X59091218Y-48995847D01*
X59101446Y-49017471D01*
X59109504Y-49039993D01*
X59115316Y-49063197D01*
X59118826Y-49086858D01*
X59120000Y-49110750D01*
X59120000Y-49598250D01*
X59118826Y-49622142D01*
X59115316Y-49645803D01*
X59109504Y-49669007D01*
X59101446Y-49691529D01*
X59091218Y-49713153D01*
X59078921Y-49733670D01*
X59064671Y-49752883D01*
X59048607Y-49770607D01*
X59030883Y-49786671D01*
X59011670Y-49800921D01*
X58991153Y-49813218D01*
X58969529Y-49823446D01*
X58947007Y-49831504D01*
X58923803Y-49837316D01*
X58900142Y-49840826D01*
X58876250Y-49842000D01*
X57963750Y-49842000D01*
X57939858Y-49840826D01*
X57916197Y-49837316D01*
X57892993Y-49831504D01*
X57870471Y-49823446D01*
X57848847Y-49813218D01*
X57828330Y-49800921D01*
X57809117Y-49786671D01*
X57791393Y-49770607D01*
X57775329Y-49752883D01*
X57761079Y-49733670D01*
X57748782Y-49713153D01*
X57738554Y-49691529D01*
X57730496Y-49669007D01*
X57724684Y-49645803D01*
X57721174Y-49622142D01*
X57720000Y-49598250D01*
X57720000Y-49110750D01*
X57721174Y-49086858D01*
X57724684Y-49063197D01*
X57730496Y-49039993D01*
X57738554Y-49017471D01*
X57748782Y-48995847D01*
X57761079Y-48975330D01*
X57775329Y-48956117D01*
X57791393Y-48938393D01*
X57809117Y-48922329D01*
X57828330Y-48908079D01*
X57848847Y-48895782D01*
X57870471Y-48885554D01*
X57892993Y-48877496D01*
X57916197Y-48871684D01*
X57939858Y-48868174D01*
X57963750Y-48867000D01*
X58876250Y-48867000D01*
X58900142Y-48868174D01*
X58900142Y-48868174D01*
G37*
D12*
G04 #@! TD*
G04 #@! TO.P,C2,1*
G04 #@! TO.N,/VCC*
X58420000Y-49354500D03*
D10*
G04 #@! TO.N,GND*
G04 #@! TO.C,C2*
G36*
X58900142Y-50743174D02*
X58923803Y-50746684D01*
X58947007Y-50752496D01*
X58969529Y-50760554D01*
X58991153Y-50770782D01*
X59011670Y-50783079D01*
X59030883Y-50797329D01*
X59048607Y-50813393D01*
X59064671Y-50831117D01*
X59078921Y-50850330D01*
X59091218Y-50870847D01*
X59101446Y-50892471D01*
X59109504Y-50914993D01*
X59115316Y-50938197D01*
X59118826Y-50961858D01*
X59120000Y-50985750D01*
X59120000Y-51473250D01*
X59118826Y-51497142D01*
X59115316Y-51520803D01*
X59109504Y-51544007D01*
X59101446Y-51566529D01*
X59091218Y-51588153D01*
X59078921Y-51608670D01*
X59064671Y-51627883D01*
X59048607Y-51645607D01*
X59030883Y-51661671D01*
X59011670Y-51675921D01*
X58991153Y-51688218D01*
X58969529Y-51698446D01*
X58947007Y-51706504D01*
X58923803Y-51712316D01*
X58900142Y-51715826D01*
X58876250Y-51717000D01*
X57963750Y-51717000D01*
X57939858Y-51715826D01*
X57916197Y-51712316D01*
X57892993Y-51706504D01*
X57870471Y-51698446D01*
X57848847Y-51688218D01*
X57828330Y-51675921D01*
X57809117Y-51661671D01*
X57791393Y-51645607D01*
X57775329Y-51627883D01*
X57761079Y-51608670D01*
X57748782Y-51588153D01*
X57738554Y-51566529D01*
X57730496Y-51544007D01*
X57724684Y-51520803D01*
X57721174Y-51497142D01*
X57720000Y-51473250D01*
X57720000Y-50985750D01*
X57721174Y-50961858D01*
X57724684Y-50938197D01*
X57730496Y-50914993D01*
X57738554Y-50892471D01*
X57748782Y-50870847D01*
X57761079Y-50850330D01*
X57775329Y-50831117D01*
X57791393Y-50813393D01*
X57809117Y-50797329D01*
X57828330Y-50783079D01*
X57848847Y-50770782D01*
X57870471Y-50760554D01*
X57892993Y-50752496D01*
X57916197Y-50746684D01*
X57939858Y-50743174D01*
X57963750Y-50742000D01*
X58876250Y-50742000D01*
X58900142Y-50743174D01*
X58900142Y-50743174D01*
G37*
D12*
G04 #@! TD*
G04 #@! TO.P,C2,2*
G04 #@! TO.N,GND*
X58420000Y-51229500D03*
D13*
G04 #@! TO.P,CARY1,8*
G04 #@! TO.N,GND*
X60210000Y-38033000D03*
G04 #@! TO.P,CARY1,7*
G04 #@! TO.N,Net-(CARY1-Pad7)*
X60210000Y-39183000D03*
G04 #@! TO.P,CARY1,6*
G04 #@! TO.N,GND*
X60710000Y-38033000D03*
G04 #@! TO.P,CARY1,5*
G04 #@! TO.N,/VCC*
X60710000Y-39183000D03*
G04 #@! TO.P,CARY1,4*
G04 #@! TO.N,GND*
X61210000Y-38033000D03*
G04 #@! TO.P,CARY1,3*
G04 #@! TO.N,/VCC*
X61210000Y-39183000D03*
G04 #@! TO.P,CARY1,2*
G04 #@! TO.N,GND*
X61710000Y-38033000D03*
G04 #@! TO.P,CARY1,1*
G04 #@! TO.N,Net-(CARY1-Pad1)*
X61710000Y-39183000D03*
G04 #@! TD*
D10*
G04 #@! TO.N,GND*
G04 #@! TO.C,U1*
G36*
X62559505Y-41864204D02*
X62583773Y-41867804D01*
X62607572Y-41873765D01*
X62630671Y-41882030D01*
X62652850Y-41892520D01*
X62673893Y-41905132D01*
X62693599Y-41919747D01*
X62711777Y-41936223D01*
X62728253Y-41954401D01*
X62742868Y-41974107D01*
X62755480Y-41995150D01*
X62765970Y-42017329D01*
X62774235Y-42040428D01*
X62780196Y-42064227D01*
X62783796Y-42088495D01*
X62785000Y-42112999D01*
X62785000Y-45263001D01*
X62783796Y-45287505D01*
X62780196Y-45311773D01*
X62774235Y-45335572D01*
X62765970Y-45358671D01*
X62755480Y-45380850D01*
X62742868Y-45401893D01*
X62728253Y-45421599D01*
X62711777Y-45439777D01*
X62693599Y-45456253D01*
X62673893Y-45470868D01*
X62652850Y-45483480D01*
X62630671Y-45493970D01*
X62607572Y-45502235D01*
X62583773Y-45508196D01*
X62559505Y-45511796D01*
X62535001Y-45513000D01*
X59384999Y-45513000D01*
X59360495Y-45511796D01*
X59336227Y-45508196D01*
X59312428Y-45502235D01*
X59289329Y-45493970D01*
X59267150Y-45483480D01*
X59246107Y-45470868D01*
X59226401Y-45456253D01*
X59208223Y-45439777D01*
X59191747Y-45421599D01*
X59177132Y-45401893D01*
X59164520Y-45380850D01*
X59154030Y-45358671D01*
X59145765Y-45335572D01*
X59139804Y-45311773D01*
X59136204Y-45287505D01*
X59135000Y-45263001D01*
X59135000Y-42112999D01*
X59136204Y-42088495D01*
X59139804Y-42064227D01*
X59145765Y-42040428D01*
X59154030Y-42017329D01*
X59164520Y-41995150D01*
X59177132Y-41974107D01*
X59191747Y-41954401D01*
X59208223Y-41936223D01*
X59226401Y-41919747D01*
X59246107Y-41905132D01*
X59267150Y-41892520D01*
X59289329Y-41882030D01*
X59312428Y-41873765D01*
X59336227Y-41867804D01*
X59360495Y-41864204D01*
X59384999Y-41863000D01*
X62535001Y-41863000D01*
X62559505Y-41864204D01*
X62559505Y-41864204D01*
G37*
D14*
G04 #@! TD*
G04 #@! TO.P,U1,33*
G04 #@! TO.N,GND*
X60960000Y-43688000D03*
D10*
G04 #@! TO.N,/cap2*
G04 #@! TO.C,U1*
G36*
X63753626Y-41813301D02*
X63759693Y-41814201D01*
X63765643Y-41815691D01*
X63771418Y-41817758D01*
X63776962Y-41820380D01*
X63782223Y-41823533D01*
X63787150Y-41827187D01*
X63791694Y-41831306D01*
X63795813Y-41835850D01*
X63799467Y-41840777D01*
X63802620Y-41846038D01*
X63805242Y-41851582D01*
X63807309Y-41857357D01*
X63808799Y-41863307D01*
X63809699Y-41869374D01*
X63810000Y-41875500D01*
X63810000Y-42000500D01*
X63809699Y-42006626D01*
X63808799Y-42012693D01*
X63807309Y-42018643D01*
X63805242Y-42024418D01*
X63802620Y-42029962D01*
X63799467Y-42035223D01*
X63795813Y-42040150D01*
X63791694Y-42044694D01*
X63787150Y-42048813D01*
X63782223Y-42052467D01*
X63776962Y-42055620D01*
X63771418Y-42058242D01*
X63765643Y-42060309D01*
X63759693Y-42061799D01*
X63753626Y-42062699D01*
X63747500Y-42063000D01*
X63122500Y-42063000D01*
X63116374Y-42062699D01*
X63110307Y-42061799D01*
X63104357Y-42060309D01*
X63098582Y-42058242D01*
X63093038Y-42055620D01*
X63087777Y-42052467D01*
X63082850Y-42048813D01*
X63078306Y-42044694D01*
X63074187Y-42040150D01*
X63070533Y-42035223D01*
X63067380Y-42029962D01*
X63064758Y-42024418D01*
X63062691Y-42018643D01*
X63061201Y-42012693D01*
X63060301Y-42006626D01*
X63060000Y-42000500D01*
X63060000Y-41875500D01*
X63060301Y-41869374D01*
X63061201Y-41863307D01*
X63062691Y-41857357D01*
X63064758Y-41851582D01*
X63067380Y-41846038D01*
X63070533Y-41840777D01*
X63074187Y-41835850D01*
X63078306Y-41831306D01*
X63082850Y-41827187D01*
X63087777Y-41823533D01*
X63093038Y-41820380D01*
X63098582Y-41817758D01*
X63104357Y-41815691D01*
X63110307Y-41814201D01*
X63116374Y-41813301D01*
X63122500Y-41813000D01*
X63747500Y-41813000D01*
X63753626Y-41813301D01*
X63753626Y-41813301D01*
G37*
D15*
G04 #@! TD*
G04 #@! TO.P,U1,1*
G04 #@! TO.N,/cap2*
X63435000Y-41938000D03*
D10*
G04 #@! TO.N,/cap3*
G04 #@! TO.C,U1*
G36*
X63753626Y-42313301D02*
X63759693Y-42314201D01*
X63765643Y-42315691D01*
X63771418Y-42317758D01*
X63776962Y-42320380D01*
X63782223Y-42323533D01*
X63787150Y-42327187D01*
X63791694Y-42331306D01*
X63795813Y-42335850D01*
X63799467Y-42340777D01*
X63802620Y-42346038D01*
X63805242Y-42351582D01*
X63807309Y-42357357D01*
X63808799Y-42363307D01*
X63809699Y-42369374D01*
X63810000Y-42375500D01*
X63810000Y-42500500D01*
X63809699Y-42506626D01*
X63808799Y-42512693D01*
X63807309Y-42518643D01*
X63805242Y-42524418D01*
X63802620Y-42529962D01*
X63799467Y-42535223D01*
X63795813Y-42540150D01*
X63791694Y-42544694D01*
X63787150Y-42548813D01*
X63782223Y-42552467D01*
X63776962Y-42555620D01*
X63771418Y-42558242D01*
X63765643Y-42560309D01*
X63759693Y-42561799D01*
X63753626Y-42562699D01*
X63747500Y-42563000D01*
X63122500Y-42563000D01*
X63116374Y-42562699D01*
X63110307Y-42561799D01*
X63104357Y-42560309D01*
X63098582Y-42558242D01*
X63093038Y-42555620D01*
X63087777Y-42552467D01*
X63082850Y-42548813D01*
X63078306Y-42544694D01*
X63074187Y-42540150D01*
X63070533Y-42535223D01*
X63067380Y-42529962D01*
X63064758Y-42524418D01*
X63062691Y-42518643D01*
X63061201Y-42512693D01*
X63060301Y-42506626D01*
X63060000Y-42500500D01*
X63060000Y-42375500D01*
X63060301Y-42369374D01*
X63061201Y-42363307D01*
X63062691Y-42357357D01*
X63064758Y-42351582D01*
X63067380Y-42346038D01*
X63070533Y-42340777D01*
X63074187Y-42335850D01*
X63078306Y-42331306D01*
X63082850Y-42327187D01*
X63087777Y-42323533D01*
X63093038Y-42320380D01*
X63098582Y-42317758D01*
X63104357Y-42315691D01*
X63110307Y-42314201D01*
X63116374Y-42313301D01*
X63122500Y-42313000D01*
X63747500Y-42313000D01*
X63753626Y-42313301D01*
X63753626Y-42313301D01*
G37*
D15*
G04 #@! TD*
G04 #@! TO.P,U1,2*
G04 #@! TO.N,/cap3*
X63435000Y-42438000D03*
D10*
G04 #@! TO.N,/cap4*
G04 #@! TO.C,U1*
G36*
X63753626Y-42813301D02*
X63759693Y-42814201D01*
X63765643Y-42815691D01*
X63771418Y-42817758D01*
X63776962Y-42820380D01*
X63782223Y-42823533D01*
X63787150Y-42827187D01*
X63791694Y-42831306D01*
X63795813Y-42835850D01*
X63799467Y-42840777D01*
X63802620Y-42846038D01*
X63805242Y-42851582D01*
X63807309Y-42857357D01*
X63808799Y-42863307D01*
X63809699Y-42869374D01*
X63810000Y-42875500D01*
X63810000Y-43000500D01*
X63809699Y-43006626D01*
X63808799Y-43012693D01*
X63807309Y-43018643D01*
X63805242Y-43024418D01*
X63802620Y-43029962D01*
X63799467Y-43035223D01*
X63795813Y-43040150D01*
X63791694Y-43044694D01*
X63787150Y-43048813D01*
X63782223Y-43052467D01*
X63776962Y-43055620D01*
X63771418Y-43058242D01*
X63765643Y-43060309D01*
X63759693Y-43061799D01*
X63753626Y-43062699D01*
X63747500Y-43063000D01*
X63122500Y-43063000D01*
X63116374Y-43062699D01*
X63110307Y-43061799D01*
X63104357Y-43060309D01*
X63098582Y-43058242D01*
X63093038Y-43055620D01*
X63087777Y-43052467D01*
X63082850Y-43048813D01*
X63078306Y-43044694D01*
X63074187Y-43040150D01*
X63070533Y-43035223D01*
X63067380Y-43029962D01*
X63064758Y-43024418D01*
X63062691Y-43018643D01*
X63061201Y-43012693D01*
X63060301Y-43006626D01*
X63060000Y-43000500D01*
X63060000Y-42875500D01*
X63060301Y-42869374D01*
X63061201Y-42863307D01*
X63062691Y-42857357D01*
X63064758Y-42851582D01*
X63067380Y-42846038D01*
X63070533Y-42840777D01*
X63074187Y-42835850D01*
X63078306Y-42831306D01*
X63082850Y-42827187D01*
X63087777Y-42823533D01*
X63093038Y-42820380D01*
X63098582Y-42817758D01*
X63104357Y-42815691D01*
X63110307Y-42814201D01*
X63116374Y-42813301D01*
X63122500Y-42813000D01*
X63747500Y-42813000D01*
X63753626Y-42813301D01*
X63753626Y-42813301D01*
G37*
D15*
G04 #@! TD*
G04 #@! TO.P,U1,3*
G04 #@! TO.N,/cap4*
X63435000Y-42938000D03*
D10*
G04 #@! TO.N,/cap5*
G04 #@! TO.C,U1*
G36*
X63753626Y-43313301D02*
X63759693Y-43314201D01*
X63765643Y-43315691D01*
X63771418Y-43317758D01*
X63776962Y-43320380D01*
X63782223Y-43323533D01*
X63787150Y-43327187D01*
X63791694Y-43331306D01*
X63795813Y-43335850D01*
X63799467Y-43340777D01*
X63802620Y-43346038D01*
X63805242Y-43351582D01*
X63807309Y-43357357D01*
X63808799Y-43363307D01*
X63809699Y-43369374D01*
X63810000Y-43375500D01*
X63810000Y-43500500D01*
X63809699Y-43506626D01*
X63808799Y-43512693D01*
X63807309Y-43518643D01*
X63805242Y-43524418D01*
X63802620Y-43529962D01*
X63799467Y-43535223D01*
X63795813Y-43540150D01*
X63791694Y-43544694D01*
X63787150Y-43548813D01*
X63782223Y-43552467D01*
X63776962Y-43555620D01*
X63771418Y-43558242D01*
X63765643Y-43560309D01*
X63759693Y-43561799D01*
X63753626Y-43562699D01*
X63747500Y-43563000D01*
X63122500Y-43563000D01*
X63116374Y-43562699D01*
X63110307Y-43561799D01*
X63104357Y-43560309D01*
X63098582Y-43558242D01*
X63093038Y-43555620D01*
X63087777Y-43552467D01*
X63082850Y-43548813D01*
X63078306Y-43544694D01*
X63074187Y-43540150D01*
X63070533Y-43535223D01*
X63067380Y-43529962D01*
X63064758Y-43524418D01*
X63062691Y-43518643D01*
X63061201Y-43512693D01*
X63060301Y-43506626D01*
X63060000Y-43500500D01*
X63060000Y-43375500D01*
X63060301Y-43369374D01*
X63061201Y-43363307D01*
X63062691Y-43357357D01*
X63064758Y-43351582D01*
X63067380Y-43346038D01*
X63070533Y-43340777D01*
X63074187Y-43335850D01*
X63078306Y-43331306D01*
X63082850Y-43327187D01*
X63087777Y-43323533D01*
X63093038Y-43320380D01*
X63098582Y-43317758D01*
X63104357Y-43315691D01*
X63110307Y-43314201D01*
X63116374Y-43313301D01*
X63122500Y-43313000D01*
X63747500Y-43313000D01*
X63753626Y-43313301D01*
X63753626Y-43313301D01*
G37*
D15*
G04 #@! TD*
G04 #@! TO.P,U1,4*
G04 #@! TO.N,/cap5*
X63435000Y-43438000D03*
D10*
G04 #@! TO.N,/cap6*
G04 #@! TO.C,U1*
G36*
X63753626Y-43813301D02*
X63759693Y-43814201D01*
X63765643Y-43815691D01*
X63771418Y-43817758D01*
X63776962Y-43820380D01*
X63782223Y-43823533D01*
X63787150Y-43827187D01*
X63791694Y-43831306D01*
X63795813Y-43835850D01*
X63799467Y-43840777D01*
X63802620Y-43846038D01*
X63805242Y-43851582D01*
X63807309Y-43857357D01*
X63808799Y-43863307D01*
X63809699Y-43869374D01*
X63810000Y-43875500D01*
X63810000Y-44000500D01*
X63809699Y-44006626D01*
X63808799Y-44012693D01*
X63807309Y-44018643D01*
X63805242Y-44024418D01*
X63802620Y-44029962D01*
X63799467Y-44035223D01*
X63795813Y-44040150D01*
X63791694Y-44044694D01*
X63787150Y-44048813D01*
X63782223Y-44052467D01*
X63776962Y-44055620D01*
X63771418Y-44058242D01*
X63765643Y-44060309D01*
X63759693Y-44061799D01*
X63753626Y-44062699D01*
X63747500Y-44063000D01*
X63122500Y-44063000D01*
X63116374Y-44062699D01*
X63110307Y-44061799D01*
X63104357Y-44060309D01*
X63098582Y-44058242D01*
X63093038Y-44055620D01*
X63087777Y-44052467D01*
X63082850Y-44048813D01*
X63078306Y-44044694D01*
X63074187Y-44040150D01*
X63070533Y-44035223D01*
X63067380Y-44029962D01*
X63064758Y-44024418D01*
X63062691Y-44018643D01*
X63061201Y-44012693D01*
X63060301Y-44006626D01*
X63060000Y-44000500D01*
X63060000Y-43875500D01*
X63060301Y-43869374D01*
X63061201Y-43863307D01*
X63062691Y-43857357D01*
X63064758Y-43851582D01*
X63067380Y-43846038D01*
X63070533Y-43840777D01*
X63074187Y-43835850D01*
X63078306Y-43831306D01*
X63082850Y-43827187D01*
X63087777Y-43823533D01*
X63093038Y-43820380D01*
X63098582Y-43817758D01*
X63104357Y-43815691D01*
X63110307Y-43814201D01*
X63116374Y-43813301D01*
X63122500Y-43813000D01*
X63747500Y-43813000D01*
X63753626Y-43813301D01*
X63753626Y-43813301D01*
G37*
D15*
G04 #@! TD*
G04 #@! TO.P,U1,5*
G04 #@! TO.N,/cap6*
X63435000Y-43938000D03*
D10*
G04 #@! TO.N,/cap7*
G04 #@! TO.C,U1*
G36*
X63753626Y-44313301D02*
X63759693Y-44314201D01*
X63765643Y-44315691D01*
X63771418Y-44317758D01*
X63776962Y-44320380D01*
X63782223Y-44323533D01*
X63787150Y-44327187D01*
X63791694Y-44331306D01*
X63795813Y-44335850D01*
X63799467Y-44340777D01*
X63802620Y-44346038D01*
X63805242Y-44351582D01*
X63807309Y-44357357D01*
X63808799Y-44363307D01*
X63809699Y-44369374D01*
X63810000Y-44375500D01*
X63810000Y-44500500D01*
X63809699Y-44506626D01*
X63808799Y-44512693D01*
X63807309Y-44518643D01*
X63805242Y-44524418D01*
X63802620Y-44529962D01*
X63799467Y-44535223D01*
X63795813Y-44540150D01*
X63791694Y-44544694D01*
X63787150Y-44548813D01*
X63782223Y-44552467D01*
X63776962Y-44555620D01*
X63771418Y-44558242D01*
X63765643Y-44560309D01*
X63759693Y-44561799D01*
X63753626Y-44562699D01*
X63747500Y-44563000D01*
X63122500Y-44563000D01*
X63116374Y-44562699D01*
X63110307Y-44561799D01*
X63104357Y-44560309D01*
X63098582Y-44558242D01*
X63093038Y-44555620D01*
X63087777Y-44552467D01*
X63082850Y-44548813D01*
X63078306Y-44544694D01*
X63074187Y-44540150D01*
X63070533Y-44535223D01*
X63067380Y-44529962D01*
X63064758Y-44524418D01*
X63062691Y-44518643D01*
X63061201Y-44512693D01*
X63060301Y-44506626D01*
X63060000Y-44500500D01*
X63060000Y-44375500D01*
X63060301Y-44369374D01*
X63061201Y-44363307D01*
X63062691Y-44357357D01*
X63064758Y-44351582D01*
X63067380Y-44346038D01*
X63070533Y-44340777D01*
X63074187Y-44335850D01*
X63078306Y-44331306D01*
X63082850Y-44327187D01*
X63087777Y-44323533D01*
X63093038Y-44320380D01*
X63098582Y-44317758D01*
X63104357Y-44315691D01*
X63110307Y-44314201D01*
X63116374Y-44313301D01*
X63122500Y-44313000D01*
X63747500Y-44313000D01*
X63753626Y-44313301D01*
X63753626Y-44313301D01*
G37*
D15*
G04 #@! TD*
G04 #@! TO.P,U1,6*
G04 #@! TO.N,/cap7*
X63435000Y-44438000D03*
D10*
G04 #@! TO.N,/cap8*
G04 #@! TO.C,U1*
G36*
X63753626Y-44813301D02*
X63759693Y-44814201D01*
X63765643Y-44815691D01*
X63771418Y-44817758D01*
X63776962Y-44820380D01*
X63782223Y-44823533D01*
X63787150Y-44827187D01*
X63791694Y-44831306D01*
X63795813Y-44835850D01*
X63799467Y-44840777D01*
X63802620Y-44846038D01*
X63805242Y-44851582D01*
X63807309Y-44857357D01*
X63808799Y-44863307D01*
X63809699Y-44869374D01*
X63810000Y-44875500D01*
X63810000Y-45000500D01*
X63809699Y-45006626D01*
X63808799Y-45012693D01*
X63807309Y-45018643D01*
X63805242Y-45024418D01*
X63802620Y-45029962D01*
X63799467Y-45035223D01*
X63795813Y-45040150D01*
X63791694Y-45044694D01*
X63787150Y-45048813D01*
X63782223Y-45052467D01*
X63776962Y-45055620D01*
X63771418Y-45058242D01*
X63765643Y-45060309D01*
X63759693Y-45061799D01*
X63753626Y-45062699D01*
X63747500Y-45063000D01*
X63122500Y-45063000D01*
X63116374Y-45062699D01*
X63110307Y-45061799D01*
X63104357Y-45060309D01*
X63098582Y-45058242D01*
X63093038Y-45055620D01*
X63087777Y-45052467D01*
X63082850Y-45048813D01*
X63078306Y-45044694D01*
X63074187Y-45040150D01*
X63070533Y-45035223D01*
X63067380Y-45029962D01*
X63064758Y-45024418D01*
X63062691Y-45018643D01*
X63061201Y-45012693D01*
X63060301Y-45006626D01*
X63060000Y-45000500D01*
X63060000Y-44875500D01*
X63060301Y-44869374D01*
X63061201Y-44863307D01*
X63062691Y-44857357D01*
X63064758Y-44851582D01*
X63067380Y-44846038D01*
X63070533Y-44840777D01*
X63074187Y-44835850D01*
X63078306Y-44831306D01*
X63082850Y-44827187D01*
X63087777Y-44823533D01*
X63093038Y-44820380D01*
X63098582Y-44817758D01*
X63104357Y-44815691D01*
X63110307Y-44814201D01*
X63116374Y-44813301D01*
X63122500Y-44813000D01*
X63747500Y-44813000D01*
X63753626Y-44813301D01*
X63753626Y-44813301D01*
G37*
D15*
G04 #@! TD*
G04 #@! TO.P,U1,7*
G04 #@! TO.N,/cap8*
X63435000Y-44938000D03*
D10*
G04 #@! TO.N,/cap9*
G04 #@! TO.C,U1*
G36*
X63753626Y-45313301D02*
X63759693Y-45314201D01*
X63765643Y-45315691D01*
X63771418Y-45317758D01*
X63776962Y-45320380D01*
X63782223Y-45323533D01*
X63787150Y-45327187D01*
X63791694Y-45331306D01*
X63795813Y-45335850D01*
X63799467Y-45340777D01*
X63802620Y-45346038D01*
X63805242Y-45351582D01*
X63807309Y-45357357D01*
X63808799Y-45363307D01*
X63809699Y-45369374D01*
X63810000Y-45375500D01*
X63810000Y-45500500D01*
X63809699Y-45506626D01*
X63808799Y-45512693D01*
X63807309Y-45518643D01*
X63805242Y-45524418D01*
X63802620Y-45529962D01*
X63799467Y-45535223D01*
X63795813Y-45540150D01*
X63791694Y-45544694D01*
X63787150Y-45548813D01*
X63782223Y-45552467D01*
X63776962Y-45555620D01*
X63771418Y-45558242D01*
X63765643Y-45560309D01*
X63759693Y-45561799D01*
X63753626Y-45562699D01*
X63747500Y-45563000D01*
X63122500Y-45563000D01*
X63116374Y-45562699D01*
X63110307Y-45561799D01*
X63104357Y-45560309D01*
X63098582Y-45558242D01*
X63093038Y-45555620D01*
X63087777Y-45552467D01*
X63082850Y-45548813D01*
X63078306Y-45544694D01*
X63074187Y-45540150D01*
X63070533Y-45535223D01*
X63067380Y-45529962D01*
X63064758Y-45524418D01*
X63062691Y-45518643D01*
X63061201Y-45512693D01*
X63060301Y-45506626D01*
X63060000Y-45500500D01*
X63060000Y-45375500D01*
X63060301Y-45369374D01*
X63061201Y-45363307D01*
X63062691Y-45357357D01*
X63064758Y-45351582D01*
X63067380Y-45346038D01*
X63070533Y-45340777D01*
X63074187Y-45335850D01*
X63078306Y-45331306D01*
X63082850Y-45327187D01*
X63087777Y-45323533D01*
X63093038Y-45320380D01*
X63098582Y-45317758D01*
X63104357Y-45315691D01*
X63110307Y-45314201D01*
X63116374Y-45313301D01*
X63122500Y-45313000D01*
X63747500Y-45313000D01*
X63753626Y-45313301D01*
X63753626Y-45313301D01*
G37*
D15*
G04 #@! TD*
G04 #@! TO.P,U1,8*
G04 #@! TO.N,/cap9*
X63435000Y-45438000D03*
D10*
G04 #@! TO.N,/cap10*
G04 #@! TO.C,U1*
G36*
X62778626Y-45788301D02*
X62784693Y-45789201D01*
X62790643Y-45790691D01*
X62796418Y-45792758D01*
X62801962Y-45795380D01*
X62807223Y-45798533D01*
X62812150Y-45802187D01*
X62816694Y-45806306D01*
X62820813Y-45810850D01*
X62824467Y-45815777D01*
X62827620Y-45821038D01*
X62830242Y-45826582D01*
X62832309Y-45832357D01*
X62833799Y-45838307D01*
X62834699Y-45844374D01*
X62835000Y-45850500D01*
X62835000Y-46475500D01*
X62834699Y-46481626D01*
X62833799Y-46487693D01*
X62832309Y-46493643D01*
X62830242Y-46499418D01*
X62827620Y-46504962D01*
X62824467Y-46510223D01*
X62820813Y-46515150D01*
X62816694Y-46519694D01*
X62812150Y-46523813D01*
X62807223Y-46527467D01*
X62801962Y-46530620D01*
X62796418Y-46533242D01*
X62790643Y-46535309D01*
X62784693Y-46536799D01*
X62778626Y-46537699D01*
X62772500Y-46538000D01*
X62647500Y-46538000D01*
X62641374Y-46537699D01*
X62635307Y-46536799D01*
X62629357Y-46535309D01*
X62623582Y-46533242D01*
X62618038Y-46530620D01*
X62612777Y-46527467D01*
X62607850Y-46523813D01*
X62603306Y-46519694D01*
X62599187Y-46515150D01*
X62595533Y-46510223D01*
X62592380Y-46504962D01*
X62589758Y-46499418D01*
X62587691Y-46493643D01*
X62586201Y-46487693D01*
X62585301Y-46481626D01*
X62585000Y-46475500D01*
X62585000Y-45850500D01*
X62585301Y-45844374D01*
X62586201Y-45838307D01*
X62587691Y-45832357D01*
X62589758Y-45826582D01*
X62592380Y-45821038D01*
X62595533Y-45815777D01*
X62599187Y-45810850D01*
X62603306Y-45806306D01*
X62607850Y-45802187D01*
X62612777Y-45798533D01*
X62618038Y-45795380D01*
X62623582Y-45792758D01*
X62629357Y-45790691D01*
X62635307Y-45789201D01*
X62641374Y-45788301D01*
X62647500Y-45788000D01*
X62772500Y-45788000D01*
X62778626Y-45788301D01*
X62778626Y-45788301D01*
G37*
D15*
G04 #@! TD*
G04 #@! TO.P,U1,9*
G04 #@! TO.N,/cap10*
X62710000Y-46163000D03*
D10*
G04 #@! TO.N,/cap11*
G04 #@! TO.C,U1*
G36*
X62278626Y-45788301D02*
X62284693Y-45789201D01*
X62290643Y-45790691D01*
X62296418Y-45792758D01*
X62301962Y-45795380D01*
X62307223Y-45798533D01*
X62312150Y-45802187D01*
X62316694Y-45806306D01*
X62320813Y-45810850D01*
X62324467Y-45815777D01*
X62327620Y-45821038D01*
X62330242Y-45826582D01*
X62332309Y-45832357D01*
X62333799Y-45838307D01*
X62334699Y-45844374D01*
X62335000Y-45850500D01*
X62335000Y-46475500D01*
X62334699Y-46481626D01*
X62333799Y-46487693D01*
X62332309Y-46493643D01*
X62330242Y-46499418D01*
X62327620Y-46504962D01*
X62324467Y-46510223D01*
X62320813Y-46515150D01*
X62316694Y-46519694D01*
X62312150Y-46523813D01*
X62307223Y-46527467D01*
X62301962Y-46530620D01*
X62296418Y-46533242D01*
X62290643Y-46535309D01*
X62284693Y-46536799D01*
X62278626Y-46537699D01*
X62272500Y-46538000D01*
X62147500Y-46538000D01*
X62141374Y-46537699D01*
X62135307Y-46536799D01*
X62129357Y-46535309D01*
X62123582Y-46533242D01*
X62118038Y-46530620D01*
X62112777Y-46527467D01*
X62107850Y-46523813D01*
X62103306Y-46519694D01*
X62099187Y-46515150D01*
X62095533Y-46510223D01*
X62092380Y-46504962D01*
X62089758Y-46499418D01*
X62087691Y-46493643D01*
X62086201Y-46487693D01*
X62085301Y-46481626D01*
X62085000Y-46475500D01*
X62085000Y-45850500D01*
X62085301Y-45844374D01*
X62086201Y-45838307D01*
X62087691Y-45832357D01*
X62089758Y-45826582D01*
X62092380Y-45821038D01*
X62095533Y-45815777D01*
X62099187Y-45810850D01*
X62103306Y-45806306D01*
X62107850Y-45802187D01*
X62112777Y-45798533D01*
X62118038Y-45795380D01*
X62123582Y-45792758D01*
X62129357Y-45790691D01*
X62135307Y-45789201D01*
X62141374Y-45788301D01*
X62147500Y-45788000D01*
X62272500Y-45788000D01*
X62278626Y-45788301D01*
X62278626Y-45788301D01*
G37*
D15*
G04 #@! TD*
G04 #@! TO.P,U1,10*
G04 #@! TO.N,/cap11*
X62210000Y-46163000D03*
D10*
G04 #@! TO.N,Net-(C1-Pad2)*
G04 #@! TO.C,U1*
G36*
X61778626Y-45788301D02*
X61784693Y-45789201D01*
X61790643Y-45790691D01*
X61796418Y-45792758D01*
X61801962Y-45795380D01*
X61807223Y-45798533D01*
X61812150Y-45802187D01*
X61816694Y-45806306D01*
X61820813Y-45810850D01*
X61824467Y-45815777D01*
X61827620Y-45821038D01*
X61830242Y-45826582D01*
X61832309Y-45832357D01*
X61833799Y-45838307D01*
X61834699Y-45844374D01*
X61835000Y-45850500D01*
X61835000Y-46475500D01*
X61834699Y-46481626D01*
X61833799Y-46487693D01*
X61832309Y-46493643D01*
X61830242Y-46499418D01*
X61827620Y-46504962D01*
X61824467Y-46510223D01*
X61820813Y-46515150D01*
X61816694Y-46519694D01*
X61812150Y-46523813D01*
X61807223Y-46527467D01*
X61801962Y-46530620D01*
X61796418Y-46533242D01*
X61790643Y-46535309D01*
X61784693Y-46536799D01*
X61778626Y-46537699D01*
X61772500Y-46538000D01*
X61647500Y-46538000D01*
X61641374Y-46537699D01*
X61635307Y-46536799D01*
X61629357Y-46535309D01*
X61623582Y-46533242D01*
X61618038Y-46530620D01*
X61612777Y-46527467D01*
X61607850Y-46523813D01*
X61603306Y-46519694D01*
X61599187Y-46515150D01*
X61595533Y-46510223D01*
X61592380Y-46504962D01*
X61589758Y-46499418D01*
X61587691Y-46493643D01*
X61586201Y-46487693D01*
X61585301Y-46481626D01*
X61585000Y-46475500D01*
X61585000Y-45850500D01*
X61585301Y-45844374D01*
X61586201Y-45838307D01*
X61587691Y-45832357D01*
X61589758Y-45826582D01*
X61592380Y-45821038D01*
X61595533Y-45815777D01*
X61599187Y-45810850D01*
X61603306Y-45806306D01*
X61607850Y-45802187D01*
X61612777Y-45798533D01*
X61618038Y-45795380D01*
X61623582Y-45792758D01*
X61629357Y-45790691D01*
X61635307Y-45789201D01*
X61641374Y-45788301D01*
X61647500Y-45788000D01*
X61772500Y-45788000D01*
X61778626Y-45788301D01*
X61778626Y-45788301D01*
G37*
D15*
G04 #@! TD*
G04 #@! TO.P,U1,11*
G04 #@! TO.N,Net-(C1-Pad2)*
X61710000Y-46163000D03*
D10*
G04 #@! TO.N,Net-(C1-Pad1)*
G04 #@! TO.C,U1*
G36*
X61278626Y-45788301D02*
X61284693Y-45789201D01*
X61290643Y-45790691D01*
X61296418Y-45792758D01*
X61301962Y-45795380D01*
X61307223Y-45798533D01*
X61312150Y-45802187D01*
X61316694Y-45806306D01*
X61320813Y-45810850D01*
X61324467Y-45815777D01*
X61327620Y-45821038D01*
X61330242Y-45826582D01*
X61332309Y-45832357D01*
X61333799Y-45838307D01*
X61334699Y-45844374D01*
X61335000Y-45850500D01*
X61335000Y-46475500D01*
X61334699Y-46481626D01*
X61333799Y-46487693D01*
X61332309Y-46493643D01*
X61330242Y-46499418D01*
X61327620Y-46504962D01*
X61324467Y-46510223D01*
X61320813Y-46515150D01*
X61316694Y-46519694D01*
X61312150Y-46523813D01*
X61307223Y-46527467D01*
X61301962Y-46530620D01*
X61296418Y-46533242D01*
X61290643Y-46535309D01*
X61284693Y-46536799D01*
X61278626Y-46537699D01*
X61272500Y-46538000D01*
X61147500Y-46538000D01*
X61141374Y-46537699D01*
X61135307Y-46536799D01*
X61129357Y-46535309D01*
X61123582Y-46533242D01*
X61118038Y-46530620D01*
X61112777Y-46527467D01*
X61107850Y-46523813D01*
X61103306Y-46519694D01*
X61099187Y-46515150D01*
X61095533Y-46510223D01*
X61092380Y-46504962D01*
X61089758Y-46499418D01*
X61087691Y-46493643D01*
X61086201Y-46487693D01*
X61085301Y-46481626D01*
X61085000Y-46475500D01*
X61085000Y-45850500D01*
X61085301Y-45844374D01*
X61086201Y-45838307D01*
X61087691Y-45832357D01*
X61089758Y-45826582D01*
X61092380Y-45821038D01*
X61095533Y-45815777D01*
X61099187Y-45810850D01*
X61103306Y-45806306D01*
X61107850Y-45802187D01*
X61112777Y-45798533D01*
X61118038Y-45795380D01*
X61123582Y-45792758D01*
X61129357Y-45790691D01*
X61135307Y-45789201D01*
X61141374Y-45788301D01*
X61147500Y-45788000D01*
X61272500Y-45788000D01*
X61278626Y-45788301D01*
X61278626Y-45788301D01*
G37*
D15*
G04 #@! TD*
G04 #@! TO.P,U1,12*
G04 #@! TO.N,Net-(C1-Pad1)*
X61210000Y-46163000D03*
D10*
G04 #@! TO.N,/VCC*
G04 #@! TO.C,U1*
G36*
X60778626Y-45788301D02*
X60784693Y-45789201D01*
X60790643Y-45790691D01*
X60796418Y-45792758D01*
X60801962Y-45795380D01*
X60807223Y-45798533D01*
X60812150Y-45802187D01*
X60816694Y-45806306D01*
X60820813Y-45810850D01*
X60824467Y-45815777D01*
X60827620Y-45821038D01*
X60830242Y-45826582D01*
X60832309Y-45832357D01*
X60833799Y-45838307D01*
X60834699Y-45844374D01*
X60835000Y-45850500D01*
X60835000Y-46475500D01*
X60834699Y-46481626D01*
X60833799Y-46487693D01*
X60832309Y-46493643D01*
X60830242Y-46499418D01*
X60827620Y-46504962D01*
X60824467Y-46510223D01*
X60820813Y-46515150D01*
X60816694Y-46519694D01*
X60812150Y-46523813D01*
X60807223Y-46527467D01*
X60801962Y-46530620D01*
X60796418Y-46533242D01*
X60790643Y-46535309D01*
X60784693Y-46536799D01*
X60778626Y-46537699D01*
X60772500Y-46538000D01*
X60647500Y-46538000D01*
X60641374Y-46537699D01*
X60635307Y-46536799D01*
X60629357Y-46535309D01*
X60623582Y-46533242D01*
X60618038Y-46530620D01*
X60612777Y-46527467D01*
X60607850Y-46523813D01*
X60603306Y-46519694D01*
X60599187Y-46515150D01*
X60595533Y-46510223D01*
X60592380Y-46504962D01*
X60589758Y-46499418D01*
X60587691Y-46493643D01*
X60586201Y-46487693D01*
X60585301Y-46481626D01*
X60585000Y-46475500D01*
X60585000Y-45850500D01*
X60585301Y-45844374D01*
X60586201Y-45838307D01*
X60587691Y-45832357D01*
X60589758Y-45826582D01*
X60592380Y-45821038D01*
X60595533Y-45815777D01*
X60599187Y-45810850D01*
X60603306Y-45806306D01*
X60607850Y-45802187D01*
X60612777Y-45798533D01*
X60618038Y-45795380D01*
X60623582Y-45792758D01*
X60629357Y-45790691D01*
X60635307Y-45789201D01*
X60641374Y-45788301D01*
X60647500Y-45788000D01*
X60772500Y-45788000D01*
X60778626Y-45788301D01*
X60778626Y-45788301D01*
G37*
D15*
G04 #@! TD*
G04 #@! TO.P,U1,13*
G04 #@! TO.N,/VCC*
X60710000Y-46163000D03*
D10*
G04 #@! TO.N,/~Touch_IRQ*
G04 #@! TO.C,U1*
G36*
X60278626Y-45788301D02*
X60284693Y-45789201D01*
X60290643Y-45790691D01*
X60296418Y-45792758D01*
X60301962Y-45795380D01*
X60307223Y-45798533D01*
X60312150Y-45802187D01*
X60316694Y-45806306D01*
X60320813Y-45810850D01*
X60324467Y-45815777D01*
X60327620Y-45821038D01*
X60330242Y-45826582D01*
X60332309Y-45832357D01*
X60333799Y-45838307D01*
X60334699Y-45844374D01*
X60335000Y-45850500D01*
X60335000Y-46475500D01*
X60334699Y-46481626D01*
X60333799Y-46487693D01*
X60332309Y-46493643D01*
X60330242Y-46499418D01*
X60327620Y-46504962D01*
X60324467Y-46510223D01*
X60320813Y-46515150D01*
X60316694Y-46519694D01*
X60312150Y-46523813D01*
X60307223Y-46527467D01*
X60301962Y-46530620D01*
X60296418Y-46533242D01*
X60290643Y-46535309D01*
X60284693Y-46536799D01*
X60278626Y-46537699D01*
X60272500Y-46538000D01*
X60147500Y-46538000D01*
X60141374Y-46537699D01*
X60135307Y-46536799D01*
X60129357Y-46535309D01*
X60123582Y-46533242D01*
X60118038Y-46530620D01*
X60112777Y-46527467D01*
X60107850Y-46523813D01*
X60103306Y-46519694D01*
X60099187Y-46515150D01*
X60095533Y-46510223D01*
X60092380Y-46504962D01*
X60089758Y-46499418D01*
X60087691Y-46493643D01*
X60086201Y-46487693D01*
X60085301Y-46481626D01*
X60085000Y-46475500D01*
X60085000Y-45850500D01*
X60085301Y-45844374D01*
X60086201Y-45838307D01*
X60087691Y-45832357D01*
X60089758Y-45826582D01*
X60092380Y-45821038D01*
X60095533Y-45815777D01*
X60099187Y-45810850D01*
X60103306Y-45806306D01*
X60107850Y-45802187D01*
X60112777Y-45798533D01*
X60118038Y-45795380D01*
X60123582Y-45792758D01*
X60129357Y-45790691D01*
X60135307Y-45789201D01*
X60141374Y-45788301D01*
X60147500Y-45788000D01*
X60272500Y-45788000D01*
X60278626Y-45788301D01*
X60278626Y-45788301D01*
G37*
D15*
G04 #@! TD*
G04 #@! TO.P,U1,14*
G04 #@! TO.N,/~Touch_IRQ*
X60210000Y-46163000D03*
D10*
G04 #@! TO.N,/I2C_SCL*
G04 #@! TO.C,U1*
G36*
X59778626Y-45788301D02*
X59784693Y-45789201D01*
X59790643Y-45790691D01*
X59796418Y-45792758D01*
X59801962Y-45795380D01*
X59807223Y-45798533D01*
X59812150Y-45802187D01*
X59816694Y-45806306D01*
X59820813Y-45810850D01*
X59824467Y-45815777D01*
X59827620Y-45821038D01*
X59830242Y-45826582D01*
X59832309Y-45832357D01*
X59833799Y-45838307D01*
X59834699Y-45844374D01*
X59835000Y-45850500D01*
X59835000Y-46475500D01*
X59834699Y-46481626D01*
X59833799Y-46487693D01*
X59832309Y-46493643D01*
X59830242Y-46499418D01*
X59827620Y-46504962D01*
X59824467Y-46510223D01*
X59820813Y-46515150D01*
X59816694Y-46519694D01*
X59812150Y-46523813D01*
X59807223Y-46527467D01*
X59801962Y-46530620D01*
X59796418Y-46533242D01*
X59790643Y-46535309D01*
X59784693Y-46536799D01*
X59778626Y-46537699D01*
X59772500Y-46538000D01*
X59647500Y-46538000D01*
X59641374Y-46537699D01*
X59635307Y-46536799D01*
X59629357Y-46535309D01*
X59623582Y-46533242D01*
X59618038Y-46530620D01*
X59612777Y-46527467D01*
X59607850Y-46523813D01*
X59603306Y-46519694D01*
X59599187Y-46515150D01*
X59595533Y-46510223D01*
X59592380Y-46504962D01*
X59589758Y-46499418D01*
X59587691Y-46493643D01*
X59586201Y-46487693D01*
X59585301Y-46481626D01*
X59585000Y-46475500D01*
X59585000Y-45850500D01*
X59585301Y-45844374D01*
X59586201Y-45838307D01*
X59587691Y-45832357D01*
X59589758Y-45826582D01*
X59592380Y-45821038D01*
X59595533Y-45815777D01*
X59599187Y-45810850D01*
X59603306Y-45806306D01*
X59607850Y-45802187D01*
X59612777Y-45798533D01*
X59618038Y-45795380D01*
X59623582Y-45792758D01*
X59629357Y-45790691D01*
X59635307Y-45789201D01*
X59641374Y-45788301D01*
X59647500Y-45788000D01*
X59772500Y-45788000D01*
X59778626Y-45788301D01*
X59778626Y-45788301D01*
G37*
D15*
G04 #@! TD*
G04 #@! TO.P,U1,15*
G04 #@! TO.N,/I2C_SCL*
X59710000Y-46163000D03*
D10*
G04 #@! TO.N,/I2C_SDA*
G04 #@! TO.C,U1*
G36*
X59278626Y-45788301D02*
X59284693Y-45789201D01*
X59290643Y-45790691D01*
X59296418Y-45792758D01*
X59301962Y-45795380D01*
X59307223Y-45798533D01*
X59312150Y-45802187D01*
X59316694Y-45806306D01*
X59320813Y-45810850D01*
X59324467Y-45815777D01*
X59327620Y-45821038D01*
X59330242Y-45826582D01*
X59332309Y-45832357D01*
X59333799Y-45838307D01*
X59334699Y-45844374D01*
X59335000Y-45850500D01*
X59335000Y-46475500D01*
X59334699Y-46481626D01*
X59333799Y-46487693D01*
X59332309Y-46493643D01*
X59330242Y-46499418D01*
X59327620Y-46504962D01*
X59324467Y-46510223D01*
X59320813Y-46515150D01*
X59316694Y-46519694D01*
X59312150Y-46523813D01*
X59307223Y-46527467D01*
X59301962Y-46530620D01*
X59296418Y-46533242D01*
X59290643Y-46535309D01*
X59284693Y-46536799D01*
X59278626Y-46537699D01*
X59272500Y-46538000D01*
X59147500Y-46538000D01*
X59141374Y-46537699D01*
X59135307Y-46536799D01*
X59129357Y-46535309D01*
X59123582Y-46533242D01*
X59118038Y-46530620D01*
X59112777Y-46527467D01*
X59107850Y-46523813D01*
X59103306Y-46519694D01*
X59099187Y-46515150D01*
X59095533Y-46510223D01*
X59092380Y-46504962D01*
X59089758Y-46499418D01*
X59087691Y-46493643D01*
X59086201Y-46487693D01*
X59085301Y-46481626D01*
X59085000Y-46475500D01*
X59085000Y-45850500D01*
X59085301Y-45844374D01*
X59086201Y-45838307D01*
X59087691Y-45832357D01*
X59089758Y-45826582D01*
X59092380Y-45821038D01*
X59095533Y-45815777D01*
X59099187Y-45810850D01*
X59103306Y-45806306D01*
X59107850Y-45802187D01*
X59112777Y-45798533D01*
X59118038Y-45795380D01*
X59123582Y-45792758D01*
X59129357Y-45790691D01*
X59135307Y-45789201D01*
X59141374Y-45788301D01*
X59147500Y-45788000D01*
X59272500Y-45788000D01*
X59278626Y-45788301D01*
X59278626Y-45788301D01*
G37*
D15*
G04 #@! TD*
G04 #@! TO.P,U1,16*
G04 #@! TO.N,/I2C_SDA*
X59210000Y-46163000D03*
D10*
G04 #@! TO.N,/GPIO0*
G04 #@! TO.C,U1*
G36*
X58803626Y-45313301D02*
X58809693Y-45314201D01*
X58815643Y-45315691D01*
X58821418Y-45317758D01*
X58826962Y-45320380D01*
X58832223Y-45323533D01*
X58837150Y-45327187D01*
X58841694Y-45331306D01*
X58845813Y-45335850D01*
X58849467Y-45340777D01*
X58852620Y-45346038D01*
X58855242Y-45351582D01*
X58857309Y-45357357D01*
X58858799Y-45363307D01*
X58859699Y-45369374D01*
X58860000Y-45375500D01*
X58860000Y-45500500D01*
X58859699Y-45506626D01*
X58858799Y-45512693D01*
X58857309Y-45518643D01*
X58855242Y-45524418D01*
X58852620Y-45529962D01*
X58849467Y-45535223D01*
X58845813Y-45540150D01*
X58841694Y-45544694D01*
X58837150Y-45548813D01*
X58832223Y-45552467D01*
X58826962Y-45555620D01*
X58821418Y-45558242D01*
X58815643Y-45560309D01*
X58809693Y-45561799D01*
X58803626Y-45562699D01*
X58797500Y-45563000D01*
X58172500Y-45563000D01*
X58166374Y-45562699D01*
X58160307Y-45561799D01*
X58154357Y-45560309D01*
X58148582Y-45558242D01*
X58143038Y-45555620D01*
X58137777Y-45552467D01*
X58132850Y-45548813D01*
X58128306Y-45544694D01*
X58124187Y-45540150D01*
X58120533Y-45535223D01*
X58117380Y-45529962D01*
X58114758Y-45524418D01*
X58112691Y-45518643D01*
X58111201Y-45512693D01*
X58110301Y-45506626D01*
X58110000Y-45500500D01*
X58110000Y-45375500D01*
X58110301Y-45369374D01*
X58111201Y-45363307D01*
X58112691Y-45357357D01*
X58114758Y-45351582D01*
X58117380Y-45346038D01*
X58120533Y-45340777D01*
X58124187Y-45335850D01*
X58128306Y-45331306D01*
X58132850Y-45327187D01*
X58137777Y-45323533D01*
X58143038Y-45320380D01*
X58148582Y-45317758D01*
X58154357Y-45315691D01*
X58160307Y-45314201D01*
X58166374Y-45313301D01*
X58172500Y-45313000D01*
X58797500Y-45313000D01*
X58803626Y-45313301D01*
X58803626Y-45313301D01*
G37*
D15*
G04 #@! TD*
G04 #@! TO.P,U1,17*
G04 #@! TO.N,/GPIO0*
X58485000Y-45438000D03*
D10*
G04 #@! TO.N,/GPIO1*
G04 #@! TO.C,U1*
G36*
X58803626Y-44813301D02*
X58809693Y-44814201D01*
X58815643Y-44815691D01*
X58821418Y-44817758D01*
X58826962Y-44820380D01*
X58832223Y-44823533D01*
X58837150Y-44827187D01*
X58841694Y-44831306D01*
X58845813Y-44835850D01*
X58849467Y-44840777D01*
X58852620Y-44846038D01*
X58855242Y-44851582D01*
X58857309Y-44857357D01*
X58858799Y-44863307D01*
X58859699Y-44869374D01*
X58860000Y-44875500D01*
X58860000Y-45000500D01*
X58859699Y-45006626D01*
X58858799Y-45012693D01*
X58857309Y-45018643D01*
X58855242Y-45024418D01*
X58852620Y-45029962D01*
X58849467Y-45035223D01*
X58845813Y-45040150D01*
X58841694Y-45044694D01*
X58837150Y-45048813D01*
X58832223Y-45052467D01*
X58826962Y-45055620D01*
X58821418Y-45058242D01*
X58815643Y-45060309D01*
X58809693Y-45061799D01*
X58803626Y-45062699D01*
X58797500Y-45063000D01*
X58172500Y-45063000D01*
X58166374Y-45062699D01*
X58160307Y-45061799D01*
X58154357Y-45060309D01*
X58148582Y-45058242D01*
X58143038Y-45055620D01*
X58137777Y-45052467D01*
X58132850Y-45048813D01*
X58128306Y-45044694D01*
X58124187Y-45040150D01*
X58120533Y-45035223D01*
X58117380Y-45029962D01*
X58114758Y-45024418D01*
X58112691Y-45018643D01*
X58111201Y-45012693D01*
X58110301Y-45006626D01*
X58110000Y-45000500D01*
X58110000Y-44875500D01*
X58110301Y-44869374D01*
X58111201Y-44863307D01*
X58112691Y-44857357D01*
X58114758Y-44851582D01*
X58117380Y-44846038D01*
X58120533Y-44840777D01*
X58124187Y-44835850D01*
X58128306Y-44831306D01*
X58132850Y-44827187D01*
X58137777Y-44823533D01*
X58143038Y-44820380D01*
X58148582Y-44817758D01*
X58154357Y-44815691D01*
X58160307Y-44814201D01*
X58166374Y-44813301D01*
X58172500Y-44813000D01*
X58797500Y-44813000D01*
X58803626Y-44813301D01*
X58803626Y-44813301D01*
G37*
D15*
G04 #@! TD*
G04 #@! TO.P,U1,18*
G04 #@! TO.N,/GPIO1*
X58485000Y-44938000D03*
D10*
G04 #@! TO.N,GND*
G04 #@! TO.C,U1*
G36*
X58803626Y-44313301D02*
X58809693Y-44314201D01*
X58815643Y-44315691D01*
X58821418Y-44317758D01*
X58826962Y-44320380D01*
X58832223Y-44323533D01*
X58837150Y-44327187D01*
X58841694Y-44331306D01*
X58845813Y-44335850D01*
X58849467Y-44340777D01*
X58852620Y-44346038D01*
X58855242Y-44351582D01*
X58857309Y-44357357D01*
X58858799Y-44363307D01*
X58859699Y-44369374D01*
X58860000Y-44375500D01*
X58860000Y-44500500D01*
X58859699Y-44506626D01*
X58858799Y-44512693D01*
X58857309Y-44518643D01*
X58855242Y-44524418D01*
X58852620Y-44529962D01*
X58849467Y-44535223D01*
X58845813Y-44540150D01*
X58841694Y-44544694D01*
X58837150Y-44548813D01*
X58832223Y-44552467D01*
X58826962Y-44555620D01*
X58821418Y-44558242D01*
X58815643Y-44560309D01*
X58809693Y-44561799D01*
X58803626Y-44562699D01*
X58797500Y-44563000D01*
X58172500Y-44563000D01*
X58166374Y-44562699D01*
X58160307Y-44561799D01*
X58154357Y-44560309D01*
X58148582Y-44558242D01*
X58143038Y-44555620D01*
X58137777Y-44552467D01*
X58132850Y-44548813D01*
X58128306Y-44544694D01*
X58124187Y-44540150D01*
X58120533Y-44535223D01*
X58117380Y-44529962D01*
X58114758Y-44524418D01*
X58112691Y-44518643D01*
X58111201Y-44512693D01*
X58110301Y-44506626D01*
X58110000Y-44500500D01*
X58110000Y-44375500D01*
X58110301Y-44369374D01*
X58111201Y-44363307D01*
X58112691Y-44357357D01*
X58114758Y-44351582D01*
X58117380Y-44346038D01*
X58120533Y-44340777D01*
X58124187Y-44335850D01*
X58128306Y-44331306D01*
X58132850Y-44327187D01*
X58137777Y-44323533D01*
X58143038Y-44320380D01*
X58148582Y-44317758D01*
X58154357Y-44315691D01*
X58160307Y-44314201D01*
X58166374Y-44313301D01*
X58172500Y-44313000D01*
X58797500Y-44313000D01*
X58803626Y-44313301D01*
X58803626Y-44313301D01*
G37*
D15*
G04 #@! TD*
G04 #@! TO.P,U1,19*
G04 #@! TO.N,GND*
X58485000Y-44438000D03*
D10*
G04 #@! TO.N,/GPIO2*
G04 #@! TO.C,U1*
G36*
X58803626Y-43813301D02*
X58809693Y-43814201D01*
X58815643Y-43815691D01*
X58821418Y-43817758D01*
X58826962Y-43820380D01*
X58832223Y-43823533D01*
X58837150Y-43827187D01*
X58841694Y-43831306D01*
X58845813Y-43835850D01*
X58849467Y-43840777D01*
X58852620Y-43846038D01*
X58855242Y-43851582D01*
X58857309Y-43857357D01*
X58858799Y-43863307D01*
X58859699Y-43869374D01*
X58860000Y-43875500D01*
X58860000Y-44000500D01*
X58859699Y-44006626D01*
X58858799Y-44012693D01*
X58857309Y-44018643D01*
X58855242Y-44024418D01*
X58852620Y-44029962D01*
X58849467Y-44035223D01*
X58845813Y-44040150D01*
X58841694Y-44044694D01*
X58837150Y-44048813D01*
X58832223Y-44052467D01*
X58826962Y-44055620D01*
X58821418Y-44058242D01*
X58815643Y-44060309D01*
X58809693Y-44061799D01*
X58803626Y-44062699D01*
X58797500Y-44063000D01*
X58172500Y-44063000D01*
X58166374Y-44062699D01*
X58160307Y-44061799D01*
X58154357Y-44060309D01*
X58148582Y-44058242D01*
X58143038Y-44055620D01*
X58137777Y-44052467D01*
X58132850Y-44048813D01*
X58128306Y-44044694D01*
X58124187Y-44040150D01*
X58120533Y-44035223D01*
X58117380Y-44029962D01*
X58114758Y-44024418D01*
X58112691Y-44018643D01*
X58111201Y-44012693D01*
X58110301Y-44006626D01*
X58110000Y-44000500D01*
X58110000Y-43875500D01*
X58110301Y-43869374D01*
X58111201Y-43863307D01*
X58112691Y-43857357D01*
X58114758Y-43851582D01*
X58117380Y-43846038D01*
X58120533Y-43840777D01*
X58124187Y-43835850D01*
X58128306Y-43831306D01*
X58132850Y-43827187D01*
X58137777Y-43823533D01*
X58143038Y-43820380D01*
X58148582Y-43817758D01*
X58154357Y-43815691D01*
X58160307Y-43814201D01*
X58166374Y-43813301D01*
X58172500Y-43813000D01*
X58797500Y-43813000D01*
X58803626Y-43813301D01*
X58803626Y-43813301D01*
G37*
D15*
G04 #@! TD*
G04 #@! TO.P,U1,20*
G04 #@! TO.N,/GPIO2*
X58485000Y-43938000D03*
D10*
G04 #@! TO.N,/GPIO3*
G04 #@! TO.C,U1*
G36*
X58803626Y-43313301D02*
X58809693Y-43314201D01*
X58815643Y-43315691D01*
X58821418Y-43317758D01*
X58826962Y-43320380D01*
X58832223Y-43323533D01*
X58837150Y-43327187D01*
X58841694Y-43331306D01*
X58845813Y-43335850D01*
X58849467Y-43340777D01*
X58852620Y-43346038D01*
X58855242Y-43351582D01*
X58857309Y-43357357D01*
X58858799Y-43363307D01*
X58859699Y-43369374D01*
X58860000Y-43375500D01*
X58860000Y-43500500D01*
X58859699Y-43506626D01*
X58858799Y-43512693D01*
X58857309Y-43518643D01*
X58855242Y-43524418D01*
X58852620Y-43529962D01*
X58849467Y-43535223D01*
X58845813Y-43540150D01*
X58841694Y-43544694D01*
X58837150Y-43548813D01*
X58832223Y-43552467D01*
X58826962Y-43555620D01*
X58821418Y-43558242D01*
X58815643Y-43560309D01*
X58809693Y-43561799D01*
X58803626Y-43562699D01*
X58797500Y-43563000D01*
X58172500Y-43563000D01*
X58166374Y-43562699D01*
X58160307Y-43561799D01*
X58154357Y-43560309D01*
X58148582Y-43558242D01*
X58143038Y-43555620D01*
X58137777Y-43552467D01*
X58132850Y-43548813D01*
X58128306Y-43544694D01*
X58124187Y-43540150D01*
X58120533Y-43535223D01*
X58117380Y-43529962D01*
X58114758Y-43524418D01*
X58112691Y-43518643D01*
X58111201Y-43512693D01*
X58110301Y-43506626D01*
X58110000Y-43500500D01*
X58110000Y-43375500D01*
X58110301Y-43369374D01*
X58111201Y-43363307D01*
X58112691Y-43357357D01*
X58114758Y-43351582D01*
X58117380Y-43346038D01*
X58120533Y-43340777D01*
X58124187Y-43335850D01*
X58128306Y-43331306D01*
X58132850Y-43327187D01*
X58137777Y-43323533D01*
X58143038Y-43320380D01*
X58148582Y-43317758D01*
X58154357Y-43315691D01*
X58160307Y-43314201D01*
X58166374Y-43313301D01*
X58172500Y-43313000D01*
X58797500Y-43313000D01*
X58803626Y-43313301D01*
X58803626Y-43313301D01*
G37*
D15*
G04 #@! TD*
G04 #@! TO.P,U1,21*
G04 #@! TO.N,/GPIO3*
X58485000Y-43438000D03*
D10*
G04 #@! TO.N,/GPIO4*
G04 #@! TO.C,U1*
G36*
X58803626Y-42813301D02*
X58809693Y-42814201D01*
X58815643Y-42815691D01*
X58821418Y-42817758D01*
X58826962Y-42820380D01*
X58832223Y-42823533D01*
X58837150Y-42827187D01*
X58841694Y-42831306D01*
X58845813Y-42835850D01*
X58849467Y-42840777D01*
X58852620Y-42846038D01*
X58855242Y-42851582D01*
X58857309Y-42857357D01*
X58858799Y-42863307D01*
X58859699Y-42869374D01*
X58860000Y-42875500D01*
X58860000Y-43000500D01*
X58859699Y-43006626D01*
X58858799Y-43012693D01*
X58857309Y-43018643D01*
X58855242Y-43024418D01*
X58852620Y-43029962D01*
X58849467Y-43035223D01*
X58845813Y-43040150D01*
X58841694Y-43044694D01*
X58837150Y-43048813D01*
X58832223Y-43052467D01*
X58826962Y-43055620D01*
X58821418Y-43058242D01*
X58815643Y-43060309D01*
X58809693Y-43061799D01*
X58803626Y-43062699D01*
X58797500Y-43063000D01*
X58172500Y-43063000D01*
X58166374Y-43062699D01*
X58160307Y-43061799D01*
X58154357Y-43060309D01*
X58148582Y-43058242D01*
X58143038Y-43055620D01*
X58137777Y-43052467D01*
X58132850Y-43048813D01*
X58128306Y-43044694D01*
X58124187Y-43040150D01*
X58120533Y-43035223D01*
X58117380Y-43029962D01*
X58114758Y-43024418D01*
X58112691Y-43018643D01*
X58111201Y-43012693D01*
X58110301Y-43006626D01*
X58110000Y-43000500D01*
X58110000Y-42875500D01*
X58110301Y-42869374D01*
X58111201Y-42863307D01*
X58112691Y-42857357D01*
X58114758Y-42851582D01*
X58117380Y-42846038D01*
X58120533Y-42840777D01*
X58124187Y-42835850D01*
X58128306Y-42831306D01*
X58132850Y-42827187D01*
X58137777Y-42823533D01*
X58143038Y-42820380D01*
X58148582Y-42817758D01*
X58154357Y-42815691D01*
X58160307Y-42814201D01*
X58166374Y-42813301D01*
X58172500Y-42813000D01*
X58797500Y-42813000D01*
X58803626Y-42813301D01*
X58803626Y-42813301D01*
G37*
D15*
G04 #@! TD*
G04 #@! TO.P,U1,22*
G04 #@! TO.N,/GPIO4*
X58485000Y-42938000D03*
D10*
G04 #@! TO.N,/GPIO5*
G04 #@! TO.C,U1*
G36*
X58803626Y-42313301D02*
X58809693Y-42314201D01*
X58815643Y-42315691D01*
X58821418Y-42317758D01*
X58826962Y-42320380D01*
X58832223Y-42323533D01*
X58837150Y-42327187D01*
X58841694Y-42331306D01*
X58845813Y-42335850D01*
X58849467Y-42340777D01*
X58852620Y-42346038D01*
X58855242Y-42351582D01*
X58857309Y-42357357D01*
X58858799Y-42363307D01*
X58859699Y-42369374D01*
X58860000Y-42375500D01*
X58860000Y-42500500D01*
X58859699Y-42506626D01*
X58858799Y-42512693D01*
X58857309Y-42518643D01*
X58855242Y-42524418D01*
X58852620Y-42529962D01*
X58849467Y-42535223D01*
X58845813Y-42540150D01*
X58841694Y-42544694D01*
X58837150Y-42548813D01*
X58832223Y-42552467D01*
X58826962Y-42555620D01*
X58821418Y-42558242D01*
X58815643Y-42560309D01*
X58809693Y-42561799D01*
X58803626Y-42562699D01*
X58797500Y-42563000D01*
X58172500Y-42563000D01*
X58166374Y-42562699D01*
X58160307Y-42561799D01*
X58154357Y-42560309D01*
X58148582Y-42558242D01*
X58143038Y-42555620D01*
X58137777Y-42552467D01*
X58132850Y-42548813D01*
X58128306Y-42544694D01*
X58124187Y-42540150D01*
X58120533Y-42535223D01*
X58117380Y-42529962D01*
X58114758Y-42524418D01*
X58112691Y-42518643D01*
X58111201Y-42512693D01*
X58110301Y-42506626D01*
X58110000Y-42500500D01*
X58110000Y-42375500D01*
X58110301Y-42369374D01*
X58111201Y-42363307D01*
X58112691Y-42357357D01*
X58114758Y-42351582D01*
X58117380Y-42346038D01*
X58120533Y-42340777D01*
X58124187Y-42335850D01*
X58128306Y-42331306D01*
X58132850Y-42327187D01*
X58137777Y-42323533D01*
X58143038Y-42320380D01*
X58148582Y-42317758D01*
X58154357Y-42315691D01*
X58160307Y-42314201D01*
X58166374Y-42313301D01*
X58172500Y-42313000D01*
X58797500Y-42313000D01*
X58803626Y-42313301D01*
X58803626Y-42313301D01*
G37*
D15*
G04 #@! TD*
G04 #@! TO.P,U1,23*
G04 #@! TO.N,/GPIO5*
X58485000Y-42438000D03*
D10*
G04 #@! TO.N,GND*
G04 #@! TO.C,U1*
G36*
X58803626Y-41813301D02*
X58809693Y-41814201D01*
X58815643Y-41815691D01*
X58821418Y-41817758D01*
X58826962Y-41820380D01*
X58832223Y-41823533D01*
X58837150Y-41827187D01*
X58841694Y-41831306D01*
X58845813Y-41835850D01*
X58849467Y-41840777D01*
X58852620Y-41846038D01*
X58855242Y-41851582D01*
X58857309Y-41857357D01*
X58858799Y-41863307D01*
X58859699Y-41869374D01*
X58860000Y-41875500D01*
X58860000Y-42000500D01*
X58859699Y-42006626D01*
X58858799Y-42012693D01*
X58857309Y-42018643D01*
X58855242Y-42024418D01*
X58852620Y-42029962D01*
X58849467Y-42035223D01*
X58845813Y-42040150D01*
X58841694Y-42044694D01*
X58837150Y-42048813D01*
X58832223Y-42052467D01*
X58826962Y-42055620D01*
X58821418Y-42058242D01*
X58815643Y-42060309D01*
X58809693Y-42061799D01*
X58803626Y-42062699D01*
X58797500Y-42063000D01*
X58172500Y-42063000D01*
X58166374Y-42062699D01*
X58160307Y-42061799D01*
X58154357Y-42060309D01*
X58148582Y-42058242D01*
X58143038Y-42055620D01*
X58137777Y-42052467D01*
X58132850Y-42048813D01*
X58128306Y-42044694D01*
X58124187Y-42040150D01*
X58120533Y-42035223D01*
X58117380Y-42029962D01*
X58114758Y-42024418D01*
X58112691Y-42018643D01*
X58111201Y-42012693D01*
X58110301Y-42006626D01*
X58110000Y-42000500D01*
X58110000Y-41875500D01*
X58110301Y-41869374D01*
X58111201Y-41863307D01*
X58112691Y-41857357D01*
X58114758Y-41851582D01*
X58117380Y-41846038D01*
X58120533Y-41840777D01*
X58124187Y-41835850D01*
X58128306Y-41831306D01*
X58132850Y-41827187D01*
X58137777Y-41823533D01*
X58143038Y-41820380D01*
X58148582Y-41817758D01*
X58154357Y-41815691D01*
X58160307Y-41814201D01*
X58166374Y-41813301D01*
X58172500Y-41813000D01*
X58797500Y-41813000D01*
X58803626Y-41813301D01*
X58803626Y-41813301D01*
G37*
D15*
G04 #@! TD*
G04 #@! TO.P,U1,24*
G04 #@! TO.N,GND*
X58485000Y-41938000D03*
D10*
G04 #@! TO.N,/GPIO6*
G04 #@! TO.C,U1*
G36*
X59278626Y-40838301D02*
X59284693Y-40839201D01*
X59290643Y-40840691D01*
X59296418Y-40842758D01*
X59301962Y-40845380D01*
X59307223Y-40848533D01*
X59312150Y-40852187D01*
X59316694Y-40856306D01*
X59320813Y-40860850D01*
X59324467Y-40865777D01*
X59327620Y-40871038D01*
X59330242Y-40876582D01*
X59332309Y-40882357D01*
X59333799Y-40888307D01*
X59334699Y-40894374D01*
X59335000Y-40900500D01*
X59335000Y-41525500D01*
X59334699Y-41531626D01*
X59333799Y-41537693D01*
X59332309Y-41543643D01*
X59330242Y-41549418D01*
X59327620Y-41554962D01*
X59324467Y-41560223D01*
X59320813Y-41565150D01*
X59316694Y-41569694D01*
X59312150Y-41573813D01*
X59307223Y-41577467D01*
X59301962Y-41580620D01*
X59296418Y-41583242D01*
X59290643Y-41585309D01*
X59284693Y-41586799D01*
X59278626Y-41587699D01*
X59272500Y-41588000D01*
X59147500Y-41588000D01*
X59141374Y-41587699D01*
X59135307Y-41586799D01*
X59129357Y-41585309D01*
X59123582Y-41583242D01*
X59118038Y-41580620D01*
X59112777Y-41577467D01*
X59107850Y-41573813D01*
X59103306Y-41569694D01*
X59099187Y-41565150D01*
X59095533Y-41560223D01*
X59092380Y-41554962D01*
X59089758Y-41549418D01*
X59087691Y-41543643D01*
X59086201Y-41537693D01*
X59085301Y-41531626D01*
X59085000Y-41525500D01*
X59085000Y-40900500D01*
X59085301Y-40894374D01*
X59086201Y-40888307D01*
X59087691Y-40882357D01*
X59089758Y-40876582D01*
X59092380Y-40871038D01*
X59095533Y-40865777D01*
X59099187Y-40860850D01*
X59103306Y-40856306D01*
X59107850Y-40852187D01*
X59112777Y-40848533D01*
X59118038Y-40845380D01*
X59123582Y-40842758D01*
X59129357Y-40840691D01*
X59135307Y-40839201D01*
X59141374Y-40838301D01*
X59147500Y-40838000D01*
X59272500Y-40838000D01*
X59278626Y-40838301D01*
X59278626Y-40838301D01*
G37*
D15*
G04 #@! TD*
G04 #@! TO.P,U1,25*
G04 #@! TO.N,/GPIO6*
X59210000Y-41213000D03*
D10*
G04 #@! TO.N,/GPIO7*
G04 #@! TO.C,U1*
G36*
X59778626Y-40838301D02*
X59784693Y-40839201D01*
X59790643Y-40840691D01*
X59796418Y-40842758D01*
X59801962Y-40845380D01*
X59807223Y-40848533D01*
X59812150Y-40852187D01*
X59816694Y-40856306D01*
X59820813Y-40860850D01*
X59824467Y-40865777D01*
X59827620Y-40871038D01*
X59830242Y-40876582D01*
X59832309Y-40882357D01*
X59833799Y-40888307D01*
X59834699Y-40894374D01*
X59835000Y-40900500D01*
X59835000Y-41525500D01*
X59834699Y-41531626D01*
X59833799Y-41537693D01*
X59832309Y-41543643D01*
X59830242Y-41549418D01*
X59827620Y-41554962D01*
X59824467Y-41560223D01*
X59820813Y-41565150D01*
X59816694Y-41569694D01*
X59812150Y-41573813D01*
X59807223Y-41577467D01*
X59801962Y-41580620D01*
X59796418Y-41583242D01*
X59790643Y-41585309D01*
X59784693Y-41586799D01*
X59778626Y-41587699D01*
X59772500Y-41588000D01*
X59647500Y-41588000D01*
X59641374Y-41587699D01*
X59635307Y-41586799D01*
X59629357Y-41585309D01*
X59623582Y-41583242D01*
X59618038Y-41580620D01*
X59612777Y-41577467D01*
X59607850Y-41573813D01*
X59603306Y-41569694D01*
X59599187Y-41565150D01*
X59595533Y-41560223D01*
X59592380Y-41554962D01*
X59589758Y-41549418D01*
X59587691Y-41543643D01*
X59586201Y-41537693D01*
X59585301Y-41531626D01*
X59585000Y-41525500D01*
X59585000Y-40900500D01*
X59585301Y-40894374D01*
X59586201Y-40888307D01*
X59587691Y-40882357D01*
X59589758Y-40876582D01*
X59592380Y-40871038D01*
X59595533Y-40865777D01*
X59599187Y-40860850D01*
X59603306Y-40856306D01*
X59607850Y-40852187D01*
X59612777Y-40848533D01*
X59618038Y-40845380D01*
X59623582Y-40842758D01*
X59629357Y-40840691D01*
X59635307Y-40839201D01*
X59641374Y-40838301D01*
X59647500Y-40838000D01*
X59772500Y-40838000D01*
X59778626Y-40838301D01*
X59778626Y-40838301D01*
G37*
D15*
G04 #@! TD*
G04 #@! TO.P,U1,26*
G04 #@! TO.N,/GPIO7*
X59710000Y-41213000D03*
D10*
G04 #@! TO.N,Net-(CARY1-Pad7)*
G04 #@! TO.C,U1*
G36*
X60278626Y-40838301D02*
X60284693Y-40839201D01*
X60290643Y-40840691D01*
X60296418Y-40842758D01*
X60301962Y-40845380D01*
X60307223Y-40848533D01*
X60312150Y-40852187D01*
X60316694Y-40856306D01*
X60320813Y-40860850D01*
X60324467Y-40865777D01*
X60327620Y-40871038D01*
X60330242Y-40876582D01*
X60332309Y-40882357D01*
X60333799Y-40888307D01*
X60334699Y-40894374D01*
X60335000Y-40900500D01*
X60335000Y-41525500D01*
X60334699Y-41531626D01*
X60333799Y-41537693D01*
X60332309Y-41543643D01*
X60330242Y-41549418D01*
X60327620Y-41554962D01*
X60324467Y-41560223D01*
X60320813Y-41565150D01*
X60316694Y-41569694D01*
X60312150Y-41573813D01*
X60307223Y-41577467D01*
X60301962Y-41580620D01*
X60296418Y-41583242D01*
X60290643Y-41585309D01*
X60284693Y-41586799D01*
X60278626Y-41587699D01*
X60272500Y-41588000D01*
X60147500Y-41588000D01*
X60141374Y-41587699D01*
X60135307Y-41586799D01*
X60129357Y-41585309D01*
X60123582Y-41583242D01*
X60118038Y-41580620D01*
X60112777Y-41577467D01*
X60107850Y-41573813D01*
X60103306Y-41569694D01*
X60099187Y-41565150D01*
X60095533Y-41560223D01*
X60092380Y-41554962D01*
X60089758Y-41549418D01*
X60087691Y-41543643D01*
X60086201Y-41537693D01*
X60085301Y-41531626D01*
X60085000Y-41525500D01*
X60085000Y-40900500D01*
X60085301Y-40894374D01*
X60086201Y-40888307D01*
X60087691Y-40882357D01*
X60089758Y-40876582D01*
X60092380Y-40871038D01*
X60095533Y-40865777D01*
X60099187Y-40860850D01*
X60103306Y-40856306D01*
X60107850Y-40852187D01*
X60112777Y-40848533D01*
X60118038Y-40845380D01*
X60123582Y-40842758D01*
X60129357Y-40840691D01*
X60135307Y-40839201D01*
X60141374Y-40838301D01*
X60147500Y-40838000D01*
X60272500Y-40838000D01*
X60278626Y-40838301D01*
X60278626Y-40838301D01*
G37*
D15*
G04 #@! TD*
G04 #@! TO.P,U1,27*
G04 #@! TO.N,Net-(CARY1-Pad7)*
X60210000Y-41213000D03*
D10*
G04 #@! TO.N,GND*
G04 #@! TO.C,U1*
G36*
X60778626Y-40838301D02*
X60784693Y-40839201D01*
X60790643Y-40840691D01*
X60796418Y-40842758D01*
X60801962Y-40845380D01*
X60807223Y-40848533D01*
X60812150Y-40852187D01*
X60816694Y-40856306D01*
X60820813Y-40860850D01*
X60824467Y-40865777D01*
X60827620Y-40871038D01*
X60830242Y-40876582D01*
X60832309Y-40882357D01*
X60833799Y-40888307D01*
X60834699Y-40894374D01*
X60835000Y-40900500D01*
X60835000Y-41525500D01*
X60834699Y-41531626D01*
X60833799Y-41537693D01*
X60832309Y-41543643D01*
X60830242Y-41549418D01*
X60827620Y-41554962D01*
X60824467Y-41560223D01*
X60820813Y-41565150D01*
X60816694Y-41569694D01*
X60812150Y-41573813D01*
X60807223Y-41577467D01*
X60801962Y-41580620D01*
X60796418Y-41583242D01*
X60790643Y-41585309D01*
X60784693Y-41586799D01*
X60778626Y-41587699D01*
X60772500Y-41588000D01*
X60647500Y-41588000D01*
X60641374Y-41587699D01*
X60635307Y-41586799D01*
X60629357Y-41585309D01*
X60623582Y-41583242D01*
X60618038Y-41580620D01*
X60612777Y-41577467D01*
X60607850Y-41573813D01*
X60603306Y-41569694D01*
X60599187Y-41565150D01*
X60595533Y-41560223D01*
X60592380Y-41554962D01*
X60589758Y-41549418D01*
X60587691Y-41543643D01*
X60586201Y-41537693D01*
X60585301Y-41531626D01*
X60585000Y-41525500D01*
X60585000Y-40900500D01*
X60585301Y-40894374D01*
X60586201Y-40888307D01*
X60587691Y-40882357D01*
X60589758Y-40876582D01*
X60592380Y-40871038D01*
X60595533Y-40865777D01*
X60599187Y-40860850D01*
X60603306Y-40856306D01*
X60607850Y-40852187D01*
X60612777Y-40848533D01*
X60618038Y-40845380D01*
X60623582Y-40842758D01*
X60629357Y-40840691D01*
X60635307Y-40839201D01*
X60641374Y-40838301D01*
X60647500Y-40838000D01*
X60772500Y-40838000D01*
X60778626Y-40838301D01*
X60778626Y-40838301D01*
G37*
D15*
G04 #@! TD*
G04 #@! TO.P,U1,28*
G04 #@! TO.N,GND*
X60710000Y-41213000D03*
D10*
G04 #@! TO.N,/~Touch_Reset*
G04 #@! TO.C,U1*
G36*
X61278626Y-40838301D02*
X61284693Y-40839201D01*
X61290643Y-40840691D01*
X61296418Y-40842758D01*
X61301962Y-40845380D01*
X61307223Y-40848533D01*
X61312150Y-40852187D01*
X61316694Y-40856306D01*
X61320813Y-40860850D01*
X61324467Y-40865777D01*
X61327620Y-40871038D01*
X61330242Y-40876582D01*
X61332309Y-40882357D01*
X61333799Y-40888307D01*
X61334699Y-40894374D01*
X61335000Y-40900500D01*
X61335000Y-41525500D01*
X61334699Y-41531626D01*
X61333799Y-41537693D01*
X61332309Y-41543643D01*
X61330242Y-41549418D01*
X61327620Y-41554962D01*
X61324467Y-41560223D01*
X61320813Y-41565150D01*
X61316694Y-41569694D01*
X61312150Y-41573813D01*
X61307223Y-41577467D01*
X61301962Y-41580620D01*
X61296418Y-41583242D01*
X61290643Y-41585309D01*
X61284693Y-41586799D01*
X61278626Y-41587699D01*
X61272500Y-41588000D01*
X61147500Y-41588000D01*
X61141374Y-41587699D01*
X61135307Y-41586799D01*
X61129357Y-41585309D01*
X61123582Y-41583242D01*
X61118038Y-41580620D01*
X61112777Y-41577467D01*
X61107850Y-41573813D01*
X61103306Y-41569694D01*
X61099187Y-41565150D01*
X61095533Y-41560223D01*
X61092380Y-41554962D01*
X61089758Y-41549418D01*
X61087691Y-41543643D01*
X61086201Y-41537693D01*
X61085301Y-41531626D01*
X61085000Y-41525500D01*
X61085000Y-40900500D01*
X61085301Y-40894374D01*
X61086201Y-40888307D01*
X61087691Y-40882357D01*
X61089758Y-40876582D01*
X61092380Y-40871038D01*
X61095533Y-40865777D01*
X61099187Y-40860850D01*
X61103306Y-40856306D01*
X61107850Y-40852187D01*
X61112777Y-40848533D01*
X61118038Y-40845380D01*
X61123582Y-40842758D01*
X61129357Y-40840691D01*
X61135307Y-40839201D01*
X61141374Y-40838301D01*
X61147500Y-40838000D01*
X61272500Y-40838000D01*
X61278626Y-40838301D01*
X61278626Y-40838301D01*
G37*
D15*
G04 #@! TD*
G04 #@! TO.P,U1,29*
G04 #@! TO.N,/~Touch_Reset*
X61210000Y-41213000D03*
D10*
G04 #@! TO.N,Net-(CARY1-Pad1)*
G04 #@! TO.C,U1*
G36*
X61778626Y-40838301D02*
X61784693Y-40839201D01*
X61790643Y-40840691D01*
X61796418Y-40842758D01*
X61801962Y-40845380D01*
X61807223Y-40848533D01*
X61812150Y-40852187D01*
X61816694Y-40856306D01*
X61820813Y-40860850D01*
X61824467Y-40865777D01*
X61827620Y-40871038D01*
X61830242Y-40876582D01*
X61832309Y-40882357D01*
X61833799Y-40888307D01*
X61834699Y-40894374D01*
X61835000Y-40900500D01*
X61835000Y-41525500D01*
X61834699Y-41531626D01*
X61833799Y-41537693D01*
X61832309Y-41543643D01*
X61830242Y-41549418D01*
X61827620Y-41554962D01*
X61824467Y-41560223D01*
X61820813Y-41565150D01*
X61816694Y-41569694D01*
X61812150Y-41573813D01*
X61807223Y-41577467D01*
X61801962Y-41580620D01*
X61796418Y-41583242D01*
X61790643Y-41585309D01*
X61784693Y-41586799D01*
X61778626Y-41587699D01*
X61772500Y-41588000D01*
X61647500Y-41588000D01*
X61641374Y-41587699D01*
X61635307Y-41586799D01*
X61629357Y-41585309D01*
X61623582Y-41583242D01*
X61618038Y-41580620D01*
X61612777Y-41577467D01*
X61607850Y-41573813D01*
X61603306Y-41569694D01*
X61599187Y-41565150D01*
X61595533Y-41560223D01*
X61592380Y-41554962D01*
X61589758Y-41549418D01*
X61587691Y-41543643D01*
X61586201Y-41537693D01*
X61585301Y-41531626D01*
X61585000Y-41525500D01*
X61585000Y-40900500D01*
X61585301Y-40894374D01*
X61586201Y-40888307D01*
X61587691Y-40882357D01*
X61589758Y-40876582D01*
X61592380Y-40871038D01*
X61595533Y-40865777D01*
X61599187Y-40860850D01*
X61603306Y-40856306D01*
X61607850Y-40852187D01*
X61612777Y-40848533D01*
X61618038Y-40845380D01*
X61623582Y-40842758D01*
X61629357Y-40840691D01*
X61635307Y-40839201D01*
X61641374Y-40838301D01*
X61647500Y-40838000D01*
X61772500Y-40838000D01*
X61778626Y-40838301D01*
X61778626Y-40838301D01*
G37*
D15*
G04 #@! TD*
G04 #@! TO.P,U1,30*
G04 #@! TO.N,Net-(CARY1-Pad1)*
X61710000Y-41213000D03*
D10*
G04 #@! TO.N,/cap0*
G04 #@! TO.C,U1*
G36*
X62278626Y-40838301D02*
X62284693Y-40839201D01*
X62290643Y-40840691D01*
X62296418Y-40842758D01*
X62301962Y-40845380D01*
X62307223Y-40848533D01*
X62312150Y-40852187D01*
X62316694Y-40856306D01*
X62320813Y-40860850D01*
X62324467Y-40865777D01*
X62327620Y-40871038D01*
X62330242Y-40876582D01*
X62332309Y-40882357D01*
X62333799Y-40888307D01*
X62334699Y-40894374D01*
X62335000Y-40900500D01*
X62335000Y-41525500D01*
X62334699Y-41531626D01*
X62333799Y-41537693D01*
X62332309Y-41543643D01*
X62330242Y-41549418D01*
X62327620Y-41554962D01*
X62324467Y-41560223D01*
X62320813Y-41565150D01*
X62316694Y-41569694D01*
X62312150Y-41573813D01*
X62307223Y-41577467D01*
X62301962Y-41580620D01*
X62296418Y-41583242D01*
X62290643Y-41585309D01*
X62284693Y-41586799D01*
X62278626Y-41587699D01*
X62272500Y-41588000D01*
X62147500Y-41588000D01*
X62141374Y-41587699D01*
X62135307Y-41586799D01*
X62129357Y-41585309D01*
X62123582Y-41583242D01*
X62118038Y-41580620D01*
X62112777Y-41577467D01*
X62107850Y-41573813D01*
X62103306Y-41569694D01*
X62099187Y-41565150D01*
X62095533Y-41560223D01*
X62092380Y-41554962D01*
X62089758Y-41549418D01*
X62087691Y-41543643D01*
X62086201Y-41537693D01*
X62085301Y-41531626D01*
X62085000Y-41525500D01*
X62085000Y-40900500D01*
X62085301Y-40894374D01*
X62086201Y-40888307D01*
X62087691Y-40882357D01*
X62089758Y-40876582D01*
X62092380Y-40871038D01*
X62095533Y-40865777D01*
X62099187Y-40860850D01*
X62103306Y-40856306D01*
X62107850Y-40852187D01*
X62112777Y-40848533D01*
X62118038Y-40845380D01*
X62123582Y-40842758D01*
X62129357Y-40840691D01*
X62135307Y-40839201D01*
X62141374Y-40838301D01*
X62147500Y-40838000D01*
X62272500Y-40838000D01*
X62278626Y-40838301D01*
X62278626Y-40838301D01*
G37*
D15*
G04 #@! TD*
G04 #@! TO.P,U1,31*
G04 #@! TO.N,/cap0*
X62210000Y-41213000D03*
D10*
G04 #@! TO.N,/cap1*
G04 #@! TO.C,U1*
G36*
X62778626Y-40838301D02*
X62784693Y-40839201D01*
X62790643Y-40840691D01*
X62796418Y-40842758D01*
X62801962Y-40845380D01*
X62807223Y-40848533D01*
X62812150Y-40852187D01*
X62816694Y-40856306D01*
X62820813Y-40860850D01*
X62824467Y-40865777D01*
X62827620Y-40871038D01*
X62830242Y-40876582D01*
X62832309Y-40882357D01*
X62833799Y-40888307D01*
X62834699Y-40894374D01*
X62835000Y-40900500D01*
X62835000Y-41525500D01*
X62834699Y-41531626D01*
X62833799Y-41537693D01*
X62832309Y-41543643D01*
X62830242Y-41549418D01*
X62827620Y-41554962D01*
X62824467Y-41560223D01*
X62820813Y-41565150D01*
X62816694Y-41569694D01*
X62812150Y-41573813D01*
X62807223Y-41577467D01*
X62801962Y-41580620D01*
X62796418Y-41583242D01*
X62790643Y-41585309D01*
X62784693Y-41586799D01*
X62778626Y-41587699D01*
X62772500Y-41588000D01*
X62647500Y-41588000D01*
X62641374Y-41587699D01*
X62635307Y-41586799D01*
X62629357Y-41585309D01*
X62623582Y-41583242D01*
X62618038Y-41580620D01*
X62612777Y-41577467D01*
X62607850Y-41573813D01*
X62603306Y-41569694D01*
X62599187Y-41565150D01*
X62595533Y-41560223D01*
X62592380Y-41554962D01*
X62589758Y-41549418D01*
X62587691Y-41543643D01*
X62586201Y-41537693D01*
X62585301Y-41531626D01*
X62585000Y-41525500D01*
X62585000Y-40900500D01*
X62585301Y-40894374D01*
X62586201Y-40888307D01*
X62587691Y-40882357D01*
X62589758Y-40876582D01*
X62592380Y-40871038D01*
X62595533Y-40865777D01*
X62599187Y-40860850D01*
X62603306Y-40856306D01*
X62607850Y-40852187D01*
X62612777Y-40848533D01*
X62618038Y-40845380D01*
X62623582Y-40842758D01*
X62629357Y-40840691D01*
X62635307Y-40839201D01*
X62641374Y-40838301D01*
X62647500Y-40838000D01*
X62772500Y-40838000D01*
X62778626Y-40838301D01*
X62778626Y-40838301D01*
G37*
D15*
G04 #@! TD*
G04 #@! TO.P,U1,32*
G04 #@! TO.N,/cap1*
X62710000Y-41213000D03*
D16*
G04 #@! TO.P,J2,1*
G04 #@! TO.N,/I2C_SCL*
X66925000Y-49530000D03*
G04 #@! TO.P,J2,3*
G04 #@! TO.N,/~Touch_IRQ*
X66925000Y-44450000D03*
G04 #@! TO.P,J2,5*
G04 #@! TO.N,GND*
X66925000Y-39370000D03*
G04 #@! TO.P,J2,2*
G04 #@! TO.N,/I2C_SDA*
X70235000Y-46990000D03*
G04 #@! TO.P,J2,4*
G04 #@! TO.N,/VCC*
X70235000Y-41910000D03*
G04 #@! TO.P,J2,6*
G04 #@! TO.N,/~Touch_Reset*
X70235000Y-36830000D03*
G04 #@! TD*
G04 #@! TO.P,J3,1*
G04 #@! TO.N,/GPIO0*
X51685000Y-54610000D03*
G04 #@! TO.P,J3,3*
G04 #@! TO.N,/GPIO2*
X51685000Y-49530000D03*
G04 #@! TO.P,J3,5*
G04 #@! TO.N,/GPIO4*
X51685000Y-44450000D03*
G04 #@! TO.P,J3,7*
G04 #@! TO.N,/GPIO6*
X51685000Y-39370000D03*
G04 #@! TO.P,J3,2*
G04 #@! TO.N,/GPIO1*
X54995000Y-52070000D03*
G04 #@! TO.P,J3,4*
G04 #@! TO.N,/GPIO3*
X54995000Y-46990000D03*
G04 #@! TO.P,J3,6*
G04 #@! TO.N,/GPIO5*
X54995000Y-41910000D03*
G04 #@! TO.P,J3,8*
G04 #@! TO.N,/GPIO7*
X54995000Y-36830000D03*
G04 #@! TD*
D17*
G04 #@! TO.N,/VCC*
X59563000Y-38608000D03*
X57962800Y-48412400D03*
X71945500Y-42926000D03*
G04 #@! TO.N,GND*
X60706000Y-40005000D03*
G04 #@! TO.N,/I2C_SDA*
X58623200Y-46482000D03*
X71691500Y-52768500D03*
G04 #@! TO.N,/I2C_SCL*
X58775600Y-48056800D03*
X67246500Y-52768500D03*
G04 #@! TO.N,/~Touch_Reset*
X61214000Y-40386000D03*
X61277500Y-36131500D03*
G04 #@! TO.N,/~Touch_IRQ*
X59740800Y-47244000D03*
X72326500Y-52768500D03*
G04 #@! TO.N,/cap3*
X85344000Y-47752000D03*
G04 #@! TO.N,/cap7*
X79858000Y-59220000D03*
G04 #@! TO.N,/cap8*
X72834500Y-59182000D03*
G04 #@! TO.N,/cap9*
X65858000Y-59220000D03*
G04 #@! TO.N,/cap10*
X58864500Y-59245500D03*
G04 #@! TO.N,/cap0*
X64262000Y-38100000D03*
G04 #@! TO.N,/cap5*
X68897500Y-45085000D03*
G04 #@! TO.N,/cap2*
X84582000Y-40132000D03*
G04 #@! TO.N,/cap4*
X76454000Y-47752000D03*
G04 #@! TO.N,/cap1*
X76454000Y-38862000D03*
G04 #@! TO.N,/cap6*
X86868000Y-59182000D03*
G04 #@! TO.N,/cap11*
X51879500Y-59182000D03*
G04 #@! TD*
D18*
G04 #@! TO.N,/VCC*
X58420000Y-49354500D02*
X58722500Y-49354500D01*
X60710000Y-47113000D02*
X60710000Y-46163000D01*
X58595500Y-49227500D02*
X60710000Y-47113000D01*
X61210000Y-39183000D02*
X60710000Y-39183000D01*
X61210000Y-39183000D02*
X61210000Y-38612000D01*
X61210000Y-38612000D02*
X61206000Y-38608000D01*
X61206000Y-38608000D02*
X59563000Y-38608000D01*
X57962800Y-48897300D02*
X58420000Y-49354500D01*
X57962800Y-48412400D02*
X57962800Y-48897300D01*
X70235000Y-41910000D02*
X70929500Y-41910000D01*
X70929500Y-41910000D02*
X71945500Y-42926000D01*
G04 #@! TO.N,GND*
X60710000Y-41213000D02*
X60710000Y-40009000D01*
X60710000Y-40009000D02*
X60706000Y-40005000D01*
X58485000Y-44438000D02*
X60210000Y-44438000D01*
X60210000Y-44438000D02*
X60960000Y-43688000D01*
X58485000Y-41938000D02*
X59210000Y-41938000D01*
X59210000Y-41938000D02*
X60960000Y-43688000D01*
X60710000Y-41213000D02*
X60710000Y-43438000D01*
X60710000Y-43438000D02*
X60960000Y-43688000D01*
X60210000Y-38033000D02*
X61710000Y-38033000D01*
G04 #@! TO.N,/I2C_SDA*
X58942200Y-46163000D02*
X59210000Y-46163000D01*
X58942200Y-46163000D02*
X58623200Y-46482000D01*
X70235000Y-46990000D02*
X70235000Y-51312000D01*
X70235000Y-51312000D02*
X71691500Y-52768500D01*
G04 #@! TO.N,/I2C_SCL*
X58775600Y-47599600D02*
X58775600Y-48056800D01*
X59710000Y-46665200D02*
X59710000Y-46163000D01*
X59710000Y-46665200D02*
X58775600Y-47599600D01*
X66925000Y-49530000D02*
X66925000Y-52447000D01*
X66925000Y-52447000D02*
X67246500Y-52768500D01*
G04 #@! TO.N,Net-(C1-Pad1)*
X61210000Y-46163000D02*
X61210000Y-47857500D01*
X61210000Y-47857500D02*
X61188500Y-47879000D01*
G04 #@! TO.N,/~Touch_Reset*
X61210000Y-41213000D02*
X61210000Y-40390000D01*
X61210000Y-40390000D02*
X61214000Y-40386000D01*
X70235000Y-36830000D02*
X61976000Y-36830000D01*
X61976000Y-36830000D02*
X61277500Y-36131500D01*
G04 #@! TO.N,/~Touch_IRQ*
X66925000Y-44450000D02*
X66141600Y-44450000D01*
X66141600Y-44450000D02*
X66925000Y-44450000D01*
X60210000Y-46774800D02*
X60210000Y-46163000D01*
X66925000Y-44450000D02*
X67564000Y-44450000D01*
X72326500Y-46609000D02*
X72326500Y-52768500D01*
X71501000Y-45783500D02*
X72326500Y-46609000D01*
X68897500Y-45783500D02*
X71501000Y-45783500D01*
X67564000Y-44450000D02*
X68897500Y-45783500D01*
X60210000Y-46774800D02*
X59740800Y-47244000D01*
G04 #@! TO.N,Net-(C1-Pad2)*
X61710000Y-46163000D02*
X61710000Y-46825500D01*
X61710000Y-46825500D02*
X62763500Y-47879000D01*
G04 #@! TO.N,Net-(CARY1-Pad7)*
X60210000Y-39183000D02*
X60210000Y-41213000D01*
G04 #@! TO.N,/GPIO0*
X58485000Y-45438000D02*
X58485000Y-45909000D01*
X52451000Y-54610000D02*
X51685000Y-54610000D01*
X53086000Y-53975000D02*
X52451000Y-54610000D01*
X55245000Y-53975000D02*
X53086000Y-53975000D01*
X57277000Y-51943000D02*
X55245000Y-53975000D01*
X57277000Y-47117000D02*
X57277000Y-51943000D01*
X58485000Y-45909000D02*
X57277000Y-47117000D01*
G04 #@! TO.N,/GPIO1*
X58485000Y-44938000D02*
X58059000Y-44938000D01*
X55753000Y-52070000D02*
X54995000Y-52070000D01*
X56961998Y-50861002D02*
X55753000Y-52070000D01*
X56961998Y-46035002D02*
X56961998Y-50861002D01*
X58059000Y-44938000D02*
X56961998Y-46035002D01*
G04 #@! TO.N,/GPIO2*
X58485000Y-43938000D02*
X58043000Y-43938000D01*
X52451000Y-49530000D02*
X51685000Y-49530000D01*
X53086000Y-48895000D02*
X52451000Y-49530000D01*
X55245000Y-48895000D02*
X53086000Y-48895000D01*
X56646996Y-47493004D02*
X55245000Y-48895000D01*
X56646996Y-45334004D02*
X56646996Y-47493004D01*
X58043000Y-43938000D02*
X56646996Y-45334004D01*
G04 #@! TO.N,/GPIO3*
X58485000Y-43438000D02*
X58035000Y-43438000D01*
X55753000Y-46990000D02*
X54995000Y-46990000D01*
X56331994Y-46411006D02*
X55753000Y-46990000D01*
X56331994Y-45141006D02*
X56331994Y-46411006D01*
X58035000Y-43438000D02*
X56331994Y-45141006D01*
G04 #@! TO.N,/GPIO4*
X58485000Y-42938000D02*
X53963000Y-42938000D01*
X52451000Y-44450000D02*
X51685000Y-44450000D01*
X53963000Y-42938000D02*
X52451000Y-44450000D01*
G04 #@! TO.N,/GPIO5*
X58485000Y-42438000D02*
X56281000Y-42438000D01*
X55753000Y-41910000D02*
X54995000Y-41910000D01*
X56281000Y-42438000D02*
X55753000Y-41910000D01*
G04 #@! TO.N,/GPIO6*
X59210000Y-41213000D02*
X58739000Y-41213000D01*
X52451000Y-39370000D02*
X51685000Y-39370000D01*
X53086000Y-40005000D02*
X52451000Y-39370000D01*
X57531000Y-40005000D02*
X53086000Y-40005000D01*
X58739000Y-41213000D02*
X57531000Y-40005000D01*
G04 #@! TO.N,/GPIO7*
X54995000Y-36830000D02*
X55753000Y-36830000D01*
X59710000Y-40787000D02*
X59710000Y-41213000D01*
X55753000Y-36830000D02*
X59710000Y-40787000D01*
G04 #@! TO.N,Net-(CARY1-Pad1)*
X61710000Y-39183000D02*
X61710000Y-41213000D01*
D19*
G04 #@! TO.N,/cap3*
X63435000Y-42438000D02*
X68536500Y-42438000D01*
X81153000Y-43561000D02*
X85344000Y-47752000D01*
X69659500Y-43561000D02*
X81153000Y-43561000D01*
X68536500Y-42438000D02*
X69659500Y-43561000D01*
G04 #@! TO.N,/cap7*
X63435000Y-44438000D02*
X64128812Y-44438000D01*
X68773406Y-49082594D02*
X64128812Y-44438000D01*
X68773406Y-52517406D02*
X68773406Y-49082594D01*
X70167500Y-53911500D02*
X68773406Y-52517406D01*
X74612500Y-53911500D02*
X70167500Y-53911500D01*
X79832500Y-59131500D02*
X74612500Y-53911500D01*
X79832500Y-59245500D02*
X79832500Y-59131500D01*
X79832500Y-59245500D02*
X79858000Y-59220000D01*
G04 #@! TO.N,/cap8*
X63435000Y-44938000D02*
X64063124Y-44938000D01*
X65341500Y-51689000D02*
X72834500Y-59182000D01*
X65341500Y-46216376D02*
X65341500Y-51689000D01*
X64063124Y-44938000D02*
X65341500Y-46216376D01*
G04 #@! TO.N,/cap9*
X63435000Y-45438000D02*
X64750998Y-46753998D01*
X64750998Y-58112998D02*
X64750998Y-46753998D01*
X64750998Y-58112998D02*
X65858000Y-59220000D01*
G04 #@! TO.N,/cap10*
X62710000Y-46163000D02*
X63594312Y-46163000D01*
X64198500Y-53911500D02*
X58864500Y-59245500D01*
X64198500Y-46767188D02*
X64198500Y-53911500D01*
X63594312Y-46163000D02*
X64198500Y-46767188D01*
G04 #@! TO.N,/cap0*
X62210000Y-41213000D02*
X62210000Y-40152000D01*
X62210000Y-40152000D02*
X64262000Y-38100000D01*
G04 #@! TO.N,/cap5*
X63435000Y-43438000D02*
X68139500Y-43438000D01*
X68897500Y-44196000D02*
X68897500Y-45085000D01*
X68139500Y-43438000D02*
X68897500Y-44196000D01*
G04 #@! TO.N,/cap2*
X63435000Y-41938000D02*
X67790000Y-41938000D01*
X69596000Y-40132000D02*
X84582000Y-40132000D01*
X67790000Y-41938000D02*
X69596000Y-40132000D01*
G04 #@! TO.N,/cap4*
X63435000Y-42938000D02*
X68401500Y-42938000D01*
X68401500Y-42938000D02*
X69678550Y-44215050D01*
X69678550Y-44215050D02*
X72917050Y-44215050D01*
X72917050Y-44215050D02*
X76454000Y-47752000D01*
G04 #@! TO.N,/cap1*
X62710000Y-41213000D02*
X67499000Y-41213000D01*
X69850000Y-38862000D02*
X76454000Y-38862000D01*
X67499000Y-41213000D02*
X69850000Y-38862000D01*
G04 #@! TO.N,/cap6*
X80962500Y-53276500D02*
X86868000Y-59182000D01*
X63435000Y-43938000D02*
X64194500Y-43938000D01*
X64194500Y-43938000D02*
X69310250Y-49053750D01*
X69310250Y-49053750D02*
X69310250Y-51911250D01*
X70675500Y-53276500D02*
X80962500Y-53276500D01*
X69310250Y-51911250D02*
X70675500Y-53276500D01*
G04 #@! TO.N,/cap11*
X62210000Y-46163000D02*
X62210000Y-46716000D01*
X58229500Y-52832000D02*
X51879500Y-59182000D01*
X60579000Y-52832000D02*
X58229500Y-52832000D01*
X63607998Y-49803002D02*
X60579000Y-52832000D01*
X63607998Y-47415498D02*
X63607998Y-49803002D01*
X63182500Y-46990000D02*
X63607998Y-47415498D01*
X62484000Y-46990000D02*
X63182500Y-46990000D01*
X62210000Y-46716000D02*
X62484000Y-46990000D01*
G04 #@! TD*
G04 #@! TO.N,GND*
X50305917Y-33395000D02*
X88873281Y-33395000D01*
X49546558Y-33585000D02*
X89627312Y-33585000D01*
X49253424Y-33775000D02*
X89924981Y-33775000D01*
X49068438Y-33965000D02*
X90145486Y-33965000D01*
X48904723Y-34155000D02*
X90268764Y-34155000D01*
X48815764Y-34345000D02*
X90391916Y-34345000D01*
X48729376Y-34535000D02*
X90453477Y-34535000D01*
X48685656Y-34725000D02*
X90510298Y-34725000D01*
X48658446Y-34915000D02*
X90545784Y-34915000D01*
X48635000Y-35105000D02*
X90557001Y-35105000D01*
X48635000Y-35295000D02*
X90557001Y-35295000D01*
X48635000Y-35485000D02*
X90557001Y-35485000D01*
X48635000Y-35675000D02*
X61133128Y-35675000D01*
X61421873Y-35675000D02*
X90557001Y-35675000D01*
X48635000Y-35865000D02*
X60871587Y-35865000D01*
X61683414Y-35865000D02*
X90557001Y-35865000D01*
X48635000Y-36055000D02*
X53611583Y-36055000D01*
X56378418Y-36055000D02*
X60800500Y-36055000D01*
X61754500Y-36055000D02*
X68851583Y-36055000D01*
X71618418Y-36055000D02*
X90557001Y-36055000D01*
X48635000Y-36245000D02*
X53451031Y-36245000D01*
X56538970Y-36245000D02*
X60808212Y-36245000D01*
X61928401Y-36245000D02*
X68691031Y-36245000D01*
X71778970Y-36245000D02*
X90557001Y-36245000D01*
X48635000Y-36435000D02*
X53434123Y-36435000D01*
X56555877Y-36435000D02*
X60906420Y-36435000D01*
X62118401Y-36435000D02*
X68674123Y-36435000D01*
X71795877Y-36435000D02*
X90557001Y-36435000D01*
X48635000Y-36625000D02*
X53434123Y-36625000D01*
X56555877Y-36625000D02*
X61233599Y-36625000D01*
X71795877Y-36625000D02*
X90557001Y-36625000D01*
X48635000Y-36815000D02*
X53434123Y-36815000D01*
X56555877Y-36815000D02*
X61423599Y-36815000D01*
X71795877Y-36815000D02*
X90557001Y-36815000D01*
X48635000Y-37005000D02*
X53434123Y-37005000D01*
X56555877Y-37005000D02*
X61613599Y-37005000D01*
X71795877Y-37005000D02*
X90557001Y-37005000D01*
X48635000Y-37195000D02*
X53434123Y-37195000D01*
X56655401Y-37195000D02*
X61863165Y-37195000D01*
X71795877Y-37195000D02*
X90557001Y-37195000D01*
X48635000Y-37385000D02*
X53445063Y-37385000D01*
X56845401Y-37385000D02*
X68685063Y-37385000D01*
X71784936Y-37385000D02*
X90557001Y-37385000D01*
X48635000Y-37575000D02*
X53566683Y-37575000D01*
X57035401Y-37575000D02*
X68806683Y-37575000D01*
X71663316Y-37575000D02*
X90557001Y-37575000D01*
X48635000Y-37765000D02*
X56150599Y-37765000D01*
X57225401Y-37765000D02*
X63922420Y-37765000D01*
X64601580Y-37765000D02*
X90557001Y-37765000D01*
X48635000Y-37955000D02*
X56340599Y-37955000D01*
X57415401Y-37955000D02*
X63805760Y-37955000D01*
X64718241Y-37955000D02*
X90557001Y-37955000D01*
X48635000Y-38145000D02*
X56530599Y-38145000D01*
X57605401Y-38145000D02*
X59434320Y-38145000D01*
X59691681Y-38145000D02*
X63651315Y-38145000D01*
X64739000Y-38145000D02*
X90557001Y-38145000D01*
X48635000Y-38335000D02*
X56720599Y-38335000D01*
X57795401Y-38335000D02*
X59161420Y-38335000D01*
X61480609Y-38335000D02*
X63461315Y-38335000D01*
X64680960Y-38335000D02*
X90557001Y-38335000D01*
X48635000Y-38525000D02*
X56910599Y-38525000D01*
X57985401Y-38525000D02*
X59086000Y-38525000D01*
X61580139Y-38525000D02*
X63271315Y-38525000D01*
X64482420Y-38525000D02*
X69634376Y-38525000D01*
X76791580Y-38525000D02*
X90557001Y-38525000D01*
X48635000Y-38715000D02*
X50172762Y-38715000D01*
X53197239Y-38715000D02*
X57100599Y-38715000D01*
X58175401Y-38715000D02*
X59091019Y-38715000D01*
X62083553Y-38715000D02*
X63081315Y-38715000D01*
X64212685Y-38715000D02*
X69431315Y-38715000D01*
X76909412Y-38715000D02*
X90557001Y-38715000D01*
X48635000Y-38905000D02*
X50124123Y-38905000D01*
X53245877Y-38905000D02*
X57290599Y-38905000D01*
X58365401Y-38905000D02*
X59185420Y-38905000D01*
X62140877Y-38905000D02*
X62891316Y-38905000D01*
X64022685Y-38905000D02*
X69241315Y-38905000D01*
X76931000Y-38905000D02*
X90557001Y-38905000D01*
X48635000Y-39095000D02*
X50124123Y-39095000D01*
X53245877Y-39095000D02*
X57480599Y-39095000D01*
X58555401Y-39095000D02*
X59779123Y-39095000D01*
X62140877Y-39095000D02*
X62701316Y-39095000D01*
X63832685Y-39095000D02*
X69051315Y-39095000D01*
X76873789Y-39095000D02*
X90557001Y-39095000D01*
X48635000Y-39285000D02*
X50124123Y-39285000D01*
X53245877Y-39285000D02*
X57670599Y-39285000D01*
X58745401Y-39285000D02*
X59779123Y-39285000D01*
X62140877Y-39285000D02*
X62511316Y-39285000D01*
X63642685Y-39285000D02*
X68861315Y-39285000D01*
X69992686Y-39285000D02*
X76228751Y-39285000D01*
X76679248Y-39285000D02*
X90557001Y-39285000D01*
X48635000Y-39475000D02*
X50124123Y-39475000D01*
X53245877Y-39475000D02*
X57860599Y-39475000D01*
X58935401Y-39475000D02*
X59779123Y-39475000D01*
X62140877Y-39475000D02*
X62321316Y-39475000D01*
X63452684Y-39475000D02*
X68671315Y-39475000D01*
X69802686Y-39475000D02*
X90557001Y-39475000D01*
X48635000Y-39665000D02*
X50124123Y-39665000D01*
X57706135Y-39665000D02*
X58050599Y-39665000D01*
X59125401Y-39665000D02*
X59830000Y-39665000D01*
X62090000Y-39665000D02*
X62131316Y-39665000D01*
X63262684Y-39665000D02*
X68481315Y-39665000D01*
X69612686Y-39665000D02*
X84462977Y-39665000D01*
X84701024Y-39665000D02*
X90557001Y-39665000D01*
X48635000Y-39855000D02*
X50124123Y-39855000D01*
X57918401Y-39855000D02*
X58240599Y-39855000D01*
X59315401Y-39855000D02*
X59830000Y-39855000D01*
X60590000Y-39855000D02*
X61330000Y-39855000D01*
X63072684Y-39855000D02*
X68291316Y-39855000D01*
X84979580Y-39855000D02*
X90557001Y-39855000D01*
X48635000Y-40045000D02*
X50186124Y-40045000D01*
X58108401Y-40045000D02*
X58430599Y-40045000D01*
X59505401Y-40045000D02*
X59830000Y-40045000D01*
X60590000Y-40045000D02*
X60880420Y-40045000D01*
X62882684Y-40045000D02*
X68101316Y-40045000D01*
X85059000Y-40045000D02*
X90557001Y-40045000D01*
X48635000Y-40235000D02*
X52778599Y-40235000D01*
X58298401Y-40235000D02*
X58620599Y-40235000D01*
X59695401Y-40235000D02*
X59830000Y-40235000D01*
X60590000Y-40235000D02*
X60760246Y-40235000D01*
X62692684Y-40235000D02*
X67911316Y-40235000D01*
X85055637Y-40235000D02*
X90557001Y-40235000D01*
X48635000Y-40425000D02*
X57413599Y-40425000D01*
X58488401Y-40425000D02*
X58810599Y-40425000D01*
X60590000Y-40425000D02*
X60737000Y-40425000D01*
X62610000Y-40425000D02*
X67721316Y-40425000D01*
X84963580Y-40425000D02*
X90557001Y-40425000D01*
X48635000Y-40615000D02*
X57603599Y-40615000D01*
X58678401Y-40615000D02*
X58924461Y-40615000D01*
X60590000Y-40615000D02*
X60792553Y-40615000D01*
X62995540Y-40615000D02*
X67531316Y-40615000D01*
X69678685Y-40615000D02*
X90557001Y-40615000D01*
X48635000Y-40805000D02*
X57793599Y-40805000D01*
X60621881Y-40805000D02*
X60798120Y-40805000D01*
X63121881Y-40805000D02*
X67341316Y-40805000D01*
X69488685Y-40805000D02*
X90557001Y-40805000D01*
X48635000Y-40995000D02*
X57983599Y-40995000D01*
X60640877Y-40995000D02*
X60779123Y-40995000D01*
X69298685Y-40995000D02*
X90557001Y-40995000D01*
X48635000Y-41185000D02*
X53536751Y-41185000D01*
X56453250Y-41185000D02*
X58173599Y-41185000D01*
X60640877Y-41185000D02*
X60779123Y-41185000D01*
X71693250Y-41185000D02*
X90557001Y-41185000D01*
X48635000Y-41375000D02*
X53441086Y-41375000D01*
X56548915Y-41375000D02*
X58363599Y-41375000D01*
X60640877Y-41375000D02*
X60779123Y-41375000D01*
X71788915Y-41375000D02*
X90557001Y-41375000D01*
X48635000Y-41565000D02*
X53434123Y-41565000D01*
X56555877Y-41565000D02*
X58581824Y-41565000D01*
X60633019Y-41565000D02*
X60786980Y-41565000D01*
X71795877Y-41565000D02*
X90557001Y-41565000D01*
X48635000Y-41755000D02*
X53434123Y-41755000D01*
X56555877Y-41755000D02*
X58866316Y-41755000D01*
X60553683Y-41755000D02*
X60866316Y-41755000D01*
X71795877Y-41755000D02*
X90557001Y-41755000D01*
X48635000Y-41945000D02*
X53434123Y-41945000D01*
X56555877Y-41945000D02*
X62754123Y-41945000D01*
X71795877Y-41945000D02*
X90557001Y-41945000D01*
X48635000Y-42135000D02*
X53434123Y-42135000D01*
X59071334Y-42135000D02*
X62780876Y-42135000D01*
X71795877Y-42135000D02*
X90557001Y-42135000D01*
X48635000Y-42325000D02*
X53434123Y-42325000D01*
X59155832Y-42325000D02*
X62764169Y-42325000D01*
X71881901Y-42325000D02*
X90557001Y-42325000D01*
X48635000Y-42515000D02*
X53455009Y-42515000D01*
X59162992Y-42515000D02*
X62757007Y-42515000D01*
X72199720Y-42515000D02*
X90557001Y-42515000D01*
X48635000Y-42705000D02*
X53658600Y-42705000D01*
X59118107Y-42705000D02*
X62801894Y-42705000D01*
X72370260Y-42705000D02*
X90557001Y-42705000D01*
X48635000Y-42895000D02*
X53468600Y-42895000D01*
X59165877Y-42895000D02*
X62754123Y-42895000D01*
X72422500Y-42895000D02*
X90557001Y-42895000D01*
X48635000Y-43085000D02*
X53278600Y-43085000D01*
X59149068Y-43085000D02*
X62770931Y-43085000D01*
X72395941Y-43085000D02*
X90557001Y-43085000D01*
X48635000Y-43275000D02*
X53088600Y-43275000D01*
X59145887Y-43275000D02*
X62774114Y-43275000D01*
X81442977Y-43275000D02*
X90557001Y-43275000D01*
X48635000Y-43465000D02*
X52898600Y-43465000D01*
X53973400Y-43465000D02*
X57470600Y-43465000D01*
X59165877Y-43465000D02*
X62754123Y-43465000D01*
X81622685Y-43465000D02*
X90557001Y-43465000D01*
X48635000Y-43655000D02*
X50375319Y-43655000D01*
X53783400Y-43655000D02*
X57280600Y-43655000D01*
X59128796Y-43655000D02*
X62791203Y-43655000D01*
X81812685Y-43655000D02*
X90557001Y-43655000D01*
X48635000Y-43845000D02*
X50145010Y-43845000D01*
X53593400Y-43845000D02*
X57090600Y-43845000D01*
X59159811Y-43845000D02*
X62760190Y-43845000D01*
X82002685Y-43845000D02*
X90557001Y-43845000D01*
X48635000Y-44035000D02*
X50124123Y-44035000D01*
X53403400Y-44035000D02*
X56900600Y-44035000D01*
X59159014Y-44035000D02*
X62760985Y-44035000D01*
X73302685Y-44035000D02*
X81061315Y-44035000D01*
X82192685Y-44035000D02*
X90557001Y-44035000D01*
X48635000Y-44225000D02*
X50124123Y-44225000D01*
X53245877Y-44225000D02*
X56710600Y-44225000D01*
X59082024Y-44225000D02*
X62788531Y-44225000D01*
X73492685Y-44225000D02*
X81251315Y-44225000D01*
X82382685Y-44225000D02*
X90557001Y-44225000D01*
X48635000Y-44415000D02*
X50124123Y-44415000D01*
X53245877Y-44415000D02*
X56520600Y-44415000D01*
X58103401Y-44415000D02*
X62754123Y-44415000D01*
X69297500Y-44415000D02*
X69312814Y-44415000D01*
X73682685Y-44415000D02*
X81441315Y-44415000D01*
X82572685Y-44415000D02*
X90557001Y-44415000D01*
X48635000Y-44605000D02*
X50124123Y-44605000D01*
X53245877Y-44605000D02*
X56330600Y-44605000D01*
X59042989Y-44605000D02*
X62774909Y-44605000D01*
X69297500Y-44605000D02*
X69588631Y-44605000D01*
X73872685Y-44605000D02*
X81631315Y-44605000D01*
X82762685Y-44605000D02*
X90557001Y-44605000D01*
X48635000Y-44795000D02*
X50124123Y-44795000D01*
X53245877Y-44795000D02*
X56140600Y-44795000D01*
X59149865Y-44795000D02*
X62770136Y-44795000D01*
X69297500Y-44795000D02*
X72931315Y-44795000D01*
X74062685Y-44795000D02*
X81821315Y-44795000D01*
X82952685Y-44795000D02*
X90557001Y-44795000D01*
X48635000Y-44985000D02*
X50131085Y-44985000D01*
X53238914Y-44985000D02*
X55979214Y-44985000D01*
X59165877Y-44985000D02*
X62754123Y-44985000D01*
X69372380Y-44985000D02*
X73121315Y-44985000D01*
X74252685Y-44985000D02*
X82011315Y-44985000D01*
X83142685Y-44985000D02*
X90557001Y-44985000D01*
X48635000Y-45175000D02*
X50226750Y-45175000D01*
X53143249Y-45175000D02*
X55951312Y-45175000D01*
X59115433Y-45175000D02*
X62804566Y-45175000D01*
X69374500Y-45175000D02*
X73311315Y-45175000D01*
X74442685Y-45175000D02*
X82201315Y-45175000D01*
X83332685Y-45175000D02*
X90557001Y-45175000D01*
X48635000Y-45365000D02*
X55951994Y-45365000D01*
X59163789Y-45365000D02*
X62756212Y-45365000D01*
X69292080Y-45365000D02*
X73501315Y-45365000D01*
X74632685Y-45365000D02*
X82391315Y-45365000D01*
X83522685Y-45365000D02*
X90557001Y-45365000D01*
X48635000Y-45555000D02*
X55951994Y-45555000D01*
X71809901Y-45555000D02*
X73691315Y-45555000D01*
X74822685Y-45555000D02*
X82581315Y-45555000D01*
X83712685Y-45555000D02*
X90557001Y-45555000D01*
X48635000Y-45745000D02*
X55951994Y-45745000D01*
X71999901Y-45745000D02*
X73881315Y-45745000D01*
X75012685Y-45745000D02*
X82771315Y-45745000D01*
X83902685Y-45745000D02*
X90557001Y-45745000D01*
X48635000Y-45935000D02*
X55951994Y-45935000D01*
X72189902Y-45935000D02*
X74071315Y-45935000D01*
X75202685Y-45935000D02*
X82961315Y-45935000D01*
X84092685Y-45935000D02*
X90557001Y-45935000D01*
X48635000Y-46125000D02*
X55951994Y-46125000D01*
X72379902Y-46125000D02*
X74261315Y-46125000D01*
X75392685Y-46125000D02*
X83151315Y-46125000D01*
X84282685Y-46125000D02*
X90557001Y-46125000D01*
X48635000Y-46315000D02*
X53496125Y-46315000D01*
X72570479Y-46315000D02*
X74451315Y-46315000D01*
X75582685Y-46315000D02*
X83341315Y-46315000D01*
X84472685Y-46315000D02*
X90557001Y-46315000D01*
X48635000Y-46505000D02*
X53434123Y-46505000D01*
X72693258Y-46505000D02*
X74641315Y-46505000D01*
X75772685Y-46505000D02*
X83531315Y-46505000D01*
X84662685Y-46505000D02*
X90557001Y-46505000D01*
X48635000Y-46695000D02*
X53434123Y-46695000D01*
X72706500Y-46695000D02*
X74831315Y-46695000D01*
X75962685Y-46695000D02*
X83721315Y-46695000D01*
X84852685Y-46695000D02*
X90557001Y-46695000D01*
X48635000Y-46885000D02*
X53434123Y-46885000D01*
X72706500Y-46885000D02*
X75021315Y-46885000D01*
X76152685Y-46885000D02*
X83911315Y-46885000D01*
X85042685Y-46885000D02*
X90557001Y-46885000D01*
X48635000Y-47075000D02*
X53434123Y-47075000D01*
X72706500Y-47075000D02*
X75211315Y-47075000D01*
X76342685Y-47075000D02*
X84101315Y-47075000D01*
X85232685Y-47075000D02*
X90557001Y-47075000D01*
X48635000Y-47265000D02*
X53434123Y-47265000D01*
X72706500Y-47265000D02*
X75401315Y-47265000D01*
X76532685Y-47265000D02*
X84291315Y-47265000D01*
X85422685Y-47265000D02*
X90557001Y-47265000D01*
X48635000Y-47455000D02*
X53434123Y-47455000D01*
X72706500Y-47455000D02*
X75591315Y-47455000D01*
X76831580Y-47455000D02*
X84481315Y-47455000D01*
X85721580Y-47455000D02*
X90557001Y-47455000D01*
X48635000Y-47645000D02*
X53482761Y-47645000D01*
X61931877Y-47645000D02*
X61992099Y-47645000D01*
X72706500Y-47645000D02*
X75781315Y-47645000D01*
X76925981Y-47645000D02*
X84671315Y-47645000D01*
X85815981Y-47645000D02*
X90557001Y-47645000D01*
X48635000Y-47835000D02*
X55767600Y-47835000D01*
X61931877Y-47835000D02*
X62020123Y-47835000D01*
X72706500Y-47835000D02*
X75971315Y-47835000D01*
X76931000Y-47835000D02*
X84861315Y-47835000D01*
X85821000Y-47835000D02*
X90557001Y-47835000D01*
X48635000Y-48025000D02*
X55577600Y-48025000D01*
X60335400Y-48025000D02*
X60445123Y-48025000D01*
X61931877Y-48025000D02*
X62020123Y-48025000D01*
X72706500Y-48025000D02*
X76052420Y-48025000D01*
X76855580Y-48025000D02*
X84942420Y-48025000D01*
X85745580Y-48025000D02*
X90557001Y-48025000D01*
X48635000Y-48215000D02*
X55387600Y-48215000D01*
X56462400Y-48215000D02*
X56581998Y-48215000D01*
X60145400Y-48215000D02*
X60460986Y-48215000D01*
X61916013Y-48215000D02*
X62035986Y-48215000D01*
X72706500Y-48215000D02*
X76325319Y-48215000D01*
X76582680Y-48215000D02*
X85215319Y-48215000D01*
X85472680Y-48215000D02*
X90557001Y-48215000D01*
X48635000Y-48405000D02*
X55197600Y-48405000D01*
X56272400Y-48405000D02*
X56581998Y-48405000D01*
X59955400Y-48405000D02*
X60531151Y-48405000D01*
X61845848Y-48405000D02*
X62106151Y-48405000D01*
X72706500Y-48405000D02*
X90557001Y-48405000D01*
X48635000Y-48595000D02*
X52851002Y-48595000D01*
X56082400Y-48595000D02*
X56581998Y-48595000D01*
X59765400Y-48595000D02*
X60731655Y-48595000D01*
X61645344Y-48595000D02*
X62306655Y-48595000D01*
X72706500Y-48595000D02*
X90557001Y-48595000D01*
X48635000Y-48785000D02*
X50256684Y-48785000D01*
X55892400Y-48785000D02*
X56581998Y-48785000D01*
X59575400Y-48785000D02*
X63207998Y-48785000D01*
X72706500Y-48785000D02*
X90557001Y-48785000D01*
X48635000Y-48975000D02*
X50135064Y-48975000D01*
X55702400Y-48975000D02*
X56581998Y-48975000D01*
X59398875Y-48975000D02*
X63207998Y-48975000D01*
X72706500Y-48975000D02*
X90557001Y-48975000D01*
X48635000Y-49165000D02*
X50124123Y-49165000D01*
X55521612Y-49165000D02*
X56581998Y-49165000D01*
X59425877Y-49165000D02*
X63207998Y-49165000D01*
X72706500Y-49165000D02*
X90557001Y-49165000D01*
X48635000Y-49355000D02*
X50124123Y-49355000D01*
X53245877Y-49355000D02*
X56581998Y-49355000D01*
X59425877Y-49355000D02*
X63207998Y-49355000D01*
X72706500Y-49355000D02*
X90557001Y-49355000D01*
X48635000Y-49545000D02*
X50124123Y-49545000D01*
X53245877Y-49545000D02*
X56581998Y-49545000D01*
X59425877Y-49545000D02*
X63207998Y-49545000D01*
X72706500Y-49545000D02*
X90557001Y-49545000D01*
X48635000Y-49735000D02*
X50124123Y-49735000D01*
X53245877Y-49735000D02*
X56581998Y-49735000D01*
X59398675Y-49735000D02*
X63110316Y-49735000D01*
X72706500Y-49735000D02*
X90557001Y-49735000D01*
X48635000Y-49925000D02*
X50124123Y-49925000D01*
X53245877Y-49925000D02*
X56581998Y-49925000D01*
X59306251Y-49925000D02*
X62920316Y-49925000D01*
X72706500Y-49925000D02*
X90557001Y-49925000D01*
X48635000Y-50115000D02*
X50141030Y-50115000D01*
X53228969Y-50115000D02*
X56581998Y-50115000D01*
X57657000Y-50115000D02*
X57798466Y-50115000D01*
X59041533Y-50115000D02*
X62730316Y-50115000D01*
X72706500Y-50115000D02*
X90557001Y-50115000D01*
X48635000Y-50305000D02*
X50301582Y-50305000D01*
X53068417Y-50305000D02*
X56581998Y-50305000D01*
X57657000Y-50305000D02*
X62540316Y-50305000D01*
X63671684Y-50305000D02*
X63798500Y-50305000D01*
X68308418Y-50305000D02*
X68373407Y-50305000D01*
X72706500Y-50305000D02*
X90557001Y-50305000D01*
X48635000Y-50495000D02*
X56581998Y-50495000D01*
X57657000Y-50495000D02*
X62350316Y-50495000D01*
X63481684Y-50495000D02*
X63798500Y-50495000D01*
X67305000Y-50495000D02*
X68373407Y-50495000D01*
X72706500Y-50495000D02*
X90557001Y-50495000D01*
X48635000Y-50685000D02*
X56581998Y-50685000D01*
X57657000Y-50685000D02*
X62160316Y-50685000D01*
X63291684Y-50685000D02*
X63798500Y-50685000D01*
X67305000Y-50685000D02*
X68373407Y-50685000D01*
X72706500Y-50685000D02*
X90557001Y-50685000D01*
X48635000Y-50875000D02*
X56410599Y-50875000D01*
X57657000Y-50875000D02*
X61970316Y-50875000D01*
X63101684Y-50875000D02*
X63798500Y-50875000D01*
X67305000Y-50875000D02*
X68373407Y-50875000D01*
X72706500Y-50875000D02*
X90557001Y-50875000D01*
X48635000Y-51065000D02*
X56220599Y-51065000D01*
X57657000Y-51065000D02*
X61780316Y-51065000D01*
X62911684Y-51065000D02*
X63798500Y-51065000D01*
X67305000Y-51065000D02*
X68373407Y-51065000D01*
X72706500Y-51065000D02*
X90557001Y-51065000D01*
X48635000Y-51255000D02*
X56030599Y-51255000D01*
X57657000Y-51255000D02*
X61590316Y-51255000D01*
X62721684Y-51255000D02*
X63798500Y-51255000D01*
X67305000Y-51255000D02*
X68373407Y-51255000D01*
X72706500Y-51255000D02*
X90557001Y-51255000D01*
X48635000Y-51445000D02*
X53462717Y-51445000D01*
X57657000Y-51445000D02*
X61400316Y-51445000D01*
X62531684Y-51445000D02*
X63798500Y-51445000D01*
X67305000Y-51445000D02*
X68373407Y-51445000D01*
X72706500Y-51445000D02*
X90557001Y-51445000D01*
X48635000Y-51635000D02*
X53434123Y-51635000D01*
X57657000Y-51635000D02*
X61210316Y-51635000D01*
X62341684Y-51635000D02*
X63798500Y-51635000D01*
X67305000Y-51635000D02*
X68373407Y-51635000D01*
X72706500Y-51635000D02*
X90557001Y-51635000D01*
X48635000Y-51825000D02*
X53434123Y-51825000D01*
X57657000Y-51825000D02*
X61020316Y-51825000D01*
X62151684Y-51825000D02*
X63798500Y-51825000D01*
X67305000Y-51825000D02*
X68373407Y-51825000D01*
X72706500Y-51825000D02*
X90557001Y-51825000D01*
X48635000Y-52015000D02*
X53434123Y-52015000D01*
X57650122Y-52015000D02*
X60830316Y-52015000D01*
X61961684Y-52015000D02*
X63798500Y-52015000D01*
X67305000Y-52015000D02*
X68373407Y-52015000D01*
X72706500Y-52015000D02*
X90557001Y-52015000D01*
X48635000Y-52205000D02*
X53434123Y-52205000D01*
X57558958Y-52205000D02*
X60640316Y-52205000D01*
X61771684Y-52205000D02*
X63798500Y-52205000D01*
X65150998Y-52205000D02*
X65291815Y-52205000D01*
X67305000Y-52205000D02*
X68373407Y-52205000D01*
X72706500Y-52205000D02*
X90557001Y-52205000D01*
X48635000Y-52395000D02*
X53434123Y-52395000D01*
X57362400Y-52395000D02*
X60450316Y-52395000D01*
X61581684Y-52395000D02*
X63798500Y-52395000D01*
X65150998Y-52395000D02*
X65481815Y-52395000D01*
X67547580Y-52395000D02*
X68373407Y-52395000D01*
X72706500Y-52395000D02*
X90557001Y-52395000D01*
X48635000Y-52585000D02*
X53437106Y-52585000D01*
X57172400Y-52585000D02*
X57910815Y-52585000D01*
X61391684Y-52585000D02*
X63798500Y-52585000D01*
X65150998Y-52585000D02*
X65671815Y-52585000D01*
X67686793Y-52585000D02*
X68379015Y-52585000D01*
X72766793Y-52585000D02*
X90557001Y-52585000D01*
X48635000Y-52775000D02*
X53516169Y-52775000D01*
X56982400Y-52775000D02*
X57720815Y-52775000D01*
X61201684Y-52775000D02*
X63798500Y-52775000D01*
X65150998Y-52775000D02*
X65861815Y-52775000D01*
X67723500Y-52775000D02*
X68464449Y-52775000D01*
X72803500Y-52775000D02*
X90557001Y-52775000D01*
X48635000Y-52965000D02*
X55717600Y-52965000D01*
X56792400Y-52965000D02*
X57530815Y-52965000D01*
X61011684Y-52965000D02*
X63798500Y-52965000D01*
X65150998Y-52965000D02*
X66051815Y-52965000D01*
X67681408Y-52965000D02*
X68655315Y-52965000D01*
X81216289Y-52965000D02*
X90557001Y-52965000D01*
X48635000Y-53155000D02*
X55527600Y-53155000D01*
X56602400Y-53155000D02*
X57340815Y-53155000D01*
X60815576Y-53155000D02*
X63798500Y-53155000D01*
X65150998Y-53155000D02*
X66241815Y-53155000D01*
X67534580Y-53155000D02*
X68845315Y-53155000D01*
X81406685Y-53155000D02*
X90557001Y-53155000D01*
X48635000Y-53345000D02*
X55337600Y-53345000D01*
X56412400Y-53345000D02*
X57150815Y-53345000D01*
X58282185Y-53345000D02*
X63798500Y-53345000D01*
X65150998Y-53345000D02*
X66431815Y-53345000D01*
X67563186Y-53345000D02*
X69035315Y-53345000D01*
X81596685Y-53345000D02*
X90557001Y-53345000D01*
X48635000Y-53535000D02*
X55147600Y-53535000D01*
X56222400Y-53535000D02*
X56960815Y-53535000D01*
X58092185Y-53535000D02*
X63798500Y-53535000D01*
X65150998Y-53535000D02*
X66621815Y-53535000D01*
X67753186Y-53535000D02*
X69225315Y-53535000D01*
X81786685Y-53535000D02*
X90557001Y-53535000D01*
X48635000Y-53725000D02*
X52796024Y-53725000D01*
X56032400Y-53725000D02*
X56770815Y-53725000D01*
X57902185Y-53725000D02*
X63798500Y-53725000D01*
X65150998Y-53725000D02*
X66811815Y-53725000D01*
X67943186Y-53725000D02*
X69415315Y-53725000D01*
X74991685Y-53725000D02*
X80845315Y-53725000D01*
X81976685Y-53725000D02*
X90557001Y-53725000D01*
X48635000Y-53915000D02*
X50199489Y-53915000D01*
X55842400Y-53915000D02*
X56580815Y-53915000D01*
X57712185Y-53915000D02*
X63629315Y-53915000D01*
X65150998Y-53915000D02*
X67001815Y-53915000D01*
X68133186Y-53915000D02*
X69605315Y-53915000D01*
X75181685Y-53915000D02*
X81035315Y-53915000D01*
X82166685Y-53915000D02*
X90557001Y-53915000D01*
X48635000Y-54105000D02*
X50125118Y-54105000D01*
X55652400Y-54105000D02*
X56390815Y-54105000D01*
X57522185Y-54105000D02*
X63439315Y-54105000D01*
X65150998Y-54105000D02*
X67191815Y-54105000D01*
X68323186Y-54105000D02*
X69795315Y-54105000D01*
X75371685Y-54105000D02*
X81225315Y-54105000D01*
X82356685Y-54105000D02*
X90557001Y-54105000D01*
X48635000Y-54295000D02*
X50124123Y-54295000D01*
X55450066Y-54295000D02*
X56200815Y-54295000D01*
X57332185Y-54295000D02*
X63249315Y-54295000D01*
X65150998Y-54295000D02*
X67381815Y-54295000D01*
X68513186Y-54295000D02*
X70045156Y-54295000D01*
X75561685Y-54295000D02*
X81415315Y-54295000D01*
X82546685Y-54295000D02*
X90557001Y-54295000D01*
X48635000Y-54485000D02*
X50124123Y-54485000D01*
X53245877Y-54485000D02*
X56010815Y-54485000D01*
X57142185Y-54485000D02*
X63059315Y-54485000D01*
X64190685Y-54485000D02*
X64350998Y-54485000D01*
X65150998Y-54485000D02*
X67571815Y-54485000D01*
X68703186Y-54485000D02*
X74620315Y-54485000D01*
X75751685Y-54485000D02*
X81605315Y-54485000D01*
X82736685Y-54485000D02*
X90557001Y-54485000D01*
X48635000Y-54675000D02*
X50124123Y-54675000D01*
X53245877Y-54675000D02*
X55820815Y-54675000D01*
X56952185Y-54675000D02*
X62869315Y-54675000D01*
X64000685Y-54675000D02*
X64350998Y-54675000D01*
X65150998Y-54675000D02*
X67761815Y-54675000D01*
X68893186Y-54675000D02*
X74810315Y-54675000D01*
X75941685Y-54675000D02*
X81795315Y-54675000D01*
X82926685Y-54675000D02*
X90557001Y-54675000D01*
X48635000Y-54865000D02*
X50124123Y-54865000D01*
X53245877Y-54865000D02*
X55630815Y-54865000D01*
X56762185Y-54865000D02*
X62679315Y-54865000D01*
X63810685Y-54865000D02*
X64350998Y-54865000D01*
X65150998Y-54865000D02*
X67951815Y-54865000D01*
X69083186Y-54865000D02*
X75000315Y-54865000D01*
X76131685Y-54865000D02*
X81985315Y-54865000D01*
X83116685Y-54865000D02*
X90557001Y-54865000D01*
X48635000Y-55055000D02*
X50124123Y-55055000D01*
X53245877Y-55055000D02*
X55440815Y-55055000D01*
X56572185Y-55055000D02*
X62489315Y-55055000D01*
X63620685Y-55055000D02*
X64350998Y-55055000D01*
X65150998Y-55055000D02*
X68141815Y-55055000D01*
X69273186Y-55055000D02*
X75190315Y-55055000D01*
X76321685Y-55055000D02*
X82175315Y-55055000D01*
X83306685Y-55055000D02*
X90557001Y-55055000D01*
X48635000Y-55245000D02*
X50159397Y-55245000D01*
X53210602Y-55245000D02*
X55250815Y-55245000D01*
X56382185Y-55245000D02*
X62299315Y-55245000D01*
X63430685Y-55245000D02*
X64350998Y-55245000D01*
X65150998Y-55245000D02*
X68331815Y-55245000D01*
X69463186Y-55245000D02*
X75380315Y-55245000D01*
X76511685Y-55245000D02*
X82365315Y-55245000D01*
X83496685Y-55245000D02*
X90557001Y-55245000D01*
X48635000Y-55435000D02*
X55060815Y-55435000D01*
X56192185Y-55435000D02*
X62109315Y-55435000D01*
X63240685Y-55435000D02*
X64350998Y-55435000D01*
X65150998Y-55435000D02*
X68521815Y-55435000D01*
X69653186Y-55435000D02*
X75570315Y-55435000D01*
X76701685Y-55435000D02*
X82555315Y-55435000D01*
X83686685Y-55435000D02*
X90557001Y-55435000D01*
X48635000Y-55625000D02*
X54870815Y-55625000D01*
X56002185Y-55625000D02*
X61919315Y-55625000D01*
X63050685Y-55625000D02*
X64350998Y-55625000D01*
X65150998Y-55625000D02*
X68711815Y-55625000D01*
X69843186Y-55625000D02*
X75760315Y-55625000D01*
X76891685Y-55625000D02*
X82745315Y-55625000D01*
X83876685Y-55625000D02*
X90557001Y-55625000D01*
X48635000Y-55815000D02*
X54680816Y-55815000D01*
X55812185Y-55815000D02*
X61729315Y-55815000D01*
X62860685Y-55815000D02*
X64350998Y-55815000D01*
X65150998Y-55815000D02*
X68901814Y-55815000D01*
X70033186Y-55815000D02*
X75950315Y-55815000D01*
X77081685Y-55815000D02*
X82935315Y-55815000D01*
X84066685Y-55815000D02*
X90557001Y-55815000D01*
X48635000Y-56005000D02*
X54490816Y-56005000D01*
X55622185Y-56005000D02*
X61539315Y-56005000D01*
X62670685Y-56005000D02*
X64350998Y-56005000D01*
X65150998Y-56005000D02*
X69091814Y-56005000D01*
X70223186Y-56005000D02*
X76140315Y-56005000D01*
X77271685Y-56005000D02*
X83125315Y-56005000D01*
X84256686Y-56005000D02*
X90557001Y-56005000D01*
X48635000Y-56195000D02*
X54300816Y-56195000D01*
X55432185Y-56195000D02*
X61349315Y-56195000D01*
X62480685Y-56195000D02*
X64350998Y-56195000D01*
X65150998Y-56195000D02*
X69281814Y-56195000D01*
X70413186Y-56195000D02*
X76330315Y-56195000D01*
X77461685Y-56195000D02*
X83315315Y-56195000D01*
X84446686Y-56195000D02*
X90557001Y-56195000D01*
X48635000Y-56385000D02*
X54110816Y-56385000D01*
X55242184Y-56385000D02*
X61159316Y-56385000D01*
X62290685Y-56385000D02*
X64350998Y-56385000D01*
X65150998Y-56385000D02*
X69471814Y-56385000D01*
X70603186Y-56385000D02*
X76520315Y-56385000D01*
X77651685Y-56385000D02*
X83505315Y-56385000D01*
X84636686Y-56385000D02*
X90557001Y-56385000D01*
X48635000Y-56575000D02*
X53920816Y-56575000D01*
X55052184Y-56575000D02*
X60969316Y-56575000D01*
X62100685Y-56575000D02*
X64350998Y-56575000D01*
X65150998Y-56575000D02*
X69661814Y-56575000D01*
X70793186Y-56575000D02*
X76710315Y-56575000D01*
X77841685Y-56575000D02*
X83695314Y-56575000D01*
X84826686Y-56575000D02*
X90557001Y-56575000D01*
X48635000Y-56765000D02*
X53730816Y-56765000D01*
X54862184Y-56765000D02*
X60779316Y-56765000D01*
X61910685Y-56765000D02*
X64350998Y-56765000D01*
X65150998Y-56765000D02*
X69851814Y-56765000D01*
X70983186Y-56765000D02*
X76900315Y-56765000D01*
X78031685Y-56765000D02*
X83885314Y-56765000D01*
X85016686Y-56765000D02*
X90557001Y-56765000D01*
X48635000Y-56955000D02*
X53540816Y-56955000D01*
X54672184Y-56955000D02*
X60589316Y-56955000D01*
X61720684Y-56955000D02*
X64350998Y-56955000D01*
X65150998Y-56955000D02*
X70041814Y-56955000D01*
X71173186Y-56955000D02*
X77090315Y-56955000D01*
X78221685Y-56955000D02*
X84075314Y-56955000D01*
X85206686Y-56955000D02*
X90557001Y-56955000D01*
X48635000Y-57145000D02*
X53350816Y-57145000D01*
X54482184Y-57145000D02*
X60399316Y-57145000D01*
X61530684Y-57145000D02*
X64350998Y-57145000D01*
X65150998Y-57145000D02*
X70231814Y-57145000D01*
X71363186Y-57145000D02*
X77280315Y-57145000D01*
X78411685Y-57145000D02*
X84265314Y-57145000D01*
X85396686Y-57145000D02*
X90557001Y-57145000D01*
X48635000Y-57335000D02*
X53160816Y-57335000D01*
X54292184Y-57335000D02*
X60209316Y-57335000D01*
X61340684Y-57335000D02*
X64350998Y-57335000D01*
X65150998Y-57335000D02*
X70421814Y-57335000D01*
X71553186Y-57335000D02*
X77470315Y-57335000D01*
X78601685Y-57335000D02*
X84455314Y-57335000D01*
X85586686Y-57335000D02*
X90557001Y-57335000D01*
X48635000Y-57525000D02*
X52970816Y-57525000D01*
X54102184Y-57525000D02*
X60019316Y-57525000D01*
X61150684Y-57525000D02*
X64350998Y-57525000D01*
X65150998Y-57525000D02*
X70611814Y-57525000D01*
X71743186Y-57525000D02*
X77660315Y-57525000D01*
X78791685Y-57525000D02*
X84645314Y-57525000D01*
X85776686Y-57525000D02*
X90557001Y-57525000D01*
X48635000Y-57715000D02*
X52780816Y-57715000D01*
X53912184Y-57715000D02*
X59829316Y-57715000D01*
X60960684Y-57715000D02*
X64350998Y-57715000D01*
X65150998Y-57715000D02*
X70801814Y-57715000D01*
X71933186Y-57715000D02*
X77850315Y-57715000D01*
X78981685Y-57715000D02*
X84835314Y-57715000D01*
X85966686Y-57715000D02*
X90557001Y-57715000D01*
X48635000Y-57905000D02*
X52590816Y-57905000D01*
X53722184Y-57905000D02*
X59639316Y-57905000D01*
X60770684Y-57905000D02*
X64350998Y-57905000D01*
X65150998Y-57905000D02*
X70991814Y-57905000D01*
X72123186Y-57905000D02*
X78040315Y-57905000D01*
X79171685Y-57905000D02*
X85025314Y-57905000D01*
X86156686Y-57905000D02*
X90557001Y-57905000D01*
X48635000Y-58095000D02*
X52400816Y-58095000D01*
X53532184Y-58095000D02*
X59449316Y-58095000D01*
X60580684Y-58095000D02*
X64346743Y-58095000D01*
X65298685Y-58095000D02*
X71181814Y-58095000D01*
X72313186Y-58095000D02*
X78230315Y-58095000D01*
X79361685Y-58095000D02*
X85215314Y-58095000D01*
X86346686Y-58095000D02*
X90557001Y-58095000D01*
X48635000Y-58285000D02*
X52210816Y-58285000D01*
X53342184Y-58285000D02*
X59259316Y-58285000D01*
X60390684Y-58285000D02*
X64384851Y-58285000D01*
X65488685Y-58285000D02*
X71371814Y-58285000D01*
X72503186Y-58285000D02*
X78420315Y-58285000D01*
X79551685Y-58285000D02*
X85405314Y-58285000D01*
X86536686Y-58285000D02*
X90557001Y-58285000D01*
X48635000Y-58475000D02*
X52020816Y-58475000D01*
X53152184Y-58475000D02*
X59069316Y-58475000D01*
X60200684Y-58475000D02*
X64547314Y-58475000D01*
X65678686Y-58475000D02*
X71561814Y-58475000D01*
X72693186Y-58475000D02*
X78610315Y-58475000D01*
X79741685Y-58475000D02*
X85595314Y-58475000D01*
X86726686Y-58475000D02*
X90557001Y-58475000D01*
X48635000Y-58665000D02*
X51830816Y-58665000D01*
X52962184Y-58665000D02*
X58879316Y-58665000D01*
X60010684Y-58665000D02*
X64737314Y-58665000D01*
X65868686Y-58665000D02*
X71751814Y-58665000D01*
X72883186Y-58665000D02*
X78800315Y-58665000D01*
X79931685Y-58665000D02*
X85785314Y-58665000D01*
X86916686Y-58665000D02*
X90557001Y-58665000D01*
X48635000Y-58855000D02*
X51531920Y-58855000D01*
X52772184Y-58855000D02*
X58580420Y-58855000D01*
X59820684Y-58855000D02*
X64927314Y-58855000D01*
X66167580Y-58855000D02*
X71941814Y-58855000D01*
X73182080Y-58855000D02*
X78990315Y-58855000D01*
X80167580Y-58855000D02*
X85975314Y-58855000D01*
X87215580Y-58855000D02*
X90557001Y-58855000D01*
X48635000Y-59045000D02*
X51419947Y-59045000D01*
X52582184Y-59045000D02*
X58431249Y-59045000D01*
X59630684Y-59045000D02*
X65117314Y-59045000D01*
X66301814Y-59045000D02*
X72131814Y-59045000D01*
X73294054Y-59045000D02*
X79180315Y-59045000D01*
X80301814Y-59045000D02*
X86165314Y-59045000D01*
X87327554Y-59045000D02*
X90557001Y-59045000D01*
X48635000Y-59235000D02*
X51402500Y-59235000D01*
X52392184Y-59235000D02*
X58387500Y-59235000D01*
X59440684Y-59235000D02*
X65307314Y-59235000D01*
X66335000Y-59235000D02*
X72321814Y-59235000D01*
X73311500Y-59235000D02*
X79370315Y-59235000D01*
X80335000Y-59235000D02*
X86355314Y-59235000D01*
X87345000Y-59235000D02*
X90557001Y-59235000D01*
X48635000Y-59425000D02*
X51463852Y-59425000D01*
X52295147Y-59425000D02*
X58422550Y-59425000D01*
X59306449Y-59425000D02*
X65426612Y-59425000D01*
X66289387Y-59425000D02*
X72418852Y-59425000D01*
X73250147Y-59425000D02*
X79426612Y-59425000D01*
X80289387Y-59425000D02*
X86452352Y-59425000D01*
X87283647Y-59425000D02*
X90557001Y-59425000D01*
X48635000Y-59615000D02*
X51678393Y-59615000D01*
X52080606Y-59615000D02*
X58559420Y-59615000D01*
X59169580Y-59615000D02*
X65578420Y-59615000D01*
X66137580Y-59615000D02*
X72633393Y-59615000D01*
X73035606Y-59615000D02*
X79578420Y-59615000D01*
X80137580Y-59615000D02*
X86666893Y-59615000D01*
X87069106Y-59615000D02*
X90557001Y-59615000D01*
X48635000Y-59805000D02*
X90557001Y-59805000D01*
X48635000Y-59995000D02*
X90557001Y-59995000D01*
X48635000Y-60185000D02*
X90557001Y-60185000D01*
X48635000Y-60375000D02*
X90557001Y-60375000D01*
X48635000Y-60565000D02*
X90557001Y-60565000D01*
X48635000Y-60755000D02*
X90557001Y-60755000D01*
X48635000Y-60945000D02*
X90557001Y-60945000D01*
X48635000Y-61135000D02*
X90557001Y-61135000D01*
X48635000Y-61325000D02*
X90557001Y-61325000D01*
X48635000Y-61515000D02*
X90557001Y-61515000D01*
X48635000Y-61705000D02*
X90557001Y-61705000D01*
X48635000Y-61895000D02*
X90557001Y-61895000D01*
X48635000Y-62085000D02*
X90557001Y-62085000D01*
X48635000Y-62275000D02*
X90557001Y-62275000D01*
X48635000Y-62465000D02*
X90557001Y-62465000D01*
X48635000Y-62655000D02*
X90557001Y-62655000D01*
X48635000Y-62845000D02*
X90557001Y-62845000D01*
X48635000Y-63035000D02*
X90557001Y-63035000D01*
X48635000Y-63225000D02*
X90557001Y-63225000D01*
X48635000Y-63415000D02*
X90557001Y-63415000D01*
X48643838Y-63605000D02*
X90538137Y-63605000D01*
X48672131Y-63795000D02*
X90510926Y-63795000D01*
X48728953Y-63985000D02*
X90477173Y-63985000D01*
X48785775Y-64175000D02*
X90390786Y-64175000D01*
X48902494Y-64365000D02*
X90304398Y-64365000D01*
X49025647Y-64555000D02*
X90151135Y-64555000D01*
X49229881Y-64745000D02*
X89987420Y-64745000D01*
X49494307Y-64935000D02*
X89694812Y-64935000D01*
X50095275Y-65125000D02*
X89177846Y-65125000D01*
X90557001Y-35065931D02*
X90557001Y-35065931D01*
X90367001Y-34306559D02*
X90367001Y-64227310D01*
X90177001Y-34013425D02*
X90177001Y-64524980D01*
X89987001Y-33828439D02*
X89987001Y-64745485D01*
X89797001Y-33664724D02*
X89797001Y-64868763D01*
X89607001Y-33575764D02*
X89607001Y-64991916D01*
X89417001Y-33489377D02*
X89417001Y-65053477D01*
X89227001Y-33445657D02*
X89227001Y-65110299D01*
X89037001Y-33418446D02*
X89037001Y-65145784D01*
X88847001Y-33395000D02*
X88847001Y-65157000D01*
X88657001Y-33395000D02*
X88657001Y-65157000D01*
X88467001Y-33395000D02*
X88467001Y-65157000D01*
X88277001Y-33395000D02*
X88277001Y-65157000D01*
X88087001Y-33395000D02*
X88087001Y-65157000D01*
X87897001Y-33395000D02*
X87897001Y-65157000D01*
X87707001Y-33395000D02*
X87707001Y-65157000D01*
X87517001Y-33395000D02*
X87517001Y-65157000D01*
X87327001Y-33395000D02*
X87327001Y-59043666D01*
X87327001Y-59320335D02*
X87327001Y-65157000D01*
X87137001Y-33395000D02*
X87137001Y-58777123D01*
X87137001Y-59586878D02*
X87137001Y-65157000D01*
X86947001Y-33395000D02*
X86947001Y-58695316D01*
X86947001Y-59659000D02*
X86947001Y-65157000D01*
X86757001Y-33395000D02*
X86757001Y-58505316D01*
X86757001Y-59652323D02*
X86757001Y-65157000D01*
X86567001Y-33395000D02*
X86567001Y-58315316D01*
X86567001Y-59555581D02*
X86567001Y-65157000D01*
X86377001Y-33395000D02*
X86377001Y-58125316D01*
X86377001Y-59256686D02*
X86377001Y-65157000D01*
X86187001Y-33395000D02*
X86187001Y-57935316D01*
X86187001Y-59066686D02*
X86187001Y-65157000D01*
X85997001Y-33395000D02*
X85997001Y-57745316D01*
X85997001Y-58876686D02*
X85997001Y-65157000D01*
X85807001Y-33395000D02*
X85807001Y-47623323D01*
X85807001Y-47880678D02*
X85807001Y-57555316D01*
X85807001Y-58686686D02*
X85807001Y-65157000D01*
X85617001Y-33395000D02*
X85617001Y-47350421D01*
X85617001Y-48153579D02*
X85617001Y-57365316D01*
X85617001Y-58496686D02*
X85617001Y-65157000D01*
X85427001Y-33395000D02*
X85427001Y-47269317D01*
X85427001Y-48229000D02*
X85427001Y-57175316D01*
X85427001Y-58306686D02*
X85427001Y-65157000D01*
X85237001Y-33395000D02*
X85237001Y-47079317D01*
X85237001Y-48223980D02*
X85237001Y-56985316D01*
X85237001Y-58116686D02*
X85237001Y-65157000D01*
X85047001Y-33395000D02*
X85047001Y-40008151D01*
X85047001Y-40255850D02*
X85047001Y-46889317D01*
X85047001Y-48129581D02*
X85047001Y-56795316D01*
X85047001Y-57926686D02*
X85047001Y-65157000D01*
X84857001Y-33395000D02*
X84857001Y-39732421D01*
X84857001Y-40531579D02*
X84857001Y-46699317D01*
X84857001Y-47830685D02*
X84857001Y-56605316D01*
X84857001Y-57736686D02*
X84857001Y-65157000D01*
X84667001Y-33395000D02*
X84667001Y-39655000D01*
X84667001Y-40609000D02*
X84667001Y-46509317D01*
X84667001Y-47640685D02*
X84667001Y-56415316D01*
X84667001Y-57546686D02*
X84667001Y-65157000D01*
X84477001Y-33395000D02*
X84477001Y-39659191D01*
X84477001Y-40604808D02*
X84477001Y-46319317D01*
X84477001Y-47450685D02*
X84477001Y-56225316D01*
X84477001Y-57356686D02*
X84477001Y-65157000D01*
X84287001Y-33395000D02*
X84287001Y-39732000D01*
X84287001Y-40532000D02*
X84287001Y-46129317D01*
X84287001Y-47260685D02*
X84287001Y-56035316D01*
X84287001Y-57166686D02*
X84287001Y-65157000D01*
X84097001Y-33395000D02*
X84097001Y-39732000D01*
X84097001Y-40532000D02*
X84097001Y-45939317D01*
X84097001Y-47070685D02*
X84097001Y-55845317D01*
X84097001Y-56976686D02*
X84097001Y-65157000D01*
X83907001Y-33395000D02*
X83907001Y-39732000D01*
X83907001Y-40532000D02*
X83907001Y-45749317D01*
X83907001Y-46880685D02*
X83907001Y-55655317D01*
X83907001Y-56786686D02*
X83907001Y-65157000D01*
X83717001Y-33395000D02*
X83717001Y-39732000D01*
X83717001Y-40532000D02*
X83717001Y-45559317D01*
X83717001Y-46690685D02*
X83717001Y-55465317D01*
X83717001Y-56596686D02*
X83717001Y-65157000D01*
X83527001Y-33395000D02*
X83527001Y-39732000D01*
X83527001Y-40532000D02*
X83527001Y-45369317D01*
X83527001Y-46500685D02*
X83527001Y-55275317D01*
X83527001Y-56406685D02*
X83527001Y-65157000D01*
X83337001Y-33395000D02*
X83337001Y-39732000D01*
X83337001Y-40532000D02*
X83337001Y-45179317D01*
X83337001Y-46310685D02*
X83337001Y-55085317D01*
X83337001Y-56216685D02*
X83337001Y-65157000D01*
X83147001Y-33395000D02*
X83147001Y-39732000D01*
X83147001Y-40532000D02*
X83147001Y-44989317D01*
X83147001Y-46120685D02*
X83147001Y-54895317D01*
X83147001Y-56026685D02*
X83147001Y-65157000D01*
X82957001Y-33395000D02*
X82957001Y-39732000D01*
X82957001Y-40532000D02*
X82957001Y-44799317D01*
X82957001Y-45930685D02*
X82957001Y-54705317D01*
X82957001Y-55836685D02*
X82957001Y-65157000D01*
X82767001Y-33395000D02*
X82767001Y-39732000D01*
X82767001Y-40532000D02*
X82767001Y-44609317D01*
X82767001Y-45740685D02*
X82767001Y-54515317D01*
X82767001Y-55646685D02*
X82767001Y-65157000D01*
X82577001Y-33395000D02*
X82577001Y-39732000D01*
X82577001Y-40532000D02*
X82577001Y-44419317D01*
X82577001Y-45550685D02*
X82577001Y-54325317D01*
X82577001Y-55456685D02*
X82577001Y-65157000D01*
X82387001Y-33395000D02*
X82387001Y-39732000D01*
X82387001Y-40532000D02*
X82387001Y-44229317D01*
X82387001Y-45360685D02*
X82387001Y-54135317D01*
X82387001Y-55266685D02*
X82387001Y-65157000D01*
X82197001Y-33395000D02*
X82197001Y-39732000D01*
X82197001Y-40532000D02*
X82197001Y-44039317D01*
X82197001Y-45170685D02*
X82197001Y-53945317D01*
X82197001Y-55076685D02*
X82197001Y-65157000D01*
X82007001Y-33395000D02*
X82007001Y-39732000D01*
X82007001Y-40532000D02*
X82007001Y-43849317D01*
X82007001Y-44980685D02*
X82007001Y-53755317D01*
X82007001Y-54886685D02*
X82007001Y-65157000D01*
X81817001Y-33395000D02*
X81817001Y-39732000D01*
X81817001Y-40532000D02*
X81817001Y-43659317D01*
X81817001Y-44790685D02*
X81817001Y-53565317D01*
X81817001Y-54696685D02*
X81817001Y-65157000D01*
X81627001Y-33395000D02*
X81627001Y-39732000D01*
X81627001Y-40532000D02*
X81627001Y-43469317D01*
X81627001Y-44600685D02*
X81627001Y-53375317D01*
X81627001Y-54506685D02*
X81627001Y-65157000D01*
X81437001Y-33395000D02*
X81437001Y-39732000D01*
X81437001Y-40532000D02*
X81437001Y-43269688D01*
X81437001Y-44410685D02*
X81437001Y-53185317D01*
X81437001Y-54316685D02*
X81437001Y-65157000D01*
X81247001Y-33395000D02*
X81247001Y-39732000D01*
X81247001Y-40532000D02*
X81247001Y-43171863D01*
X81247001Y-44220685D02*
X81247001Y-52985522D01*
X81247001Y-54126685D02*
X81247001Y-65157000D01*
X81057001Y-33395000D02*
X81057001Y-39732000D01*
X81057001Y-40532000D02*
X81057001Y-43161000D01*
X81057001Y-44030685D02*
X81057001Y-52887462D01*
X81057001Y-53936685D02*
X81057001Y-65157000D01*
X80867001Y-33395000D02*
X80867001Y-39732000D01*
X80867001Y-40532000D02*
X80867001Y-43161000D01*
X80867001Y-43961000D02*
X80867001Y-52876500D01*
X80867001Y-53746685D02*
X80867001Y-65157000D01*
X80677001Y-33395000D02*
X80677001Y-39732000D01*
X80677001Y-40532000D02*
X80677001Y-43161000D01*
X80677001Y-43961000D02*
X80677001Y-52876500D01*
X80677001Y-53676500D02*
X80677001Y-65157000D01*
X80487001Y-33395000D02*
X80487001Y-39732000D01*
X80487001Y-40532000D02*
X80487001Y-43161000D01*
X80487001Y-43961000D02*
X80487001Y-52876500D01*
X80487001Y-53676500D02*
X80487001Y-65157000D01*
X80297001Y-33395000D02*
X80297001Y-39732000D01*
X80297001Y-40532000D02*
X80297001Y-43161000D01*
X80297001Y-43961000D02*
X80297001Y-52876500D01*
X80297001Y-53676500D02*
X80297001Y-59033382D01*
X80297001Y-59406619D02*
X80297001Y-65157000D01*
X80107001Y-33395000D02*
X80107001Y-39732000D01*
X80107001Y-40532000D02*
X80107001Y-43161000D01*
X80107001Y-43961000D02*
X80107001Y-52876500D01*
X80107001Y-53676500D02*
X80107001Y-58806839D01*
X80107001Y-59633162D02*
X80107001Y-65157000D01*
X79917001Y-33395000D02*
X79917001Y-39732000D01*
X79917001Y-40532000D02*
X79917001Y-43161000D01*
X79917001Y-43961000D02*
X79917001Y-52876500D01*
X79917001Y-53676500D02*
X79917001Y-58650317D01*
X79917001Y-59697000D02*
X79917001Y-65157000D01*
X79727001Y-33395000D02*
X79727001Y-39732000D01*
X79727001Y-40532000D02*
X79727001Y-43161000D01*
X79727001Y-43961000D02*
X79727001Y-52876500D01*
X79727001Y-53676500D02*
X79727001Y-58460317D01*
X79727001Y-59682039D02*
X79727001Y-65157000D01*
X79537001Y-33395000D02*
X79537001Y-39732000D01*
X79537001Y-40532000D02*
X79537001Y-43161000D01*
X79537001Y-43961000D02*
X79537001Y-52876500D01*
X79537001Y-53676500D02*
X79537001Y-58270317D01*
X79537001Y-59573581D02*
X79537001Y-65157000D01*
X79347001Y-33395000D02*
X79347001Y-39732000D01*
X79347001Y-40532000D02*
X79347001Y-43161000D01*
X79347001Y-43961000D02*
X79347001Y-52876500D01*
X79347001Y-53676500D02*
X79347001Y-58080317D01*
X79347001Y-59211685D02*
X79347001Y-65157000D01*
X79157001Y-33395000D02*
X79157001Y-39732000D01*
X79157001Y-40532000D02*
X79157001Y-43161000D01*
X79157001Y-43961000D02*
X79157001Y-52876500D01*
X79157001Y-53676500D02*
X79157001Y-57890317D01*
X79157001Y-59021685D02*
X79157001Y-65157000D01*
X78967001Y-33395000D02*
X78967001Y-39732000D01*
X78967001Y-40532000D02*
X78967001Y-43161000D01*
X78967001Y-43961000D02*
X78967001Y-52876500D01*
X78967001Y-53676500D02*
X78967001Y-57700317D01*
X78967001Y-58831685D02*
X78967001Y-65157000D01*
X78777001Y-33395000D02*
X78777001Y-39732000D01*
X78777001Y-40532000D02*
X78777001Y-43161000D01*
X78777001Y-43961000D02*
X78777001Y-52876500D01*
X78777001Y-53676500D02*
X78777001Y-57510317D01*
X78777001Y-58641685D02*
X78777001Y-65157000D01*
X78587001Y-33395000D02*
X78587001Y-39732000D01*
X78587001Y-40532000D02*
X78587001Y-43161000D01*
X78587001Y-43961000D02*
X78587001Y-52876500D01*
X78587001Y-53676500D02*
X78587001Y-57320317D01*
X78587001Y-58451685D02*
X78587001Y-65157000D01*
X78397001Y-33395000D02*
X78397001Y-39732000D01*
X78397001Y-40532000D02*
X78397001Y-43161000D01*
X78397001Y-43961000D02*
X78397001Y-52876500D01*
X78397001Y-53676500D02*
X78397001Y-57130317D01*
X78397001Y-58261685D02*
X78397001Y-65157000D01*
X78207001Y-33395000D02*
X78207001Y-39732000D01*
X78207001Y-40532000D02*
X78207001Y-43161000D01*
X78207001Y-43961000D02*
X78207001Y-52876500D01*
X78207001Y-53676500D02*
X78207001Y-56940317D01*
X78207001Y-58071685D02*
X78207001Y-65157000D01*
X78017001Y-33395000D02*
X78017001Y-39732000D01*
X78017001Y-40532000D02*
X78017001Y-43161000D01*
X78017001Y-43961000D02*
X78017001Y-52876500D01*
X78017001Y-53676500D02*
X78017001Y-56750317D01*
X78017001Y-57881685D02*
X78017001Y-65157000D01*
X77827001Y-33395000D02*
X77827001Y-39732000D01*
X77827001Y-40532000D02*
X77827001Y-43161000D01*
X77827001Y-43961000D02*
X77827001Y-52876500D01*
X77827001Y-53676500D02*
X77827001Y-56560317D01*
X77827001Y-57691685D02*
X77827001Y-65157000D01*
X77637001Y-33395000D02*
X77637001Y-39732000D01*
X77637001Y-40532000D02*
X77637001Y-43161000D01*
X77637001Y-43961000D02*
X77637001Y-52876500D01*
X77637001Y-53676500D02*
X77637001Y-56370317D01*
X77637001Y-57501685D02*
X77637001Y-65157000D01*
X77447001Y-33395000D02*
X77447001Y-39732000D01*
X77447001Y-40532000D02*
X77447001Y-43161000D01*
X77447001Y-43961000D02*
X77447001Y-52876500D01*
X77447001Y-53676500D02*
X77447001Y-56180317D01*
X77447001Y-57311685D02*
X77447001Y-65157000D01*
X77257001Y-33395000D02*
X77257001Y-39732000D01*
X77257001Y-40532000D02*
X77257001Y-43161000D01*
X77257001Y-43961000D02*
X77257001Y-52876500D01*
X77257001Y-53676500D02*
X77257001Y-55990317D01*
X77257001Y-57121685D02*
X77257001Y-65157000D01*
X77067001Y-33395000D02*
X77067001Y-39732000D01*
X77067001Y-40532000D02*
X77067001Y-43161000D01*
X77067001Y-43961000D02*
X77067001Y-52876500D01*
X77067001Y-53676500D02*
X77067001Y-55800317D01*
X77067001Y-56931685D02*
X77067001Y-65157000D01*
X76877001Y-33395000D02*
X76877001Y-38636754D01*
X76877001Y-39087247D02*
X76877001Y-39732000D01*
X76877001Y-40532000D02*
X76877001Y-43161000D01*
X76877001Y-43961000D02*
X76877001Y-47526754D01*
X76877001Y-47977247D02*
X76877001Y-52876500D01*
X76877001Y-53676500D02*
X76877001Y-55610317D01*
X76877001Y-56741685D02*
X76877001Y-65157000D01*
X76687001Y-33395000D02*
X76687001Y-38442212D01*
X76687001Y-39281789D02*
X76687001Y-39732000D01*
X76687001Y-40532000D02*
X76687001Y-43161000D01*
X76687001Y-43961000D02*
X76687001Y-47332212D01*
X76687001Y-48171789D02*
X76687001Y-52876500D01*
X76687001Y-53676500D02*
X76687001Y-55420317D01*
X76687001Y-56551685D02*
X76687001Y-65157000D01*
X76497001Y-33395000D02*
X76497001Y-38385000D01*
X76497001Y-39339000D02*
X76497001Y-39732000D01*
X76497001Y-40532000D02*
X76497001Y-43161000D01*
X76497001Y-43961000D02*
X76497001Y-47229317D01*
X76497001Y-48229000D02*
X76497001Y-52876500D01*
X76497001Y-53676500D02*
X76497001Y-55230317D01*
X76497001Y-56361685D02*
X76497001Y-65157000D01*
X76307001Y-33395000D02*
X76307001Y-38406587D01*
X76307001Y-39317412D02*
X76307001Y-39732000D01*
X76307001Y-40532000D02*
X76307001Y-43161000D01*
X76307001Y-43961000D02*
X76307001Y-47039317D01*
X76307001Y-48207412D02*
X76307001Y-52876500D01*
X76307001Y-53676500D02*
X76307001Y-55040317D01*
X76307001Y-56171685D02*
X76307001Y-65157000D01*
X76117001Y-33395000D02*
X76117001Y-38462000D01*
X76117001Y-39262000D02*
X76117001Y-39732000D01*
X76117001Y-40532000D02*
X76117001Y-43161000D01*
X76117001Y-43961000D02*
X76117001Y-46849317D01*
X76117001Y-48089581D02*
X76117001Y-52876500D01*
X76117001Y-53676500D02*
X76117001Y-54850317D01*
X76117001Y-55981685D02*
X76117001Y-65157000D01*
X75927001Y-33395000D02*
X75927001Y-38462000D01*
X75927001Y-39262000D02*
X75927001Y-39732000D01*
X75927001Y-40532000D02*
X75927001Y-43161000D01*
X75927001Y-43961000D02*
X75927001Y-46659317D01*
X75927001Y-47790685D02*
X75927001Y-52876500D01*
X75927001Y-53676500D02*
X75927001Y-54660317D01*
X75927001Y-55791685D02*
X75927001Y-65157000D01*
X75737001Y-33395000D02*
X75737001Y-38462000D01*
X75737001Y-39262000D02*
X75737001Y-39732000D01*
X75737001Y-40532000D02*
X75737001Y-43161000D01*
X75737001Y-43961000D02*
X75737001Y-46469317D01*
X75737001Y-47600685D02*
X75737001Y-52876500D01*
X75737001Y-53676500D02*
X75737001Y-54470317D01*
X75737001Y-55601685D02*
X75737001Y-65157000D01*
X75547001Y-33395000D02*
X75547001Y-38462000D01*
X75547001Y-39262000D02*
X75547001Y-39732000D01*
X75547001Y-40532000D02*
X75547001Y-43161000D01*
X75547001Y-43961000D02*
X75547001Y-46279317D01*
X75547001Y-47410685D02*
X75547001Y-52876500D01*
X75547001Y-53676500D02*
X75547001Y-54280317D01*
X75547001Y-55411685D02*
X75547001Y-65157000D01*
X75357001Y-33395000D02*
X75357001Y-38462000D01*
X75357001Y-39262000D02*
X75357001Y-39732000D01*
X75357001Y-40532000D02*
X75357001Y-43161000D01*
X75357001Y-43961000D02*
X75357001Y-46089317D01*
X75357001Y-47220685D02*
X75357001Y-52876500D01*
X75357001Y-53676500D02*
X75357001Y-54090317D01*
X75357001Y-55221685D02*
X75357001Y-65157000D01*
X75167001Y-33395000D02*
X75167001Y-38462000D01*
X75167001Y-39262000D02*
X75167001Y-39732000D01*
X75167001Y-40532000D02*
X75167001Y-43161000D01*
X75167001Y-43961000D02*
X75167001Y-45899317D01*
X75167001Y-47030685D02*
X75167001Y-52876500D01*
X75167001Y-53676500D02*
X75167001Y-53900317D01*
X75167001Y-55031685D02*
X75167001Y-65157000D01*
X74977001Y-33395000D02*
X74977001Y-38462000D01*
X74977001Y-39262000D02*
X74977001Y-39732000D01*
X74977001Y-40532000D02*
X74977001Y-43161000D01*
X74977001Y-43961000D02*
X74977001Y-45709317D01*
X74977001Y-46840685D02*
X74977001Y-52876500D01*
X74977001Y-53676500D02*
X74977001Y-53710317D01*
X74977001Y-54841685D02*
X74977001Y-65157000D01*
X74787001Y-33395000D02*
X74787001Y-38462000D01*
X74787001Y-39262000D02*
X74787001Y-39732000D01*
X74787001Y-40532000D02*
X74787001Y-43161000D01*
X74787001Y-43961000D02*
X74787001Y-45519317D01*
X74787001Y-46650685D02*
X74787001Y-52876500D01*
X74787001Y-54651685D02*
X74787001Y-65157000D01*
X74597001Y-33395000D02*
X74597001Y-38462000D01*
X74597001Y-39262000D02*
X74597001Y-39732000D01*
X74597001Y-40532000D02*
X74597001Y-43161000D01*
X74597001Y-43961000D02*
X74597001Y-45329317D01*
X74597001Y-46460685D02*
X74597001Y-52876500D01*
X74597001Y-54461685D02*
X74597001Y-65157000D01*
X74407001Y-33395000D02*
X74407001Y-38462000D01*
X74407001Y-39262000D02*
X74407001Y-39732000D01*
X74407001Y-40532000D02*
X74407001Y-43161000D01*
X74407001Y-43961000D02*
X74407001Y-45139317D01*
X74407001Y-46270685D02*
X74407001Y-52876500D01*
X74407001Y-54311500D02*
X74407001Y-65157000D01*
X74217001Y-33395000D02*
X74217001Y-38462000D01*
X74217001Y-39262000D02*
X74217001Y-39732000D01*
X74217001Y-40532000D02*
X74217001Y-43161000D01*
X74217001Y-43961000D02*
X74217001Y-44949317D01*
X74217001Y-46080685D02*
X74217001Y-52876500D01*
X74217001Y-54311500D02*
X74217001Y-65157000D01*
X74027001Y-33395000D02*
X74027001Y-38462000D01*
X74027001Y-39262000D02*
X74027001Y-39732000D01*
X74027001Y-40532000D02*
X74027001Y-43161000D01*
X74027001Y-43961000D02*
X74027001Y-44759317D01*
X74027001Y-45890685D02*
X74027001Y-52876500D01*
X74027001Y-54311500D02*
X74027001Y-65157000D01*
X73837001Y-33395000D02*
X73837001Y-38462000D01*
X73837001Y-39262000D02*
X73837001Y-39732000D01*
X73837001Y-40532000D02*
X73837001Y-43161000D01*
X73837001Y-43961000D02*
X73837001Y-44569317D01*
X73837001Y-45700685D02*
X73837001Y-52876500D01*
X73837001Y-54311500D02*
X73837001Y-65157000D01*
X73647001Y-33395000D02*
X73647001Y-38462000D01*
X73647001Y-39262000D02*
X73647001Y-39732000D01*
X73647001Y-40532000D02*
X73647001Y-43161000D01*
X73647001Y-43961000D02*
X73647001Y-44379317D01*
X73647001Y-45510685D02*
X73647001Y-52876500D01*
X73647001Y-54311500D02*
X73647001Y-65157000D01*
X73457001Y-33395000D02*
X73457001Y-38462000D01*
X73457001Y-39262000D02*
X73457001Y-39732000D01*
X73457001Y-40532000D02*
X73457001Y-43161000D01*
X73457001Y-43961000D02*
X73457001Y-44189317D01*
X73457001Y-45320685D02*
X73457001Y-52876500D01*
X73457001Y-54311500D02*
X73457001Y-65157000D01*
X73267001Y-33395000D02*
X73267001Y-38462000D01*
X73267001Y-39262000D02*
X73267001Y-39732000D01*
X73267001Y-40532000D02*
X73267001Y-43161000D01*
X73267001Y-43961000D02*
X73267001Y-43999317D01*
X73267001Y-45130685D02*
X73267001Y-52876500D01*
X73267001Y-54311500D02*
X73267001Y-58979689D01*
X73267001Y-59384312D02*
X73267001Y-65157000D01*
X73077001Y-33395000D02*
X73077001Y-38462000D01*
X73077001Y-39262000D02*
X73077001Y-39732000D01*
X73077001Y-40532000D02*
X73077001Y-43161000D01*
X73077001Y-44940685D02*
X73077001Y-52876500D01*
X73077001Y-54311500D02*
X73077001Y-58766147D01*
X73077001Y-59597854D02*
X73077001Y-65157000D01*
X72887001Y-33395000D02*
X72887001Y-38462000D01*
X72887001Y-39262000D02*
X72887001Y-39732000D01*
X72887001Y-40532000D02*
X72887001Y-43161000D01*
X72887001Y-44750685D02*
X72887001Y-52876500D01*
X72887001Y-54311500D02*
X72887001Y-58668816D01*
X72887001Y-59659000D02*
X72887001Y-65157000D01*
X72697001Y-33395000D02*
X72697001Y-38462000D01*
X72697001Y-39262000D02*
X72697001Y-39732000D01*
X72697001Y-40532000D02*
X72697001Y-43161000D01*
X72697001Y-44615050D02*
X72697001Y-46523821D01*
X72697001Y-54311500D02*
X72697001Y-58478816D01*
X72697001Y-59641347D02*
X72697001Y-65157000D01*
X72507001Y-33395000D02*
X72507001Y-38462000D01*
X72507001Y-39262000D02*
X72507001Y-39732000D01*
X72507001Y-40532000D02*
X72507001Y-43161000D01*
X72507001Y-44615050D02*
X72507001Y-46252100D01*
X72507001Y-54311500D02*
X72507001Y-58288816D01*
X72507001Y-59529081D02*
X72507001Y-65157000D01*
X72317001Y-33395000D02*
X72317001Y-38462000D01*
X72317001Y-39262000D02*
X72317001Y-39732000D01*
X72317001Y-40532000D02*
X72317001Y-42622921D01*
X72317001Y-44615050D02*
X72317001Y-46062100D01*
X72317001Y-54311500D02*
X72317001Y-58098816D01*
X72317001Y-59230186D02*
X72317001Y-65157000D01*
X72127001Y-33395000D02*
X72127001Y-38462000D01*
X72127001Y-39262000D02*
X72127001Y-39732000D01*
X72127001Y-40532000D02*
X72127001Y-42484880D01*
X72127001Y-44615050D02*
X72127001Y-45872101D01*
X72127001Y-54311500D02*
X72127001Y-57908816D01*
X72127001Y-59040186D02*
X72127001Y-65157000D01*
X71937001Y-33395000D02*
X71937001Y-38462000D01*
X71937001Y-39262000D02*
X71937001Y-39732000D01*
X71937001Y-40532000D02*
X71937001Y-42380100D01*
X71937001Y-44615050D02*
X71937001Y-45682101D01*
X71937001Y-54311500D02*
X71937001Y-57718816D01*
X71937001Y-58850186D02*
X71937001Y-65157000D01*
X71747001Y-33395000D02*
X71747001Y-36174645D01*
X71747001Y-37485356D02*
X71747001Y-38462000D01*
X71747001Y-39262000D02*
X71747001Y-39732000D01*
X71747001Y-40532000D02*
X71747001Y-41254645D01*
X71747001Y-44615050D02*
X71747001Y-45490852D01*
X71747001Y-54311500D02*
X71747001Y-57528816D01*
X71747001Y-58660186D02*
X71747001Y-65157000D01*
X71557001Y-33395000D02*
X71557001Y-36037451D01*
X71557001Y-37622550D02*
X71557001Y-38462000D01*
X71557001Y-39262000D02*
X71557001Y-39732000D01*
X71557001Y-40532000D02*
X71557001Y-41117451D01*
X71557001Y-44615050D02*
X71557001Y-45407196D01*
X71557001Y-54311500D02*
X71557001Y-57338816D01*
X71557001Y-58470186D02*
X71557001Y-65157000D01*
X71367001Y-33395000D02*
X71367001Y-36024123D01*
X71367001Y-37635877D02*
X71367001Y-38462000D01*
X71367001Y-39262000D02*
X71367001Y-39732000D01*
X71367001Y-40532000D02*
X71367001Y-41104123D01*
X71367001Y-44615050D02*
X71367001Y-45403500D01*
X71367001Y-54311500D02*
X71367001Y-57148816D01*
X71367001Y-58280186D02*
X71367001Y-65157000D01*
X71177001Y-33395000D02*
X71177001Y-36024123D01*
X71177001Y-37635877D02*
X71177001Y-38462000D01*
X71177001Y-39262000D02*
X71177001Y-39732000D01*
X71177001Y-40532000D02*
X71177001Y-41104123D01*
X71177001Y-44615050D02*
X71177001Y-45403500D01*
X71177001Y-54311500D02*
X71177001Y-56958816D01*
X71177001Y-58090186D02*
X71177001Y-65157000D01*
X70987001Y-33395000D02*
X70987001Y-36024123D01*
X70987001Y-37635877D02*
X70987001Y-38462000D01*
X70987001Y-39262000D02*
X70987001Y-39732000D01*
X70987001Y-40532000D02*
X70987001Y-41104123D01*
X70987001Y-44615050D02*
X70987001Y-45403500D01*
X70987001Y-54311500D02*
X70987001Y-56768816D01*
X70987001Y-57900186D02*
X70987001Y-65157000D01*
X70797001Y-33395000D02*
X70797001Y-36024123D01*
X70797001Y-37635877D02*
X70797001Y-38462000D01*
X70797001Y-39262000D02*
X70797001Y-39732000D01*
X70797001Y-40532000D02*
X70797001Y-41104123D01*
X70797001Y-44615050D02*
X70797001Y-45403500D01*
X70797001Y-54311500D02*
X70797001Y-56578816D01*
X70797001Y-57710186D02*
X70797001Y-65157000D01*
X70607001Y-33395000D02*
X70607001Y-36024123D01*
X70607001Y-37635877D02*
X70607001Y-38462000D01*
X70607001Y-39262000D02*
X70607001Y-39732000D01*
X70607001Y-40532000D02*
X70607001Y-41104123D01*
X70607001Y-44615050D02*
X70607001Y-45403500D01*
X70607001Y-54311500D02*
X70607001Y-56388816D01*
X70607001Y-57520186D02*
X70607001Y-65157000D01*
X70417001Y-33395000D02*
X70417001Y-36024123D01*
X70417001Y-37635877D02*
X70417001Y-38462000D01*
X70417001Y-39262000D02*
X70417001Y-39732000D01*
X70417001Y-40532000D02*
X70417001Y-41104123D01*
X70417001Y-44615050D02*
X70417001Y-45403500D01*
X70417001Y-54311500D02*
X70417001Y-56198816D01*
X70417001Y-57330186D02*
X70417001Y-65157000D01*
X70227001Y-33395000D02*
X70227001Y-36024123D01*
X70227001Y-37635877D02*
X70227001Y-38462000D01*
X70227001Y-39262000D02*
X70227001Y-39732000D01*
X70227001Y-40532000D02*
X70227001Y-41104123D01*
X70227001Y-44615050D02*
X70227001Y-45403500D01*
X70227001Y-54311500D02*
X70227001Y-56008816D01*
X70227001Y-57140186D02*
X70227001Y-65157000D01*
X70037001Y-33395000D02*
X70037001Y-36024123D01*
X70037001Y-37635877D02*
X70037001Y-38462000D01*
X70037001Y-39262000D02*
X70037001Y-39732000D01*
X70037001Y-40532000D02*
X70037001Y-41104123D01*
X70037001Y-44615050D02*
X70037001Y-45403500D01*
X70037001Y-54293377D02*
X70037001Y-55818816D01*
X70037001Y-56950186D02*
X70037001Y-65157000D01*
X69847001Y-33395000D02*
X69847001Y-36024123D01*
X69847001Y-37635877D02*
X69847001Y-38454760D01*
X69847001Y-39430685D02*
X69847001Y-39732000D01*
X69847001Y-40532000D02*
X69847001Y-41104123D01*
X69847001Y-44615050D02*
X69847001Y-45403500D01*
X69847001Y-54156685D02*
X69847001Y-55628816D01*
X69847001Y-56760186D02*
X69847001Y-65157000D01*
X69657001Y-33395000D02*
X69657001Y-36024123D01*
X69657001Y-37635877D02*
X69657001Y-38509882D01*
X69657001Y-39620685D02*
X69657001Y-39732000D01*
X69657001Y-40636684D02*
X69657001Y-41104123D01*
X69657001Y-44618599D02*
X69657001Y-45403500D01*
X69657001Y-53966685D02*
X69657001Y-55438816D01*
X69657001Y-56570186D02*
X69657001Y-65157000D01*
X69467001Y-33395000D02*
X69467001Y-36024123D01*
X69467001Y-37635877D02*
X69467001Y-38679313D01*
X69467001Y-40826684D02*
X69467001Y-41104123D01*
X69467001Y-44554772D02*
X69467001Y-45403500D01*
X69467001Y-53776685D02*
X69467001Y-55248816D01*
X69467001Y-56380186D02*
X69467001Y-65157000D01*
X69277001Y-33395000D02*
X69277001Y-36024123D01*
X69277001Y-37635877D02*
X69277001Y-38869313D01*
X69277001Y-41016684D02*
X69277001Y-41104123D01*
X69277001Y-45380079D02*
X69277001Y-45403500D01*
X69277001Y-53586685D02*
X69277001Y-55058816D01*
X69277001Y-56190186D02*
X69277001Y-65157000D01*
X69087001Y-33395000D02*
X69087001Y-36024123D01*
X69087001Y-37635877D02*
X69087001Y-39059313D01*
X69087001Y-53396685D02*
X69087001Y-54868816D01*
X69087001Y-56000186D02*
X69087001Y-65157000D01*
X68897001Y-33395000D02*
X68897001Y-36040632D01*
X68897001Y-37619367D02*
X68897001Y-39249313D01*
X68897001Y-53206685D02*
X68897001Y-54678816D01*
X68897001Y-55810186D02*
X68897001Y-65157000D01*
X68707001Y-33395000D02*
X68707001Y-36198587D01*
X68707001Y-37461412D02*
X68707001Y-39439313D01*
X68707001Y-53016685D02*
X68707001Y-54488816D01*
X68707001Y-55620185D02*
X68707001Y-65157000D01*
X68517001Y-33395000D02*
X68517001Y-36450000D01*
X68517001Y-37210000D02*
X68517001Y-39629313D01*
X68517001Y-52827157D02*
X68517001Y-54298816D01*
X68517001Y-55430185D02*
X68517001Y-65157000D01*
X68327001Y-33395000D02*
X68327001Y-36450000D01*
X68327001Y-37210000D02*
X68327001Y-39819314D01*
X68327001Y-50292584D02*
X68327001Y-54108816D01*
X68327001Y-55240185D02*
X68327001Y-65157000D01*
X68137001Y-33395000D02*
X68137001Y-36450000D01*
X68137001Y-37210000D02*
X68137001Y-40009314D01*
X68137001Y-50335877D02*
X68137001Y-53918816D01*
X68137001Y-55050185D02*
X68137001Y-65157000D01*
X67947001Y-33395000D02*
X67947001Y-36450000D01*
X67947001Y-37210000D02*
X67947001Y-40199314D01*
X67947001Y-50335877D02*
X67947001Y-53728816D01*
X67947001Y-54860185D02*
X67947001Y-65157000D01*
X67757001Y-33395000D02*
X67757001Y-36450000D01*
X67757001Y-37210000D02*
X67757001Y-40389314D01*
X67757001Y-50335877D02*
X67757001Y-53538816D01*
X67757001Y-54670185D02*
X67757001Y-65157000D01*
X67567001Y-33395000D02*
X67567001Y-36450000D01*
X67567001Y-37210000D02*
X67567001Y-40579314D01*
X67567001Y-50335877D02*
X67567001Y-52414421D01*
X67567001Y-53122579D02*
X67567001Y-53348816D01*
X67567001Y-54480185D02*
X67567001Y-65157000D01*
X67377001Y-33395000D02*
X67377001Y-36450000D01*
X67377001Y-37210000D02*
X67377001Y-40769314D01*
X67377001Y-50335877D02*
X67377001Y-52306255D01*
X67377001Y-54290185D02*
X67377001Y-65157000D01*
X67187001Y-33395000D02*
X67187001Y-36450000D01*
X67187001Y-37210000D02*
X67187001Y-40813000D01*
X67187001Y-54100185D02*
X67187001Y-65157000D01*
X66997001Y-33395000D02*
X66997001Y-36450000D01*
X66997001Y-37210000D02*
X66997001Y-40813000D01*
X66997001Y-53910185D02*
X66997001Y-65157000D01*
X66807001Y-33395000D02*
X66807001Y-36450000D01*
X66807001Y-37210000D02*
X66807001Y-40813000D01*
X66807001Y-53720185D02*
X66807001Y-65157000D01*
X66617001Y-33395000D02*
X66617001Y-36450000D01*
X66617001Y-37210000D02*
X66617001Y-40813000D01*
X66617001Y-53530185D02*
X66617001Y-65157000D01*
X66427001Y-33395000D02*
X66427001Y-36450000D01*
X66427001Y-37210000D02*
X66427001Y-40813000D01*
X66427001Y-53340185D02*
X66427001Y-65157000D01*
X66237001Y-33395000D02*
X66237001Y-36450000D01*
X66237001Y-37210000D02*
X66237001Y-40813000D01*
X66237001Y-53150185D02*
X66237001Y-58924421D01*
X66237001Y-59515579D02*
X66237001Y-65157000D01*
X66047001Y-33395000D02*
X66047001Y-36450000D01*
X66047001Y-37210000D02*
X66047001Y-40813000D01*
X66047001Y-52960185D02*
X66047001Y-58781986D01*
X66047001Y-59658015D02*
X66047001Y-65157000D01*
X65857001Y-33395000D02*
X65857001Y-36450000D01*
X65857001Y-37210000D02*
X65857001Y-40813000D01*
X65857001Y-52770185D02*
X65857001Y-58653316D01*
X65857001Y-59697000D02*
X65857001Y-65157000D01*
X65667001Y-33395000D02*
X65667001Y-36450000D01*
X65667001Y-37210000D02*
X65667001Y-40813000D01*
X65667001Y-52580185D02*
X65667001Y-58463316D01*
X65667001Y-59657186D02*
X65667001Y-65157000D01*
X65477001Y-33395000D02*
X65477001Y-36450000D01*
X65477001Y-37210000D02*
X65477001Y-40813000D01*
X65477001Y-52390185D02*
X65477001Y-58273317D01*
X65477001Y-59513581D02*
X65477001Y-65157000D01*
X65287001Y-33395000D02*
X65287001Y-36450000D01*
X65287001Y-37210000D02*
X65287001Y-40813000D01*
X65287001Y-52200185D02*
X65287001Y-58083317D01*
X65287001Y-59214686D02*
X65287001Y-65157000D01*
X65097001Y-33395000D02*
X65097001Y-36450000D01*
X65097001Y-37210000D02*
X65097001Y-40813000D01*
X65097001Y-59024686D02*
X65097001Y-65157000D01*
X64907001Y-33395000D02*
X64907001Y-36450000D01*
X64907001Y-37210000D02*
X64907001Y-40813000D01*
X64907001Y-58834686D02*
X64907001Y-65157000D01*
X64717001Y-33395000D02*
X64717001Y-36450000D01*
X64717001Y-37210000D02*
X64717001Y-37952009D01*
X64717001Y-38247992D02*
X64717001Y-40813000D01*
X64717001Y-58644686D02*
X64717001Y-65157000D01*
X64527001Y-33395000D02*
X64527001Y-36450000D01*
X64527001Y-37210000D02*
X64527001Y-37693466D01*
X64527001Y-38506535D02*
X64527001Y-40813000D01*
X64527001Y-58454686D02*
X64527001Y-65157000D01*
X64337001Y-33395000D02*
X64337001Y-36450000D01*
X64337001Y-37210000D02*
X64337001Y-37623000D01*
X64337001Y-38590685D02*
X64337001Y-40813000D01*
X64337001Y-54338685D02*
X64337001Y-65157000D01*
X64147001Y-33395000D02*
X64147001Y-36450000D01*
X64147001Y-37210000D02*
X64147001Y-37631333D01*
X64147001Y-38780685D02*
X64147001Y-40813000D01*
X64147001Y-54528685D02*
X64147001Y-65157000D01*
X63957001Y-33395000D02*
X63957001Y-36450000D01*
X63957001Y-37210000D02*
X63957001Y-37730419D01*
X63957001Y-38970685D02*
X63957001Y-40813000D01*
X63957001Y-54718685D02*
X63957001Y-65157000D01*
X63767001Y-33395000D02*
X63767001Y-36450000D01*
X63767001Y-37210000D02*
X63767001Y-38029313D01*
X63767001Y-39160685D02*
X63767001Y-40813000D01*
X63767001Y-50209683D02*
X63767001Y-53777313D01*
X63767001Y-54908685D02*
X63767001Y-65157000D01*
X63577001Y-33395000D02*
X63577001Y-36450000D01*
X63577001Y-37210000D02*
X63577001Y-38219313D01*
X63577001Y-39350685D02*
X63577001Y-40813000D01*
X63577001Y-50399683D02*
X63577001Y-53967313D01*
X63577001Y-55098685D02*
X63577001Y-65157000D01*
X63387001Y-33395000D02*
X63387001Y-36450000D01*
X63387001Y-37210000D02*
X63387001Y-38409313D01*
X63387001Y-39540684D02*
X63387001Y-40813000D01*
X63387001Y-50589683D02*
X63387001Y-54157313D01*
X63387001Y-55288685D02*
X63387001Y-65157000D01*
X63197001Y-33395000D02*
X63197001Y-36450000D01*
X63197001Y-37210000D02*
X63197001Y-38599313D01*
X63197001Y-39730684D02*
X63197001Y-40813000D01*
X63197001Y-48610598D02*
X63197001Y-49648314D01*
X63197001Y-50779683D02*
X63197001Y-54347313D01*
X63197001Y-55478685D02*
X63197001Y-65157000D01*
X63007001Y-33395000D02*
X63007001Y-36450000D01*
X63007001Y-37210000D02*
X63007001Y-38789313D01*
X63007001Y-39920684D02*
X63007001Y-40622659D01*
X63007001Y-48654954D02*
X63007001Y-49838314D01*
X63007001Y-50969683D02*
X63007001Y-54537313D01*
X63007001Y-55668685D02*
X63007001Y-65157000D01*
X62817001Y-33395000D02*
X62817001Y-36450000D01*
X62817001Y-37210000D02*
X62817001Y-38979314D01*
X62817001Y-40110684D02*
X62817001Y-40540975D01*
X62817001Y-48659877D02*
X62817001Y-50028314D01*
X62817001Y-51159683D02*
X62817001Y-54727313D01*
X62817001Y-55858685D02*
X62817001Y-65157000D01*
X62627001Y-33395000D02*
X62627001Y-36450000D01*
X62627001Y-37210000D02*
X62627001Y-39169314D01*
X62627001Y-40300684D02*
X62627001Y-40536200D01*
X62627001Y-41889799D02*
X62627001Y-45486200D01*
X62627001Y-48659877D02*
X62627001Y-50218314D01*
X62627001Y-51349683D02*
X62627001Y-54917313D01*
X62627001Y-56048685D02*
X62627001Y-65157000D01*
X62437001Y-33395000D02*
X62437001Y-36450000D01*
X62437001Y-37210000D02*
X62437001Y-39359314D01*
X62437001Y-41850115D02*
X62437001Y-45525886D01*
X62437001Y-48638444D02*
X62437001Y-50408314D01*
X62437001Y-51539683D02*
X62437001Y-55107313D01*
X62437001Y-56238685D02*
X62437001Y-65157000D01*
X62247001Y-33395000D02*
X62247001Y-36450000D01*
X62247001Y-37210000D02*
X62247001Y-39549314D01*
X62247001Y-41893877D02*
X62247001Y-45482123D01*
X62247001Y-48555139D02*
X62247001Y-50598314D01*
X62247001Y-51729683D02*
X62247001Y-55297313D01*
X62247001Y-56428685D02*
X62247001Y-65157000D01*
X62057001Y-33395000D02*
X62057001Y-36373601D01*
X62057001Y-37210000D02*
X62057001Y-38675263D01*
X62057001Y-41875875D02*
X62057001Y-45500124D01*
X62057001Y-48320647D02*
X62057001Y-50788314D01*
X62057001Y-51919683D02*
X62057001Y-55487313D01*
X62057001Y-56618685D02*
X62057001Y-65157000D01*
X61867001Y-33395000D02*
X61867001Y-36183601D01*
X61867001Y-37195763D02*
X61867001Y-38583489D01*
X61867001Y-41875080D02*
X61867001Y-45500921D01*
X61867001Y-48373343D02*
X61867001Y-50978314D01*
X61867001Y-52109683D02*
X61867001Y-55677313D01*
X61867001Y-56808685D02*
X61867001Y-65157000D01*
X61677001Y-33395000D02*
X61677001Y-35856421D01*
X61677001Y-37068401D02*
X61677001Y-38577123D01*
X61677001Y-41893877D02*
X61677001Y-45482123D01*
X61677001Y-48573848D02*
X61677001Y-51168314D01*
X61677001Y-52299683D02*
X61677001Y-55867313D01*
X61677001Y-56998684D02*
X61677001Y-65157000D01*
X61487001Y-33395000D02*
X61487001Y-35701978D01*
X61487001Y-36878401D02*
X61487001Y-38342582D01*
X61487001Y-41852788D02*
X61487001Y-45523211D01*
X61487001Y-48644014D02*
X61487001Y-51358314D01*
X61487001Y-52489683D02*
X61487001Y-56057313D01*
X61487001Y-57188684D02*
X61487001Y-65157000D01*
X61297001Y-33395000D02*
X61297001Y-35654500D01*
X61297001Y-36688401D02*
X61297001Y-38238658D01*
X61297001Y-39788877D02*
X61297001Y-39909000D01*
X61297001Y-41889004D02*
X61297001Y-45486997D01*
X61297001Y-48659877D02*
X61297001Y-51548314D01*
X61297001Y-52679683D02*
X61297001Y-56247313D01*
X61297001Y-57378684D02*
X61297001Y-65157000D01*
X61107001Y-33395000D02*
X61107001Y-35685821D01*
X61107001Y-36577178D02*
X61107001Y-38228000D01*
X61107001Y-39788877D02*
X61107001Y-39914019D01*
X61107001Y-41885821D02*
X61107001Y-45490178D01*
X61107001Y-48659877D02*
X61107001Y-51738314D01*
X61107001Y-52869683D02*
X61107001Y-56437314D01*
X61107001Y-57568684D02*
X61107001Y-65157000D01*
X60917001Y-33395000D02*
X60917001Y-35817419D01*
X60917001Y-36445581D02*
X60917001Y-38228000D01*
X60917001Y-39772566D02*
X60917001Y-40008419D01*
X60917001Y-41806015D02*
X60917001Y-45512523D01*
X60917001Y-48649384D02*
X60917001Y-51928314D01*
X60917001Y-53059683D02*
X60917001Y-56627314D01*
X60917001Y-57758684D02*
X60917001Y-65157000D01*
X60727001Y-33395000D02*
X60727001Y-36036619D01*
X60727001Y-36036619D02*
X60727001Y-38228000D01*
X60727001Y-39788877D02*
X60727001Y-45482123D01*
X60727001Y-48591889D02*
X60727001Y-52118314D01*
X60727001Y-53210397D02*
X60727001Y-56817314D01*
X60727001Y-57948684D02*
X60727001Y-65157000D01*
X60537001Y-33395000D02*
X60537001Y-36036619D01*
X60537001Y-36036619D02*
X60537001Y-38228000D01*
X60537001Y-41779968D02*
X60537001Y-45504102D01*
X60537001Y-48413753D02*
X60537001Y-52308314D01*
X60537001Y-53232000D02*
X60537001Y-57007314D01*
X60537001Y-58138684D02*
X60537001Y-65157000D01*
X60347001Y-33395000D02*
X60347001Y-36036619D01*
X60347001Y-36036619D02*
X60347001Y-38228000D01*
X60347001Y-41879058D02*
X60347001Y-45496943D01*
X60347001Y-48013400D02*
X60347001Y-52432000D01*
X60347001Y-53232000D02*
X60347001Y-57197314D01*
X60347001Y-58328684D02*
X60347001Y-65157000D01*
X60157001Y-33395000D02*
X60157001Y-36036619D01*
X60157001Y-36036619D02*
X60157001Y-38228000D01*
X60157001Y-41893877D02*
X60157001Y-45482123D01*
X60157001Y-48203400D02*
X60157001Y-52432000D01*
X60157001Y-53232000D02*
X60157001Y-57387314D01*
X60157001Y-58518684D02*
X60157001Y-65157000D01*
X59967001Y-33395000D02*
X59967001Y-36036619D01*
X59967001Y-36036619D02*
X59967001Y-38228000D01*
X59967001Y-41839424D02*
X59967001Y-45536575D01*
X59967001Y-48393400D02*
X59967001Y-52432000D01*
X59967001Y-53232000D02*
X59967001Y-57577314D01*
X59967001Y-58708684D02*
X59967001Y-65157000D01*
X59777001Y-33395000D02*
X59777001Y-36036619D01*
X59777001Y-36036619D02*
X59777001Y-38180342D01*
X59777001Y-39035659D02*
X59777001Y-40316601D01*
X59777001Y-41892982D02*
X59777001Y-45483019D01*
X59777001Y-48583400D02*
X59777001Y-52432000D01*
X59777001Y-53232000D02*
X59777001Y-57767314D01*
X59777001Y-58898684D02*
X59777001Y-65157000D01*
X59587001Y-33395000D02*
X59587001Y-36036619D01*
X59587001Y-36036619D02*
X59587001Y-38131000D01*
X59587001Y-39085000D02*
X59587001Y-40126601D01*
X59587001Y-41881843D02*
X59587001Y-45494156D01*
X59587001Y-48773400D02*
X59587001Y-52432000D01*
X59587001Y-53232000D02*
X59587001Y-57957314D01*
X59587001Y-59088684D02*
X59587001Y-65157000D01*
X59397001Y-33395000D02*
X59397001Y-36036619D01*
X59397001Y-36036619D02*
X59397001Y-38160458D01*
X59397001Y-39055541D02*
X59397001Y-39936601D01*
X59397001Y-41869113D02*
X59397001Y-45506888D01*
X59397001Y-48963400D02*
X59397001Y-48965581D01*
X59397001Y-49743419D02*
X59397001Y-52432000D01*
X59397001Y-53232000D02*
X59397001Y-58147314D01*
X59397001Y-59278684D02*
X59397001Y-65157000D01*
X59207001Y-33395000D02*
X59207001Y-36036619D01*
X59207001Y-36036619D02*
X59207001Y-38289419D01*
X59207001Y-38926581D02*
X59207001Y-39746601D01*
X59207001Y-41893877D02*
X59207001Y-45482123D01*
X59207001Y-50025579D02*
X59207001Y-52432000D01*
X59207001Y-53232000D02*
X59207001Y-58337314D01*
X59207001Y-59577579D02*
X59207001Y-65157000D01*
X59017001Y-33395000D02*
X59017001Y-36036619D01*
X59017001Y-36036619D02*
X59017001Y-39556601D01*
X59017001Y-41867919D02*
X59017001Y-42087636D01*
X59017001Y-44288365D02*
X59017001Y-44587636D01*
X59017001Y-50119880D02*
X59017001Y-52432000D01*
X59017001Y-53232000D02*
X59017001Y-58527314D01*
X59017001Y-59698634D02*
X59017001Y-65157000D01*
X58827001Y-33395000D02*
X58827001Y-36036619D01*
X58827001Y-36036619D02*
X58827001Y-39366601D01*
X58827001Y-40441401D02*
X58827001Y-40729840D01*
X58827001Y-41696160D02*
X58827001Y-42012992D01*
X58827001Y-44363009D02*
X58827001Y-44512992D01*
X58827001Y-50147877D02*
X58827001Y-52432000D01*
X58827001Y-53232000D02*
X58827001Y-58717314D01*
X58827001Y-59722500D02*
X58827001Y-65157000D01*
X58637001Y-33395000D02*
X58637001Y-36036619D01*
X58637001Y-36036619D02*
X58637001Y-39176601D01*
X58637001Y-40251401D02*
X58637001Y-40573601D01*
X58637001Y-41580155D02*
X58637001Y-42007123D01*
X58637001Y-44368877D02*
X58637001Y-44507123D01*
X58637001Y-50147877D02*
X58637001Y-52432000D01*
X58637001Y-53232000D02*
X58637001Y-58823432D01*
X58637001Y-59667567D02*
X58637001Y-65157000D01*
X58447001Y-33395000D02*
X58447001Y-36036619D01*
X58447001Y-36036619D02*
X58447001Y-38986601D01*
X58447001Y-40061401D02*
X58447001Y-40383601D01*
X58447001Y-41459972D02*
X58447001Y-42007123D01*
X58447001Y-44368877D02*
X58447001Y-44507123D01*
X58447001Y-50147877D02*
X58447001Y-52432000D01*
X58447001Y-53232000D02*
X58447001Y-59006970D01*
X58447001Y-59484029D02*
X58447001Y-65157000D01*
X58257001Y-33395000D02*
X58257001Y-36036619D01*
X58257001Y-36036619D02*
X58257001Y-38796601D01*
X58257001Y-39871401D02*
X58257001Y-40193601D01*
X58257001Y-41268401D02*
X58257001Y-42007123D01*
X58257001Y-44368877D02*
X58257001Y-44507123D01*
X58257001Y-50147877D02*
X58257001Y-52429635D01*
X58257001Y-53370185D02*
X58257001Y-65157000D01*
X58067001Y-33395000D02*
X58067001Y-36036619D01*
X58067001Y-36036619D02*
X58067001Y-38606601D01*
X58067001Y-39681401D02*
X58067001Y-40003601D01*
X58067001Y-41078401D02*
X58067001Y-42028108D01*
X58067001Y-44451400D02*
X58067001Y-44528108D01*
X58067001Y-50147877D02*
X58067001Y-52459503D01*
X58067001Y-53560185D02*
X58067001Y-65157000D01*
X57877001Y-33395000D02*
X57877001Y-36036619D01*
X57877001Y-36036619D02*
X57877001Y-38416601D01*
X57877001Y-39491401D02*
X57877001Y-39813601D01*
X57877001Y-40888401D02*
X57877001Y-42058000D01*
X57877001Y-50130621D02*
X57877001Y-52618813D01*
X57877001Y-53750185D02*
X57877001Y-65157000D01*
X57687001Y-33395000D02*
X57687001Y-36036619D01*
X57687001Y-36036619D02*
X57687001Y-38226601D01*
X57687001Y-39301401D02*
X57687001Y-39652216D01*
X57687001Y-40698401D02*
X57687001Y-42058000D01*
X57687001Y-50061661D02*
X57687001Y-52808813D01*
X57687001Y-53940185D02*
X57687001Y-65157000D01*
X57497001Y-33395000D02*
X57497001Y-36036619D01*
X57497001Y-36036619D02*
X57497001Y-38036601D01*
X57497001Y-39111401D02*
X57497001Y-39624319D01*
X57497001Y-40508401D02*
X57497001Y-42058000D01*
X57497001Y-43318000D02*
X57497001Y-43438598D01*
X57497001Y-52260400D02*
X57497001Y-52998813D01*
X57497001Y-54130185D02*
X57497001Y-65157000D01*
X57307001Y-33395000D02*
X57307001Y-36036619D01*
X57307001Y-36036619D02*
X57307001Y-37846601D01*
X57307001Y-38921401D02*
X57307001Y-39625000D01*
X57307001Y-40385000D02*
X57307001Y-42058000D01*
X57307001Y-43318000D02*
X57307001Y-43628598D01*
X57307001Y-52450400D02*
X57307001Y-53188813D01*
X57307001Y-54320185D02*
X57307001Y-65157000D01*
X57117001Y-33395000D02*
X57117001Y-36036619D01*
X57117001Y-36036619D02*
X57117001Y-37656601D01*
X57117001Y-38731401D02*
X57117001Y-39625000D01*
X57117001Y-40385000D02*
X57117001Y-42058000D01*
X57117001Y-43318000D02*
X57117001Y-43818598D01*
X57117001Y-52640400D02*
X57117001Y-53378813D01*
X57117001Y-54510185D02*
X57117001Y-65157000D01*
X56927001Y-33395000D02*
X56927001Y-36036619D01*
X56927001Y-36036619D02*
X56927001Y-37466601D01*
X56927001Y-38541401D02*
X56927001Y-39625000D01*
X56927001Y-40385000D02*
X56927001Y-42058000D01*
X56927001Y-43318000D02*
X56927001Y-44008598D01*
X56927001Y-52830400D02*
X56927001Y-53568813D01*
X56927001Y-54700185D02*
X56927001Y-65157000D01*
X56737001Y-33395000D02*
X56737001Y-36036619D01*
X56737001Y-36036619D02*
X56737001Y-37276601D01*
X56737001Y-38351401D02*
X56737001Y-39625000D01*
X56737001Y-40385000D02*
X56737001Y-42058000D01*
X56737001Y-43318000D02*
X56737001Y-44198598D01*
X56737001Y-53020400D02*
X56737001Y-53758813D01*
X56737001Y-54890185D02*
X56737001Y-65157000D01*
X56547001Y-33395000D02*
X56547001Y-36036619D01*
X56547001Y-36036619D02*
X56547001Y-36285379D01*
X56547001Y-38161401D02*
X56547001Y-39625000D01*
X56547001Y-40385000D02*
X56547001Y-41365379D01*
X56547001Y-43318000D02*
X56547001Y-44388598D01*
X56547001Y-48130399D02*
X56547001Y-50738597D01*
X56547001Y-53210400D02*
X56547001Y-53948813D01*
X56547001Y-55080185D02*
X56547001Y-65157000D01*
X56357001Y-33395000D02*
X56357001Y-36036619D01*
X56357001Y-36036619D02*
X56357001Y-36045408D01*
X56357001Y-37971401D02*
X56357001Y-39625000D01*
X56357001Y-40385000D02*
X56357001Y-41125408D01*
X56357001Y-43318000D02*
X56357001Y-44578598D01*
X56357001Y-48320399D02*
X56357001Y-50928597D01*
X56357001Y-53400400D02*
X56357001Y-54138813D01*
X56357001Y-55270185D02*
X56357001Y-65157000D01*
X56167001Y-33395000D02*
X56167001Y-36024123D01*
X56167001Y-37781401D02*
X56167001Y-39625000D01*
X56167001Y-40385000D02*
X56167001Y-41104123D01*
X56167001Y-43318000D02*
X56167001Y-44768598D01*
X56167001Y-48510399D02*
X56167001Y-51118597D01*
X56167001Y-53590400D02*
X56167001Y-54328813D01*
X56167001Y-55460185D02*
X56167001Y-65157000D01*
X55977001Y-33395000D02*
X55977001Y-36024123D01*
X55977001Y-37635877D02*
X55977001Y-39625000D01*
X55977001Y-40385000D02*
X55977001Y-41104123D01*
X55977001Y-43318000D02*
X55977001Y-44988310D01*
X55977001Y-48700399D02*
X55977001Y-51264123D01*
X55977001Y-53780400D02*
X55977001Y-54518813D01*
X55977001Y-55650185D02*
X55977001Y-65157000D01*
X55787001Y-33395000D02*
X55787001Y-36024123D01*
X55787001Y-37635877D02*
X55787001Y-39625000D01*
X55787001Y-40385000D02*
X55787001Y-41104123D01*
X55787001Y-43318000D02*
X55787001Y-46184123D01*
X55787001Y-47795877D02*
X55787001Y-47815598D01*
X55787001Y-48890399D02*
X55787001Y-51264123D01*
X55787001Y-52875877D02*
X55787001Y-52895599D01*
X55787001Y-53970400D02*
X55787001Y-54708813D01*
X55787001Y-55840185D02*
X55787001Y-65157000D01*
X55597001Y-33395000D02*
X55597001Y-36024123D01*
X55597001Y-37635877D02*
X55597001Y-39625000D01*
X55597001Y-40385000D02*
X55597001Y-41104123D01*
X55597001Y-43318000D02*
X55597001Y-46184123D01*
X55597001Y-47795877D02*
X55597001Y-48005598D01*
X55597001Y-49080399D02*
X55597001Y-51264123D01*
X55597001Y-52875877D02*
X55597001Y-53085599D01*
X55597001Y-54160400D02*
X55597001Y-54898813D01*
X55597001Y-56030185D02*
X55597001Y-65157000D01*
X55407001Y-33395000D02*
X55407001Y-36024123D01*
X55407001Y-37635877D02*
X55407001Y-39625000D01*
X55407001Y-40385000D02*
X55407001Y-41104123D01*
X55407001Y-43318000D02*
X55407001Y-46184123D01*
X55407001Y-47795877D02*
X55407001Y-48195598D01*
X55407001Y-49243776D02*
X55407001Y-51264123D01*
X55407001Y-52875877D02*
X55407001Y-53275599D01*
X55407001Y-54323776D02*
X55407001Y-55088813D01*
X55407001Y-56220185D02*
X55407001Y-65157000D01*
X55217001Y-33395000D02*
X55217001Y-36024123D01*
X55217001Y-37635877D02*
X55217001Y-39625000D01*
X55217001Y-40385000D02*
X55217001Y-41104123D01*
X55217001Y-43318000D02*
X55217001Y-46184123D01*
X55217001Y-47795877D02*
X55217001Y-48385598D01*
X55217001Y-49276873D02*
X55217001Y-51264123D01*
X55217001Y-52875877D02*
X55217001Y-53465599D01*
X55217001Y-54356873D02*
X55217001Y-55278813D01*
X55217001Y-56410184D02*
X55217001Y-65157000D01*
X55027001Y-33395000D02*
X55027001Y-36024123D01*
X55027001Y-37635877D02*
X55027001Y-39625000D01*
X55027001Y-40385000D02*
X55027001Y-41104123D01*
X55027001Y-43318000D02*
X55027001Y-46184123D01*
X55027001Y-47795877D02*
X55027001Y-48515000D01*
X55027001Y-49275000D02*
X55027001Y-51264123D01*
X55027001Y-52875877D02*
X55027001Y-53595000D01*
X55027001Y-54355000D02*
X55027001Y-55468813D01*
X55027001Y-56600184D02*
X55027001Y-65157000D01*
X54837001Y-33395000D02*
X54837001Y-36024123D01*
X54837001Y-37635877D02*
X54837001Y-39625000D01*
X54837001Y-40385000D02*
X54837001Y-41104123D01*
X54837001Y-43318000D02*
X54837001Y-46184123D01*
X54837001Y-47795877D02*
X54837001Y-48515000D01*
X54837001Y-49275000D02*
X54837001Y-51264123D01*
X54837001Y-52875877D02*
X54837001Y-53595000D01*
X54837001Y-54355000D02*
X54837001Y-55658814D01*
X54837001Y-56790184D02*
X54837001Y-65157000D01*
X54647001Y-33395000D02*
X54647001Y-36024123D01*
X54647001Y-37635877D02*
X54647001Y-39625000D01*
X54647001Y-40385000D02*
X54647001Y-41104123D01*
X54647001Y-43318000D02*
X54647001Y-46184123D01*
X54647001Y-47795877D02*
X54647001Y-48515000D01*
X54647001Y-49275000D02*
X54647001Y-51264123D01*
X54647001Y-52875877D02*
X54647001Y-53595000D01*
X54647001Y-54355000D02*
X54647001Y-55848814D01*
X54647001Y-56980184D02*
X54647001Y-65157000D01*
X54457001Y-33395000D02*
X54457001Y-36024123D01*
X54457001Y-37635877D02*
X54457001Y-39625000D01*
X54457001Y-40385000D02*
X54457001Y-41104123D01*
X54457001Y-43318000D02*
X54457001Y-46184123D01*
X54457001Y-47795877D02*
X54457001Y-48515000D01*
X54457001Y-49275000D02*
X54457001Y-51264123D01*
X54457001Y-52875877D02*
X54457001Y-53595000D01*
X54457001Y-54355000D02*
X54457001Y-56038814D01*
X54457001Y-57170184D02*
X54457001Y-65157000D01*
X54267001Y-33395000D02*
X54267001Y-36024123D01*
X54267001Y-37635877D02*
X54267001Y-39625000D01*
X54267001Y-40385000D02*
X54267001Y-41104123D01*
X54267001Y-43318000D02*
X54267001Y-46184123D01*
X54267001Y-47795877D02*
X54267001Y-48515000D01*
X54267001Y-49275000D02*
X54267001Y-51264123D01*
X54267001Y-52875877D02*
X54267001Y-53595000D01*
X54267001Y-54355000D02*
X54267001Y-56228814D01*
X54267001Y-57360184D02*
X54267001Y-65157000D01*
X54077001Y-33395000D02*
X54077001Y-36024123D01*
X54077001Y-37635877D02*
X54077001Y-39625000D01*
X54077001Y-40385000D02*
X54077001Y-41104123D01*
X54077001Y-43361400D02*
X54077001Y-46184123D01*
X54077001Y-47795877D02*
X54077001Y-48515000D01*
X54077001Y-49275000D02*
X54077001Y-51264123D01*
X54077001Y-52875877D02*
X54077001Y-53595000D01*
X54077001Y-54355000D02*
X54077001Y-56418814D01*
X54077001Y-57550184D02*
X54077001Y-65157000D01*
X53887001Y-33395000D02*
X53887001Y-36024123D01*
X53887001Y-37635877D02*
X53887001Y-39625000D01*
X53887001Y-40385000D02*
X53887001Y-41104123D01*
X53887001Y-43551400D02*
X53887001Y-46184123D01*
X53887001Y-47795877D02*
X53887001Y-48515000D01*
X53887001Y-49275000D02*
X53887001Y-51264123D01*
X53887001Y-52875877D02*
X53887001Y-53595000D01*
X53887001Y-54355000D02*
X53887001Y-56608814D01*
X53887001Y-57740184D02*
X53887001Y-65157000D01*
X53697001Y-33395000D02*
X53697001Y-36032676D01*
X53697001Y-37627323D02*
X53697001Y-39625000D01*
X53697001Y-40385000D02*
X53697001Y-41112676D01*
X53697001Y-43741400D02*
X53697001Y-46192676D01*
X53697001Y-47787323D02*
X53697001Y-48515000D01*
X53697001Y-49275000D02*
X53697001Y-51272676D01*
X53697001Y-52867323D02*
X53697001Y-53595000D01*
X53697001Y-54355000D02*
X53697001Y-56798814D01*
X53697001Y-57930184D02*
X53697001Y-65157000D01*
X53507001Y-33395000D02*
X53507001Y-36138722D01*
X53507001Y-37521277D02*
X53507001Y-39625000D01*
X53507001Y-40385000D02*
X53507001Y-41218722D01*
X53507001Y-42601277D02*
X53507001Y-42856598D01*
X53507001Y-43931400D02*
X53507001Y-46298722D01*
X53507001Y-47681277D02*
X53507001Y-48515000D01*
X53507001Y-49275000D02*
X53507001Y-51378722D01*
X53507001Y-52761277D02*
X53507001Y-53595000D01*
X53507001Y-54355000D02*
X53507001Y-56988814D01*
X53507001Y-58120184D02*
X53507001Y-65157000D01*
X53317001Y-33395000D02*
X53317001Y-39625000D01*
X53317001Y-40385000D02*
X53317001Y-43046598D01*
X53317001Y-44121400D02*
X53317001Y-48515000D01*
X53317001Y-49275000D02*
X53317001Y-53595000D01*
X53317001Y-54355000D02*
X53317001Y-57178814D01*
X53317001Y-58310184D02*
X53317001Y-65157000D01*
X53127001Y-33395000D02*
X53127001Y-38634144D01*
X53127001Y-40385000D02*
X53127001Y-43236598D01*
X53127001Y-45185857D02*
X53127001Y-48515000D01*
X53127001Y-50265857D02*
X53127001Y-53595000D01*
X53127001Y-55345857D02*
X53127001Y-57368814D01*
X53127001Y-58500184D02*
X53127001Y-65157000D01*
X52937001Y-33395000D02*
X52937001Y-38564123D01*
X52937001Y-40362463D02*
X52937001Y-43426598D01*
X52937001Y-45255877D02*
X52937001Y-48537536D01*
X52937001Y-50335877D02*
X52937001Y-53617536D01*
X52937001Y-55415877D02*
X52937001Y-57558814D01*
X52937001Y-58690184D02*
X52937001Y-65157000D01*
X52747001Y-33395000D02*
X52747001Y-38564123D01*
X52747001Y-40203402D02*
X52747001Y-43616598D01*
X52747001Y-45255877D02*
X52747001Y-48696598D01*
X52747001Y-50335877D02*
X52747001Y-53776598D01*
X52747001Y-55415877D02*
X52747001Y-57748814D01*
X52747001Y-58880184D02*
X52747001Y-65157000D01*
X52557001Y-33395000D02*
X52557001Y-38564123D01*
X52557001Y-40175877D02*
X52557001Y-43644123D01*
X52557001Y-45255877D02*
X52557001Y-48724123D01*
X52557001Y-50335877D02*
X52557001Y-53804123D01*
X52557001Y-55415877D02*
X52557001Y-57938814D01*
X52557001Y-59070184D02*
X52557001Y-65157000D01*
X52367001Y-33395000D02*
X52367001Y-38564123D01*
X52367001Y-40175877D02*
X52367001Y-43644123D01*
X52367001Y-45255877D02*
X52367001Y-48724123D01*
X52367001Y-50335877D02*
X52367001Y-53804123D01*
X52367001Y-55415877D02*
X52367001Y-58128814D01*
X52367001Y-59260184D02*
X52367001Y-65157000D01*
X52177001Y-33395000D02*
X52177001Y-38564123D01*
X52177001Y-40175877D02*
X52177001Y-43644123D01*
X52177001Y-45255877D02*
X52177001Y-48724123D01*
X52177001Y-50335877D02*
X52177001Y-53804123D01*
X52177001Y-55415877D02*
X52177001Y-58318814D01*
X52177001Y-59559079D02*
X52177001Y-65157000D01*
X51987001Y-33395000D02*
X51987001Y-38564123D01*
X51987001Y-40175877D02*
X51987001Y-43644123D01*
X51987001Y-45255877D02*
X51987001Y-48724123D01*
X51987001Y-50335877D02*
X51987001Y-53804123D01*
X51987001Y-55415877D02*
X51987001Y-58508814D01*
X51987001Y-59653773D02*
X51987001Y-65157000D01*
X51797001Y-33395000D02*
X51797001Y-38564123D01*
X51797001Y-40175877D02*
X51797001Y-43644123D01*
X51797001Y-45255877D02*
X51797001Y-48724123D01*
X51797001Y-50335877D02*
X51797001Y-53804123D01*
X51797001Y-55415877D02*
X51797001Y-58698814D01*
X51797001Y-59659000D02*
X51797001Y-65157000D01*
X51607001Y-33395000D02*
X51607001Y-38564123D01*
X51607001Y-40175877D02*
X51607001Y-43644123D01*
X51607001Y-45255877D02*
X51607001Y-48724123D01*
X51607001Y-50335877D02*
X51607001Y-53804123D01*
X51607001Y-55415877D02*
X51607001Y-58779919D01*
X51607001Y-59584081D02*
X51607001Y-65157000D01*
X51417001Y-33395000D02*
X51417001Y-38564123D01*
X51417001Y-40175877D02*
X51417001Y-43644123D01*
X51417001Y-45255877D02*
X51417001Y-48724123D01*
X51417001Y-50335877D02*
X51417001Y-53804123D01*
X51417001Y-55415877D02*
X51417001Y-59052110D01*
X51417001Y-59311889D02*
X51417001Y-65157000D01*
X51227001Y-33395000D02*
X51227001Y-38564123D01*
X51227001Y-40175877D02*
X51227001Y-43644123D01*
X51227001Y-45255877D02*
X51227001Y-48724123D01*
X51227001Y-50335877D02*
X51227001Y-53804123D01*
X51227001Y-55415877D02*
X51227001Y-65157000D01*
X51037001Y-33395000D02*
X51037001Y-38564123D01*
X51037001Y-40175877D02*
X51037001Y-43644123D01*
X51037001Y-45255877D02*
X51037001Y-48724123D01*
X51037001Y-50335877D02*
X51037001Y-53804123D01*
X51037001Y-55415877D02*
X51037001Y-65157000D01*
X50847001Y-33395000D02*
X50847001Y-38564123D01*
X50847001Y-40175877D02*
X50847001Y-43644123D01*
X50847001Y-45255877D02*
X50847001Y-48724123D01*
X50847001Y-50335877D02*
X50847001Y-53804123D01*
X50847001Y-55415877D02*
X50847001Y-65157000D01*
X50657001Y-33395000D02*
X50657001Y-38564123D01*
X50657001Y-40175877D02*
X50657001Y-43644123D01*
X50657001Y-45255877D02*
X50657001Y-48724123D01*
X50657001Y-50335877D02*
X50657001Y-53804123D01*
X50657001Y-55415877D02*
X50657001Y-65157000D01*
X50467001Y-33395000D02*
X50467001Y-38564123D01*
X50467001Y-40175877D02*
X50467001Y-43644123D01*
X50467001Y-45255877D02*
X50467001Y-48724123D01*
X50467001Y-50335877D02*
X50467001Y-53804123D01*
X50467001Y-55415877D02*
X50467001Y-65157000D01*
X50277001Y-33397149D02*
X50277001Y-38611424D01*
X50277001Y-40128575D02*
X50277001Y-43691424D01*
X50277001Y-45208575D02*
X50277001Y-48771424D01*
X50277001Y-50288575D02*
X50277001Y-53851424D01*
X50277001Y-55368575D02*
X50277001Y-65151026D01*
X50087001Y-33411269D02*
X50087001Y-38870000D01*
X50087001Y-38870000D02*
X50087001Y-65123816D01*
X49897001Y-33462038D02*
X49897001Y-38870000D01*
X49897001Y-38870000D02*
X49897001Y-65096605D01*
X49707001Y-33518859D02*
X49707001Y-38870000D01*
X49707001Y-38870000D02*
X49707001Y-65031706D01*
X49517001Y-33604159D02*
X49517001Y-38870000D01*
X49517001Y-38870000D02*
X49517001Y-64945319D01*
X49327001Y-33727310D02*
X49327001Y-38870000D01*
X49327001Y-38870000D02*
X49327001Y-64828685D01*
X49137001Y-33885431D02*
X49137001Y-38870000D01*
X49137001Y-38870000D02*
X49137001Y-64664970D01*
X48947001Y-34105936D02*
X48947001Y-38870000D01*
X48947001Y-38870000D02*
X48947001Y-64433666D01*
X48757001Y-34474244D02*
X48757001Y-38870000D01*
X48757001Y-38870000D02*
X48757001Y-64078788D01*
D20*
X89363993Y-33465276D02*
X89790681Y-33659279D01*
X90145773Y-33965247D01*
X90400715Y-34358574D01*
X90538730Y-34820068D01*
X90557001Y-35065931D01*
X90557000Y-63473281D01*
X90486724Y-63963993D01*
X90292721Y-64390681D01*
X89986755Y-64745771D01*
X89593428Y-65000714D01*
X89131936Y-65138730D01*
X88886083Y-65157000D01*
X50318719Y-65157000D01*
X49828007Y-65086724D01*
X49401319Y-64892721D01*
X49046229Y-64586755D01*
X48791286Y-64193428D01*
X48653270Y-63731936D01*
X48635000Y-63486083D01*
X48635000Y-38870000D01*
X50124123Y-38870000D01*
X50124123Y-39870000D01*
X50147407Y-39987054D01*
X50213712Y-40086288D01*
X50312946Y-40152593D01*
X50430000Y-40175877D01*
X52719476Y-40175877D01*
X52790837Y-40247238D01*
X52812036Y-40278964D01*
X52937732Y-40362952D01*
X53048576Y-40385000D01*
X53048581Y-40385000D01*
X53086000Y-40392443D01*
X53123419Y-40385000D01*
X57373600Y-40385000D01*
X58443838Y-41455239D01*
X58465036Y-41486964D01*
X58590732Y-41570952D01*
X58701576Y-41593000D01*
X58701581Y-41593000D01*
X58739000Y-41600443D01*
X58776419Y-41593000D01*
X58792550Y-41593000D01*
X58807164Y-41666472D01*
X58887018Y-41785982D01*
X59006528Y-41865836D01*
X59147500Y-41893877D01*
X59272500Y-41893877D01*
X59413472Y-41865836D01*
X59460000Y-41834747D01*
X59506528Y-41865836D01*
X59647500Y-41893877D01*
X59772500Y-41893877D01*
X59913472Y-41865836D01*
X59960000Y-41834747D01*
X60006528Y-41865836D01*
X60147500Y-41893877D01*
X60272500Y-41893877D01*
X60413472Y-41865836D01*
X60532982Y-41785982D01*
X60612836Y-41666472D01*
X60640877Y-41525500D01*
X60640877Y-40900500D01*
X60612836Y-40759528D01*
X60590000Y-40725351D01*
X60590000Y-39788877D01*
X60835000Y-39788877D01*
X60952054Y-39765593D01*
X60960000Y-39760284D01*
X60967946Y-39765593D01*
X61085000Y-39788877D01*
X61330000Y-39788877D01*
X61330000Y-39917748D01*
X61308881Y-39909000D01*
X61119119Y-39909000D01*
X60943801Y-39981619D01*
X60809619Y-40115801D01*
X60737000Y-40291119D01*
X60737000Y-40480881D01*
X60809619Y-40656199D01*
X60830001Y-40676581D01*
X60830001Y-40725351D01*
X60807164Y-40759528D01*
X60779123Y-40900500D01*
X60779123Y-41525500D01*
X60807164Y-41666472D01*
X60887018Y-41785982D01*
X61006528Y-41865836D01*
X61147500Y-41893877D01*
X61272500Y-41893877D01*
X61413472Y-41865836D01*
X61460000Y-41834747D01*
X61506528Y-41865836D01*
X61647500Y-41893877D01*
X61772500Y-41893877D01*
X61913472Y-41865836D01*
X61960000Y-41834747D01*
X62006528Y-41865836D01*
X62147500Y-41893877D01*
X62272500Y-41893877D01*
X62413472Y-41865836D01*
X62460000Y-41834747D01*
X62506528Y-41865836D01*
X62647500Y-41893877D01*
X62754123Y-41893877D01*
X62754123Y-42000500D01*
X62782164Y-42141472D01*
X62813253Y-42188000D01*
X62782164Y-42234528D01*
X62754123Y-42375500D01*
X62754123Y-42500500D01*
X62782164Y-42641472D01*
X62813253Y-42688000D01*
X62782164Y-42734528D01*
X62754123Y-42875500D01*
X62754123Y-43000500D01*
X62782164Y-43141472D01*
X62813253Y-43188000D01*
X62782164Y-43234528D01*
X62754123Y-43375500D01*
X62754123Y-43500500D01*
X62782164Y-43641472D01*
X62813253Y-43688000D01*
X62782164Y-43734528D01*
X62754123Y-43875500D01*
X62754123Y-44000500D01*
X62782164Y-44141472D01*
X62813253Y-44188000D01*
X62782164Y-44234528D01*
X62754123Y-44375500D01*
X62754123Y-44500500D01*
X62782164Y-44641472D01*
X62813253Y-44688000D01*
X62782164Y-44734528D01*
X62754123Y-44875500D01*
X62754123Y-45000500D01*
X62782164Y-45141472D01*
X62813253Y-45188000D01*
X62782164Y-45234528D01*
X62754123Y-45375500D01*
X62754123Y-45482123D01*
X62647500Y-45482123D01*
X62506528Y-45510164D01*
X62460000Y-45541253D01*
X62413472Y-45510164D01*
X62272500Y-45482123D01*
X62147500Y-45482123D01*
X62006528Y-45510164D01*
X61960000Y-45541253D01*
X61913472Y-45510164D01*
X61772500Y-45482123D01*
X61647500Y-45482123D01*
X61506528Y-45510164D01*
X61460000Y-45541253D01*
X61413472Y-45510164D01*
X61272500Y-45482123D01*
X61147500Y-45482123D01*
X61006528Y-45510164D01*
X60960000Y-45541253D01*
X60913472Y-45510164D01*
X60772500Y-45482123D01*
X60647500Y-45482123D01*
X60506528Y-45510164D01*
X60460000Y-45541253D01*
X60413472Y-45510164D01*
X60272500Y-45482123D01*
X60147500Y-45482123D01*
X60006528Y-45510164D01*
X59960000Y-45541253D01*
X59913472Y-45510164D01*
X59772500Y-45482123D01*
X59647500Y-45482123D01*
X59506528Y-45510164D01*
X59460000Y-45541253D01*
X59413472Y-45510164D01*
X59272500Y-45482123D01*
X59165877Y-45482123D01*
X59165877Y-45375500D01*
X59137836Y-45234528D01*
X59106747Y-45188000D01*
X59137836Y-45141472D01*
X59165877Y-45000500D01*
X59165877Y-44875500D01*
X59137836Y-44734528D01*
X59057982Y-44615018D01*
X58938472Y-44535164D01*
X58797500Y-44507123D01*
X58172500Y-44507123D01*
X58031528Y-44535164D01*
X57987083Y-44564861D01*
X57945211Y-44573190D01*
X58153336Y-44365065D01*
X58172500Y-44368877D01*
X58797500Y-44368877D01*
X58938472Y-44340836D01*
X59057982Y-44260982D01*
X59137836Y-44141472D01*
X59165877Y-44000500D01*
X59165877Y-43875500D01*
X59137836Y-43734528D01*
X59106747Y-43688000D01*
X59137836Y-43641472D01*
X59165877Y-43500500D01*
X59165877Y-43375500D01*
X59137836Y-43234528D01*
X59106747Y-43188000D01*
X59137836Y-43141472D01*
X59165877Y-43000500D01*
X59165877Y-42875500D01*
X59137836Y-42734528D01*
X59106747Y-42688000D01*
X59137836Y-42641472D01*
X59165877Y-42500500D01*
X59165877Y-42375500D01*
X59137836Y-42234528D01*
X59057982Y-42115018D01*
X58938472Y-42035164D01*
X58797500Y-42007123D01*
X58172500Y-42007123D01*
X58031528Y-42035164D01*
X57997351Y-42058000D01*
X56555877Y-42058000D01*
X56555877Y-41410000D01*
X56532593Y-41292946D01*
X56466288Y-41193712D01*
X56367054Y-41127407D01*
X56250000Y-41104123D01*
X53740000Y-41104123D01*
X53622946Y-41127407D01*
X53523712Y-41193712D01*
X53457407Y-41292946D01*
X53434123Y-41410000D01*
X53434123Y-42410000D01*
X53457407Y-42527054D01*
X53523712Y-42626288D01*
X53622946Y-42692593D01*
X53663032Y-42700567D01*
X52719477Y-43644123D01*
X50430000Y-43644123D01*
X50312946Y-43667407D01*
X50213712Y-43733712D01*
X50147407Y-43832946D01*
X50124123Y-43950000D01*
X50124123Y-44950000D01*
X50147407Y-45067054D01*
X50213712Y-45166288D01*
X50312946Y-45232593D01*
X50430000Y-45255877D01*
X52940000Y-45255877D01*
X53057054Y-45232593D01*
X53156288Y-45166288D01*
X53222593Y-45067054D01*
X53245877Y-44950000D01*
X53245877Y-44192523D01*
X54120401Y-43318000D01*
X57617599Y-43318000D01*
X56089758Y-44845842D01*
X56058030Y-44867042D01*
X55974042Y-44992739D01*
X55951994Y-45103583D01*
X55951994Y-45103587D01*
X55944551Y-45141006D01*
X55951994Y-45178425D01*
X55951995Y-46184123D01*
X53740000Y-46184123D01*
X53622946Y-46207407D01*
X53523712Y-46273712D01*
X53457407Y-46372946D01*
X53434123Y-46490000D01*
X53434123Y-47490000D01*
X53457407Y-47607054D01*
X53523712Y-47706288D01*
X53622946Y-47772593D01*
X53740000Y-47795877D01*
X55806722Y-47795877D01*
X55087600Y-48515000D01*
X53123419Y-48515000D01*
X53086000Y-48507557D01*
X53048581Y-48515000D01*
X53048576Y-48515000D01*
X52937732Y-48537048D01*
X52812036Y-48621036D01*
X52790837Y-48652762D01*
X52719476Y-48724123D01*
X50430000Y-48724123D01*
X50312946Y-48747407D01*
X50213712Y-48813712D01*
X50147407Y-48912946D01*
X50124123Y-49030000D01*
X50124123Y-50030000D01*
X50147407Y-50147054D01*
X50213712Y-50246288D01*
X50312946Y-50312593D01*
X50430000Y-50335877D01*
X52940000Y-50335877D01*
X53057054Y-50312593D01*
X53156288Y-50246288D01*
X53222593Y-50147054D01*
X53245877Y-50030000D01*
X53245877Y-49275000D01*
X55207581Y-49275000D01*
X55245000Y-49282443D01*
X55282419Y-49275000D01*
X55282424Y-49275000D01*
X55393268Y-49252952D01*
X55518964Y-49168964D01*
X55540164Y-49137236D01*
X56581998Y-48095402D01*
X56581999Y-50703599D01*
X56021476Y-51264123D01*
X53740000Y-51264123D01*
X53622946Y-51287407D01*
X53523712Y-51353712D01*
X53457407Y-51452946D01*
X53434123Y-51570000D01*
X53434123Y-52570000D01*
X53457407Y-52687054D01*
X53523712Y-52786288D01*
X53622946Y-52852593D01*
X53740000Y-52875877D01*
X55806723Y-52875877D01*
X55087600Y-53595000D01*
X53123419Y-53595000D01*
X53086000Y-53587557D01*
X53048581Y-53595000D01*
X53048576Y-53595000D01*
X52937732Y-53617048D01*
X52812036Y-53701036D01*
X52790837Y-53732762D01*
X52719476Y-53804123D01*
X50430000Y-53804123D01*
X50312946Y-53827407D01*
X50213712Y-53893712D01*
X50147407Y-53992946D01*
X50124123Y-54110000D01*
X50124123Y-55110000D01*
X50147407Y-55227054D01*
X50213712Y-55326288D01*
X50312946Y-55392593D01*
X50430000Y-55415877D01*
X52940000Y-55415877D01*
X53057054Y-55392593D01*
X53156288Y-55326288D01*
X53222593Y-55227054D01*
X53245877Y-55110000D01*
X53245877Y-54355000D01*
X55207581Y-54355000D01*
X55245000Y-54362443D01*
X55282419Y-54355000D01*
X55282424Y-54355000D01*
X55393268Y-54332952D01*
X55518964Y-54248964D01*
X55540164Y-54217236D01*
X57519239Y-52238162D01*
X57550964Y-52216964D01*
X57634952Y-52091268D01*
X57657000Y-51980424D01*
X57657000Y-51980419D01*
X57664443Y-51943000D01*
X57657000Y-51905581D01*
X57657000Y-50041615D01*
X57753417Y-50106039D01*
X57963750Y-50147877D01*
X58876250Y-50147877D01*
X59086583Y-50106039D01*
X59264895Y-49986895D01*
X59384039Y-49808583D01*
X59425877Y-49598250D01*
X59425877Y-49110750D01*
X59396639Y-48963761D01*
X60445123Y-47915278D01*
X60445123Y-48135250D01*
X60485058Y-48336016D01*
X60598783Y-48506217D01*
X60768984Y-48619942D01*
X60969750Y-48659877D01*
X61407250Y-48659877D01*
X61608016Y-48619942D01*
X61778217Y-48506217D01*
X61891942Y-48336016D01*
X61931877Y-48135250D01*
X61931877Y-47622750D01*
X61922448Y-47575349D01*
X62020123Y-47673024D01*
X62020123Y-48135250D01*
X62060058Y-48336016D01*
X62173783Y-48506217D01*
X62343984Y-48619942D01*
X62544750Y-48659877D01*
X62982250Y-48659877D01*
X63183016Y-48619942D01*
X63207998Y-48603249D01*
X63207999Y-49637316D01*
X60413316Y-52432000D01*
X58268892Y-52432000D01*
X58229499Y-52424164D01*
X58190107Y-52432000D01*
X58190106Y-52432000D01*
X58073428Y-52455209D01*
X57941116Y-52543616D01*
X57918801Y-52577013D01*
X51790816Y-58705000D01*
X51784619Y-58705000D01*
X51609301Y-58777619D01*
X51475119Y-58911801D01*
X51402500Y-59087119D01*
X51402500Y-59276881D01*
X51475119Y-59452199D01*
X51609301Y-59586381D01*
X51784619Y-59659000D01*
X51974381Y-59659000D01*
X52149699Y-59586381D01*
X52283881Y-59452199D01*
X52356500Y-59276881D01*
X52356500Y-59270684D01*
X58395186Y-53232000D01*
X60539606Y-53232000D01*
X60579000Y-53239836D01*
X60618394Y-53232000D01*
X60735072Y-53208791D01*
X60867384Y-53120384D01*
X60889703Y-53086981D01*
X63798500Y-50178184D01*
X63798501Y-53745813D01*
X58775816Y-58768500D01*
X58769619Y-58768500D01*
X58594301Y-58841119D01*
X58460119Y-58975301D01*
X58387500Y-59150619D01*
X58387500Y-59340381D01*
X58460119Y-59515699D01*
X58594301Y-59649881D01*
X58769619Y-59722500D01*
X58959381Y-59722500D01*
X59134699Y-59649881D01*
X59268881Y-59515699D01*
X59341500Y-59340381D01*
X59341500Y-59334184D01*
X64350998Y-54324688D01*
X64350998Y-58073604D01*
X64343162Y-58112998D01*
X64350998Y-58152391D01*
X64374207Y-58269069D01*
X64462614Y-58401382D01*
X64496016Y-58423701D01*
X65381000Y-59308686D01*
X65381000Y-59314881D01*
X65453619Y-59490199D01*
X65587801Y-59624381D01*
X65763119Y-59697000D01*
X65952881Y-59697000D01*
X66128199Y-59624381D01*
X66262381Y-59490199D01*
X66335000Y-59314881D01*
X66335000Y-59125119D01*
X66262381Y-58949801D01*
X66128199Y-58815619D01*
X65952881Y-58743000D01*
X65946686Y-58743000D01*
X65150998Y-57947314D01*
X65150998Y-52064182D01*
X72357500Y-59270686D01*
X72357500Y-59276881D01*
X72430119Y-59452199D01*
X72564301Y-59586381D01*
X72739619Y-59659000D01*
X72929381Y-59659000D01*
X73104699Y-59586381D01*
X73238881Y-59452199D01*
X73311500Y-59276881D01*
X73311500Y-59087119D01*
X73238881Y-58911801D01*
X73104699Y-58777619D01*
X72929381Y-58705000D01*
X72923186Y-58705000D01*
X67427863Y-53209678D01*
X67516699Y-53172881D01*
X67650881Y-53038699D01*
X67723500Y-52863381D01*
X67723500Y-52673619D01*
X67650881Y-52498301D01*
X67516699Y-52364119D01*
X67341381Y-52291500D01*
X67306900Y-52291500D01*
X67305000Y-52289600D01*
X67305000Y-50335877D01*
X68180000Y-50335877D01*
X68297054Y-50312593D01*
X68373407Y-50261577D01*
X68373406Y-52478012D01*
X68365570Y-52517406D01*
X68373406Y-52556799D01*
X68396615Y-52673477D01*
X68485022Y-52805790D01*
X68518425Y-52828109D01*
X69856799Y-54166484D01*
X69879116Y-54199884D01*
X70011428Y-54288291D01*
X70167500Y-54319336D01*
X70206894Y-54311500D01*
X74446816Y-54311500D01*
X79381000Y-59245685D01*
X79381000Y-59314881D01*
X79453619Y-59490199D01*
X79587801Y-59624381D01*
X79763119Y-59697000D01*
X79952881Y-59697000D01*
X80128199Y-59624381D01*
X80262381Y-59490199D01*
X80335000Y-59314881D01*
X80335000Y-59125119D01*
X80262381Y-58949801D01*
X80128199Y-58815619D01*
X80049851Y-58783166D01*
X74943184Y-53676500D01*
X80796816Y-53676500D01*
X86391000Y-59270686D01*
X86391000Y-59276881D01*
X86463619Y-59452199D01*
X86597801Y-59586381D01*
X86773119Y-59659000D01*
X86962881Y-59659000D01*
X87138199Y-59586381D01*
X87272381Y-59452199D01*
X87345000Y-59276881D01*
X87345000Y-59087119D01*
X87272381Y-58911801D01*
X87138199Y-58777619D01*
X86962881Y-58705000D01*
X86956686Y-58705000D01*
X81273203Y-53021519D01*
X81250884Y-52988116D01*
X81118572Y-52899709D01*
X81001894Y-52876500D01*
X80962500Y-52868664D01*
X80923106Y-52876500D01*
X72798066Y-52876500D01*
X72803500Y-52863381D01*
X72803500Y-52673619D01*
X72730881Y-52498301D01*
X72706500Y-52473920D01*
X72706500Y-46646418D01*
X72713943Y-46608999D01*
X72706500Y-46571580D01*
X72706500Y-46571576D01*
X72684452Y-46460732D01*
X72668571Y-46436964D01*
X72621663Y-46366761D01*
X72621660Y-46366758D01*
X72600464Y-46335036D01*
X72568742Y-46313840D01*
X71796164Y-45541264D01*
X71774964Y-45509536D01*
X71649268Y-45425548D01*
X71538424Y-45403500D01*
X71538419Y-45403500D01*
X71501000Y-45396057D01*
X71463581Y-45403500D01*
X69253580Y-45403500D01*
X69301881Y-45355199D01*
X69374500Y-45179881D01*
X69374500Y-44990119D01*
X69301881Y-44814801D01*
X69297500Y-44810420D01*
X69297500Y-44399686D01*
X69367850Y-44470036D01*
X69390166Y-44503434D01*
X69522478Y-44591841D01*
X69639156Y-44615050D01*
X69678549Y-44622886D01*
X69717942Y-44615050D01*
X72751366Y-44615050D01*
X75977000Y-47840685D01*
X75977000Y-47846881D01*
X76049619Y-48022199D01*
X76183801Y-48156381D01*
X76359119Y-48229000D01*
X76548881Y-48229000D01*
X76724199Y-48156381D01*
X76858381Y-48022199D01*
X76931000Y-47846881D01*
X76931000Y-47657119D01*
X76858381Y-47481801D01*
X76724199Y-47347619D01*
X76548881Y-47275000D01*
X76542685Y-47275000D01*
X73228684Y-43961000D01*
X80987316Y-43961000D01*
X84867000Y-47840685D01*
X84867000Y-47846881D01*
X84939619Y-48022199D01*
X85073801Y-48156381D01*
X85249119Y-48229000D01*
X85438881Y-48229000D01*
X85614199Y-48156381D01*
X85748381Y-48022199D01*
X85821000Y-47846881D01*
X85821000Y-47657119D01*
X85748381Y-47481801D01*
X85614199Y-47347619D01*
X85438881Y-47275000D01*
X85432685Y-47275000D01*
X81463703Y-43306019D01*
X81441384Y-43272616D01*
X81309072Y-43184209D01*
X81192394Y-43161000D01*
X81153000Y-43153164D01*
X81113606Y-43161000D01*
X72364461Y-43161000D01*
X72422500Y-43020881D01*
X72422500Y-42831119D01*
X72349881Y-42655801D01*
X72215699Y-42521619D01*
X72040381Y-42449000D01*
X72005901Y-42449000D01*
X71795877Y-42238976D01*
X71795877Y-41410000D01*
X71772593Y-41292946D01*
X71706288Y-41193712D01*
X71607054Y-41127407D01*
X71490000Y-41104123D01*
X69189562Y-41104123D01*
X69761685Y-40532000D01*
X84307420Y-40532000D01*
X84311801Y-40536381D01*
X84487119Y-40609000D01*
X84676881Y-40609000D01*
X84852199Y-40536381D01*
X84986381Y-40402199D01*
X85059000Y-40226881D01*
X85059000Y-40037119D01*
X84986381Y-39861801D01*
X84852199Y-39727619D01*
X84676881Y-39655000D01*
X84487119Y-39655000D01*
X84311801Y-39727619D01*
X84307420Y-39732000D01*
X69635394Y-39732000D01*
X69596000Y-39724164D01*
X69556606Y-39732000D01*
X69542974Y-39734712D01*
X70015686Y-39262000D01*
X76179420Y-39262000D01*
X76183801Y-39266381D01*
X76359119Y-39339000D01*
X76548881Y-39339000D01*
X76724199Y-39266381D01*
X76858381Y-39132199D01*
X76931000Y-38956881D01*
X76931000Y-38767119D01*
X76858381Y-38591801D01*
X76724199Y-38457619D01*
X76548881Y-38385000D01*
X76359119Y-38385000D01*
X76183801Y-38457619D01*
X76179420Y-38462000D01*
X69889392Y-38462000D01*
X69849999Y-38454164D01*
X69810607Y-38462000D01*
X69810606Y-38462000D01*
X69693928Y-38485209D01*
X69561616Y-38573616D01*
X69539301Y-38607013D01*
X67333316Y-40813000D01*
X63123472Y-40813000D01*
X63112836Y-40759528D01*
X63032982Y-40640018D01*
X62913472Y-40560164D01*
X62772500Y-40532123D01*
X62647500Y-40532123D01*
X62610000Y-40539582D01*
X62610000Y-40317684D01*
X64350686Y-38577000D01*
X64356881Y-38577000D01*
X64532199Y-38504381D01*
X64666381Y-38370199D01*
X64739000Y-38194881D01*
X64739000Y-38005119D01*
X64666381Y-37829801D01*
X64532199Y-37695619D01*
X64356881Y-37623000D01*
X64167119Y-37623000D01*
X63991801Y-37695619D01*
X63857619Y-37829801D01*
X63785000Y-38005119D01*
X63785000Y-38011314D01*
X62090000Y-39706316D01*
X62090000Y-39641350D01*
X62117593Y-39600054D01*
X62140877Y-39483000D01*
X62140877Y-38883000D01*
X62117593Y-38765946D01*
X62051288Y-38666712D01*
X61952054Y-38600407D01*
X61835000Y-38577123D01*
X61590506Y-38577123D01*
X61590000Y-38574581D01*
X61590000Y-38574576D01*
X61567952Y-38463732D01*
X61483964Y-38338036D01*
X61481566Y-38336434D01*
X61479964Y-38334036D01*
X61354268Y-38250048D01*
X61243424Y-38228000D01*
X61243419Y-38228000D01*
X61206000Y-38220557D01*
X61168581Y-38228000D01*
X59857580Y-38228000D01*
X59833199Y-38203619D01*
X59657881Y-38131000D01*
X59468119Y-38131000D01*
X59292801Y-38203619D01*
X59158619Y-38337801D01*
X59086000Y-38513119D01*
X59086000Y-38702881D01*
X59158619Y-38878199D01*
X59292801Y-39012381D01*
X59468119Y-39085000D01*
X59657881Y-39085000D01*
X59779123Y-39034780D01*
X59779123Y-39483000D01*
X59802407Y-39600054D01*
X59830000Y-39641351D01*
X59830001Y-40369600D01*
X56555877Y-37095477D01*
X56555877Y-36330000D01*
X56532593Y-36212946D01*
X56466288Y-36113712D01*
X56367054Y-36047407D01*
X56312821Y-36036619D01*
X60800500Y-36036619D01*
X60800500Y-36226381D01*
X60873119Y-36401699D01*
X61007301Y-36535881D01*
X61182619Y-36608500D01*
X61217100Y-36608500D01*
X61680837Y-37072238D01*
X61702036Y-37103964D01*
X61733761Y-37125162D01*
X61733762Y-37125163D01*
X61827730Y-37187951D01*
X61827731Y-37187951D01*
X61827732Y-37187952D01*
X61938576Y-37210000D01*
X61938580Y-37210000D01*
X61975999Y-37217443D01*
X62013418Y-37210000D01*
X68674123Y-37210000D01*
X68674123Y-37330000D01*
X68697407Y-37447054D01*
X68763712Y-37546288D01*
X68862946Y-37612593D01*
X68980000Y-37635877D01*
X71490000Y-37635877D01*
X71607054Y-37612593D01*
X71706288Y-37546288D01*
X71772593Y-37447054D01*
X71795877Y-37330000D01*
X71795877Y-36330000D01*
X71772593Y-36212946D01*
X71706288Y-36113712D01*
X71607054Y-36047407D01*
X71490000Y-36024123D01*
X68980000Y-36024123D01*
X68862946Y-36047407D01*
X68763712Y-36113712D01*
X68697407Y-36212946D01*
X68674123Y-36330000D01*
X68674123Y-36450000D01*
X62133401Y-36450000D01*
X61754500Y-36071100D01*
X61754500Y-36036619D01*
X61681881Y-35861301D01*
X61547699Y-35727119D01*
X61372381Y-35654500D01*
X61182619Y-35654500D01*
X61007301Y-35727119D01*
X60873119Y-35861301D01*
X60800500Y-36036619D01*
X56312821Y-36036619D01*
X56250000Y-36024123D01*
X53740000Y-36024123D01*
X53622946Y-36047407D01*
X53523712Y-36113712D01*
X53457407Y-36212946D01*
X53434123Y-36330000D01*
X53434123Y-37330000D01*
X53457407Y-37447054D01*
X53523712Y-37546288D01*
X53622946Y-37612593D01*
X53740000Y-37635877D01*
X56021477Y-37635877D01*
X58970102Y-40584503D01*
X58887018Y-40640018D01*
X58813479Y-40750078D01*
X57826164Y-39762764D01*
X57804964Y-39731036D01*
X57679268Y-39647048D01*
X57568424Y-39625000D01*
X57568419Y-39625000D01*
X57531000Y-39617557D01*
X57493581Y-39625000D01*
X53245877Y-39625000D01*
X53245877Y-38870000D01*
X53222593Y-38752946D01*
X53156288Y-38653712D01*
X53057054Y-38587407D01*
X52940000Y-38564123D01*
X50430000Y-38564123D01*
X50312946Y-38587407D01*
X50213712Y-38653712D01*
X50147407Y-38752946D01*
X50124123Y-38870000D01*
X48635000Y-38870000D01*
X48635000Y-35078719D01*
X48705276Y-34588007D01*
X48899279Y-34161319D01*
X49205247Y-33806227D01*
X49598574Y-33551285D01*
X50060068Y-33413270D01*
X50305917Y-33395000D01*
X88873281Y-33395000D01*
X89363993Y-33465276D01*
G04 #@! TD*
M02*
