G04 #@! TF.GenerationSoftware,KiCad,Pcbnew,5.0.0*
G04 #@! TF.CreationDate,2019-07-11T02:24:03-06:00*
G04 #@! TF.ProjectId,woose-tracker,776F6F73652D747261636B65722E6B69,1*
G04 #@! TF.SameCoordinates,Original*
G04 #@! TF.FileFunction,Paste,Bot*
G04 #@! TF.FilePolarity,Positive*
%FSLAX46Y46*%
G04 Gerber Fmt 4.6, Leading zero omitted, Abs format (unit mm)*
G04 Created by KiCad (PCBNEW 5.0.0) date Thu Jul 11 02:24:03 2019*
%MOMM*%
%LPD*%
G01*
G04 APERTURE LIST*
%ADD10C,0.100000*%
%ADD11C,0.875000*%
%ADD12C,0.975000*%
%ADD13R,0.250000X0.600000*%
%ADD14C,0.980000*%
%ADD15C,0.250000*%
%ADD16R,2.510000X1.000000*%
G04 APERTURE END LIST*
D10*
G04 #@! TO.C,C1*
G36*
X61428691Y-47405053D02*
X61449926Y-47408203D01*
X61470750Y-47413419D01*
X61490962Y-47420651D01*
X61510368Y-47429830D01*
X61528781Y-47440866D01*
X61546024Y-47453654D01*
X61561930Y-47468070D01*
X61576346Y-47483976D01*
X61589134Y-47501219D01*
X61600170Y-47519632D01*
X61609349Y-47539038D01*
X61616581Y-47559250D01*
X61621797Y-47580074D01*
X61624947Y-47601309D01*
X61626000Y-47622750D01*
X61626000Y-48135250D01*
X61624947Y-48156691D01*
X61621797Y-48177926D01*
X61616581Y-48198750D01*
X61609349Y-48218962D01*
X61600170Y-48238368D01*
X61589134Y-48256781D01*
X61576346Y-48274024D01*
X61561930Y-48289930D01*
X61546024Y-48304346D01*
X61528781Y-48317134D01*
X61510368Y-48328170D01*
X61490962Y-48337349D01*
X61470750Y-48344581D01*
X61449926Y-48349797D01*
X61428691Y-48352947D01*
X61407250Y-48354000D01*
X60969750Y-48354000D01*
X60948309Y-48352947D01*
X60927074Y-48349797D01*
X60906250Y-48344581D01*
X60886038Y-48337349D01*
X60866632Y-48328170D01*
X60848219Y-48317134D01*
X60830976Y-48304346D01*
X60815070Y-48289930D01*
X60800654Y-48274024D01*
X60787866Y-48256781D01*
X60776830Y-48238368D01*
X60767651Y-48218962D01*
X60760419Y-48198750D01*
X60755203Y-48177926D01*
X60752053Y-48156691D01*
X60751000Y-48135250D01*
X60751000Y-47622750D01*
X60752053Y-47601309D01*
X60755203Y-47580074D01*
X60760419Y-47559250D01*
X60767651Y-47539038D01*
X60776830Y-47519632D01*
X60787866Y-47501219D01*
X60800654Y-47483976D01*
X60815070Y-47468070D01*
X60830976Y-47453654D01*
X60848219Y-47440866D01*
X60866632Y-47429830D01*
X60886038Y-47420651D01*
X60906250Y-47413419D01*
X60927074Y-47408203D01*
X60948309Y-47405053D01*
X60969750Y-47404000D01*
X61407250Y-47404000D01*
X61428691Y-47405053D01*
X61428691Y-47405053D01*
G37*
D11*
X61188500Y-47879000D03*
D10*
G36*
X63003691Y-47405053D02*
X63024926Y-47408203D01*
X63045750Y-47413419D01*
X63065962Y-47420651D01*
X63085368Y-47429830D01*
X63103781Y-47440866D01*
X63121024Y-47453654D01*
X63136930Y-47468070D01*
X63151346Y-47483976D01*
X63164134Y-47501219D01*
X63175170Y-47519632D01*
X63184349Y-47539038D01*
X63191581Y-47559250D01*
X63196797Y-47580074D01*
X63199947Y-47601309D01*
X63201000Y-47622750D01*
X63201000Y-48135250D01*
X63199947Y-48156691D01*
X63196797Y-48177926D01*
X63191581Y-48198750D01*
X63184349Y-48218962D01*
X63175170Y-48238368D01*
X63164134Y-48256781D01*
X63151346Y-48274024D01*
X63136930Y-48289930D01*
X63121024Y-48304346D01*
X63103781Y-48317134D01*
X63085368Y-48328170D01*
X63065962Y-48337349D01*
X63045750Y-48344581D01*
X63024926Y-48349797D01*
X63003691Y-48352947D01*
X62982250Y-48354000D01*
X62544750Y-48354000D01*
X62523309Y-48352947D01*
X62502074Y-48349797D01*
X62481250Y-48344581D01*
X62461038Y-48337349D01*
X62441632Y-48328170D01*
X62423219Y-48317134D01*
X62405976Y-48304346D01*
X62390070Y-48289930D01*
X62375654Y-48274024D01*
X62362866Y-48256781D01*
X62351830Y-48238368D01*
X62342651Y-48218962D01*
X62335419Y-48198750D01*
X62330203Y-48177926D01*
X62327053Y-48156691D01*
X62326000Y-48135250D01*
X62326000Y-47622750D01*
X62327053Y-47601309D01*
X62330203Y-47580074D01*
X62335419Y-47559250D01*
X62342651Y-47539038D01*
X62351830Y-47519632D01*
X62362866Y-47501219D01*
X62375654Y-47483976D01*
X62390070Y-47468070D01*
X62405976Y-47453654D01*
X62423219Y-47440866D01*
X62441632Y-47429830D01*
X62461038Y-47420651D01*
X62481250Y-47413419D01*
X62502074Y-47408203D01*
X62523309Y-47405053D01*
X62544750Y-47404000D01*
X62982250Y-47404000D01*
X63003691Y-47405053D01*
X63003691Y-47405053D01*
G37*
D11*
X62763500Y-47879000D03*
G04 #@! TD*
D10*
G04 #@! TO.C,C2*
G36*
X58900142Y-48868174D02*
X58923803Y-48871684D01*
X58947007Y-48877496D01*
X58969529Y-48885554D01*
X58991153Y-48895782D01*
X59011670Y-48908079D01*
X59030883Y-48922329D01*
X59048607Y-48938393D01*
X59064671Y-48956117D01*
X59078921Y-48975330D01*
X59091218Y-48995847D01*
X59101446Y-49017471D01*
X59109504Y-49039993D01*
X59115316Y-49063197D01*
X59118826Y-49086858D01*
X59120000Y-49110750D01*
X59120000Y-49598250D01*
X59118826Y-49622142D01*
X59115316Y-49645803D01*
X59109504Y-49669007D01*
X59101446Y-49691529D01*
X59091218Y-49713153D01*
X59078921Y-49733670D01*
X59064671Y-49752883D01*
X59048607Y-49770607D01*
X59030883Y-49786671D01*
X59011670Y-49800921D01*
X58991153Y-49813218D01*
X58969529Y-49823446D01*
X58947007Y-49831504D01*
X58923803Y-49837316D01*
X58900142Y-49840826D01*
X58876250Y-49842000D01*
X57963750Y-49842000D01*
X57939858Y-49840826D01*
X57916197Y-49837316D01*
X57892993Y-49831504D01*
X57870471Y-49823446D01*
X57848847Y-49813218D01*
X57828330Y-49800921D01*
X57809117Y-49786671D01*
X57791393Y-49770607D01*
X57775329Y-49752883D01*
X57761079Y-49733670D01*
X57748782Y-49713153D01*
X57738554Y-49691529D01*
X57730496Y-49669007D01*
X57724684Y-49645803D01*
X57721174Y-49622142D01*
X57720000Y-49598250D01*
X57720000Y-49110750D01*
X57721174Y-49086858D01*
X57724684Y-49063197D01*
X57730496Y-49039993D01*
X57738554Y-49017471D01*
X57748782Y-48995847D01*
X57761079Y-48975330D01*
X57775329Y-48956117D01*
X57791393Y-48938393D01*
X57809117Y-48922329D01*
X57828330Y-48908079D01*
X57848847Y-48895782D01*
X57870471Y-48885554D01*
X57892993Y-48877496D01*
X57916197Y-48871684D01*
X57939858Y-48868174D01*
X57963750Y-48867000D01*
X58876250Y-48867000D01*
X58900142Y-48868174D01*
X58900142Y-48868174D01*
G37*
D12*
X58420000Y-49354500D03*
D10*
G36*
X58900142Y-50743174D02*
X58923803Y-50746684D01*
X58947007Y-50752496D01*
X58969529Y-50760554D01*
X58991153Y-50770782D01*
X59011670Y-50783079D01*
X59030883Y-50797329D01*
X59048607Y-50813393D01*
X59064671Y-50831117D01*
X59078921Y-50850330D01*
X59091218Y-50870847D01*
X59101446Y-50892471D01*
X59109504Y-50914993D01*
X59115316Y-50938197D01*
X59118826Y-50961858D01*
X59120000Y-50985750D01*
X59120000Y-51473250D01*
X59118826Y-51497142D01*
X59115316Y-51520803D01*
X59109504Y-51544007D01*
X59101446Y-51566529D01*
X59091218Y-51588153D01*
X59078921Y-51608670D01*
X59064671Y-51627883D01*
X59048607Y-51645607D01*
X59030883Y-51661671D01*
X59011670Y-51675921D01*
X58991153Y-51688218D01*
X58969529Y-51698446D01*
X58947007Y-51706504D01*
X58923803Y-51712316D01*
X58900142Y-51715826D01*
X58876250Y-51717000D01*
X57963750Y-51717000D01*
X57939858Y-51715826D01*
X57916197Y-51712316D01*
X57892993Y-51706504D01*
X57870471Y-51698446D01*
X57848847Y-51688218D01*
X57828330Y-51675921D01*
X57809117Y-51661671D01*
X57791393Y-51645607D01*
X57775329Y-51627883D01*
X57761079Y-51608670D01*
X57748782Y-51588153D01*
X57738554Y-51566529D01*
X57730496Y-51544007D01*
X57724684Y-51520803D01*
X57721174Y-51497142D01*
X57720000Y-51473250D01*
X57720000Y-50985750D01*
X57721174Y-50961858D01*
X57724684Y-50938197D01*
X57730496Y-50914993D01*
X57738554Y-50892471D01*
X57748782Y-50870847D01*
X57761079Y-50850330D01*
X57775329Y-50831117D01*
X57791393Y-50813393D01*
X57809117Y-50797329D01*
X57828330Y-50783079D01*
X57848847Y-50770782D01*
X57870471Y-50760554D01*
X57892993Y-50752496D01*
X57916197Y-50746684D01*
X57939858Y-50743174D01*
X57963750Y-50742000D01*
X58876250Y-50742000D01*
X58900142Y-50743174D01*
X58900142Y-50743174D01*
G37*
D12*
X58420000Y-51229500D03*
G04 #@! TD*
D13*
G04 #@! TO.C,CARY1*
X60210000Y-38033000D03*
X60210000Y-39183000D03*
X60710000Y-38033000D03*
X60710000Y-39183000D03*
X61210000Y-38033000D03*
X61210000Y-39183000D03*
X61710000Y-38033000D03*
X61710000Y-39183000D03*
G04 #@! TD*
D10*
G04 #@! TO.C,U1*
G36*
X62449014Y-41979180D02*
X62472797Y-41982708D01*
X62496120Y-41988550D01*
X62518757Y-41996650D01*
X62540492Y-42006929D01*
X62561115Y-42019290D01*
X62580426Y-42033612D01*
X62598241Y-42049759D01*
X62614388Y-42067574D01*
X62628710Y-42086885D01*
X62641071Y-42107508D01*
X62651350Y-42129243D01*
X62659450Y-42151880D01*
X62665292Y-42175203D01*
X62668820Y-42198986D01*
X62670000Y-42223000D01*
X62670000Y-42713000D01*
X62668820Y-42737014D01*
X62665292Y-42760797D01*
X62659450Y-42784120D01*
X62651350Y-42806757D01*
X62641071Y-42828492D01*
X62628710Y-42849115D01*
X62614388Y-42868426D01*
X62598241Y-42886241D01*
X62580426Y-42902388D01*
X62561115Y-42916710D01*
X62540492Y-42929071D01*
X62518757Y-42939350D01*
X62496120Y-42947450D01*
X62472797Y-42953292D01*
X62449014Y-42956820D01*
X62425000Y-42958000D01*
X61935000Y-42958000D01*
X61910986Y-42956820D01*
X61887203Y-42953292D01*
X61863880Y-42947450D01*
X61841243Y-42939350D01*
X61819508Y-42929071D01*
X61798885Y-42916710D01*
X61779574Y-42902388D01*
X61761759Y-42886241D01*
X61745612Y-42868426D01*
X61731290Y-42849115D01*
X61718929Y-42828492D01*
X61708650Y-42806757D01*
X61700550Y-42784120D01*
X61694708Y-42760797D01*
X61691180Y-42737014D01*
X61690000Y-42713000D01*
X61690000Y-42223000D01*
X61691180Y-42198986D01*
X61694708Y-42175203D01*
X61700550Y-42151880D01*
X61708650Y-42129243D01*
X61718929Y-42107508D01*
X61731290Y-42086885D01*
X61745612Y-42067574D01*
X61761759Y-42049759D01*
X61779574Y-42033612D01*
X61798885Y-42019290D01*
X61819508Y-42006929D01*
X61841243Y-41996650D01*
X61863880Y-41988550D01*
X61887203Y-41982708D01*
X61910986Y-41979180D01*
X61935000Y-41978000D01*
X62425000Y-41978000D01*
X62449014Y-41979180D01*
X62449014Y-41979180D01*
G37*
D14*
X62180000Y-42468000D03*
D10*
G36*
X62449014Y-43199180D02*
X62472797Y-43202708D01*
X62496120Y-43208550D01*
X62518757Y-43216650D01*
X62540492Y-43226929D01*
X62561115Y-43239290D01*
X62580426Y-43253612D01*
X62598241Y-43269759D01*
X62614388Y-43287574D01*
X62628710Y-43306885D01*
X62641071Y-43327508D01*
X62651350Y-43349243D01*
X62659450Y-43371880D01*
X62665292Y-43395203D01*
X62668820Y-43418986D01*
X62670000Y-43443000D01*
X62670000Y-43933000D01*
X62668820Y-43957014D01*
X62665292Y-43980797D01*
X62659450Y-44004120D01*
X62651350Y-44026757D01*
X62641071Y-44048492D01*
X62628710Y-44069115D01*
X62614388Y-44088426D01*
X62598241Y-44106241D01*
X62580426Y-44122388D01*
X62561115Y-44136710D01*
X62540492Y-44149071D01*
X62518757Y-44159350D01*
X62496120Y-44167450D01*
X62472797Y-44173292D01*
X62449014Y-44176820D01*
X62425000Y-44178000D01*
X61935000Y-44178000D01*
X61910986Y-44176820D01*
X61887203Y-44173292D01*
X61863880Y-44167450D01*
X61841243Y-44159350D01*
X61819508Y-44149071D01*
X61798885Y-44136710D01*
X61779574Y-44122388D01*
X61761759Y-44106241D01*
X61745612Y-44088426D01*
X61731290Y-44069115D01*
X61718929Y-44048492D01*
X61708650Y-44026757D01*
X61700550Y-44004120D01*
X61694708Y-43980797D01*
X61691180Y-43957014D01*
X61690000Y-43933000D01*
X61690000Y-43443000D01*
X61691180Y-43418986D01*
X61694708Y-43395203D01*
X61700550Y-43371880D01*
X61708650Y-43349243D01*
X61718929Y-43327508D01*
X61731290Y-43306885D01*
X61745612Y-43287574D01*
X61761759Y-43269759D01*
X61779574Y-43253612D01*
X61798885Y-43239290D01*
X61819508Y-43226929D01*
X61841243Y-43216650D01*
X61863880Y-43208550D01*
X61887203Y-43202708D01*
X61910986Y-43199180D01*
X61935000Y-43198000D01*
X62425000Y-43198000D01*
X62449014Y-43199180D01*
X62449014Y-43199180D01*
G37*
D14*
X62180000Y-43688000D03*
D10*
G36*
X62449014Y-44419180D02*
X62472797Y-44422708D01*
X62496120Y-44428550D01*
X62518757Y-44436650D01*
X62540492Y-44446929D01*
X62561115Y-44459290D01*
X62580426Y-44473612D01*
X62598241Y-44489759D01*
X62614388Y-44507574D01*
X62628710Y-44526885D01*
X62641071Y-44547508D01*
X62651350Y-44569243D01*
X62659450Y-44591880D01*
X62665292Y-44615203D01*
X62668820Y-44638986D01*
X62670000Y-44663000D01*
X62670000Y-45153000D01*
X62668820Y-45177014D01*
X62665292Y-45200797D01*
X62659450Y-45224120D01*
X62651350Y-45246757D01*
X62641071Y-45268492D01*
X62628710Y-45289115D01*
X62614388Y-45308426D01*
X62598241Y-45326241D01*
X62580426Y-45342388D01*
X62561115Y-45356710D01*
X62540492Y-45369071D01*
X62518757Y-45379350D01*
X62496120Y-45387450D01*
X62472797Y-45393292D01*
X62449014Y-45396820D01*
X62425000Y-45398000D01*
X61935000Y-45398000D01*
X61910986Y-45396820D01*
X61887203Y-45393292D01*
X61863880Y-45387450D01*
X61841243Y-45379350D01*
X61819508Y-45369071D01*
X61798885Y-45356710D01*
X61779574Y-45342388D01*
X61761759Y-45326241D01*
X61745612Y-45308426D01*
X61731290Y-45289115D01*
X61718929Y-45268492D01*
X61708650Y-45246757D01*
X61700550Y-45224120D01*
X61694708Y-45200797D01*
X61691180Y-45177014D01*
X61690000Y-45153000D01*
X61690000Y-44663000D01*
X61691180Y-44638986D01*
X61694708Y-44615203D01*
X61700550Y-44591880D01*
X61708650Y-44569243D01*
X61718929Y-44547508D01*
X61731290Y-44526885D01*
X61745612Y-44507574D01*
X61761759Y-44489759D01*
X61779574Y-44473612D01*
X61798885Y-44459290D01*
X61819508Y-44446929D01*
X61841243Y-44436650D01*
X61863880Y-44428550D01*
X61887203Y-44422708D01*
X61910986Y-44419180D01*
X61935000Y-44418000D01*
X62425000Y-44418000D01*
X62449014Y-44419180D01*
X62449014Y-44419180D01*
G37*
D14*
X62180000Y-44908000D03*
D10*
G36*
X61229014Y-41979180D02*
X61252797Y-41982708D01*
X61276120Y-41988550D01*
X61298757Y-41996650D01*
X61320492Y-42006929D01*
X61341115Y-42019290D01*
X61360426Y-42033612D01*
X61378241Y-42049759D01*
X61394388Y-42067574D01*
X61408710Y-42086885D01*
X61421071Y-42107508D01*
X61431350Y-42129243D01*
X61439450Y-42151880D01*
X61445292Y-42175203D01*
X61448820Y-42198986D01*
X61450000Y-42223000D01*
X61450000Y-42713000D01*
X61448820Y-42737014D01*
X61445292Y-42760797D01*
X61439450Y-42784120D01*
X61431350Y-42806757D01*
X61421071Y-42828492D01*
X61408710Y-42849115D01*
X61394388Y-42868426D01*
X61378241Y-42886241D01*
X61360426Y-42902388D01*
X61341115Y-42916710D01*
X61320492Y-42929071D01*
X61298757Y-42939350D01*
X61276120Y-42947450D01*
X61252797Y-42953292D01*
X61229014Y-42956820D01*
X61205000Y-42958000D01*
X60715000Y-42958000D01*
X60690986Y-42956820D01*
X60667203Y-42953292D01*
X60643880Y-42947450D01*
X60621243Y-42939350D01*
X60599508Y-42929071D01*
X60578885Y-42916710D01*
X60559574Y-42902388D01*
X60541759Y-42886241D01*
X60525612Y-42868426D01*
X60511290Y-42849115D01*
X60498929Y-42828492D01*
X60488650Y-42806757D01*
X60480550Y-42784120D01*
X60474708Y-42760797D01*
X60471180Y-42737014D01*
X60470000Y-42713000D01*
X60470000Y-42223000D01*
X60471180Y-42198986D01*
X60474708Y-42175203D01*
X60480550Y-42151880D01*
X60488650Y-42129243D01*
X60498929Y-42107508D01*
X60511290Y-42086885D01*
X60525612Y-42067574D01*
X60541759Y-42049759D01*
X60559574Y-42033612D01*
X60578885Y-42019290D01*
X60599508Y-42006929D01*
X60621243Y-41996650D01*
X60643880Y-41988550D01*
X60667203Y-41982708D01*
X60690986Y-41979180D01*
X60715000Y-41978000D01*
X61205000Y-41978000D01*
X61229014Y-41979180D01*
X61229014Y-41979180D01*
G37*
D14*
X60960000Y-42468000D03*
D10*
G36*
X61229014Y-43199180D02*
X61252797Y-43202708D01*
X61276120Y-43208550D01*
X61298757Y-43216650D01*
X61320492Y-43226929D01*
X61341115Y-43239290D01*
X61360426Y-43253612D01*
X61378241Y-43269759D01*
X61394388Y-43287574D01*
X61408710Y-43306885D01*
X61421071Y-43327508D01*
X61431350Y-43349243D01*
X61439450Y-43371880D01*
X61445292Y-43395203D01*
X61448820Y-43418986D01*
X61450000Y-43443000D01*
X61450000Y-43933000D01*
X61448820Y-43957014D01*
X61445292Y-43980797D01*
X61439450Y-44004120D01*
X61431350Y-44026757D01*
X61421071Y-44048492D01*
X61408710Y-44069115D01*
X61394388Y-44088426D01*
X61378241Y-44106241D01*
X61360426Y-44122388D01*
X61341115Y-44136710D01*
X61320492Y-44149071D01*
X61298757Y-44159350D01*
X61276120Y-44167450D01*
X61252797Y-44173292D01*
X61229014Y-44176820D01*
X61205000Y-44178000D01*
X60715000Y-44178000D01*
X60690986Y-44176820D01*
X60667203Y-44173292D01*
X60643880Y-44167450D01*
X60621243Y-44159350D01*
X60599508Y-44149071D01*
X60578885Y-44136710D01*
X60559574Y-44122388D01*
X60541759Y-44106241D01*
X60525612Y-44088426D01*
X60511290Y-44069115D01*
X60498929Y-44048492D01*
X60488650Y-44026757D01*
X60480550Y-44004120D01*
X60474708Y-43980797D01*
X60471180Y-43957014D01*
X60470000Y-43933000D01*
X60470000Y-43443000D01*
X60471180Y-43418986D01*
X60474708Y-43395203D01*
X60480550Y-43371880D01*
X60488650Y-43349243D01*
X60498929Y-43327508D01*
X60511290Y-43306885D01*
X60525612Y-43287574D01*
X60541759Y-43269759D01*
X60559574Y-43253612D01*
X60578885Y-43239290D01*
X60599508Y-43226929D01*
X60621243Y-43216650D01*
X60643880Y-43208550D01*
X60667203Y-43202708D01*
X60690986Y-43199180D01*
X60715000Y-43198000D01*
X61205000Y-43198000D01*
X61229014Y-43199180D01*
X61229014Y-43199180D01*
G37*
D14*
X60960000Y-43688000D03*
D10*
G36*
X61229014Y-44419180D02*
X61252797Y-44422708D01*
X61276120Y-44428550D01*
X61298757Y-44436650D01*
X61320492Y-44446929D01*
X61341115Y-44459290D01*
X61360426Y-44473612D01*
X61378241Y-44489759D01*
X61394388Y-44507574D01*
X61408710Y-44526885D01*
X61421071Y-44547508D01*
X61431350Y-44569243D01*
X61439450Y-44591880D01*
X61445292Y-44615203D01*
X61448820Y-44638986D01*
X61450000Y-44663000D01*
X61450000Y-45153000D01*
X61448820Y-45177014D01*
X61445292Y-45200797D01*
X61439450Y-45224120D01*
X61431350Y-45246757D01*
X61421071Y-45268492D01*
X61408710Y-45289115D01*
X61394388Y-45308426D01*
X61378241Y-45326241D01*
X61360426Y-45342388D01*
X61341115Y-45356710D01*
X61320492Y-45369071D01*
X61298757Y-45379350D01*
X61276120Y-45387450D01*
X61252797Y-45393292D01*
X61229014Y-45396820D01*
X61205000Y-45398000D01*
X60715000Y-45398000D01*
X60690986Y-45396820D01*
X60667203Y-45393292D01*
X60643880Y-45387450D01*
X60621243Y-45379350D01*
X60599508Y-45369071D01*
X60578885Y-45356710D01*
X60559574Y-45342388D01*
X60541759Y-45326241D01*
X60525612Y-45308426D01*
X60511290Y-45289115D01*
X60498929Y-45268492D01*
X60488650Y-45246757D01*
X60480550Y-45224120D01*
X60474708Y-45200797D01*
X60471180Y-45177014D01*
X60470000Y-45153000D01*
X60470000Y-44663000D01*
X60471180Y-44638986D01*
X60474708Y-44615203D01*
X60480550Y-44591880D01*
X60488650Y-44569243D01*
X60498929Y-44547508D01*
X60511290Y-44526885D01*
X60525612Y-44507574D01*
X60541759Y-44489759D01*
X60559574Y-44473612D01*
X60578885Y-44459290D01*
X60599508Y-44446929D01*
X60621243Y-44436650D01*
X60643880Y-44428550D01*
X60667203Y-44422708D01*
X60690986Y-44419180D01*
X60715000Y-44418000D01*
X61205000Y-44418000D01*
X61229014Y-44419180D01*
X61229014Y-44419180D01*
G37*
D14*
X60960000Y-44908000D03*
D10*
G36*
X60009014Y-41979180D02*
X60032797Y-41982708D01*
X60056120Y-41988550D01*
X60078757Y-41996650D01*
X60100492Y-42006929D01*
X60121115Y-42019290D01*
X60140426Y-42033612D01*
X60158241Y-42049759D01*
X60174388Y-42067574D01*
X60188710Y-42086885D01*
X60201071Y-42107508D01*
X60211350Y-42129243D01*
X60219450Y-42151880D01*
X60225292Y-42175203D01*
X60228820Y-42198986D01*
X60230000Y-42223000D01*
X60230000Y-42713000D01*
X60228820Y-42737014D01*
X60225292Y-42760797D01*
X60219450Y-42784120D01*
X60211350Y-42806757D01*
X60201071Y-42828492D01*
X60188710Y-42849115D01*
X60174388Y-42868426D01*
X60158241Y-42886241D01*
X60140426Y-42902388D01*
X60121115Y-42916710D01*
X60100492Y-42929071D01*
X60078757Y-42939350D01*
X60056120Y-42947450D01*
X60032797Y-42953292D01*
X60009014Y-42956820D01*
X59985000Y-42958000D01*
X59495000Y-42958000D01*
X59470986Y-42956820D01*
X59447203Y-42953292D01*
X59423880Y-42947450D01*
X59401243Y-42939350D01*
X59379508Y-42929071D01*
X59358885Y-42916710D01*
X59339574Y-42902388D01*
X59321759Y-42886241D01*
X59305612Y-42868426D01*
X59291290Y-42849115D01*
X59278929Y-42828492D01*
X59268650Y-42806757D01*
X59260550Y-42784120D01*
X59254708Y-42760797D01*
X59251180Y-42737014D01*
X59250000Y-42713000D01*
X59250000Y-42223000D01*
X59251180Y-42198986D01*
X59254708Y-42175203D01*
X59260550Y-42151880D01*
X59268650Y-42129243D01*
X59278929Y-42107508D01*
X59291290Y-42086885D01*
X59305612Y-42067574D01*
X59321759Y-42049759D01*
X59339574Y-42033612D01*
X59358885Y-42019290D01*
X59379508Y-42006929D01*
X59401243Y-41996650D01*
X59423880Y-41988550D01*
X59447203Y-41982708D01*
X59470986Y-41979180D01*
X59495000Y-41978000D01*
X59985000Y-41978000D01*
X60009014Y-41979180D01*
X60009014Y-41979180D01*
G37*
D14*
X59740000Y-42468000D03*
D10*
G36*
X60009014Y-43199180D02*
X60032797Y-43202708D01*
X60056120Y-43208550D01*
X60078757Y-43216650D01*
X60100492Y-43226929D01*
X60121115Y-43239290D01*
X60140426Y-43253612D01*
X60158241Y-43269759D01*
X60174388Y-43287574D01*
X60188710Y-43306885D01*
X60201071Y-43327508D01*
X60211350Y-43349243D01*
X60219450Y-43371880D01*
X60225292Y-43395203D01*
X60228820Y-43418986D01*
X60230000Y-43443000D01*
X60230000Y-43933000D01*
X60228820Y-43957014D01*
X60225292Y-43980797D01*
X60219450Y-44004120D01*
X60211350Y-44026757D01*
X60201071Y-44048492D01*
X60188710Y-44069115D01*
X60174388Y-44088426D01*
X60158241Y-44106241D01*
X60140426Y-44122388D01*
X60121115Y-44136710D01*
X60100492Y-44149071D01*
X60078757Y-44159350D01*
X60056120Y-44167450D01*
X60032797Y-44173292D01*
X60009014Y-44176820D01*
X59985000Y-44178000D01*
X59495000Y-44178000D01*
X59470986Y-44176820D01*
X59447203Y-44173292D01*
X59423880Y-44167450D01*
X59401243Y-44159350D01*
X59379508Y-44149071D01*
X59358885Y-44136710D01*
X59339574Y-44122388D01*
X59321759Y-44106241D01*
X59305612Y-44088426D01*
X59291290Y-44069115D01*
X59278929Y-44048492D01*
X59268650Y-44026757D01*
X59260550Y-44004120D01*
X59254708Y-43980797D01*
X59251180Y-43957014D01*
X59250000Y-43933000D01*
X59250000Y-43443000D01*
X59251180Y-43418986D01*
X59254708Y-43395203D01*
X59260550Y-43371880D01*
X59268650Y-43349243D01*
X59278929Y-43327508D01*
X59291290Y-43306885D01*
X59305612Y-43287574D01*
X59321759Y-43269759D01*
X59339574Y-43253612D01*
X59358885Y-43239290D01*
X59379508Y-43226929D01*
X59401243Y-43216650D01*
X59423880Y-43208550D01*
X59447203Y-43202708D01*
X59470986Y-43199180D01*
X59495000Y-43198000D01*
X59985000Y-43198000D01*
X60009014Y-43199180D01*
X60009014Y-43199180D01*
G37*
D14*
X59740000Y-43688000D03*
D10*
G36*
X60009014Y-44419180D02*
X60032797Y-44422708D01*
X60056120Y-44428550D01*
X60078757Y-44436650D01*
X60100492Y-44446929D01*
X60121115Y-44459290D01*
X60140426Y-44473612D01*
X60158241Y-44489759D01*
X60174388Y-44507574D01*
X60188710Y-44526885D01*
X60201071Y-44547508D01*
X60211350Y-44569243D01*
X60219450Y-44591880D01*
X60225292Y-44615203D01*
X60228820Y-44638986D01*
X60230000Y-44663000D01*
X60230000Y-45153000D01*
X60228820Y-45177014D01*
X60225292Y-45200797D01*
X60219450Y-45224120D01*
X60211350Y-45246757D01*
X60201071Y-45268492D01*
X60188710Y-45289115D01*
X60174388Y-45308426D01*
X60158241Y-45326241D01*
X60140426Y-45342388D01*
X60121115Y-45356710D01*
X60100492Y-45369071D01*
X60078757Y-45379350D01*
X60056120Y-45387450D01*
X60032797Y-45393292D01*
X60009014Y-45396820D01*
X59985000Y-45398000D01*
X59495000Y-45398000D01*
X59470986Y-45396820D01*
X59447203Y-45393292D01*
X59423880Y-45387450D01*
X59401243Y-45379350D01*
X59379508Y-45369071D01*
X59358885Y-45356710D01*
X59339574Y-45342388D01*
X59321759Y-45326241D01*
X59305612Y-45308426D01*
X59291290Y-45289115D01*
X59278929Y-45268492D01*
X59268650Y-45246757D01*
X59260550Y-45224120D01*
X59254708Y-45200797D01*
X59251180Y-45177014D01*
X59250000Y-45153000D01*
X59250000Y-44663000D01*
X59251180Y-44638986D01*
X59254708Y-44615203D01*
X59260550Y-44591880D01*
X59268650Y-44569243D01*
X59278929Y-44547508D01*
X59291290Y-44526885D01*
X59305612Y-44507574D01*
X59321759Y-44489759D01*
X59339574Y-44473612D01*
X59358885Y-44459290D01*
X59379508Y-44446929D01*
X59401243Y-44436650D01*
X59423880Y-44428550D01*
X59447203Y-44422708D01*
X59470986Y-44419180D01*
X59495000Y-44418000D01*
X59985000Y-44418000D01*
X60009014Y-44419180D01*
X60009014Y-44419180D01*
G37*
D14*
X59740000Y-44908000D03*
D10*
G36*
X63753626Y-41813301D02*
X63759693Y-41814201D01*
X63765643Y-41815691D01*
X63771418Y-41817758D01*
X63776962Y-41820380D01*
X63782223Y-41823533D01*
X63787150Y-41827187D01*
X63791694Y-41831306D01*
X63795813Y-41835850D01*
X63799467Y-41840777D01*
X63802620Y-41846038D01*
X63805242Y-41851582D01*
X63807309Y-41857357D01*
X63808799Y-41863307D01*
X63809699Y-41869374D01*
X63810000Y-41875500D01*
X63810000Y-42000500D01*
X63809699Y-42006626D01*
X63808799Y-42012693D01*
X63807309Y-42018643D01*
X63805242Y-42024418D01*
X63802620Y-42029962D01*
X63799467Y-42035223D01*
X63795813Y-42040150D01*
X63791694Y-42044694D01*
X63787150Y-42048813D01*
X63782223Y-42052467D01*
X63776962Y-42055620D01*
X63771418Y-42058242D01*
X63765643Y-42060309D01*
X63759693Y-42061799D01*
X63753626Y-42062699D01*
X63747500Y-42063000D01*
X63122500Y-42063000D01*
X63116374Y-42062699D01*
X63110307Y-42061799D01*
X63104357Y-42060309D01*
X63098582Y-42058242D01*
X63093038Y-42055620D01*
X63087777Y-42052467D01*
X63082850Y-42048813D01*
X63078306Y-42044694D01*
X63074187Y-42040150D01*
X63070533Y-42035223D01*
X63067380Y-42029962D01*
X63064758Y-42024418D01*
X63062691Y-42018643D01*
X63061201Y-42012693D01*
X63060301Y-42006626D01*
X63060000Y-42000500D01*
X63060000Y-41875500D01*
X63060301Y-41869374D01*
X63061201Y-41863307D01*
X63062691Y-41857357D01*
X63064758Y-41851582D01*
X63067380Y-41846038D01*
X63070533Y-41840777D01*
X63074187Y-41835850D01*
X63078306Y-41831306D01*
X63082850Y-41827187D01*
X63087777Y-41823533D01*
X63093038Y-41820380D01*
X63098582Y-41817758D01*
X63104357Y-41815691D01*
X63110307Y-41814201D01*
X63116374Y-41813301D01*
X63122500Y-41813000D01*
X63747500Y-41813000D01*
X63753626Y-41813301D01*
X63753626Y-41813301D01*
G37*
D15*
X63435000Y-41938000D03*
D10*
G36*
X63753626Y-42313301D02*
X63759693Y-42314201D01*
X63765643Y-42315691D01*
X63771418Y-42317758D01*
X63776962Y-42320380D01*
X63782223Y-42323533D01*
X63787150Y-42327187D01*
X63791694Y-42331306D01*
X63795813Y-42335850D01*
X63799467Y-42340777D01*
X63802620Y-42346038D01*
X63805242Y-42351582D01*
X63807309Y-42357357D01*
X63808799Y-42363307D01*
X63809699Y-42369374D01*
X63810000Y-42375500D01*
X63810000Y-42500500D01*
X63809699Y-42506626D01*
X63808799Y-42512693D01*
X63807309Y-42518643D01*
X63805242Y-42524418D01*
X63802620Y-42529962D01*
X63799467Y-42535223D01*
X63795813Y-42540150D01*
X63791694Y-42544694D01*
X63787150Y-42548813D01*
X63782223Y-42552467D01*
X63776962Y-42555620D01*
X63771418Y-42558242D01*
X63765643Y-42560309D01*
X63759693Y-42561799D01*
X63753626Y-42562699D01*
X63747500Y-42563000D01*
X63122500Y-42563000D01*
X63116374Y-42562699D01*
X63110307Y-42561799D01*
X63104357Y-42560309D01*
X63098582Y-42558242D01*
X63093038Y-42555620D01*
X63087777Y-42552467D01*
X63082850Y-42548813D01*
X63078306Y-42544694D01*
X63074187Y-42540150D01*
X63070533Y-42535223D01*
X63067380Y-42529962D01*
X63064758Y-42524418D01*
X63062691Y-42518643D01*
X63061201Y-42512693D01*
X63060301Y-42506626D01*
X63060000Y-42500500D01*
X63060000Y-42375500D01*
X63060301Y-42369374D01*
X63061201Y-42363307D01*
X63062691Y-42357357D01*
X63064758Y-42351582D01*
X63067380Y-42346038D01*
X63070533Y-42340777D01*
X63074187Y-42335850D01*
X63078306Y-42331306D01*
X63082850Y-42327187D01*
X63087777Y-42323533D01*
X63093038Y-42320380D01*
X63098582Y-42317758D01*
X63104357Y-42315691D01*
X63110307Y-42314201D01*
X63116374Y-42313301D01*
X63122500Y-42313000D01*
X63747500Y-42313000D01*
X63753626Y-42313301D01*
X63753626Y-42313301D01*
G37*
D15*
X63435000Y-42438000D03*
D10*
G36*
X63753626Y-42813301D02*
X63759693Y-42814201D01*
X63765643Y-42815691D01*
X63771418Y-42817758D01*
X63776962Y-42820380D01*
X63782223Y-42823533D01*
X63787150Y-42827187D01*
X63791694Y-42831306D01*
X63795813Y-42835850D01*
X63799467Y-42840777D01*
X63802620Y-42846038D01*
X63805242Y-42851582D01*
X63807309Y-42857357D01*
X63808799Y-42863307D01*
X63809699Y-42869374D01*
X63810000Y-42875500D01*
X63810000Y-43000500D01*
X63809699Y-43006626D01*
X63808799Y-43012693D01*
X63807309Y-43018643D01*
X63805242Y-43024418D01*
X63802620Y-43029962D01*
X63799467Y-43035223D01*
X63795813Y-43040150D01*
X63791694Y-43044694D01*
X63787150Y-43048813D01*
X63782223Y-43052467D01*
X63776962Y-43055620D01*
X63771418Y-43058242D01*
X63765643Y-43060309D01*
X63759693Y-43061799D01*
X63753626Y-43062699D01*
X63747500Y-43063000D01*
X63122500Y-43063000D01*
X63116374Y-43062699D01*
X63110307Y-43061799D01*
X63104357Y-43060309D01*
X63098582Y-43058242D01*
X63093038Y-43055620D01*
X63087777Y-43052467D01*
X63082850Y-43048813D01*
X63078306Y-43044694D01*
X63074187Y-43040150D01*
X63070533Y-43035223D01*
X63067380Y-43029962D01*
X63064758Y-43024418D01*
X63062691Y-43018643D01*
X63061201Y-43012693D01*
X63060301Y-43006626D01*
X63060000Y-43000500D01*
X63060000Y-42875500D01*
X63060301Y-42869374D01*
X63061201Y-42863307D01*
X63062691Y-42857357D01*
X63064758Y-42851582D01*
X63067380Y-42846038D01*
X63070533Y-42840777D01*
X63074187Y-42835850D01*
X63078306Y-42831306D01*
X63082850Y-42827187D01*
X63087777Y-42823533D01*
X63093038Y-42820380D01*
X63098582Y-42817758D01*
X63104357Y-42815691D01*
X63110307Y-42814201D01*
X63116374Y-42813301D01*
X63122500Y-42813000D01*
X63747500Y-42813000D01*
X63753626Y-42813301D01*
X63753626Y-42813301D01*
G37*
D15*
X63435000Y-42938000D03*
D10*
G36*
X63753626Y-43313301D02*
X63759693Y-43314201D01*
X63765643Y-43315691D01*
X63771418Y-43317758D01*
X63776962Y-43320380D01*
X63782223Y-43323533D01*
X63787150Y-43327187D01*
X63791694Y-43331306D01*
X63795813Y-43335850D01*
X63799467Y-43340777D01*
X63802620Y-43346038D01*
X63805242Y-43351582D01*
X63807309Y-43357357D01*
X63808799Y-43363307D01*
X63809699Y-43369374D01*
X63810000Y-43375500D01*
X63810000Y-43500500D01*
X63809699Y-43506626D01*
X63808799Y-43512693D01*
X63807309Y-43518643D01*
X63805242Y-43524418D01*
X63802620Y-43529962D01*
X63799467Y-43535223D01*
X63795813Y-43540150D01*
X63791694Y-43544694D01*
X63787150Y-43548813D01*
X63782223Y-43552467D01*
X63776962Y-43555620D01*
X63771418Y-43558242D01*
X63765643Y-43560309D01*
X63759693Y-43561799D01*
X63753626Y-43562699D01*
X63747500Y-43563000D01*
X63122500Y-43563000D01*
X63116374Y-43562699D01*
X63110307Y-43561799D01*
X63104357Y-43560309D01*
X63098582Y-43558242D01*
X63093038Y-43555620D01*
X63087777Y-43552467D01*
X63082850Y-43548813D01*
X63078306Y-43544694D01*
X63074187Y-43540150D01*
X63070533Y-43535223D01*
X63067380Y-43529962D01*
X63064758Y-43524418D01*
X63062691Y-43518643D01*
X63061201Y-43512693D01*
X63060301Y-43506626D01*
X63060000Y-43500500D01*
X63060000Y-43375500D01*
X63060301Y-43369374D01*
X63061201Y-43363307D01*
X63062691Y-43357357D01*
X63064758Y-43351582D01*
X63067380Y-43346038D01*
X63070533Y-43340777D01*
X63074187Y-43335850D01*
X63078306Y-43331306D01*
X63082850Y-43327187D01*
X63087777Y-43323533D01*
X63093038Y-43320380D01*
X63098582Y-43317758D01*
X63104357Y-43315691D01*
X63110307Y-43314201D01*
X63116374Y-43313301D01*
X63122500Y-43313000D01*
X63747500Y-43313000D01*
X63753626Y-43313301D01*
X63753626Y-43313301D01*
G37*
D15*
X63435000Y-43438000D03*
D10*
G36*
X63753626Y-43813301D02*
X63759693Y-43814201D01*
X63765643Y-43815691D01*
X63771418Y-43817758D01*
X63776962Y-43820380D01*
X63782223Y-43823533D01*
X63787150Y-43827187D01*
X63791694Y-43831306D01*
X63795813Y-43835850D01*
X63799467Y-43840777D01*
X63802620Y-43846038D01*
X63805242Y-43851582D01*
X63807309Y-43857357D01*
X63808799Y-43863307D01*
X63809699Y-43869374D01*
X63810000Y-43875500D01*
X63810000Y-44000500D01*
X63809699Y-44006626D01*
X63808799Y-44012693D01*
X63807309Y-44018643D01*
X63805242Y-44024418D01*
X63802620Y-44029962D01*
X63799467Y-44035223D01*
X63795813Y-44040150D01*
X63791694Y-44044694D01*
X63787150Y-44048813D01*
X63782223Y-44052467D01*
X63776962Y-44055620D01*
X63771418Y-44058242D01*
X63765643Y-44060309D01*
X63759693Y-44061799D01*
X63753626Y-44062699D01*
X63747500Y-44063000D01*
X63122500Y-44063000D01*
X63116374Y-44062699D01*
X63110307Y-44061799D01*
X63104357Y-44060309D01*
X63098582Y-44058242D01*
X63093038Y-44055620D01*
X63087777Y-44052467D01*
X63082850Y-44048813D01*
X63078306Y-44044694D01*
X63074187Y-44040150D01*
X63070533Y-44035223D01*
X63067380Y-44029962D01*
X63064758Y-44024418D01*
X63062691Y-44018643D01*
X63061201Y-44012693D01*
X63060301Y-44006626D01*
X63060000Y-44000500D01*
X63060000Y-43875500D01*
X63060301Y-43869374D01*
X63061201Y-43863307D01*
X63062691Y-43857357D01*
X63064758Y-43851582D01*
X63067380Y-43846038D01*
X63070533Y-43840777D01*
X63074187Y-43835850D01*
X63078306Y-43831306D01*
X63082850Y-43827187D01*
X63087777Y-43823533D01*
X63093038Y-43820380D01*
X63098582Y-43817758D01*
X63104357Y-43815691D01*
X63110307Y-43814201D01*
X63116374Y-43813301D01*
X63122500Y-43813000D01*
X63747500Y-43813000D01*
X63753626Y-43813301D01*
X63753626Y-43813301D01*
G37*
D15*
X63435000Y-43938000D03*
D10*
G36*
X63753626Y-44313301D02*
X63759693Y-44314201D01*
X63765643Y-44315691D01*
X63771418Y-44317758D01*
X63776962Y-44320380D01*
X63782223Y-44323533D01*
X63787150Y-44327187D01*
X63791694Y-44331306D01*
X63795813Y-44335850D01*
X63799467Y-44340777D01*
X63802620Y-44346038D01*
X63805242Y-44351582D01*
X63807309Y-44357357D01*
X63808799Y-44363307D01*
X63809699Y-44369374D01*
X63810000Y-44375500D01*
X63810000Y-44500500D01*
X63809699Y-44506626D01*
X63808799Y-44512693D01*
X63807309Y-44518643D01*
X63805242Y-44524418D01*
X63802620Y-44529962D01*
X63799467Y-44535223D01*
X63795813Y-44540150D01*
X63791694Y-44544694D01*
X63787150Y-44548813D01*
X63782223Y-44552467D01*
X63776962Y-44555620D01*
X63771418Y-44558242D01*
X63765643Y-44560309D01*
X63759693Y-44561799D01*
X63753626Y-44562699D01*
X63747500Y-44563000D01*
X63122500Y-44563000D01*
X63116374Y-44562699D01*
X63110307Y-44561799D01*
X63104357Y-44560309D01*
X63098582Y-44558242D01*
X63093038Y-44555620D01*
X63087777Y-44552467D01*
X63082850Y-44548813D01*
X63078306Y-44544694D01*
X63074187Y-44540150D01*
X63070533Y-44535223D01*
X63067380Y-44529962D01*
X63064758Y-44524418D01*
X63062691Y-44518643D01*
X63061201Y-44512693D01*
X63060301Y-44506626D01*
X63060000Y-44500500D01*
X63060000Y-44375500D01*
X63060301Y-44369374D01*
X63061201Y-44363307D01*
X63062691Y-44357357D01*
X63064758Y-44351582D01*
X63067380Y-44346038D01*
X63070533Y-44340777D01*
X63074187Y-44335850D01*
X63078306Y-44331306D01*
X63082850Y-44327187D01*
X63087777Y-44323533D01*
X63093038Y-44320380D01*
X63098582Y-44317758D01*
X63104357Y-44315691D01*
X63110307Y-44314201D01*
X63116374Y-44313301D01*
X63122500Y-44313000D01*
X63747500Y-44313000D01*
X63753626Y-44313301D01*
X63753626Y-44313301D01*
G37*
D15*
X63435000Y-44438000D03*
D10*
G36*
X63753626Y-44813301D02*
X63759693Y-44814201D01*
X63765643Y-44815691D01*
X63771418Y-44817758D01*
X63776962Y-44820380D01*
X63782223Y-44823533D01*
X63787150Y-44827187D01*
X63791694Y-44831306D01*
X63795813Y-44835850D01*
X63799467Y-44840777D01*
X63802620Y-44846038D01*
X63805242Y-44851582D01*
X63807309Y-44857357D01*
X63808799Y-44863307D01*
X63809699Y-44869374D01*
X63810000Y-44875500D01*
X63810000Y-45000500D01*
X63809699Y-45006626D01*
X63808799Y-45012693D01*
X63807309Y-45018643D01*
X63805242Y-45024418D01*
X63802620Y-45029962D01*
X63799467Y-45035223D01*
X63795813Y-45040150D01*
X63791694Y-45044694D01*
X63787150Y-45048813D01*
X63782223Y-45052467D01*
X63776962Y-45055620D01*
X63771418Y-45058242D01*
X63765643Y-45060309D01*
X63759693Y-45061799D01*
X63753626Y-45062699D01*
X63747500Y-45063000D01*
X63122500Y-45063000D01*
X63116374Y-45062699D01*
X63110307Y-45061799D01*
X63104357Y-45060309D01*
X63098582Y-45058242D01*
X63093038Y-45055620D01*
X63087777Y-45052467D01*
X63082850Y-45048813D01*
X63078306Y-45044694D01*
X63074187Y-45040150D01*
X63070533Y-45035223D01*
X63067380Y-45029962D01*
X63064758Y-45024418D01*
X63062691Y-45018643D01*
X63061201Y-45012693D01*
X63060301Y-45006626D01*
X63060000Y-45000500D01*
X63060000Y-44875500D01*
X63060301Y-44869374D01*
X63061201Y-44863307D01*
X63062691Y-44857357D01*
X63064758Y-44851582D01*
X63067380Y-44846038D01*
X63070533Y-44840777D01*
X63074187Y-44835850D01*
X63078306Y-44831306D01*
X63082850Y-44827187D01*
X63087777Y-44823533D01*
X63093038Y-44820380D01*
X63098582Y-44817758D01*
X63104357Y-44815691D01*
X63110307Y-44814201D01*
X63116374Y-44813301D01*
X63122500Y-44813000D01*
X63747500Y-44813000D01*
X63753626Y-44813301D01*
X63753626Y-44813301D01*
G37*
D15*
X63435000Y-44938000D03*
D10*
G36*
X63753626Y-45313301D02*
X63759693Y-45314201D01*
X63765643Y-45315691D01*
X63771418Y-45317758D01*
X63776962Y-45320380D01*
X63782223Y-45323533D01*
X63787150Y-45327187D01*
X63791694Y-45331306D01*
X63795813Y-45335850D01*
X63799467Y-45340777D01*
X63802620Y-45346038D01*
X63805242Y-45351582D01*
X63807309Y-45357357D01*
X63808799Y-45363307D01*
X63809699Y-45369374D01*
X63810000Y-45375500D01*
X63810000Y-45500500D01*
X63809699Y-45506626D01*
X63808799Y-45512693D01*
X63807309Y-45518643D01*
X63805242Y-45524418D01*
X63802620Y-45529962D01*
X63799467Y-45535223D01*
X63795813Y-45540150D01*
X63791694Y-45544694D01*
X63787150Y-45548813D01*
X63782223Y-45552467D01*
X63776962Y-45555620D01*
X63771418Y-45558242D01*
X63765643Y-45560309D01*
X63759693Y-45561799D01*
X63753626Y-45562699D01*
X63747500Y-45563000D01*
X63122500Y-45563000D01*
X63116374Y-45562699D01*
X63110307Y-45561799D01*
X63104357Y-45560309D01*
X63098582Y-45558242D01*
X63093038Y-45555620D01*
X63087777Y-45552467D01*
X63082850Y-45548813D01*
X63078306Y-45544694D01*
X63074187Y-45540150D01*
X63070533Y-45535223D01*
X63067380Y-45529962D01*
X63064758Y-45524418D01*
X63062691Y-45518643D01*
X63061201Y-45512693D01*
X63060301Y-45506626D01*
X63060000Y-45500500D01*
X63060000Y-45375500D01*
X63060301Y-45369374D01*
X63061201Y-45363307D01*
X63062691Y-45357357D01*
X63064758Y-45351582D01*
X63067380Y-45346038D01*
X63070533Y-45340777D01*
X63074187Y-45335850D01*
X63078306Y-45331306D01*
X63082850Y-45327187D01*
X63087777Y-45323533D01*
X63093038Y-45320380D01*
X63098582Y-45317758D01*
X63104357Y-45315691D01*
X63110307Y-45314201D01*
X63116374Y-45313301D01*
X63122500Y-45313000D01*
X63747500Y-45313000D01*
X63753626Y-45313301D01*
X63753626Y-45313301D01*
G37*
D15*
X63435000Y-45438000D03*
D10*
G36*
X62778626Y-45788301D02*
X62784693Y-45789201D01*
X62790643Y-45790691D01*
X62796418Y-45792758D01*
X62801962Y-45795380D01*
X62807223Y-45798533D01*
X62812150Y-45802187D01*
X62816694Y-45806306D01*
X62820813Y-45810850D01*
X62824467Y-45815777D01*
X62827620Y-45821038D01*
X62830242Y-45826582D01*
X62832309Y-45832357D01*
X62833799Y-45838307D01*
X62834699Y-45844374D01*
X62835000Y-45850500D01*
X62835000Y-46475500D01*
X62834699Y-46481626D01*
X62833799Y-46487693D01*
X62832309Y-46493643D01*
X62830242Y-46499418D01*
X62827620Y-46504962D01*
X62824467Y-46510223D01*
X62820813Y-46515150D01*
X62816694Y-46519694D01*
X62812150Y-46523813D01*
X62807223Y-46527467D01*
X62801962Y-46530620D01*
X62796418Y-46533242D01*
X62790643Y-46535309D01*
X62784693Y-46536799D01*
X62778626Y-46537699D01*
X62772500Y-46538000D01*
X62647500Y-46538000D01*
X62641374Y-46537699D01*
X62635307Y-46536799D01*
X62629357Y-46535309D01*
X62623582Y-46533242D01*
X62618038Y-46530620D01*
X62612777Y-46527467D01*
X62607850Y-46523813D01*
X62603306Y-46519694D01*
X62599187Y-46515150D01*
X62595533Y-46510223D01*
X62592380Y-46504962D01*
X62589758Y-46499418D01*
X62587691Y-46493643D01*
X62586201Y-46487693D01*
X62585301Y-46481626D01*
X62585000Y-46475500D01*
X62585000Y-45850500D01*
X62585301Y-45844374D01*
X62586201Y-45838307D01*
X62587691Y-45832357D01*
X62589758Y-45826582D01*
X62592380Y-45821038D01*
X62595533Y-45815777D01*
X62599187Y-45810850D01*
X62603306Y-45806306D01*
X62607850Y-45802187D01*
X62612777Y-45798533D01*
X62618038Y-45795380D01*
X62623582Y-45792758D01*
X62629357Y-45790691D01*
X62635307Y-45789201D01*
X62641374Y-45788301D01*
X62647500Y-45788000D01*
X62772500Y-45788000D01*
X62778626Y-45788301D01*
X62778626Y-45788301D01*
G37*
D15*
X62710000Y-46163000D03*
D10*
G36*
X62278626Y-45788301D02*
X62284693Y-45789201D01*
X62290643Y-45790691D01*
X62296418Y-45792758D01*
X62301962Y-45795380D01*
X62307223Y-45798533D01*
X62312150Y-45802187D01*
X62316694Y-45806306D01*
X62320813Y-45810850D01*
X62324467Y-45815777D01*
X62327620Y-45821038D01*
X62330242Y-45826582D01*
X62332309Y-45832357D01*
X62333799Y-45838307D01*
X62334699Y-45844374D01*
X62335000Y-45850500D01*
X62335000Y-46475500D01*
X62334699Y-46481626D01*
X62333799Y-46487693D01*
X62332309Y-46493643D01*
X62330242Y-46499418D01*
X62327620Y-46504962D01*
X62324467Y-46510223D01*
X62320813Y-46515150D01*
X62316694Y-46519694D01*
X62312150Y-46523813D01*
X62307223Y-46527467D01*
X62301962Y-46530620D01*
X62296418Y-46533242D01*
X62290643Y-46535309D01*
X62284693Y-46536799D01*
X62278626Y-46537699D01*
X62272500Y-46538000D01*
X62147500Y-46538000D01*
X62141374Y-46537699D01*
X62135307Y-46536799D01*
X62129357Y-46535309D01*
X62123582Y-46533242D01*
X62118038Y-46530620D01*
X62112777Y-46527467D01*
X62107850Y-46523813D01*
X62103306Y-46519694D01*
X62099187Y-46515150D01*
X62095533Y-46510223D01*
X62092380Y-46504962D01*
X62089758Y-46499418D01*
X62087691Y-46493643D01*
X62086201Y-46487693D01*
X62085301Y-46481626D01*
X62085000Y-46475500D01*
X62085000Y-45850500D01*
X62085301Y-45844374D01*
X62086201Y-45838307D01*
X62087691Y-45832357D01*
X62089758Y-45826582D01*
X62092380Y-45821038D01*
X62095533Y-45815777D01*
X62099187Y-45810850D01*
X62103306Y-45806306D01*
X62107850Y-45802187D01*
X62112777Y-45798533D01*
X62118038Y-45795380D01*
X62123582Y-45792758D01*
X62129357Y-45790691D01*
X62135307Y-45789201D01*
X62141374Y-45788301D01*
X62147500Y-45788000D01*
X62272500Y-45788000D01*
X62278626Y-45788301D01*
X62278626Y-45788301D01*
G37*
D15*
X62210000Y-46163000D03*
D10*
G36*
X61778626Y-45788301D02*
X61784693Y-45789201D01*
X61790643Y-45790691D01*
X61796418Y-45792758D01*
X61801962Y-45795380D01*
X61807223Y-45798533D01*
X61812150Y-45802187D01*
X61816694Y-45806306D01*
X61820813Y-45810850D01*
X61824467Y-45815777D01*
X61827620Y-45821038D01*
X61830242Y-45826582D01*
X61832309Y-45832357D01*
X61833799Y-45838307D01*
X61834699Y-45844374D01*
X61835000Y-45850500D01*
X61835000Y-46475500D01*
X61834699Y-46481626D01*
X61833799Y-46487693D01*
X61832309Y-46493643D01*
X61830242Y-46499418D01*
X61827620Y-46504962D01*
X61824467Y-46510223D01*
X61820813Y-46515150D01*
X61816694Y-46519694D01*
X61812150Y-46523813D01*
X61807223Y-46527467D01*
X61801962Y-46530620D01*
X61796418Y-46533242D01*
X61790643Y-46535309D01*
X61784693Y-46536799D01*
X61778626Y-46537699D01*
X61772500Y-46538000D01*
X61647500Y-46538000D01*
X61641374Y-46537699D01*
X61635307Y-46536799D01*
X61629357Y-46535309D01*
X61623582Y-46533242D01*
X61618038Y-46530620D01*
X61612777Y-46527467D01*
X61607850Y-46523813D01*
X61603306Y-46519694D01*
X61599187Y-46515150D01*
X61595533Y-46510223D01*
X61592380Y-46504962D01*
X61589758Y-46499418D01*
X61587691Y-46493643D01*
X61586201Y-46487693D01*
X61585301Y-46481626D01*
X61585000Y-46475500D01*
X61585000Y-45850500D01*
X61585301Y-45844374D01*
X61586201Y-45838307D01*
X61587691Y-45832357D01*
X61589758Y-45826582D01*
X61592380Y-45821038D01*
X61595533Y-45815777D01*
X61599187Y-45810850D01*
X61603306Y-45806306D01*
X61607850Y-45802187D01*
X61612777Y-45798533D01*
X61618038Y-45795380D01*
X61623582Y-45792758D01*
X61629357Y-45790691D01*
X61635307Y-45789201D01*
X61641374Y-45788301D01*
X61647500Y-45788000D01*
X61772500Y-45788000D01*
X61778626Y-45788301D01*
X61778626Y-45788301D01*
G37*
D15*
X61710000Y-46163000D03*
D10*
G36*
X61278626Y-45788301D02*
X61284693Y-45789201D01*
X61290643Y-45790691D01*
X61296418Y-45792758D01*
X61301962Y-45795380D01*
X61307223Y-45798533D01*
X61312150Y-45802187D01*
X61316694Y-45806306D01*
X61320813Y-45810850D01*
X61324467Y-45815777D01*
X61327620Y-45821038D01*
X61330242Y-45826582D01*
X61332309Y-45832357D01*
X61333799Y-45838307D01*
X61334699Y-45844374D01*
X61335000Y-45850500D01*
X61335000Y-46475500D01*
X61334699Y-46481626D01*
X61333799Y-46487693D01*
X61332309Y-46493643D01*
X61330242Y-46499418D01*
X61327620Y-46504962D01*
X61324467Y-46510223D01*
X61320813Y-46515150D01*
X61316694Y-46519694D01*
X61312150Y-46523813D01*
X61307223Y-46527467D01*
X61301962Y-46530620D01*
X61296418Y-46533242D01*
X61290643Y-46535309D01*
X61284693Y-46536799D01*
X61278626Y-46537699D01*
X61272500Y-46538000D01*
X61147500Y-46538000D01*
X61141374Y-46537699D01*
X61135307Y-46536799D01*
X61129357Y-46535309D01*
X61123582Y-46533242D01*
X61118038Y-46530620D01*
X61112777Y-46527467D01*
X61107850Y-46523813D01*
X61103306Y-46519694D01*
X61099187Y-46515150D01*
X61095533Y-46510223D01*
X61092380Y-46504962D01*
X61089758Y-46499418D01*
X61087691Y-46493643D01*
X61086201Y-46487693D01*
X61085301Y-46481626D01*
X61085000Y-46475500D01*
X61085000Y-45850500D01*
X61085301Y-45844374D01*
X61086201Y-45838307D01*
X61087691Y-45832357D01*
X61089758Y-45826582D01*
X61092380Y-45821038D01*
X61095533Y-45815777D01*
X61099187Y-45810850D01*
X61103306Y-45806306D01*
X61107850Y-45802187D01*
X61112777Y-45798533D01*
X61118038Y-45795380D01*
X61123582Y-45792758D01*
X61129357Y-45790691D01*
X61135307Y-45789201D01*
X61141374Y-45788301D01*
X61147500Y-45788000D01*
X61272500Y-45788000D01*
X61278626Y-45788301D01*
X61278626Y-45788301D01*
G37*
D15*
X61210000Y-46163000D03*
D10*
G36*
X60778626Y-45788301D02*
X60784693Y-45789201D01*
X60790643Y-45790691D01*
X60796418Y-45792758D01*
X60801962Y-45795380D01*
X60807223Y-45798533D01*
X60812150Y-45802187D01*
X60816694Y-45806306D01*
X60820813Y-45810850D01*
X60824467Y-45815777D01*
X60827620Y-45821038D01*
X60830242Y-45826582D01*
X60832309Y-45832357D01*
X60833799Y-45838307D01*
X60834699Y-45844374D01*
X60835000Y-45850500D01*
X60835000Y-46475500D01*
X60834699Y-46481626D01*
X60833799Y-46487693D01*
X60832309Y-46493643D01*
X60830242Y-46499418D01*
X60827620Y-46504962D01*
X60824467Y-46510223D01*
X60820813Y-46515150D01*
X60816694Y-46519694D01*
X60812150Y-46523813D01*
X60807223Y-46527467D01*
X60801962Y-46530620D01*
X60796418Y-46533242D01*
X60790643Y-46535309D01*
X60784693Y-46536799D01*
X60778626Y-46537699D01*
X60772500Y-46538000D01*
X60647500Y-46538000D01*
X60641374Y-46537699D01*
X60635307Y-46536799D01*
X60629357Y-46535309D01*
X60623582Y-46533242D01*
X60618038Y-46530620D01*
X60612777Y-46527467D01*
X60607850Y-46523813D01*
X60603306Y-46519694D01*
X60599187Y-46515150D01*
X60595533Y-46510223D01*
X60592380Y-46504962D01*
X60589758Y-46499418D01*
X60587691Y-46493643D01*
X60586201Y-46487693D01*
X60585301Y-46481626D01*
X60585000Y-46475500D01*
X60585000Y-45850500D01*
X60585301Y-45844374D01*
X60586201Y-45838307D01*
X60587691Y-45832357D01*
X60589758Y-45826582D01*
X60592380Y-45821038D01*
X60595533Y-45815777D01*
X60599187Y-45810850D01*
X60603306Y-45806306D01*
X60607850Y-45802187D01*
X60612777Y-45798533D01*
X60618038Y-45795380D01*
X60623582Y-45792758D01*
X60629357Y-45790691D01*
X60635307Y-45789201D01*
X60641374Y-45788301D01*
X60647500Y-45788000D01*
X60772500Y-45788000D01*
X60778626Y-45788301D01*
X60778626Y-45788301D01*
G37*
D15*
X60710000Y-46163000D03*
D10*
G36*
X60278626Y-45788301D02*
X60284693Y-45789201D01*
X60290643Y-45790691D01*
X60296418Y-45792758D01*
X60301962Y-45795380D01*
X60307223Y-45798533D01*
X60312150Y-45802187D01*
X60316694Y-45806306D01*
X60320813Y-45810850D01*
X60324467Y-45815777D01*
X60327620Y-45821038D01*
X60330242Y-45826582D01*
X60332309Y-45832357D01*
X60333799Y-45838307D01*
X60334699Y-45844374D01*
X60335000Y-45850500D01*
X60335000Y-46475500D01*
X60334699Y-46481626D01*
X60333799Y-46487693D01*
X60332309Y-46493643D01*
X60330242Y-46499418D01*
X60327620Y-46504962D01*
X60324467Y-46510223D01*
X60320813Y-46515150D01*
X60316694Y-46519694D01*
X60312150Y-46523813D01*
X60307223Y-46527467D01*
X60301962Y-46530620D01*
X60296418Y-46533242D01*
X60290643Y-46535309D01*
X60284693Y-46536799D01*
X60278626Y-46537699D01*
X60272500Y-46538000D01*
X60147500Y-46538000D01*
X60141374Y-46537699D01*
X60135307Y-46536799D01*
X60129357Y-46535309D01*
X60123582Y-46533242D01*
X60118038Y-46530620D01*
X60112777Y-46527467D01*
X60107850Y-46523813D01*
X60103306Y-46519694D01*
X60099187Y-46515150D01*
X60095533Y-46510223D01*
X60092380Y-46504962D01*
X60089758Y-46499418D01*
X60087691Y-46493643D01*
X60086201Y-46487693D01*
X60085301Y-46481626D01*
X60085000Y-46475500D01*
X60085000Y-45850500D01*
X60085301Y-45844374D01*
X60086201Y-45838307D01*
X60087691Y-45832357D01*
X60089758Y-45826582D01*
X60092380Y-45821038D01*
X60095533Y-45815777D01*
X60099187Y-45810850D01*
X60103306Y-45806306D01*
X60107850Y-45802187D01*
X60112777Y-45798533D01*
X60118038Y-45795380D01*
X60123582Y-45792758D01*
X60129357Y-45790691D01*
X60135307Y-45789201D01*
X60141374Y-45788301D01*
X60147500Y-45788000D01*
X60272500Y-45788000D01*
X60278626Y-45788301D01*
X60278626Y-45788301D01*
G37*
D15*
X60210000Y-46163000D03*
D10*
G36*
X59778626Y-45788301D02*
X59784693Y-45789201D01*
X59790643Y-45790691D01*
X59796418Y-45792758D01*
X59801962Y-45795380D01*
X59807223Y-45798533D01*
X59812150Y-45802187D01*
X59816694Y-45806306D01*
X59820813Y-45810850D01*
X59824467Y-45815777D01*
X59827620Y-45821038D01*
X59830242Y-45826582D01*
X59832309Y-45832357D01*
X59833799Y-45838307D01*
X59834699Y-45844374D01*
X59835000Y-45850500D01*
X59835000Y-46475500D01*
X59834699Y-46481626D01*
X59833799Y-46487693D01*
X59832309Y-46493643D01*
X59830242Y-46499418D01*
X59827620Y-46504962D01*
X59824467Y-46510223D01*
X59820813Y-46515150D01*
X59816694Y-46519694D01*
X59812150Y-46523813D01*
X59807223Y-46527467D01*
X59801962Y-46530620D01*
X59796418Y-46533242D01*
X59790643Y-46535309D01*
X59784693Y-46536799D01*
X59778626Y-46537699D01*
X59772500Y-46538000D01*
X59647500Y-46538000D01*
X59641374Y-46537699D01*
X59635307Y-46536799D01*
X59629357Y-46535309D01*
X59623582Y-46533242D01*
X59618038Y-46530620D01*
X59612777Y-46527467D01*
X59607850Y-46523813D01*
X59603306Y-46519694D01*
X59599187Y-46515150D01*
X59595533Y-46510223D01*
X59592380Y-46504962D01*
X59589758Y-46499418D01*
X59587691Y-46493643D01*
X59586201Y-46487693D01*
X59585301Y-46481626D01*
X59585000Y-46475500D01*
X59585000Y-45850500D01*
X59585301Y-45844374D01*
X59586201Y-45838307D01*
X59587691Y-45832357D01*
X59589758Y-45826582D01*
X59592380Y-45821038D01*
X59595533Y-45815777D01*
X59599187Y-45810850D01*
X59603306Y-45806306D01*
X59607850Y-45802187D01*
X59612777Y-45798533D01*
X59618038Y-45795380D01*
X59623582Y-45792758D01*
X59629357Y-45790691D01*
X59635307Y-45789201D01*
X59641374Y-45788301D01*
X59647500Y-45788000D01*
X59772500Y-45788000D01*
X59778626Y-45788301D01*
X59778626Y-45788301D01*
G37*
D15*
X59710000Y-46163000D03*
D10*
G36*
X59278626Y-45788301D02*
X59284693Y-45789201D01*
X59290643Y-45790691D01*
X59296418Y-45792758D01*
X59301962Y-45795380D01*
X59307223Y-45798533D01*
X59312150Y-45802187D01*
X59316694Y-45806306D01*
X59320813Y-45810850D01*
X59324467Y-45815777D01*
X59327620Y-45821038D01*
X59330242Y-45826582D01*
X59332309Y-45832357D01*
X59333799Y-45838307D01*
X59334699Y-45844374D01*
X59335000Y-45850500D01*
X59335000Y-46475500D01*
X59334699Y-46481626D01*
X59333799Y-46487693D01*
X59332309Y-46493643D01*
X59330242Y-46499418D01*
X59327620Y-46504962D01*
X59324467Y-46510223D01*
X59320813Y-46515150D01*
X59316694Y-46519694D01*
X59312150Y-46523813D01*
X59307223Y-46527467D01*
X59301962Y-46530620D01*
X59296418Y-46533242D01*
X59290643Y-46535309D01*
X59284693Y-46536799D01*
X59278626Y-46537699D01*
X59272500Y-46538000D01*
X59147500Y-46538000D01*
X59141374Y-46537699D01*
X59135307Y-46536799D01*
X59129357Y-46535309D01*
X59123582Y-46533242D01*
X59118038Y-46530620D01*
X59112777Y-46527467D01*
X59107850Y-46523813D01*
X59103306Y-46519694D01*
X59099187Y-46515150D01*
X59095533Y-46510223D01*
X59092380Y-46504962D01*
X59089758Y-46499418D01*
X59087691Y-46493643D01*
X59086201Y-46487693D01*
X59085301Y-46481626D01*
X59085000Y-46475500D01*
X59085000Y-45850500D01*
X59085301Y-45844374D01*
X59086201Y-45838307D01*
X59087691Y-45832357D01*
X59089758Y-45826582D01*
X59092380Y-45821038D01*
X59095533Y-45815777D01*
X59099187Y-45810850D01*
X59103306Y-45806306D01*
X59107850Y-45802187D01*
X59112777Y-45798533D01*
X59118038Y-45795380D01*
X59123582Y-45792758D01*
X59129357Y-45790691D01*
X59135307Y-45789201D01*
X59141374Y-45788301D01*
X59147500Y-45788000D01*
X59272500Y-45788000D01*
X59278626Y-45788301D01*
X59278626Y-45788301D01*
G37*
D15*
X59210000Y-46163000D03*
D10*
G36*
X58803626Y-45313301D02*
X58809693Y-45314201D01*
X58815643Y-45315691D01*
X58821418Y-45317758D01*
X58826962Y-45320380D01*
X58832223Y-45323533D01*
X58837150Y-45327187D01*
X58841694Y-45331306D01*
X58845813Y-45335850D01*
X58849467Y-45340777D01*
X58852620Y-45346038D01*
X58855242Y-45351582D01*
X58857309Y-45357357D01*
X58858799Y-45363307D01*
X58859699Y-45369374D01*
X58860000Y-45375500D01*
X58860000Y-45500500D01*
X58859699Y-45506626D01*
X58858799Y-45512693D01*
X58857309Y-45518643D01*
X58855242Y-45524418D01*
X58852620Y-45529962D01*
X58849467Y-45535223D01*
X58845813Y-45540150D01*
X58841694Y-45544694D01*
X58837150Y-45548813D01*
X58832223Y-45552467D01*
X58826962Y-45555620D01*
X58821418Y-45558242D01*
X58815643Y-45560309D01*
X58809693Y-45561799D01*
X58803626Y-45562699D01*
X58797500Y-45563000D01*
X58172500Y-45563000D01*
X58166374Y-45562699D01*
X58160307Y-45561799D01*
X58154357Y-45560309D01*
X58148582Y-45558242D01*
X58143038Y-45555620D01*
X58137777Y-45552467D01*
X58132850Y-45548813D01*
X58128306Y-45544694D01*
X58124187Y-45540150D01*
X58120533Y-45535223D01*
X58117380Y-45529962D01*
X58114758Y-45524418D01*
X58112691Y-45518643D01*
X58111201Y-45512693D01*
X58110301Y-45506626D01*
X58110000Y-45500500D01*
X58110000Y-45375500D01*
X58110301Y-45369374D01*
X58111201Y-45363307D01*
X58112691Y-45357357D01*
X58114758Y-45351582D01*
X58117380Y-45346038D01*
X58120533Y-45340777D01*
X58124187Y-45335850D01*
X58128306Y-45331306D01*
X58132850Y-45327187D01*
X58137777Y-45323533D01*
X58143038Y-45320380D01*
X58148582Y-45317758D01*
X58154357Y-45315691D01*
X58160307Y-45314201D01*
X58166374Y-45313301D01*
X58172500Y-45313000D01*
X58797500Y-45313000D01*
X58803626Y-45313301D01*
X58803626Y-45313301D01*
G37*
D15*
X58485000Y-45438000D03*
D10*
G36*
X58803626Y-44813301D02*
X58809693Y-44814201D01*
X58815643Y-44815691D01*
X58821418Y-44817758D01*
X58826962Y-44820380D01*
X58832223Y-44823533D01*
X58837150Y-44827187D01*
X58841694Y-44831306D01*
X58845813Y-44835850D01*
X58849467Y-44840777D01*
X58852620Y-44846038D01*
X58855242Y-44851582D01*
X58857309Y-44857357D01*
X58858799Y-44863307D01*
X58859699Y-44869374D01*
X58860000Y-44875500D01*
X58860000Y-45000500D01*
X58859699Y-45006626D01*
X58858799Y-45012693D01*
X58857309Y-45018643D01*
X58855242Y-45024418D01*
X58852620Y-45029962D01*
X58849467Y-45035223D01*
X58845813Y-45040150D01*
X58841694Y-45044694D01*
X58837150Y-45048813D01*
X58832223Y-45052467D01*
X58826962Y-45055620D01*
X58821418Y-45058242D01*
X58815643Y-45060309D01*
X58809693Y-45061799D01*
X58803626Y-45062699D01*
X58797500Y-45063000D01*
X58172500Y-45063000D01*
X58166374Y-45062699D01*
X58160307Y-45061799D01*
X58154357Y-45060309D01*
X58148582Y-45058242D01*
X58143038Y-45055620D01*
X58137777Y-45052467D01*
X58132850Y-45048813D01*
X58128306Y-45044694D01*
X58124187Y-45040150D01*
X58120533Y-45035223D01*
X58117380Y-45029962D01*
X58114758Y-45024418D01*
X58112691Y-45018643D01*
X58111201Y-45012693D01*
X58110301Y-45006626D01*
X58110000Y-45000500D01*
X58110000Y-44875500D01*
X58110301Y-44869374D01*
X58111201Y-44863307D01*
X58112691Y-44857357D01*
X58114758Y-44851582D01*
X58117380Y-44846038D01*
X58120533Y-44840777D01*
X58124187Y-44835850D01*
X58128306Y-44831306D01*
X58132850Y-44827187D01*
X58137777Y-44823533D01*
X58143038Y-44820380D01*
X58148582Y-44817758D01*
X58154357Y-44815691D01*
X58160307Y-44814201D01*
X58166374Y-44813301D01*
X58172500Y-44813000D01*
X58797500Y-44813000D01*
X58803626Y-44813301D01*
X58803626Y-44813301D01*
G37*
D15*
X58485000Y-44938000D03*
D10*
G36*
X58803626Y-44313301D02*
X58809693Y-44314201D01*
X58815643Y-44315691D01*
X58821418Y-44317758D01*
X58826962Y-44320380D01*
X58832223Y-44323533D01*
X58837150Y-44327187D01*
X58841694Y-44331306D01*
X58845813Y-44335850D01*
X58849467Y-44340777D01*
X58852620Y-44346038D01*
X58855242Y-44351582D01*
X58857309Y-44357357D01*
X58858799Y-44363307D01*
X58859699Y-44369374D01*
X58860000Y-44375500D01*
X58860000Y-44500500D01*
X58859699Y-44506626D01*
X58858799Y-44512693D01*
X58857309Y-44518643D01*
X58855242Y-44524418D01*
X58852620Y-44529962D01*
X58849467Y-44535223D01*
X58845813Y-44540150D01*
X58841694Y-44544694D01*
X58837150Y-44548813D01*
X58832223Y-44552467D01*
X58826962Y-44555620D01*
X58821418Y-44558242D01*
X58815643Y-44560309D01*
X58809693Y-44561799D01*
X58803626Y-44562699D01*
X58797500Y-44563000D01*
X58172500Y-44563000D01*
X58166374Y-44562699D01*
X58160307Y-44561799D01*
X58154357Y-44560309D01*
X58148582Y-44558242D01*
X58143038Y-44555620D01*
X58137777Y-44552467D01*
X58132850Y-44548813D01*
X58128306Y-44544694D01*
X58124187Y-44540150D01*
X58120533Y-44535223D01*
X58117380Y-44529962D01*
X58114758Y-44524418D01*
X58112691Y-44518643D01*
X58111201Y-44512693D01*
X58110301Y-44506626D01*
X58110000Y-44500500D01*
X58110000Y-44375500D01*
X58110301Y-44369374D01*
X58111201Y-44363307D01*
X58112691Y-44357357D01*
X58114758Y-44351582D01*
X58117380Y-44346038D01*
X58120533Y-44340777D01*
X58124187Y-44335850D01*
X58128306Y-44331306D01*
X58132850Y-44327187D01*
X58137777Y-44323533D01*
X58143038Y-44320380D01*
X58148582Y-44317758D01*
X58154357Y-44315691D01*
X58160307Y-44314201D01*
X58166374Y-44313301D01*
X58172500Y-44313000D01*
X58797500Y-44313000D01*
X58803626Y-44313301D01*
X58803626Y-44313301D01*
G37*
D15*
X58485000Y-44438000D03*
D10*
G36*
X58803626Y-43813301D02*
X58809693Y-43814201D01*
X58815643Y-43815691D01*
X58821418Y-43817758D01*
X58826962Y-43820380D01*
X58832223Y-43823533D01*
X58837150Y-43827187D01*
X58841694Y-43831306D01*
X58845813Y-43835850D01*
X58849467Y-43840777D01*
X58852620Y-43846038D01*
X58855242Y-43851582D01*
X58857309Y-43857357D01*
X58858799Y-43863307D01*
X58859699Y-43869374D01*
X58860000Y-43875500D01*
X58860000Y-44000500D01*
X58859699Y-44006626D01*
X58858799Y-44012693D01*
X58857309Y-44018643D01*
X58855242Y-44024418D01*
X58852620Y-44029962D01*
X58849467Y-44035223D01*
X58845813Y-44040150D01*
X58841694Y-44044694D01*
X58837150Y-44048813D01*
X58832223Y-44052467D01*
X58826962Y-44055620D01*
X58821418Y-44058242D01*
X58815643Y-44060309D01*
X58809693Y-44061799D01*
X58803626Y-44062699D01*
X58797500Y-44063000D01*
X58172500Y-44063000D01*
X58166374Y-44062699D01*
X58160307Y-44061799D01*
X58154357Y-44060309D01*
X58148582Y-44058242D01*
X58143038Y-44055620D01*
X58137777Y-44052467D01*
X58132850Y-44048813D01*
X58128306Y-44044694D01*
X58124187Y-44040150D01*
X58120533Y-44035223D01*
X58117380Y-44029962D01*
X58114758Y-44024418D01*
X58112691Y-44018643D01*
X58111201Y-44012693D01*
X58110301Y-44006626D01*
X58110000Y-44000500D01*
X58110000Y-43875500D01*
X58110301Y-43869374D01*
X58111201Y-43863307D01*
X58112691Y-43857357D01*
X58114758Y-43851582D01*
X58117380Y-43846038D01*
X58120533Y-43840777D01*
X58124187Y-43835850D01*
X58128306Y-43831306D01*
X58132850Y-43827187D01*
X58137777Y-43823533D01*
X58143038Y-43820380D01*
X58148582Y-43817758D01*
X58154357Y-43815691D01*
X58160307Y-43814201D01*
X58166374Y-43813301D01*
X58172500Y-43813000D01*
X58797500Y-43813000D01*
X58803626Y-43813301D01*
X58803626Y-43813301D01*
G37*
D15*
X58485000Y-43938000D03*
D10*
G36*
X58803626Y-43313301D02*
X58809693Y-43314201D01*
X58815643Y-43315691D01*
X58821418Y-43317758D01*
X58826962Y-43320380D01*
X58832223Y-43323533D01*
X58837150Y-43327187D01*
X58841694Y-43331306D01*
X58845813Y-43335850D01*
X58849467Y-43340777D01*
X58852620Y-43346038D01*
X58855242Y-43351582D01*
X58857309Y-43357357D01*
X58858799Y-43363307D01*
X58859699Y-43369374D01*
X58860000Y-43375500D01*
X58860000Y-43500500D01*
X58859699Y-43506626D01*
X58858799Y-43512693D01*
X58857309Y-43518643D01*
X58855242Y-43524418D01*
X58852620Y-43529962D01*
X58849467Y-43535223D01*
X58845813Y-43540150D01*
X58841694Y-43544694D01*
X58837150Y-43548813D01*
X58832223Y-43552467D01*
X58826962Y-43555620D01*
X58821418Y-43558242D01*
X58815643Y-43560309D01*
X58809693Y-43561799D01*
X58803626Y-43562699D01*
X58797500Y-43563000D01*
X58172500Y-43563000D01*
X58166374Y-43562699D01*
X58160307Y-43561799D01*
X58154357Y-43560309D01*
X58148582Y-43558242D01*
X58143038Y-43555620D01*
X58137777Y-43552467D01*
X58132850Y-43548813D01*
X58128306Y-43544694D01*
X58124187Y-43540150D01*
X58120533Y-43535223D01*
X58117380Y-43529962D01*
X58114758Y-43524418D01*
X58112691Y-43518643D01*
X58111201Y-43512693D01*
X58110301Y-43506626D01*
X58110000Y-43500500D01*
X58110000Y-43375500D01*
X58110301Y-43369374D01*
X58111201Y-43363307D01*
X58112691Y-43357357D01*
X58114758Y-43351582D01*
X58117380Y-43346038D01*
X58120533Y-43340777D01*
X58124187Y-43335850D01*
X58128306Y-43331306D01*
X58132850Y-43327187D01*
X58137777Y-43323533D01*
X58143038Y-43320380D01*
X58148582Y-43317758D01*
X58154357Y-43315691D01*
X58160307Y-43314201D01*
X58166374Y-43313301D01*
X58172500Y-43313000D01*
X58797500Y-43313000D01*
X58803626Y-43313301D01*
X58803626Y-43313301D01*
G37*
D15*
X58485000Y-43438000D03*
D10*
G36*
X58803626Y-42813301D02*
X58809693Y-42814201D01*
X58815643Y-42815691D01*
X58821418Y-42817758D01*
X58826962Y-42820380D01*
X58832223Y-42823533D01*
X58837150Y-42827187D01*
X58841694Y-42831306D01*
X58845813Y-42835850D01*
X58849467Y-42840777D01*
X58852620Y-42846038D01*
X58855242Y-42851582D01*
X58857309Y-42857357D01*
X58858799Y-42863307D01*
X58859699Y-42869374D01*
X58860000Y-42875500D01*
X58860000Y-43000500D01*
X58859699Y-43006626D01*
X58858799Y-43012693D01*
X58857309Y-43018643D01*
X58855242Y-43024418D01*
X58852620Y-43029962D01*
X58849467Y-43035223D01*
X58845813Y-43040150D01*
X58841694Y-43044694D01*
X58837150Y-43048813D01*
X58832223Y-43052467D01*
X58826962Y-43055620D01*
X58821418Y-43058242D01*
X58815643Y-43060309D01*
X58809693Y-43061799D01*
X58803626Y-43062699D01*
X58797500Y-43063000D01*
X58172500Y-43063000D01*
X58166374Y-43062699D01*
X58160307Y-43061799D01*
X58154357Y-43060309D01*
X58148582Y-43058242D01*
X58143038Y-43055620D01*
X58137777Y-43052467D01*
X58132850Y-43048813D01*
X58128306Y-43044694D01*
X58124187Y-43040150D01*
X58120533Y-43035223D01*
X58117380Y-43029962D01*
X58114758Y-43024418D01*
X58112691Y-43018643D01*
X58111201Y-43012693D01*
X58110301Y-43006626D01*
X58110000Y-43000500D01*
X58110000Y-42875500D01*
X58110301Y-42869374D01*
X58111201Y-42863307D01*
X58112691Y-42857357D01*
X58114758Y-42851582D01*
X58117380Y-42846038D01*
X58120533Y-42840777D01*
X58124187Y-42835850D01*
X58128306Y-42831306D01*
X58132850Y-42827187D01*
X58137777Y-42823533D01*
X58143038Y-42820380D01*
X58148582Y-42817758D01*
X58154357Y-42815691D01*
X58160307Y-42814201D01*
X58166374Y-42813301D01*
X58172500Y-42813000D01*
X58797500Y-42813000D01*
X58803626Y-42813301D01*
X58803626Y-42813301D01*
G37*
D15*
X58485000Y-42938000D03*
D10*
G36*
X58803626Y-42313301D02*
X58809693Y-42314201D01*
X58815643Y-42315691D01*
X58821418Y-42317758D01*
X58826962Y-42320380D01*
X58832223Y-42323533D01*
X58837150Y-42327187D01*
X58841694Y-42331306D01*
X58845813Y-42335850D01*
X58849467Y-42340777D01*
X58852620Y-42346038D01*
X58855242Y-42351582D01*
X58857309Y-42357357D01*
X58858799Y-42363307D01*
X58859699Y-42369374D01*
X58860000Y-42375500D01*
X58860000Y-42500500D01*
X58859699Y-42506626D01*
X58858799Y-42512693D01*
X58857309Y-42518643D01*
X58855242Y-42524418D01*
X58852620Y-42529962D01*
X58849467Y-42535223D01*
X58845813Y-42540150D01*
X58841694Y-42544694D01*
X58837150Y-42548813D01*
X58832223Y-42552467D01*
X58826962Y-42555620D01*
X58821418Y-42558242D01*
X58815643Y-42560309D01*
X58809693Y-42561799D01*
X58803626Y-42562699D01*
X58797500Y-42563000D01*
X58172500Y-42563000D01*
X58166374Y-42562699D01*
X58160307Y-42561799D01*
X58154357Y-42560309D01*
X58148582Y-42558242D01*
X58143038Y-42555620D01*
X58137777Y-42552467D01*
X58132850Y-42548813D01*
X58128306Y-42544694D01*
X58124187Y-42540150D01*
X58120533Y-42535223D01*
X58117380Y-42529962D01*
X58114758Y-42524418D01*
X58112691Y-42518643D01*
X58111201Y-42512693D01*
X58110301Y-42506626D01*
X58110000Y-42500500D01*
X58110000Y-42375500D01*
X58110301Y-42369374D01*
X58111201Y-42363307D01*
X58112691Y-42357357D01*
X58114758Y-42351582D01*
X58117380Y-42346038D01*
X58120533Y-42340777D01*
X58124187Y-42335850D01*
X58128306Y-42331306D01*
X58132850Y-42327187D01*
X58137777Y-42323533D01*
X58143038Y-42320380D01*
X58148582Y-42317758D01*
X58154357Y-42315691D01*
X58160307Y-42314201D01*
X58166374Y-42313301D01*
X58172500Y-42313000D01*
X58797500Y-42313000D01*
X58803626Y-42313301D01*
X58803626Y-42313301D01*
G37*
D15*
X58485000Y-42438000D03*
D10*
G36*
X58803626Y-41813301D02*
X58809693Y-41814201D01*
X58815643Y-41815691D01*
X58821418Y-41817758D01*
X58826962Y-41820380D01*
X58832223Y-41823533D01*
X58837150Y-41827187D01*
X58841694Y-41831306D01*
X58845813Y-41835850D01*
X58849467Y-41840777D01*
X58852620Y-41846038D01*
X58855242Y-41851582D01*
X58857309Y-41857357D01*
X58858799Y-41863307D01*
X58859699Y-41869374D01*
X58860000Y-41875500D01*
X58860000Y-42000500D01*
X58859699Y-42006626D01*
X58858799Y-42012693D01*
X58857309Y-42018643D01*
X58855242Y-42024418D01*
X58852620Y-42029962D01*
X58849467Y-42035223D01*
X58845813Y-42040150D01*
X58841694Y-42044694D01*
X58837150Y-42048813D01*
X58832223Y-42052467D01*
X58826962Y-42055620D01*
X58821418Y-42058242D01*
X58815643Y-42060309D01*
X58809693Y-42061799D01*
X58803626Y-42062699D01*
X58797500Y-42063000D01*
X58172500Y-42063000D01*
X58166374Y-42062699D01*
X58160307Y-42061799D01*
X58154357Y-42060309D01*
X58148582Y-42058242D01*
X58143038Y-42055620D01*
X58137777Y-42052467D01*
X58132850Y-42048813D01*
X58128306Y-42044694D01*
X58124187Y-42040150D01*
X58120533Y-42035223D01*
X58117380Y-42029962D01*
X58114758Y-42024418D01*
X58112691Y-42018643D01*
X58111201Y-42012693D01*
X58110301Y-42006626D01*
X58110000Y-42000500D01*
X58110000Y-41875500D01*
X58110301Y-41869374D01*
X58111201Y-41863307D01*
X58112691Y-41857357D01*
X58114758Y-41851582D01*
X58117380Y-41846038D01*
X58120533Y-41840777D01*
X58124187Y-41835850D01*
X58128306Y-41831306D01*
X58132850Y-41827187D01*
X58137777Y-41823533D01*
X58143038Y-41820380D01*
X58148582Y-41817758D01*
X58154357Y-41815691D01*
X58160307Y-41814201D01*
X58166374Y-41813301D01*
X58172500Y-41813000D01*
X58797500Y-41813000D01*
X58803626Y-41813301D01*
X58803626Y-41813301D01*
G37*
D15*
X58485000Y-41938000D03*
D10*
G36*
X59278626Y-40838301D02*
X59284693Y-40839201D01*
X59290643Y-40840691D01*
X59296418Y-40842758D01*
X59301962Y-40845380D01*
X59307223Y-40848533D01*
X59312150Y-40852187D01*
X59316694Y-40856306D01*
X59320813Y-40860850D01*
X59324467Y-40865777D01*
X59327620Y-40871038D01*
X59330242Y-40876582D01*
X59332309Y-40882357D01*
X59333799Y-40888307D01*
X59334699Y-40894374D01*
X59335000Y-40900500D01*
X59335000Y-41525500D01*
X59334699Y-41531626D01*
X59333799Y-41537693D01*
X59332309Y-41543643D01*
X59330242Y-41549418D01*
X59327620Y-41554962D01*
X59324467Y-41560223D01*
X59320813Y-41565150D01*
X59316694Y-41569694D01*
X59312150Y-41573813D01*
X59307223Y-41577467D01*
X59301962Y-41580620D01*
X59296418Y-41583242D01*
X59290643Y-41585309D01*
X59284693Y-41586799D01*
X59278626Y-41587699D01*
X59272500Y-41588000D01*
X59147500Y-41588000D01*
X59141374Y-41587699D01*
X59135307Y-41586799D01*
X59129357Y-41585309D01*
X59123582Y-41583242D01*
X59118038Y-41580620D01*
X59112777Y-41577467D01*
X59107850Y-41573813D01*
X59103306Y-41569694D01*
X59099187Y-41565150D01*
X59095533Y-41560223D01*
X59092380Y-41554962D01*
X59089758Y-41549418D01*
X59087691Y-41543643D01*
X59086201Y-41537693D01*
X59085301Y-41531626D01*
X59085000Y-41525500D01*
X59085000Y-40900500D01*
X59085301Y-40894374D01*
X59086201Y-40888307D01*
X59087691Y-40882357D01*
X59089758Y-40876582D01*
X59092380Y-40871038D01*
X59095533Y-40865777D01*
X59099187Y-40860850D01*
X59103306Y-40856306D01*
X59107850Y-40852187D01*
X59112777Y-40848533D01*
X59118038Y-40845380D01*
X59123582Y-40842758D01*
X59129357Y-40840691D01*
X59135307Y-40839201D01*
X59141374Y-40838301D01*
X59147500Y-40838000D01*
X59272500Y-40838000D01*
X59278626Y-40838301D01*
X59278626Y-40838301D01*
G37*
D15*
X59210000Y-41213000D03*
D10*
G36*
X59778626Y-40838301D02*
X59784693Y-40839201D01*
X59790643Y-40840691D01*
X59796418Y-40842758D01*
X59801962Y-40845380D01*
X59807223Y-40848533D01*
X59812150Y-40852187D01*
X59816694Y-40856306D01*
X59820813Y-40860850D01*
X59824467Y-40865777D01*
X59827620Y-40871038D01*
X59830242Y-40876582D01*
X59832309Y-40882357D01*
X59833799Y-40888307D01*
X59834699Y-40894374D01*
X59835000Y-40900500D01*
X59835000Y-41525500D01*
X59834699Y-41531626D01*
X59833799Y-41537693D01*
X59832309Y-41543643D01*
X59830242Y-41549418D01*
X59827620Y-41554962D01*
X59824467Y-41560223D01*
X59820813Y-41565150D01*
X59816694Y-41569694D01*
X59812150Y-41573813D01*
X59807223Y-41577467D01*
X59801962Y-41580620D01*
X59796418Y-41583242D01*
X59790643Y-41585309D01*
X59784693Y-41586799D01*
X59778626Y-41587699D01*
X59772500Y-41588000D01*
X59647500Y-41588000D01*
X59641374Y-41587699D01*
X59635307Y-41586799D01*
X59629357Y-41585309D01*
X59623582Y-41583242D01*
X59618038Y-41580620D01*
X59612777Y-41577467D01*
X59607850Y-41573813D01*
X59603306Y-41569694D01*
X59599187Y-41565150D01*
X59595533Y-41560223D01*
X59592380Y-41554962D01*
X59589758Y-41549418D01*
X59587691Y-41543643D01*
X59586201Y-41537693D01*
X59585301Y-41531626D01*
X59585000Y-41525500D01*
X59585000Y-40900500D01*
X59585301Y-40894374D01*
X59586201Y-40888307D01*
X59587691Y-40882357D01*
X59589758Y-40876582D01*
X59592380Y-40871038D01*
X59595533Y-40865777D01*
X59599187Y-40860850D01*
X59603306Y-40856306D01*
X59607850Y-40852187D01*
X59612777Y-40848533D01*
X59618038Y-40845380D01*
X59623582Y-40842758D01*
X59629357Y-40840691D01*
X59635307Y-40839201D01*
X59641374Y-40838301D01*
X59647500Y-40838000D01*
X59772500Y-40838000D01*
X59778626Y-40838301D01*
X59778626Y-40838301D01*
G37*
D15*
X59710000Y-41213000D03*
D10*
G36*
X60278626Y-40838301D02*
X60284693Y-40839201D01*
X60290643Y-40840691D01*
X60296418Y-40842758D01*
X60301962Y-40845380D01*
X60307223Y-40848533D01*
X60312150Y-40852187D01*
X60316694Y-40856306D01*
X60320813Y-40860850D01*
X60324467Y-40865777D01*
X60327620Y-40871038D01*
X60330242Y-40876582D01*
X60332309Y-40882357D01*
X60333799Y-40888307D01*
X60334699Y-40894374D01*
X60335000Y-40900500D01*
X60335000Y-41525500D01*
X60334699Y-41531626D01*
X60333799Y-41537693D01*
X60332309Y-41543643D01*
X60330242Y-41549418D01*
X60327620Y-41554962D01*
X60324467Y-41560223D01*
X60320813Y-41565150D01*
X60316694Y-41569694D01*
X60312150Y-41573813D01*
X60307223Y-41577467D01*
X60301962Y-41580620D01*
X60296418Y-41583242D01*
X60290643Y-41585309D01*
X60284693Y-41586799D01*
X60278626Y-41587699D01*
X60272500Y-41588000D01*
X60147500Y-41588000D01*
X60141374Y-41587699D01*
X60135307Y-41586799D01*
X60129357Y-41585309D01*
X60123582Y-41583242D01*
X60118038Y-41580620D01*
X60112777Y-41577467D01*
X60107850Y-41573813D01*
X60103306Y-41569694D01*
X60099187Y-41565150D01*
X60095533Y-41560223D01*
X60092380Y-41554962D01*
X60089758Y-41549418D01*
X60087691Y-41543643D01*
X60086201Y-41537693D01*
X60085301Y-41531626D01*
X60085000Y-41525500D01*
X60085000Y-40900500D01*
X60085301Y-40894374D01*
X60086201Y-40888307D01*
X60087691Y-40882357D01*
X60089758Y-40876582D01*
X60092380Y-40871038D01*
X60095533Y-40865777D01*
X60099187Y-40860850D01*
X60103306Y-40856306D01*
X60107850Y-40852187D01*
X60112777Y-40848533D01*
X60118038Y-40845380D01*
X60123582Y-40842758D01*
X60129357Y-40840691D01*
X60135307Y-40839201D01*
X60141374Y-40838301D01*
X60147500Y-40838000D01*
X60272500Y-40838000D01*
X60278626Y-40838301D01*
X60278626Y-40838301D01*
G37*
D15*
X60210000Y-41213000D03*
D10*
G36*
X60778626Y-40838301D02*
X60784693Y-40839201D01*
X60790643Y-40840691D01*
X60796418Y-40842758D01*
X60801962Y-40845380D01*
X60807223Y-40848533D01*
X60812150Y-40852187D01*
X60816694Y-40856306D01*
X60820813Y-40860850D01*
X60824467Y-40865777D01*
X60827620Y-40871038D01*
X60830242Y-40876582D01*
X60832309Y-40882357D01*
X60833799Y-40888307D01*
X60834699Y-40894374D01*
X60835000Y-40900500D01*
X60835000Y-41525500D01*
X60834699Y-41531626D01*
X60833799Y-41537693D01*
X60832309Y-41543643D01*
X60830242Y-41549418D01*
X60827620Y-41554962D01*
X60824467Y-41560223D01*
X60820813Y-41565150D01*
X60816694Y-41569694D01*
X60812150Y-41573813D01*
X60807223Y-41577467D01*
X60801962Y-41580620D01*
X60796418Y-41583242D01*
X60790643Y-41585309D01*
X60784693Y-41586799D01*
X60778626Y-41587699D01*
X60772500Y-41588000D01*
X60647500Y-41588000D01*
X60641374Y-41587699D01*
X60635307Y-41586799D01*
X60629357Y-41585309D01*
X60623582Y-41583242D01*
X60618038Y-41580620D01*
X60612777Y-41577467D01*
X60607850Y-41573813D01*
X60603306Y-41569694D01*
X60599187Y-41565150D01*
X60595533Y-41560223D01*
X60592380Y-41554962D01*
X60589758Y-41549418D01*
X60587691Y-41543643D01*
X60586201Y-41537693D01*
X60585301Y-41531626D01*
X60585000Y-41525500D01*
X60585000Y-40900500D01*
X60585301Y-40894374D01*
X60586201Y-40888307D01*
X60587691Y-40882357D01*
X60589758Y-40876582D01*
X60592380Y-40871038D01*
X60595533Y-40865777D01*
X60599187Y-40860850D01*
X60603306Y-40856306D01*
X60607850Y-40852187D01*
X60612777Y-40848533D01*
X60618038Y-40845380D01*
X60623582Y-40842758D01*
X60629357Y-40840691D01*
X60635307Y-40839201D01*
X60641374Y-40838301D01*
X60647500Y-40838000D01*
X60772500Y-40838000D01*
X60778626Y-40838301D01*
X60778626Y-40838301D01*
G37*
D15*
X60710000Y-41213000D03*
D10*
G36*
X61278626Y-40838301D02*
X61284693Y-40839201D01*
X61290643Y-40840691D01*
X61296418Y-40842758D01*
X61301962Y-40845380D01*
X61307223Y-40848533D01*
X61312150Y-40852187D01*
X61316694Y-40856306D01*
X61320813Y-40860850D01*
X61324467Y-40865777D01*
X61327620Y-40871038D01*
X61330242Y-40876582D01*
X61332309Y-40882357D01*
X61333799Y-40888307D01*
X61334699Y-40894374D01*
X61335000Y-40900500D01*
X61335000Y-41525500D01*
X61334699Y-41531626D01*
X61333799Y-41537693D01*
X61332309Y-41543643D01*
X61330242Y-41549418D01*
X61327620Y-41554962D01*
X61324467Y-41560223D01*
X61320813Y-41565150D01*
X61316694Y-41569694D01*
X61312150Y-41573813D01*
X61307223Y-41577467D01*
X61301962Y-41580620D01*
X61296418Y-41583242D01*
X61290643Y-41585309D01*
X61284693Y-41586799D01*
X61278626Y-41587699D01*
X61272500Y-41588000D01*
X61147500Y-41588000D01*
X61141374Y-41587699D01*
X61135307Y-41586799D01*
X61129357Y-41585309D01*
X61123582Y-41583242D01*
X61118038Y-41580620D01*
X61112777Y-41577467D01*
X61107850Y-41573813D01*
X61103306Y-41569694D01*
X61099187Y-41565150D01*
X61095533Y-41560223D01*
X61092380Y-41554962D01*
X61089758Y-41549418D01*
X61087691Y-41543643D01*
X61086201Y-41537693D01*
X61085301Y-41531626D01*
X61085000Y-41525500D01*
X61085000Y-40900500D01*
X61085301Y-40894374D01*
X61086201Y-40888307D01*
X61087691Y-40882357D01*
X61089758Y-40876582D01*
X61092380Y-40871038D01*
X61095533Y-40865777D01*
X61099187Y-40860850D01*
X61103306Y-40856306D01*
X61107850Y-40852187D01*
X61112777Y-40848533D01*
X61118038Y-40845380D01*
X61123582Y-40842758D01*
X61129357Y-40840691D01*
X61135307Y-40839201D01*
X61141374Y-40838301D01*
X61147500Y-40838000D01*
X61272500Y-40838000D01*
X61278626Y-40838301D01*
X61278626Y-40838301D01*
G37*
D15*
X61210000Y-41213000D03*
D10*
G36*
X61778626Y-40838301D02*
X61784693Y-40839201D01*
X61790643Y-40840691D01*
X61796418Y-40842758D01*
X61801962Y-40845380D01*
X61807223Y-40848533D01*
X61812150Y-40852187D01*
X61816694Y-40856306D01*
X61820813Y-40860850D01*
X61824467Y-40865777D01*
X61827620Y-40871038D01*
X61830242Y-40876582D01*
X61832309Y-40882357D01*
X61833799Y-40888307D01*
X61834699Y-40894374D01*
X61835000Y-40900500D01*
X61835000Y-41525500D01*
X61834699Y-41531626D01*
X61833799Y-41537693D01*
X61832309Y-41543643D01*
X61830242Y-41549418D01*
X61827620Y-41554962D01*
X61824467Y-41560223D01*
X61820813Y-41565150D01*
X61816694Y-41569694D01*
X61812150Y-41573813D01*
X61807223Y-41577467D01*
X61801962Y-41580620D01*
X61796418Y-41583242D01*
X61790643Y-41585309D01*
X61784693Y-41586799D01*
X61778626Y-41587699D01*
X61772500Y-41588000D01*
X61647500Y-41588000D01*
X61641374Y-41587699D01*
X61635307Y-41586799D01*
X61629357Y-41585309D01*
X61623582Y-41583242D01*
X61618038Y-41580620D01*
X61612777Y-41577467D01*
X61607850Y-41573813D01*
X61603306Y-41569694D01*
X61599187Y-41565150D01*
X61595533Y-41560223D01*
X61592380Y-41554962D01*
X61589758Y-41549418D01*
X61587691Y-41543643D01*
X61586201Y-41537693D01*
X61585301Y-41531626D01*
X61585000Y-41525500D01*
X61585000Y-40900500D01*
X61585301Y-40894374D01*
X61586201Y-40888307D01*
X61587691Y-40882357D01*
X61589758Y-40876582D01*
X61592380Y-40871038D01*
X61595533Y-40865777D01*
X61599187Y-40860850D01*
X61603306Y-40856306D01*
X61607850Y-40852187D01*
X61612777Y-40848533D01*
X61618038Y-40845380D01*
X61623582Y-40842758D01*
X61629357Y-40840691D01*
X61635307Y-40839201D01*
X61641374Y-40838301D01*
X61647500Y-40838000D01*
X61772500Y-40838000D01*
X61778626Y-40838301D01*
X61778626Y-40838301D01*
G37*
D15*
X61710000Y-41213000D03*
D10*
G36*
X62278626Y-40838301D02*
X62284693Y-40839201D01*
X62290643Y-40840691D01*
X62296418Y-40842758D01*
X62301962Y-40845380D01*
X62307223Y-40848533D01*
X62312150Y-40852187D01*
X62316694Y-40856306D01*
X62320813Y-40860850D01*
X62324467Y-40865777D01*
X62327620Y-40871038D01*
X62330242Y-40876582D01*
X62332309Y-40882357D01*
X62333799Y-40888307D01*
X62334699Y-40894374D01*
X62335000Y-40900500D01*
X62335000Y-41525500D01*
X62334699Y-41531626D01*
X62333799Y-41537693D01*
X62332309Y-41543643D01*
X62330242Y-41549418D01*
X62327620Y-41554962D01*
X62324467Y-41560223D01*
X62320813Y-41565150D01*
X62316694Y-41569694D01*
X62312150Y-41573813D01*
X62307223Y-41577467D01*
X62301962Y-41580620D01*
X62296418Y-41583242D01*
X62290643Y-41585309D01*
X62284693Y-41586799D01*
X62278626Y-41587699D01*
X62272500Y-41588000D01*
X62147500Y-41588000D01*
X62141374Y-41587699D01*
X62135307Y-41586799D01*
X62129357Y-41585309D01*
X62123582Y-41583242D01*
X62118038Y-41580620D01*
X62112777Y-41577467D01*
X62107850Y-41573813D01*
X62103306Y-41569694D01*
X62099187Y-41565150D01*
X62095533Y-41560223D01*
X62092380Y-41554962D01*
X62089758Y-41549418D01*
X62087691Y-41543643D01*
X62086201Y-41537693D01*
X62085301Y-41531626D01*
X62085000Y-41525500D01*
X62085000Y-40900500D01*
X62085301Y-40894374D01*
X62086201Y-40888307D01*
X62087691Y-40882357D01*
X62089758Y-40876582D01*
X62092380Y-40871038D01*
X62095533Y-40865777D01*
X62099187Y-40860850D01*
X62103306Y-40856306D01*
X62107850Y-40852187D01*
X62112777Y-40848533D01*
X62118038Y-40845380D01*
X62123582Y-40842758D01*
X62129357Y-40840691D01*
X62135307Y-40839201D01*
X62141374Y-40838301D01*
X62147500Y-40838000D01*
X62272500Y-40838000D01*
X62278626Y-40838301D01*
X62278626Y-40838301D01*
G37*
D15*
X62210000Y-41213000D03*
D10*
G36*
X62778626Y-40838301D02*
X62784693Y-40839201D01*
X62790643Y-40840691D01*
X62796418Y-40842758D01*
X62801962Y-40845380D01*
X62807223Y-40848533D01*
X62812150Y-40852187D01*
X62816694Y-40856306D01*
X62820813Y-40860850D01*
X62824467Y-40865777D01*
X62827620Y-40871038D01*
X62830242Y-40876582D01*
X62832309Y-40882357D01*
X62833799Y-40888307D01*
X62834699Y-40894374D01*
X62835000Y-40900500D01*
X62835000Y-41525500D01*
X62834699Y-41531626D01*
X62833799Y-41537693D01*
X62832309Y-41543643D01*
X62830242Y-41549418D01*
X62827620Y-41554962D01*
X62824467Y-41560223D01*
X62820813Y-41565150D01*
X62816694Y-41569694D01*
X62812150Y-41573813D01*
X62807223Y-41577467D01*
X62801962Y-41580620D01*
X62796418Y-41583242D01*
X62790643Y-41585309D01*
X62784693Y-41586799D01*
X62778626Y-41587699D01*
X62772500Y-41588000D01*
X62647500Y-41588000D01*
X62641374Y-41587699D01*
X62635307Y-41586799D01*
X62629357Y-41585309D01*
X62623582Y-41583242D01*
X62618038Y-41580620D01*
X62612777Y-41577467D01*
X62607850Y-41573813D01*
X62603306Y-41569694D01*
X62599187Y-41565150D01*
X62595533Y-41560223D01*
X62592380Y-41554962D01*
X62589758Y-41549418D01*
X62587691Y-41543643D01*
X62586201Y-41537693D01*
X62585301Y-41531626D01*
X62585000Y-41525500D01*
X62585000Y-40900500D01*
X62585301Y-40894374D01*
X62586201Y-40888307D01*
X62587691Y-40882357D01*
X62589758Y-40876582D01*
X62592380Y-40871038D01*
X62595533Y-40865777D01*
X62599187Y-40860850D01*
X62603306Y-40856306D01*
X62607850Y-40852187D01*
X62612777Y-40848533D01*
X62618038Y-40845380D01*
X62623582Y-40842758D01*
X62629357Y-40840691D01*
X62635307Y-40839201D01*
X62641374Y-40838301D01*
X62647500Y-40838000D01*
X62772500Y-40838000D01*
X62778626Y-40838301D01*
X62778626Y-40838301D01*
G37*
D15*
X62710000Y-41213000D03*
G04 #@! TD*
D16*
G04 #@! TO.C,J2*
X66925000Y-49530000D03*
X66925000Y-44450000D03*
X66925000Y-39370000D03*
X70235000Y-46990000D03*
X70235000Y-41910000D03*
X70235000Y-36830000D03*
G04 #@! TD*
G04 #@! TO.C,J3*
X51685000Y-54610000D03*
X51685000Y-49530000D03*
X51685000Y-44450000D03*
X51685000Y-39370000D03*
X54995000Y-52070000D03*
X54995000Y-46990000D03*
X54995000Y-41910000D03*
X54995000Y-36830000D03*
G04 #@! TD*
M02*
