G04 #@! TF.GenerationSoftware,KiCad,Pcbnew,5.0.0*
G04 #@! TF.CreationDate,2019-07-11T02:24:03-06:00*
G04 #@! TF.ProjectId,woose-tracker,776F6F73652D747261636B65722E6B69,1*
G04 #@! TF.SameCoordinates,Original*
G04 #@! TF.FileFunction,Soldermask,Top*
G04 #@! TF.FilePolarity,Negative*
%FSLAX46Y46*%
G04 Gerber Fmt 4.6, Leading zero omitted, Abs format (unit mm)*
G04 Created by KiCad (PCBNEW 5.0.0) date Thu Jul 11 02:24:03 2019*
%MOMM*%
%LPD*%
G01*
G04 APERTURE LIST*
%ADD10C,0.250000*%
%ADD11C,0.002540*%
G04 APERTURE END LIST*
D10*
X49911097Y-49006097D02*
X50196811Y-50206097D01*
X50425382Y-49348954D01*
X50653954Y-50206097D01*
X50939668Y-49006097D01*
X51568240Y-50206097D02*
X51453954Y-50148954D01*
X51396811Y-50091811D01*
X51339668Y-49977525D01*
X51339668Y-49634668D01*
X51396811Y-49520382D01*
X51453954Y-49463240D01*
X51568240Y-49406097D01*
X51739668Y-49406097D01*
X51853954Y-49463240D01*
X51911097Y-49520382D01*
X51968240Y-49634668D01*
X51968240Y-49977525D01*
X51911097Y-50091811D01*
X51853954Y-50148954D01*
X51739668Y-50206097D01*
X51568240Y-50206097D01*
X52653954Y-50206097D02*
X52539668Y-50148954D01*
X52482525Y-50091811D01*
X52425382Y-49977525D01*
X52425382Y-49634668D01*
X52482525Y-49520382D01*
X52539668Y-49463240D01*
X52653954Y-49406097D01*
X52825382Y-49406097D01*
X52939668Y-49463240D01*
X52996811Y-49520382D01*
X53053954Y-49634668D01*
X53053954Y-49977525D01*
X52996811Y-50091811D01*
X52939668Y-50148954D01*
X52825382Y-50206097D01*
X52653954Y-50206097D01*
X53511097Y-50148954D02*
X53625382Y-50206097D01*
X53853954Y-50206097D01*
X53968240Y-50148954D01*
X54025382Y-50034668D01*
X54025382Y-49977525D01*
X53968240Y-49863240D01*
X53853954Y-49806097D01*
X53682525Y-49806097D01*
X53568240Y-49748954D01*
X53511097Y-49634668D01*
X53511097Y-49577525D01*
X53568240Y-49463240D01*
X53682525Y-49406097D01*
X53853954Y-49406097D01*
X53968240Y-49463240D01*
X54996811Y-50148954D02*
X54882525Y-50206097D01*
X54653954Y-50206097D01*
X54539668Y-50148954D01*
X54482525Y-50034668D01*
X54482525Y-49577525D01*
X54539668Y-49463240D01*
X54653954Y-49406097D01*
X54882525Y-49406097D01*
X54996811Y-49463240D01*
X55053954Y-49577525D01*
X55053954Y-49691811D01*
X54482525Y-49806097D01*
X55396811Y-49006097D02*
X56082525Y-49006097D01*
X55739668Y-50206097D02*
X55739668Y-49006097D01*
X56482525Y-50206097D02*
X56482525Y-49406097D01*
X56482525Y-49634668D02*
X56539668Y-49520382D01*
X56596811Y-49463240D01*
X56711097Y-49406097D01*
X56825382Y-49406097D01*
X57739668Y-50206097D02*
X57739668Y-49577525D01*
X57682525Y-49463240D01*
X57568240Y-49406097D01*
X57339668Y-49406097D01*
X57225382Y-49463240D01*
X57739668Y-50148954D02*
X57625382Y-50206097D01*
X57339668Y-50206097D01*
X57225382Y-50148954D01*
X57168240Y-50034668D01*
X57168240Y-49920382D01*
X57225382Y-49806097D01*
X57339668Y-49748954D01*
X57625382Y-49748954D01*
X57739668Y-49691811D01*
X58825382Y-50148954D02*
X58711097Y-50206097D01*
X58482525Y-50206097D01*
X58368240Y-50148954D01*
X58311097Y-50091811D01*
X58253954Y-49977525D01*
X58253954Y-49634668D01*
X58311097Y-49520382D01*
X58368240Y-49463240D01*
X58482525Y-49406097D01*
X58711097Y-49406097D01*
X58825382Y-49463240D01*
X59339668Y-50206097D02*
X59339668Y-49006097D01*
X59453954Y-49748954D02*
X59796811Y-50206097D01*
X59796811Y-49406097D02*
X59339668Y-49863240D01*
X60768240Y-50148954D02*
X60653954Y-50206097D01*
X60425382Y-50206097D01*
X60311097Y-50148954D01*
X60253954Y-50034668D01*
X60253954Y-49577525D01*
X60311097Y-49463240D01*
X60425382Y-49406097D01*
X60653954Y-49406097D01*
X60768240Y-49463240D01*
X60825382Y-49577525D01*
X60825382Y-49691811D01*
X60253954Y-49806097D01*
X61339668Y-50206097D02*
X61339668Y-49406097D01*
X61339668Y-49634668D02*
X61396811Y-49520382D01*
X61453954Y-49463240D01*
X61568240Y-49406097D01*
X61682525Y-49406097D01*
X50853954Y-51170382D02*
X50911097Y-51113240D01*
X51025382Y-51056097D01*
X51311097Y-51056097D01*
X51425382Y-51113240D01*
X51482525Y-51170382D01*
X51539668Y-51284668D01*
X51539668Y-51398954D01*
X51482525Y-51570382D01*
X50796811Y-52256097D01*
X51539668Y-52256097D01*
X52282525Y-51056097D02*
X52396811Y-51056097D01*
X52511097Y-51113240D01*
X52568240Y-51170382D01*
X52625382Y-51284668D01*
X52682525Y-51513240D01*
X52682525Y-51798954D01*
X52625382Y-52027525D01*
X52568240Y-52141811D01*
X52511097Y-52198954D01*
X52396811Y-52256097D01*
X52282525Y-52256097D01*
X52168240Y-52198954D01*
X52111097Y-52141811D01*
X52053954Y-52027525D01*
X51996811Y-51798954D01*
X51996811Y-51513240D01*
X52053954Y-51284668D01*
X52111097Y-51170382D01*
X52168240Y-51113240D01*
X52282525Y-51056097D01*
X53825382Y-52256097D02*
X53139668Y-52256097D01*
X53482525Y-52256097D02*
X53482525Y-51056097D01*
X53368240Y-51227525D01*
X53253954Y-51341811D01*
X53139668Y-51398954D01*
X54396811Y-52256097D02*
X54625382Y-52256097D01*
X54739668Y-52198954D01*
X54796811Y-52141811D01*
X54911097Y-51970382D01*
X54968240Y-51741811D01*
X54968240Y-51284668D01*
X54911097Y-51170382D01*
X54853954Y-51113240D01*
X54739668Y-51056097D01*
X54511097Y-51056097D01*
X54396811Y-51113240D01*
X54339668Y-51170382D01*
X54282525Y-51284668D01*
X54282525Y-51570382D01*
X54339668Y-51684668D01*
X54396811Y-51741811D01*
X54511097Y-51798954D01*
X54739668Y-51798954D01*
X54853954Y-51741811D01*
X54911097Y-51684668D01*
X54968240Y-51570382D01*
X55482525Y-52141811D02*
X55539668Y-52198954D01*
X55482525Y-52256097D01*
X55425382Y-52198954D01*
X55482525Y-52141811D01*
X55482525Y-52256097D01*
X56282525Y-51056097D02*
X56396811Y-51056097D01*
X56511097Y-51113240D01*
X56568240Y-51170382D01*
X56625382Y-51284668D01*
X56682525Y-51513240D01*
X56682525Y-51798954D01*
X56625382Y-52027525D01*
X56568240Y-52141811D01*
X56511097Y-52198954D01*
X56396811Y-52256097D01*
X56282525Y-52256097D01*
X56168240Y-52198954D01*
X56111097Y-52141811D01*
X56053954Y-52027525D01*
X55996811Y-51798954D01*
X55996811Y-51513240D01*
X56053954Y-51284668D01*
X56111097Y-51170382D01*
X56168240Y-51113240D01*
X56282525Y-51056097D01*
X57082525Y-51056097D02*
X57882525Y-51056097D01*
X57368240Y-52256097D01*
X58339668Y-52141811D02*
X58396811Y-52198954D01*
X58339668Y-52256097D01*
X58282525Y-52198954D01*
X58339668Y-52141811D01*
X58339668Y-52256097D01*
X59539668Y-52256097D02*
X58853954Y-52256097D01*
X59196811Y-52256097D02*
X59196811Y-51056097D01*
X59082525Y-51227525D01*
X58968240Y-51341811D01*
X58853954Y-51398954D01*
X60682525Y-52256097D02*
X59996811Y-52256097D01*
X60339668Y-52256097D02*
X60339668Y-51056097D01*
X60225382Y-51227525D01*
X60111097Y-51341811D01*
X59996811Y-51398954D01*
D11*
G04 #@! TO.C,P1*
G36*
X53645771Y-36914396D02*
X53687081Y-36959298D01*
X53724798Y-37000607D01*
X53746350Y-37029344D01*
X53802028Y-37120942D01*
X53845133Y-37217929D01*
X53877462Y-37318508D01*
X53893626Y-37420883D01*
X53899015Y-37523258D01*
X53891830Y-37627429D01*
X53870278Y-37728007D01*
X53836153Y-37830382D01*
X53789455Y-37927369D01*
X53762515Y-37972270D01*
X53740962Y-38001007D01*
X53714021Y-38035132D01*
X53681692Y-38071053D01*
X53649363Y-38106974D01*
X53617035Y-38142895D01*
X53588298Y-38168040D01*
X53573929Y-38182408D01*
X53480535Y-38247066D01*
X53385344Y-38299152D01*
X53284765Y-38338665D01*
X53182390Y-38365606D01*
X53078219Y-38376382D01*
X52970456Y-38376382D01*
X52866285Y-38358421D01*
X52835752Y-38353033D01*
X52742358Y-38324296D01*
X52654351Y-38286579D01*
X52573529Y-38238086D01*
X52496299Y-38178816D01*
X52420864Y-38106974D01*
X52399312Y-38085422D01*
X52359799Y-38042316D01*
X52329266Y-38004599D01*
X52304121Y-37965086D01*
X52293345Y-37947126D01*
X52243055Y-37850139D01*
X52203542Y-37749560D01*
X52178398Y-37648981D01*
X52169417Y-37543014D01*
X52171213Y-37437047D01*
X52189174Y-37332876D01*
X52217911Y-37228705D01*
X52259220Y-37133515D01*
X52284365Y-37086817D01*
X52309509Y-37047304D01*
X52336450Y-37009587D01*
X52368779Y-36970074D01*
X52408292Y-36930561D01*
X52454989Y-36883863D01*
X52510667Y-36835370D01*
X52557364Y-36795857D01*
X52604062Y-36763528D01*
X52654351Y-36738383D01*
X52708233Y-36713239D01*
X52749542Y-36697074D01*
X52855509Y-36666541D01*
X52961476Y-36650377D01*
X53069239Y-36646785D01*
X53173410Y-36657561D01*
X53277581Y-36682706D01*
X53376364Y-36720423D01*
X53473350Y-36770712D01*
X53520048Y-36803041D01*
X53557765Y-36833574D01*
X53600870Y-36869495D01*
X53645771Y-36914396D01*
X53645771Y-36914396D01*
G37*
X53645771Y-36914396D02*
X53687081Y-36959298D01*
X53724798Y-37000607D01*
X53746350Y-37029344D01*
X53802028Y-37120942D01*
X53845133Y-37217929D01*
X53877462Y-37318508D01*
X53893626Y-37420883D01*
X53899015Y-37523258D01*
X53891830Y-37627429D01*
X53870278Y-37728007D01*
X53836153Y-37830382D01*
X53789455Y-37927369D01*
X53762515Y-37972270D01*
X53740962Y-38001007D01*
X53714021Y-38035132D01*
X53681692Y-38071053D01*
X53649363Y-38106974D01*
X53617035Y-38142895D01*
X53588298Y-38168040D01*
X53573929Y-38182408D01*
X53480535Y-38247066D01*
X53385344Y-38299152D01*
X53284765Y-38338665D01*
X53182390Y-38365606D01*
X53078219Y-38376382D01*
X52970456Y-38376382D01*
X52866285Y-38358421D01*
X52835752Y-38353033D01*
X52742358Y-38324296D01*
X52654351Y-38286579D01*
X52573529Y-38238086D01*
X52496299Y-38178816D01*
X52420864Y-38106974D01*
X52399312Y-38085422D01*
X52359799Y-38042316D01*
X52329266Y-38004599D01*
X52304121Y-37965086D01*
X52293345Y-37947126D01*
X52243055Y-37850139D01*
X52203542Y-37749560D01*
X52178398Y-37648981D01*
X52169417Y-37543014D01*
X52171213Y-37437047D01*
X52189174Y-37332876D01*
X52217911Y-37228705D01*
X52259220Y-37133515D01*
X52284365Y-37086817D01*
X52309509Y-37047304D01*
X52336450Y-37009587D01*
X52368779Y-36970074D01*
X52408292Y-36930561D01*
X52454989Y-36883863D01*
X52510667Y-36835370D01*
X52557364Y-36795857D01*
X52604062Y-36763528D01*
X52654351Y-36738383D01*
X52708233Y-36713239D01*
X52749542Y-36697074D01*
X52855509Y-36666541D01*
X52961476Y-36650377D01*
X53069239Y-36646785D01*
X53173410Y-36657561D01*
X53277581Y-36682706D01*
X53376364Y-36720423D01*
X53473350Y-36770712D01*
X53520048Y-36803041D01*
X53557765Y-36833574D01*
X53600870Y-36869495D01*
X53645771Y-36914396D01*
G36*
X51409688Y-36064864D02*
X51382747Y-36095397D01*
X51312701Y-36186996D01*
X51249839Y-36275002D01*
X51195958Y-36357620D01*
X51147464Y-36438443D01*
X51142076Y-36451015D01*
X51124115Y-36483344D01*
X51104359Y-36513877D01*
X51088194Y-36540818D01*
X51075622Y-36556982D01*
X51052273Y-36583923D01*
X50256623Y-35784680D01*
X49460972Y-34985437D01*
X49443012Y-34945924D01*
X49421459Y-34884858D01*
X49416071Y-34821997D01*
X49426847Y-34760931D01*
X49446604Y-34701661D01*
X49482525Y-34644188D01*
X49496893Y-34629819D01*
X49547182Y-34579530D01*
X49601064Y-34543609D01*
X49658538Y-34522056D01*
X49719603Y-34511280D01*
X49784261Y-34514872D01*
X49839939Y-34531036D01*
X49888432Y-34547201D01*
X50648162Y-35306930D01*
X51409688Y-36064864D01*
X51409688Y-36064864D01*
G37*
X51409688Y-36064864D02*
X51382747Y-36095397D01*
X51312701Y-36186996D01*
X51249839Y-36275002D01*
X51195958Y-36357620D01*
X51147464Y-36438443D01*
X51142076Y-36451015D01*
X51124115Y-36483344D01*
X51104359Y-36513877D01*
X51088194Y-36540818D01*
X51075622Y-36556982D01*
X51052273Y-36583923D01*
X50256623Y-35784680D01*
X49460972Y-34985437D01*
X49443012Y-34945924D01*
X49421459Y-34884858D01*
X49416071Y-34821997D01*
X49426847Y-34760931D01*
X49446604Y-34701661D01*
X49482525Y-34644188D01*
X49496893Y-34629819D01*
X49547182Y-34579530D01*
X49601064Y-34543609D01*
X49658538Y-34522056D01*
X49719603Y-34511280D01*
X49784261Y-34514872D01*
X49839939Y-34531036D01*
X49888432Y-34547201D01*
X50648162Y-35306930D01*
X51409688Y-36064864D01*
G36*
X52223299Y-35481147D02*
X52205338Y-35499108D01*
X52189174Y-35511680D01*
X52174805Y-35522457D01*
X52173009Y-35520661D01*
X52162233Y-35524253D01*
X52142476Y-35533233D01*
X52113740Y-35547601D01*
X52081411Y-35561970D01*
X52070634Y-35569154D01*
X51991608Y-35608667D01*
X51907194Y-35657160D01*
X51828168Y-35707450D01*
X51752733Y-35757739D01*
X51741957Y-35764923D01*
X51675503Y-35813417D01*
X51007372Y-35141694D01*
X50337445Y-34468174D01*
X50321281Y-34430457D01*
X50303320Y-34369392D01*
X50297932Y-34306530D01*
X50305116Y-34245464D01*
X50323077Y-34187991D01*
X50328465Y-34179010D01*
X50350017Y-34143089D01*
X50380550Y-34105372D01*
X50416471Y-34073043D01*
X50454188Y-34042510D01*
X50486517Y-34020958D01*
X50547583Y-33999405D01*
X50610445Y-33994017D01*
X50673307Y-33999405D01*
X50730780Y-34017366D01*
X50772089Y-34033530D01*
X51495898Y-34757339D01*
X52223299Y-35481147D01*
X52223299Y-35481147D01*
G37*
X52223299Y-35481147D02*
X52205338Y-35499108D01*
X52189174Y-35511680D01*
X52174805Y-35522457D01*
X52173009Y-35520661D01*
X52162233Y-35524253D01*
X52142476Y-35533233D01*
X52113740Y-35547601D01*
X52081411Y-35561970D01*
X52070634Y-35569154D01*
X51991608Y-35608667D01*
X51907194Y-35657160D01*
X51828168Y-35707450D01*
X51752733Y-35757739D01*
X51741957Y-35764923D01*
X51675503Y-35813417D01*
X51007372Y-35141694D01*
X50337445Y-34468174D01*
X50321281Y-34430457D01*
X50303320Y-34369392D01*
X50297932Y-34306530D01*
X50305116Y-34245464D01*
X50323077Y-34187991D01*
X50328465Y-34179010D01*
X50350017Y-34143089D01*
X50380550Y-34105372D01*
X50416471Y-34073043D01*
X50454188Y-34042510D01*
X50486517Y-34020958D01*
X50547583Y-33999405D01*
X50610445Y-33994017D01*
X50673307Y-33999405D01*
X50730780Y-34017366D01*
X50772089Y-34033530D01*
X51495898Y-34757339D01*
X52223299Y-35481147D01*
G36*
X53441022Y-35341055D02*
X53423061Y-35359016D01*
X53412285Y-35366200D01*
X53399712Y-35371588D01*
X53381752Y-35371588D01*
X53358403Y-35369792D01*
X53243456Y-35355424D01*
X53124917Y-35348240D01*
X52999193Y-35348240D01*
X52877061Y-35351832D01*
X52758522Y-35362608D01*
X52647167Y-35380569D01*
X52607654Y-35387753D01*
X52014957Y-34795056D01*
X51923358Y-34703457D01*
X51842536Y-34622635D01*
X51768898Y-34548997D01*
X51706036Y-34486135D01*
X51650358Y-34426865D01*
X51601865Y-34378372D01*
X51560556Y-34337063D01*
X51524635Y-34301142D01*
X51494102Y-34270609D01*
X51470753Y-34243668D01*
X51449201Y-34222115D01*
X51433036Y-34205951D01*
X51422260Y-34191583D01*
X51411484Y-34180806D01*
X51406095Y-34171826D01*
X51400707Y-34166438D01*
X51400707Y-34162846D01*
X51373767Y-34103576D01*
X51359398Y-34042510D01*
X51359398Y-33981445D01*
X51373767Y-33923971D01*
X51400707Y-33864701D01*
X51420464Y-33834168D01*
X51467161Y-33783879D01*
X51517451Y-33744366D01*
X51573128Y-33717425D01*
X51632398Y-33701261D01*
X51691668Y-33699465D01*
X51750937Y-33708445D01*
X51806615Y-33731793D01*
X51838944Y-33749754D01*
X51847924Y-33758734D01*
X51867681Y-33774899D01*
X51896417Y-33803636D01*
X51934135Y-33841353D01*
X51984424Y-33888050D01*
X52040102Y-33943728D01*
X52104759Y-34008385D01*
X52180194Y-34083820D01*
X52264608Y-34164642D01*
X52356207Y-34256240D01*
X52454989Y-34355023D01*
X52564549Y-34464582D01*
X52656147Y-34556181D01*
X53441022Y-35341055D01*
X53441022Y-35341055D01*
G37*
X53441022Y-35341055D02*
X53423061Y-35359016D01*
X53412285Y-35366200D01*
X53399712Y-35371588D01*
X53381752Y-35371588D01*
X53358403Y-35369792D01*
X53243456Y-35355424D01*
X53124917Y-35348240D01*
X52999193Y-35348240D01*
X52877061Y-35351832D01*
X52758522Y-35362608D01*
X52647167Y-35380569D01*
X52607654Y-35387753D01*
X52014957Y-34795056D01*
X51923358Y-34703457D01*
X51842536Y-34622635D01*
X51768898Y-34548997D01*
X51706036Y-34486135D01*
X51650358Y-34426865D01*
X51601865Y-34378372D01*
X51560556Y-34337063D01*
X51524635Y-34301142D01*
X51494102Y-34270609D01*
X51470753Y-34243668D01*
X51449201Y-34222115D01*
X51433036Y-34205951D01*
X51422260Y-34191583D01*
X51411484Y-34180806D01*
X51406095Y-34171826D01*
X51400707Y-34166438D01*
X51400707Y-34162846D01*
X51373767Y-34103576D01*
X51359398Y-34042510D01*
X51359398Y-33981445D01*
X51373767Y-33923971D01*
X51400707Y-33864701D01*
X51420464Y-33834168D01*
X51467161Y-33783879D01*
X51517451Y-33744366D01*
X51573128Y-33717425D01*
X51632398Y-33701261D01*
X51691668Y-33699465D01*
X51750937Y-33708445D01*
X51806615Y-33731793D01*
X51838944Y-33749754D01*
X51847924Y-33758734D01*
X51867681Y-33774899D01*
X51896417Y-33803636D01*
X51934135Y-33841353D01*
X51984424Y-33888050D01*
X52040102Y-33943728D01*
X52104759Y-34008385D01*
X52180194Y-34083820D01*
X52264608Y-34164642D01*
X52356207Y-34256240D01*
X52454989Y-34355023D01*
X52564549Y-34464582D01*
X52656147Y-34556181D01*
X53441022Y-35341055D01*
G36*
X50903201Y-37113758D02*
X50894221Y-37180212D01*
X50879852Y-37284383D01*
X50872668Y-37395738D01*
X50869076Y-37510685D01*
X50870872Y-37627429D01*
X50879852Y-37740580D01*
X50881649Y-37745968D01*
X50885241Y-37785481D01*
X50890629Y-37823198D01*
X50894221Y-37855527D01*
X50897813Y-37880672D01*
X50899609Y-37886060D01*
X50901405Y-37905817D01*
X50896017Y-37921981D01*
X50888833Y-37932757D01*
X50872668Y-37948922D01*
X49901005Y-36973666D01*
X48925749Y-35998410D01*
X48909584Y-35949917D01*
X48893420Y-35887055D01*
X48893420Y-35822397D01*
X48904196Y-35761331D01*
X48909584Y-35748759D01*
X48916769Y-35727206D01*
X48925749Y-35711042D01*
X48932933Y-35696674D01*
X48945505Y-35680509D01*
X48965262Y-35660753D01*
X48992203Y-35633812D01*
X49056860Y-35569154D01*
X49112538Y-35549397D01*
X49177196Y-35535029D01*
X49240058Y-35533233D01*
X49304716Y-35547601D01*
X49310104Y-35549397D01*
X49351413Y-35565562D01*
X50127307Y-36337864D01*
X50903201Y-37113758D01*
X50903201Y-37113758D01*
G37*
X50903201Y-37113758D02*
X50894221Y-37180212D01*
X50879852Y-37284383D01*
X50872668Y-37395738D01*
X50869076Y-37510685D01*
X50870872Y-37627429D01*
X50879852Y-37740580D01*
X50881649Y-37745968D01*
X50885241Y-37785481D01*
X50890629Y-37823198D01*
X50894221Y-37855527D01*
X50897813Y-37880672D01*
X50899609Y-37886060D01*
X50901405Y-37905817D01*
X50896017Y-37921981D01*
X50888833Y-37932757D01*
X50872668Y-37948922D01*
X49901005Y-36973666D01*
X48925749Y-35998410D01*
X48909584Y-35949917D01*
X48893420Y-35887055D01*
X48893420Y-35822397D01*
X48904196Y-35761331D01*
X48909584Y-35748759D01*
X48916769Y-35727206D01*
X48925749Y-35711042D01*
X48932933Y-35696674D01*
X48945505Y-35680509D01*
X48965262Y-35660753D01*
X48992203Y-35633812D01*
X49056860Y-35569154D01*
X49112538Y-35549397D01*
X49177196Y-35535029D01*
X49240058Y-35533233D01*
X49304716Y-35547601D01*
X49310104Y-35549397D01*
X49351413Y-35565562D01*
X50127307Y-36337864D01*
X50903201Y-37113758D01*
G36*
X51231879Y-38732000D02*
X51282168Y-38800250D01*
X51382747Y-38925974D01*
X51488714Y-39042717D01*
X51598273Y-39145092D01*
X51709628Y-39234894D01*
X51715016Y-39240283D01*
X51743753Y-39261835D01*
X51772490Y-39283388D01*
X51794043Y-39301348D01*
X51810207Y-39313921D01*
X51820983Y-39328289D01*
X51822779Y-39337269D01*
X51815595Y-39348046D01*
X51813799Y-39349842D01*
X51810207Y-39353434D01*
X51804819Y-39355230D01*
X51797635Y-39355230D01*
X51786858Y-39358822D01*
X51772490Y-39358822D01*
X51752733Y-39360618D01*
X51729385Y-39362414D01*
X51700648Y-39362414D01*
X51662931Y-39364210D01*
X51619826Y-39364210D01*
X51567740Y-39366006D01*
X51508470Y-39364210D01*
X51438424Y-39366006D01*
X51359398Y-39366006D01*
X51269596Y-39366006D01*
X51169017Y-39366006D01*
X51054069Y-39366006D01*
X50928346Y-39366006D01*
X50791846Y-39366006D01*
X50752333Y-39366006D01*
X50605057Y-39366006D01*
X50473945Y-39364210D01*
X50353609Y-39366006D01*
X50245846Y-39366006D01*
X50148860Y-39366006D01*
X50064445Y-39364210D01*
X49989011Y-39364210D01*
X49920761Y-39364210D01*
X49865084Y-39362414D01*
X49812998Y-39360618D01*
X49771689Y-39358822D01*
X49733972Y-39357026D01*
X49703439Y-39351638D01*
X49678294Y-39348046D01*
X49656742Y-39344454D01*
X49640577Y-39339065D01*
X49624413Y-39333677D01*
X49611840Y-39324697D01*
X49601064Y-39317513D01*
X49592084Y-39308533D01*
X49584900Y-39301348D01*
X49574123Y-39290572D01*
X49561551Y-39278000D01*
X49552571Y-39269019D01*
X49525630Y-39238487D01*
X49505873Y-39218730D01*
X49491505Y-39200769D01*
X49480729Y-39182809D01*
X49473544Y-39164848D01*
X49460972Y-39127131D01*
X49455584Y-39082230D01*
X49453788Y-39033737D01*
X49457380Y-38990631D01*
X49460972Y-38976263D01*
X49480729Y-38924178D01*
X49513058Y-38873888D01*
X49556163Y-38827191D01*
X49602860Y-38787678D01*
X49656742Y-38758941D01*
X49690867Y-38746369D01*
X49703439Y-38744572D01*
X49724992Y-38740980D01*
X49757320Y-38740980D01*
X49802222Y-38739184D01*
X49854307Y-38737388D01*
X49920761Y-38735592D01*
X49999787Y-38735592D01*
X50089590Y-38735592D01*
X50191965Y-38733796D01*
X50306912Y-38733796D01*
X50438024Y-38732000D01*
X50479333Y-38733796D01*
X51231879Y-38732000D01*
X51231879Y-38732000D01*
G37*
X51231879Y-38732000D02*
X51282168Y-38800250D01*
X51382747Y-38925974D01*
X51488714Y-39042717D01*
X51598273Y-39145092D01*
X51709628Y-39234894D01*
X51715016Y-39240283D01*
X51743753Y-39261835D01*
X51772490Y-39283388D01*
X51794043Y-39301348D01*
X51810207Y-39313921D01*
X51820983Y-39328289D01*
X51822779Y-39337269D01*
X51815595Y-39348046D01*
X51813799Y-39349842D01*
X51810207Y-39353434D01*
X51804819Y-39355230D01*
X51797635Y-39355230D01*
X51786858Y-39358822D01*
X51772490Y-39358822D01*
X51752733Y-39360618D01*
X51729385Y-39362414D01*
X51700648Y-39362414D01*
X51662931Y-39364210D01*
X51619826Y-39364210D01*
X51567740Y-39366006D01*
X51508470Y-39364210D01*
X51438424Y-39366006D01*
X51359398Y-39366006D01*
X51269596Y-39366006D01*
X51169017Y-39366006D01*
X51054069Y-39366006D01*
X50928346Y-39366006D01*
X50791846Y-39366006D01*
X50752333Y-39366006D01*
X50605057Y-39366006D01*
X50473945Y-39364210D01*
X50353609Y-39366006D01*
X50245846Y-39366006D01*
X50148860Y-39366006D01*
X50064445Y-39364210D01*
X49989011Y-39364210D01*
X49920761Y-39364210D01*
X49865084Y-39362414D01*
X49812998Y-39360618D01*
X49771689Y-39358822D01*
X49733972Y-39357026D01*
X49703439Y-39351638D01*
X49678294Y-39348046D01*
X49656742Y-39344454D01*
X49640577Y-39339065D01*
X49624413Y-39333677D01*
X49611840Y-39324697D01*
X49601064Y-39317513D01*
X49592084Y-39308533D01*
X49584900Y-39301348D01*
X49574123Y-39290572D01*
X49561551Y-39278000D01*
X49552571Y-39269019D01*
X49525630Y-39238487D01*
X49505873Y-39218730D01*
X49491505Y-39200769D01*
X49480729Y-39182809D01*
X49473544Y-39164848D01*
X49460972Y-39127131D01*
X49455584Y-39082230D01*
X49453788Y-39033737D01*
X49457380Y-38990631D01*
X49460972Y-38976263D01*
X49480729Y-38924178D01*
X49513058Y-38873888D01*
X49556163Y-38827191D01*
X49602860Y-38787678D01*
X49656742Y-38758941D01*
X49690867Y-38746369D01*
X49703439Y-38744572D01*
X49724992Y-38740980D01*
X49757320Y-38740980D01*
X49802222Y-38739184D01*
X49854307Y-38737388D01*
X49920761Y-38735592D01*
X49999787Y-38735592D01*
X50089590Y-38735592D01*
X50191965Y-38733796D01*
X50306912Y-38733796D01*
X50438024Y-38732000D01*
X50479333Y-38733796D01*
X51231879Y-38732000D01*
G36*
X54346231Y-36239081D02*
X54396521Y-36289370D01*
X54441422Y-36337864D01*
X54477343Y-36380969D01*
X54488119Y-36395337D01*
X54583310Y-36526449D01*
X54662336Y-36662949D01*
X54730586Y-36806633D01*
X54786264Y-36955705D01*
X54827573Y-37108370D01*
X54858106Y-37268218D01*
X54865290Y-37329284D01*
X54868882Y-37397534D01*
X54870678Y-37471172D01*
X54872474Y-37544810D01*
X54870678Y-37618448D01*
X54868882Y-37631021D01*
X53872074Y-36634212D01*
X53778679Y-36555186D01*
X53717613Y-36512081D01*
X53604462Y-36445627D01*
X53485923Y-36391745D01*
X53365587Y-36350436D01*
X53239864Y-36321699D01*
X53114140Y-36307331D01*
X52986621Y-36305535D01*
X52859101Y-36318107D01*
X52733377Y-36343252D01*
X52611246Y-36379173D01*
X52490910Y-36431258D01*
X52483726Y-36434851D01*
X52424457Y-36465383D01*
X52375963Y-36495916D01*
X52332858Y-36524653D01*
X52289753Y-36556982D01*
X52248444Y-36591107D01*
X52203542Y-36636008D01*
X52178398Y-36657561D01*
X52131700Y-36707850D01*
X52092187Y-36750956D01*
X52058062Y-36792265D01*
X52029325Y-36835370D01*
X52000588Y-36882067D01*
X51970056Y-36934153D01*
X51955687Y-36962890D01*
X51903602Y-37083225D01*
X51864089Y-37205357D01*
X51838944Y-37331080D01*
X51826371Y-37458600D01*
X51828168Y-37586119D01*
X51844332Y-37713639D01*
X51869477Y-37839363D01*
X51912582Y-37961494D01*
X51957483Y-38063869D01*
X52009569Y-38162652D01*
X52068838Y-38250658D01*
X52133496Y-38329685D01*
X52207134Y-38403323D01*
X52304121Y-38482349D01*
X52410088Y-38552395D01*
X52521443Y-38609869D01*
X52639983Y-38656566D01*
X52762114Y-38688895D01*
X52884246Y-38710447D01*
X53009969Y-38721224D01*
X53137489Y-38715836D01*
X53259620Y-38701467D01*
X53385344Y-38672730D01*
X53435633Y-38654770D01*
X53559561Y-38606277D01*
X53674508Y-38545211D01*
X53778679Y-38473369D01*
X53875666Y-38390750D01*
X53961876Y-38297356D01*
X54019350Y-38221922D01*
X54082212Y-38119547D01*
X54137889Y-38009988D01*
X54182791Y-37893244D01*
X54215120Y-37774705D01*
X54234876Y-37654369D01*
X54242060Y-37525054D01*
X54236672Y-37401126D01*
X54218712Y-37275403D01*
X54189975Y-37153271D01*
X54148666Y-37036528D01*
X54094784Y-36925173D01*
X54030126Y-36821002D01*
X53956488Y-36722219D01*
X53872074Y-36634212D01*
X54868882Y-37631021D01*
X54867086Y-37679514D01*
X54865290Y-37699271D01*
X54840145Y-37857323D01*
X54802428Y-38013580D01*
X54752139Y-38164448D01*
X54689277Y-38309928D01*
X54612047Y-38448224D01*
X54525836Y-38581132D01*
X54425258Y-38706855D01*
X54317495Y-38818211D01*
X54290554Y-38845151D01*
X54265409Y-38870296D01*
X54242060Y-38890053D01*
X54227692Y-38904421D01*
X54225896Y-38906217D01*
X54096580Y-39006796D01*
X53960080Y-39096599D01*
X53819988Y-39172033D01*
X53676304Y-39233098D01*
X53525436Y-39283388D01*
X53372772Y-39321105D01*
X53214719Y-39342658D01*
X53191370Y-39344454D01*
X53033318Y-39351638D01*
X52875265Y-39344454D01*
X52720805Y-39322901D01*
X52566345Y-39290572D01*
X52419068Y-39243875D01*
X52273588Y-39184605D01*
X52133496Y-39112763D01*
X52000588Y-39026553D01*
X51876661Y-38934954D01*
X51812003Y-38877480D01*
X51745549Y-38811026D01*
X51679095Y-38740980D01*
X51614437Y-38669138D01*
X51556964Y-38597296D01*
X51504878Y-38527250D01*
X51479734Y-38491329D01*
X51400707Y-38354829D01*
X51334253Y-38212941D01*
X51280372Y-38065665D01*
X51240859Y-37918389D01*
X51212122Y-37767521D01*
X51197754Y-37616652D01*
X51195958Y-37463988D01*
X51208530Y-37311324D01*
X51230082Y-37160455D01*
X51267800Y-37011383D01*
X51316293Y-36865903D01*
X51375563Y-36724015D01*
X51450997Y-36587515D01*
X51497694Y-36512081D01*
X51535411Y-36456403D01*
X51571332Y-36409706D01*
X51607253Y-36363009D01*
X51644970Y-36318107D01*
X51691668Y-36271410D01*
X51741957Y-36217528D01*
X51851516Y-36115153D01*
X51962871Y-36025351D01*
X52076023Y-35948121D01*
X52192766Y-35881667D01*
X52318490Y-35820601D01*
X52451397Y-35770312D01*
X52481930Y-35761331D01*
X52631002Y-35720022D01*
X52785463Y-35691285D01*
X52939923Y-35676917D01*
X53092588Y-35675121D01*
X53245252Y-35684101D01*
X53396120Y-35709246D01*
X53546989Y-35745167D01*
X53692469Y-35797252D01*
X53834357Y-35856522D01*
X53970857Y-35931956D01*
X54100172Y-36018167D01*
X54152258Y-36059476D01*
X54195363Y-36095397D01*
X54243856Y-36136706D01*
X54294146Y-36186996D01*
X54346231Y-36239081D01*
X54346231Y-36239081D01*
G37*
X54346231Y-36239081D02*
X54396521Y-36289370D01*
X54441422Y-36337864D01*
X54477343Y-36380969D01*
X54488119Y-36395337D01*
X54583310Y-36526449D01*
X54662336Y-36662949D01*
X54730586Y-36806633D01*
X54786264Y-36955705D01*
X54827573Y-37108370D01*
X54858106Y-37268218D01*
X54865290Y-37329284D01*
X54868882Y-37397534D01*
X54870678Y-37471172D01*
X54872474Y-37544810D01*
X54870678Y-37618448D01*
X54868882Y-37631021D01*
X53872074Y-36634212D01*
X53778679Y-36555186D01*
X53717613Y-36512081D01*
X53604462Y-36445627D01*
X53485923Y-36391745D01*
X53365587Y-36350436D01*
X53239864Y-36321699D01*
X53114140Y-36307331D01*
X52986621Y-36305535D01*
X52859101Y-36318107D01*
X52733377Y-36343252D01*
X52611246Y-36379173D01*
X52490910Y-36431258D01*
X52483726Y-36434851D01*
X52424457Y-36465383D01*
X52375963Y-36495916D01*
X52332858Y-36524653D01*
X52289753Y-36556982D01*
X52248444Y-36591107D01*
X52203542Y-36636008D01*
X52178398Y-36657561D01*
X52131700Y-36707850D01*
X52092187Y-36750956D01*
X52058062Y-36792265D01*
X52029325Y-36835370D01*
X52000588Y-36882067D01*
X51970056Y-36934153D01*
X51955687Y-36962890D01*
X51903602Y-37083225D01*
X51864089Y-37205357D01*
X51838944Y-37331080D01*
X51826371Y-37458600D01*
X51828168Y-37586119D01*
X51844332Y-37713639D01*
X51869477Y-37839363D01*
X51912582Y-37961494D01*
X51957483Y-38063869D01*
X52009569Y-38162652D01*
X52068838Y-38250658D01*
X52133496Y-38329685D01*
X52207134Y-38403323D01*
X52304121Y-38482349D01*
X52410088Y-38552395D01*
X52521443Y-38609869D01*
X52639983Y-38656566D01*
X52762114Y-38688895D01*
X52884246Y-38710447D01*
X53009969Y-38721224D01*
X53137489Y-38715836D01*
X53259620Y-38701467D01*
X53385344Y-38672730D01*
X53435633Y-38654770D01*
X53559561Y-38606277D01*
X53674508Y-38545211D01*
X53778679Y-38473369D01*
X53875666Y-38390750D01*
X53961876Y-38297356D01*
X54019350Y-38221922D01*
X54082212Y-38119547D01*
X54137889Y-38009988D01*
X54182791Y-37893244D01*
X54215120Y-37774705D01*
X54234876Y-37654369D01*
X54242060Y-37525054D01*
X54236672Y-37401126D01*
X54218712Y-37275403D01*
X54189975Y-37153271D01*
X54148666Y-37036528D01*
X54094784Y-36925173D01*
X54030126Y-36821002D01*
X53956488Y-36722219D01*
X53872074Y-36634212D01*
X54868882Y-37631021D01*
X54867086Y-37679514D01*
X54865290Y-37699271D01*
X54840145Y-37857323D01*
X54802428Y-38013580D01*
X54752139Y-38164448D01*
X54689277Y-38309928D01*
X54612047Y-38448224D01*
X54525836Y-38581132D01*
X54425258Y-38706855D01*
X54317495Y-38818211D01*
X54290554Y-38845151D01*
X54265409Y-38870296D01*
X54242060Y-38890053D01*
X54227692Y-38904421D01*
X54225896Y-38906217D01*
X54096580Y-39006796D01*
X53960080Y-39096599D01*
X53819988Y-39172033D01*
X53676304Y-39233098D01*
X53525436Y-39283388D01*
X53372772Y-39321105D01*
X53214719Y-39342658D01*
X53191370Y-39344454D01*
X53033318Y-39351638D01*
X52875265Y-39344454D01*
X52720805Y-39322901D01*
X52566345Y-39290572D01*
X52419068Y-39243875D01*
X52273588Y-39184605D01*
X52133496Y-39112763D01*
X52000588Y-39026553D01*
X51876661Y-38934954D01*
X51812003Y-38877480D01*
X51745549Y-38811026D01*
X51679095Y-38740980D01*
X51614437Y-38669138D01*
X51556964Y-38597296D01*
X51504878Y-38527250D01*
X51479734Y-38491329D01*
X51400707Y-38354829D01*
X51334253Y-38212941D01*
X51280372Y-38065665D01*
X51240859Y-37918389D01*
X51212122Y-37767521D01*
X51197754Y-37616652D01*
X51195958Y-37463988D01*
X51208530Y-37311324D01*
X51230082Y-37160455D01*
X51267800Y-37011383D01*
X51316293Y-36865903D01*
X51375563Y-36724015D01*
X51450997Y-36587515D01*
X51497694Y-36512081D01*
X51535411Y-36456403D01*
X51571332Y-36409706D01*
X51607253Y-36363009D01*
X51644970Y-36318107D01*
X51691668Y-36271410D01*
X51741957Y-36217528D01*
X51851516Y-36115153D01*
X51962871Y-36025351D01*
X52076023Y-35948121D01*
X52192766Y-35881667D01*
X52318490Y-35820601D01*
X52451397Y-35770312D01*
X52481930Y-35761331D01*
X52631002Y-35720022D01*
X52785463Y-35691285D01*
X52939923Y-35676917D01*
X53092588Y-35675121D01*
X53245252Y-35684101D01*
X53396120Y-35709246D01*
X53546989Y-35745167D01*
X53692469Y-35797252D01*
X53834357Y-35856522D01*
X53970857Y-35931956D01*
X54100172Y-36018167D01*
X54152258Y-36059476D01*
X54195363Y-36095397D01*
X54243856Y-36136706D01*
X54294146Y-36186996D01*
X54346231Y-36239081D01*
G04 #@! TD*
M02*
