G04 #@! TF.GenerationSoftware,KiCad,Pcbnew,5.0.0*
G04 #@! TF.CreationDate,2019-07-11T02:24:03-06:00*
G04 #@! TF.ProjectId,woose-tracker,776F6F73652D747261636B65722E6B69,1*
G04 #@! TF.SameCoordinates,Original*
G04 #@! TF.FileFunction,Copper,L1,Top,Plane*
G04 #@! TF.FilePolarity,Positive*
%FSLAX46Y46*%
G04 Gerber Fmt 4.6, Leading zero omitted, Abs format (unit mm)*
G04 Created by KiCad (PCBNEW 5.0.0) date Thu Jul 11 02:24:03 2019*
%MOMM*%
%LPD*%
G01*
G04 APERTURE LIST*
G04 #@! TA.AperFunction,Conductor*
%ADD10C,1.000000*%
G04 #@! TD*
G04 #@! TA.AperFunction,Conductor*
%ADD11C,0.100000*%
G04 #@! TD*
G04 #@! TA.AperFunction,Conductor*
%ADD12C,7.000000*%
G04 #@! TD*
G04 #@! TA.AperFunction,Conductor*
%ADD13C,7.500000*%
G04 #@! TD*
G04 #@! TA.AperFunction,ViaPad*
%ADD14C,0.354000*%
G04 #@! TD*
G04 #@! TA.AperFunction,Conductor*
%ADD15C,0.200000*%
G04 #@! TD*
G04 #@! TA.AperFunction,Conductor*
%ADD16C,0.160000*%
G04 #@! TD*
%ADD17C,0.160000*%
G04 APERTURE END LIST*
D10*
G04 #@! TO.N,/cap11*
G04 #@! TO.C,J1*
X51863080Y-59407960D03*
D11*
G36*
X56863080Y-59407960D02*
X52863080Y-64407960D01*
X50363080Y-64407960D01*
X50361875Y-64406755D01*
X50314012Y-64406755D01*
X50216350Y-64397137D01*
X50120100Y-64377991D01*
X50026190Y-64349504D01*
X49935525Y-64311949D01*
X49848977Y-64265689D01*
X49767381Y-64211168D01*
X49691521Y-64148911D01*
X49622129Y-64079519D01*
X49559872Y-64003659D01*
X49505351Y-63922063D01*
X49459091Y-63835515D01*
X49421536Y-63744850D01*
X49393049Y-63650940D01*
X49373903Y-63554690D01*
X49364285Y-63457028D01*
X49364285Y-63409165D01*
X49363080Y-63407960D01*
X49363080Y-55407960D01*
X49364285Y-55406755D01*
X49364285Y-55358892D01*
X49373903Y-55261230D01*
X49393049Y-55164980D01*
X49421536Y-55071070D01*
X49459091Y-54980405D01*
X49505351Y-54893857D01*
X49559872Y-54812261D01*
X49622129Y-54736401D01*
X49691521Y-54667009D01*
X49767381Y-54604752D01*
X49848977Y-54550231D01*
X49935525Y-54503971D01*
X50026190Y-54466416D01*
X50120100Y-54437929D01*
X50216350Y-54418783D01*
X50314012Y-54409165D01*
X50361875Y-54409165D01*
X50363080Y-54407960D01*
X52863080Y-54407960D01*
X56863080Y-59407960D01*
X56863080Y-59407960D01*
G37*
D10*
G04 #@! TO.N,/cap10*
X58863080Y-59407960D03*
D11*
G36*
X63863080Y-59407960D02*
X59863080Y-64407960D01*
X53863080Y-64407960D01*
X57863080Y-59407960D01*
X53863080Y-54407960D01*
X59863080Y-54407960D01*
X63863080Y-59407960D01*
X63863080Y-59407960D01*
G37*
D10*
G04 #@! TO.N,/cap9*
X65863080Y-59407960D03*
D11*
G36*
X70863080Y-59407960D02*
X66863080Y-64407960D01*
X60863080Y-64407960D01*
X64863080Y-59407960D01*
X60863080Y-54407960D01*
X66863080Y-54407960D01*
X70863080Y-59407960D01*
X70863080Y-59407960D01*
G37*
D10*
G04 #@! TO.N,/cap8*
X72863080Y-59407960D03*
D11*
G36*
X77863080Y-59407960D02*
X73863080Y-64407960D01*
X67863080Y-64407960D01*
X71863080Y-59407960D01*
X67863080Y-54407960D01*
X73863080Y-54407960D01*
X77863080Y-59407960D01*
X77863080Y-59407960D01*
G37*
D10*
G04 #@! TO.N,/cap7*
X79863080Y-59407960D03*
D11*
G36*
X84863080Y-59407960D02*
X80863080Y-64407960D01*
X74863080Y-64407960D01*
X78863080Y-59407960D01*
X74863080Y-54407960D01*
X80863080Y-54407960D01*
X84863080Y-59407960D01*
X84863080Y-59407960D01*
G37*
G04 #@! TO.N,/cap1*
G36*
X77968916Y-35418072D02*
X78172770Y-35448311D01*
X78372678Y-35498385D01*
X78566715Y-35567813D01*
X78753013Y-35655925D01*
X78929777Y-35761874D01*
X79095306Y-35884638D01*
X79248004Y-36023036D01*
X79386402Y-36175734D01*
X79509166Y-36341263D01*
X79615115Y-36518027D01*
X79703227Y-36704325D01*
X79772655Y-36898362D01*
X79822729Y-37098270D01*
X79852968Y-37302124D01*
X79863080Y-37507960D01*
X79863080Y-40307960D01*
X79852968Y-40513796D01*
X79822729Y-40717650D01*
X79772655Y-40917558D01*
X79703227Y-41111595D01*
X79615115Y-41297893D01*
X79509166Y-41474657D01*
X79386402Y-41640186D01*
X79248004Y-41792884D01*
X79095306Y-41931282D01*
X78929777Y-42054046D01*
X78753013Y-42159995D01*
X78566715Y-42248107D01*
X78372678Y-42317535D01*
X78172770Y-42367609D01*
X77968916Y-42397848D01*
X77763080Y-42407960D01*
X74963080Y-42407960D01*
X74757244Y-42397848D01*
X74553390Y-42367609D01*
X74353482Y-42317535D01*
X74159445Y-42248107D01*
X73973147Y-42159995D01*
X73796383Y-42054046D01*
X73630854Y-41931282D01*
X73478156Y-41792884D01*
X73339758Y-41640186D01*
X73216994Y-41474657D01*
X73111045Y-41297893D01*
X73022933Y-41111595D01*
X72953505Y-40917558D01*
X72903431Y-40717650D01*
X72873192Y-40513796D01*
X72863080Y-40307960D01*
X72863080Y-37507960D01*
X72873192Y-37302124D01*
X72903431Y-37098270D01*
X72953505Y-36898362D01*
X73022933Y-36704325D01*
X73111045Y-36518027D01*
X73216994Y-36341263D01*
X73339758Y-36175734D01*
X73478156Y-36023036D01*
X73630854Y-35884638D01*
X73796383Y-35761874D01*
X73973147Y-35655925D01*
X74159445Y-35567813D01*
X74353482Y-35498385D01*
X74553390Y-35448311D01*
X74757244Y-35418072D01*
X74963080Y-35407960D01*
X77763080Y-35407960D01*
X77968916Y-35418072D01*
X77968916Y-35418072D01*
G37*
D12*
X76363080Y-38907960D03*
D11*
G04 #@! TO.N,/cap4*
G36*
X77968916Y-44418072D02*
X78172770Y-44448311D01*
X78372678Y-44498385D01*
X78566715Y-44567813D01*
X78753013Y-44655925D01*
X78929777Y-44761874D01*
X79095306Y-44884638D01*
X79248004Y-45023036D01*
X79386402Y-45175734D01*
X79509166Y-45341263D01*
X79615115Y-45518027D01*
X79703227Y-45704325D01*
X79772655Y-45898362D01*
X79822729Y-46098270D01*
X79852968Y-46302124D01*
X79863080Y-46507960D01*
X79863080Y-49307960D01*
X79852968Y-49513796D01*
X79822729Y-49717650D01*
X79772655Y-49917558D01*
X79703227Y-50111595D01*
X79615115Y-50297893D01*
X79509166Y-50474657D01*
X79386402Y-50640186D01*
X79248004Y-50792884D01*
X79095306Y-50931282D01*
X78929777Y-51054046D01*
X78753013Y-51159995D01*
X78566715Y-51248107D01*
X78372678Y-51317535D01*
X78172770Y-51367609D01*
X77968916Y-51397848D01*
X77763080Y-51407960D01*
X74963080Y-51407960D01*
X74757244Y-51397848D01*
X74553390Y-51367609D01*
X74353482Y-51317535D01*
X74159445Y-51248107D01*
X73973147Y-51159995D01*
X73796383Y-51054046D01*
X73630854Y-50931282D01*
X73478156Y-50792884D01*
X73339758Y-50640186D01*
X73216994Y-50474657D01*
X73111045Y-50297893D01*
X73022933Y-50111595D01*
X72953505Y-49917558D01*
X72903431Y-49717650D01*
X72873192Y-49513796D01*
X72863080Y-49307960D01*
X72863080Y-46507960D01*
X72873192Y-46302124D01*
X72903431Y-46098270D01*
X72953505Y-45898362D01*
X73022933Y-45704325D01*
X73111045Y-45518027D01*
X73216994Y-45341263D01*
X73339758Y-45175734D01*
X73478156Y-45023036D01*
X73630854Y-44884638D01*
X73796383Y-44761874D01*
X73973147Y-44655925D01*
X74159445Y-44567813D01*
X74353482Y-44498385D01*
X74553390Y-44448311D01*
X74757244Y-44418072D01*
X74963080Y-44407960D01*
X77763080Y-44407960D01*
X77968916Y-44418072D01*
X77968916Y-44418072D01*
G37*
D12*
X76363080Y-47907960D03*
D11*
G04 #@! TO.N,/cap5*
G36*
X68968916Y-44418072D02*
X69172770Y-44448311D01*
X69372678Y-44498385D01*
X69566715Y-44567813D01*
X69753013Y-44655925D01*
X69929777Y-44761874D01*
X70095306Y-44884638D01*
X70248004Y-45023036D01*
X70386402Y-45175734D01*
X70509166Y-45341263D01*
X70615115Y-45518027D01*
X70703227Y-45704325D01*
X70772655Y-45898362D01*
X70822729Y-46098270D01*
X70852968Y-46302124D01*
X70863080Y-46507960D01*
X70863080Y-49307960D01*
X70852968Y-49513796D01*
X70822729Y-49717650D01*
X70772655Y-49917558D01*
X70703227Y-50111595D01*
X70615115Y-50297893D01*
X70509166Y-50474657D01*
X70386402Y-50640186D01*
X70248004Y-50792884D01*
X70095306Y-50931282D01*
X69929777Y-51054046D01*
X69753013Y-51159995D01*
X69566715Y-51248107D01*
X69372678Y-51317535D01*
X69172770Y-51367609D01*
X68968916Y-51397848D01*
X68763080Y-51407960D01*
X65963080Y-51407960D01*
X65757244Y-51397848D01*
X65553390Y-51367609D01*
X65353482Y-51317535D01*
X65159445Y-51248107D01*
X64973147Y-51159995D01*
X64796383Y-51054046D01*
X64630854Y-50931282D01*
X64478156Y-50792884D01*
X64339758Y-50640186D01*
X64216994Y-50474657D01*
X64111045Y-50297893D01*
X64022933Y-50111595D01*
X63953505Y-49917558D01*
X63903431Y-49717650D01*
X63873192Y-49513796D01*
X63863080Y-49307960D01*
X63863080Y-46507960D01*
X63873192Y-46302124D01*
X63903431Y-46098270D01*
X63953505Y-45898362D01*
X64022933Y-45704325D01*
X64111045Y-45518027D01*
X64216994Y-45341263D01*
X64339758Y-45175734D01*
X64478156Y-45023036D01*
X64630854Y-44884638D01*
X64796383Y-44761874D01*
X64973147Y-44655925D01*
X65159445Y-44567813D01*
X65353482Y-44498385D01*
X65553390Y-44448311D01*
X65757244Y-44418072D01*
X65963080Y-44407960D01*
X68763080Y-44407960D01*
X68968916Y-44418072D01*
X68968916Y-44418072D01*
G37*
D12*
X67363080Y-47907960D03*
D11*
G04 #@! TO.N,/cap3*
G36*
X86968916Y-44418072D02*
X87172770Y-44448311D01*
X87372678Y-44498385D01*
X87566715Y-44567813D01*
X87753013Y-44655925D01*
X87929777Y-44761874D01*
X88095306Y-44884638D01*
X88248004Y-45023036D01*
X88386402Y-45175734D01*
X88509166Y-45341263D01*
X88615115Y-45518027D01*
X88703227Y-45704325D01*
X88772655Y-45898362D01*
X88822729Y-46098270D01*
X88852968Y-46302124D01*
X88863080Y-46507960D01*
X88863080Y-49307960D01*
X88852968Y-49513796D01*
X88822729Y-49717650D01*
X88772655Y-49917558D01*
X88703227Y-50111595D01*
X88615115Y-50297893D01*
X88509166Y-50474657D01*
X88386402Y-50640186D01*
X88248004Y-50792884D01*
X88095306Y-50931282D01*
X87929777Y-51054046D01*
X87753013Y-51159995D01*
X87566715Y-51248107D01*
X87372678Y-51317535D01*
X87172770Y-51367609D01*
X86968916Y-51397848D01*
X86763080Y-51407960D01*
X83963080Y-51407960D01*
X83757244Y-51397848D01*
X83553390Y-51367609D01*
X83353482Y-51317535D01*
X83159445Y-51248107D01*
X82973147Y-51159995D01*
X82796383Y-51054046D01*
X82630854Y-50931282D01*
X82478156Y-50792884D01*
X82339758Y-50640186D01*
X82216994Y-50474657D01*
X82111045Y-50297893D01*
X82022933Y-50111595D01*
X81953505Y-49917558D01*
X81903431Y-49717650D01*
X81873192Y-49513796D01*
X81863080Y-49307960D01*
X81863080Y-46507960D01*
X81873192Y-46302124D01*
X81903431Y-46098270D01*
X81953505Y-45898362D01*
X82022933Y-45704325D01*
X82111045Y-45518027D01*
X82216994Y-45341263D01*
X82339758Y-45175734D01*
X82478156Y-45023036D01*
X82630854Y-44884638D01*
X82796383Y-44761874D01*
X82973147Y-44655925D01*
X83159445Y-44567813D01*
X83353482Y-44498385D01*
X83553390Y-44448311D01*
X83757244Y-44418072D01*
X83963080Y-44407960D01*
X86763080Y-44407960D01*
X86968916Y-44418072D01*
X86968916Y-44418072D01*
G37*
D12*
X85363080Y-47907960D03*
D11*
G04 #@! TO.N,/cap2*
G36*
X87133619Y-35118794D02*
X87352033Y-35151193D01*
X87566221Y-35204844D01*
X87774118Y-35279231D01*
X87973723Y-35373637D01*
X88163113Y-35487153D01*
X88340465Y-35618686D01*
X88504070Y-35766970D01*
X88652354Y-35930575D01*
X88783887Y-36107927D01*
X88897403Y-36297317D01*
X88991809Y-36496922D01*
X89066196Y-36704819D01*
X89119847Y-36919007D01*
X89152246Y-37137421D01*
X89163080Y-37357960D01*
X89163080Y-40357960D01*
X89152246Y-40578499D01*
X89119847Y-40796913D01*
X89066196Y-41011101D01*
X88991809Y-41218998D01*
X88897403Y-41418603D01*
X88783887Y-41607993D01*
X88652354Y-41785345D01*
X88504070Y-41948950D01*
X88340465Y-42097234D01*
X88163113Y-42228767D01*
X87973723Y-42342283D01*
X87774118Y-42436689D01*
X87566221Y-42511076D01*
X87352033Y-42564727D01*
X87133619Y-42597126D01*
X86913080Y-42607960D01*
X83913080Y-42607960D01*
X83692541Y-42597126D01*
X83474127Y-42564727D01*
X83259939Y-42511076D01*
X83052042Y-42436689D01*
X82852437Y-42342283D01*
X82663047Y-42228767D01*
X82485695Y-42097234D01*
X82322090Y-41948950D01*
X82173806Y-41785345D01*
X82042273Y-41607993D01*
X81928757Y-41418603D01*
X81834351Y-41218998D01*
X81759964Y-41011101D01*
X81706313Y-40796913D01*
X81673914Y-40578499D01*
X81663080Y-40357960D01*
X81663080Y-37357960D01*
X81673914Y-37137421D01*
X81706313Y-36919007D01*
X81759964Y-36704819D01*
X81834351Y-36496922D01*
X81928757Y-36297317D01*
X82042273Y-36107927D01*
X82173806Y-35930575D01*
X82322090Y-35766970D01*
X82485695Y-35618686D01*
X82663047Y-35487153D01*
X82852437Y-35373637D01*
X83052042Y-35279231D01*
X83259939Y-35204844D01*
X83474127Y-35151193D01*
X83692541Y-35118794D01*
X83913080Y-35107960D01*
X86913080Y-35107960D01*
X87133619Y-35118794D01*
X87133619Y-35118794D01*
G37*
D13*
X85413080Y-38857960D03*
D11*
G04 #@! TO.N,/cap0*
G36*
X69033619Y-35118794D02*
X69252033Y-35151193D01*
X69466221Y-35204844D01*
X69674118Y-35279231D01*
X69873723Y-35373637D01*
X70063113Y-35487153D01*
X70240465Y-35618686D01*
X70404070Y-35766970D01*
X70552354Y-35930575D01*
X70683887Y-36107927D01*
X70797403Y-36297317D01*
X70891809Y-36496922D01*
X70966196Y-36704819D01*
X71019847Y-36919007D01*
X71052246Y-37137421D01*
X71063080Y-37357960D01*
X71063080Y-40357960D01*
X71052246Y-40578499D01*
X71019847Y-40796913D01*
X70966196Y-41011101D01*
X70891809Y-41218998D01*
X70797403Y-41418603D01*
X70683887Y-41607993D01*
X70552354Y-41785345D01*
X70404070Y-41948950D01*
X70240465Y-42097234D01*
X70063113Y-42228767D01*
X69873723Y-42342283D01*
X69674118Y-42436689D01*
X69466221Y-42511076D01*
X69252033Y-42564727D01*
X69033619Y-42597126D01*
X68813080Y-42607960D01*
X65813080Y-42607960D01*
X65592541Y-42597126D01*
X65374127Y-42564727D01*
X65159939Y-42511076D01*
X64952042Y-42436689D01*
X64752437Y-42342283D01*
X64563047Y-42228767D01*
X64385695Y-42097234D01*
X64222090Y-41948950D01*
X64073806Y-41785345D01*
X63942273Y-41607993D01*
X63828757Y-41418603D01*
X63734351Y-41218998D01*
X63659964Y-41011101D01*
X63606313Y-40796913D01*
X63573914Y-40578499D01*
X63563080Y-40357960D01*
X63563080Y-37357960D01*
X63573914Y-37137421D01*
X63606313Y-36919007D01*
X63659964Y-36704819D01*
X63734351Y-36496922D01*
X63828757Y-36297317D01*
X63942273Y-36107927D01*
X64073806Y-35930575D01*
X64222090Y-35766970D01*
X64385695Y-35618686D01*
X64563047Y-35487153D01*
X64752437Y-35373637D01*
X64952042Y-35279231D01*
X65159939Y-35204844D01*
X65374127Y-35151193D01*
X65592541Y-35118794D01*
X65813080Y-35107960D01*
X68813080Y-35107960D01*
X69033619Y-35118794D01*
X69033619Y-35118794D01*
G37*
D13*
X67313080Y-38857960D03*
D10*
G04 #@! TO.N,/cap6*
X86863080Y-59407960D03*
D11*
G36*
X88864285Y-54409165D02*
X88912148Y-54409165D01*
X89009810Y-54418783D01*
X89106060Y-54437929D01*
X89199970Y-54466416D01*
X89290635Y-54503971D01*
X89377183Y-54550231D01*
X89458779Y-54604752D01*
X89534639Y-54667009D01*
X89604031Y-54736401D01*
X89666288Y-54812261D01*
X89720809Y-54893857D01*
X89767069Y-54980405D01*
X89804624Y-55071070D01*
X89833111Y-55164980D01*
X89852257Y-55261230D01*
X89861875Y-55358892D01*
X89861875Y-55406755D01*
X89863080Y-55407960D01*
X89863080Y-63407960D01*
X89861875Y-63409165D01*
X89861875Y-63457028D01*
X89852257Y-63554690D01*
X89833111Y-63650940D01*
X89804624Y-63744850D01*
X89767069Y-63835515D01*
X89720809Y-63922063D01*
X89666288Y-64003659D01*
X89604031Y-64079519D01*
X89534639Y-64148911D01*
X89458779Y-64211168D01*
X89377183Y-64265689D01*
X89290635Y-64311949D01*
X89199970Y-64349504D01*
X89106060Y-64377991D01*
X89009810Y-64397137D01*
X88912148Y-64406755D01*
X88864285Y-64406755D01*
X88863080Y-64407960D01*
X81863080Y-64407960D01*
X85863080Y-59407960D01*
X81863080Y-54407960D01*
X88863080Y-54407960D01*
X88864285Y-54409165D01*
X88864285Y-54409165D01*
G37*
G04 #@! TD*
D14*
G04 #@! TO.N,/VCC*
X59563000Y-38608000D03*
X57962800Y-48412400D03*
X71945500Y-42926000D03*
G04 #@! TO.N,GND*
X60706000Y-40005000D03*
G04 #@! TO.N,/I2C_SDA*
X58623200Y-46482000D03*
X71691500Y-52768500D03*
G04 #@! TO.N,/I2C_SCL*
X58775600Y-48056800D03*
X67246500Y-52768500D03*
G04 #@! TO.N,/~Touch_Reset*
X61214000Y-40386000D03*
X61277500Y-36131500D03*
G04 #@! TO.N,/~Touch_IRQ*
X59740800Y-47244000D03*
X72326500Y-52768500D03*
G04 #@! TO.N,/cap3*
X85344000Y-47752000D03*
G04 #@! TO.N,/cap7*
X79858000Y-59220000D03*
G04 #@! TO.N,/cap8*
X72834500Y-59182000D03*
G04 #@! TO.N,/cap9*
X65858000Y-59220000D03*
G04 #@! TO.N,/cap10*
X58864500Y-59245500D03*
G04 #@! TO.N,/cap0*
X64262000Y-38100000D03*
G04 #@! TO.N,/cap5*
X68897500Y-45085000D03*
G04 #@! TO.N,/cap2*
X84582000Y-40132000D03*
G04 #@! TO.N,/cap4*
X76454000Y-47752000D03*
G04 #@! TO.N,/cap1*
X76454000Y-38862000D03*
G04 #@! TO.N,/cap6*
X86868000Y-59182000D03*
G04 #@! TO.N,/cap11*
X51879500Y-59182000D03*
G04 #@! TD*
D15*
G04 #@! TO.N,/cap3*
X85358000Y-47738000D02*
X85358000Y-47720000D01*
X85344000Y-47752000D02*
X85358000Y-47738000D01*
G04 #@! TO.N,/cap8*
X72858000Y-59205500D02*
X72858000Y-59220000D01*
X72834500Y-59182000D02*
X72858000Y-59205500D01*
G04 #@! TO.N,/cap10*
X58858000Y-59239000D02*
X58858000Y-59220000D01*
X58864500Y-59245500D02*
X58858000Y-59239000D01*
G04 #@! TO.N,/cap0*
X64882000Y-38720000D02*
X67358000Y-38720000D01*
X64262000Y-38100000D02*
X64882000Y-38720000D01*
G04 #@! TO.N,/cap5*
X67358000Y-46624500D02*
X67358000Y-47720000D01*
X68897500Y-45085000D02*
X67358000Y-46624500D01*
G04 #@! TO.N,/cap2*
X85358000Y-39356000D02*
X85358000Y-38720000D01*
X84582000Y-40132000D02*
X85358000Y-39356000D01*
G04 #@! TO.N,/cap4*
X76422000Y-47720000D02*
X76358000Y-47720000D01*
X76454000Y-47752000D02*
X76422000Y-47720000D01*
G04 #@! TO.N,/cap1*
X76358000Y-38766000D02*
X76358000Y-38720000D01*
X76454000Y-38862000D02*
X76358000Y-38766000D01*
G04 #@! TO.N,/cap6*
X86858000Y-59192000D02*
X86858000Y-59220000D01*
X86868000Y-59182000D02*
X86858000Y-59192000D01*
G04 #@! TO.N,/cap11*
X51858000Y-59203500D02*
X51858000Y-59220000D01*
X51879500Y-59182000D02*
X51858000Y-59203500D01*
G04 #@! TD*
D16*
G04 #@! TO.N,GND*
X50303691Y-33335000D02*
X88877556Y-33335000D01*
X49604123Y-33487000D02*
X89556733Y-33487000D01*
X49352933Y-33639000D02*
X89859063Y-33639000D01*
X49139165Y-33791000D02*
X90035468Y-33791000D01*
X49008193Y-33943000D02*
X90202854Y-33943000D01*
X48877222Y-34095000D02*
X90301375Y-34095000D01*
X48794412Y-34247000D02*
X90399897Y-34247000D01*
X48725302Y-34399000D02*
X65122828Y-34399000D01*
X69503333Y-34399000D02*
X83222828Y-34399000D01*
X87603333Y-34399000D02*
X90475430Y-34399000D01*
X48656192Y-34551000D02*
X64547959Y-34551000D01*
X70078202Y-34551000D02*
X82647959Y-34551000D01*
X88178202Y-34551000D02*
X90520887Y-34551000D01*
X48628195Y-34703000D02*
X64320475Y-34703000D01*
X70305686Y-34703000D02*
X74252718Y-34703000D01*
X78473443Y-34703000D02*
X82420475Y-34703000D01*
X88405686Y-34703000D02*
X90566345Y-34703000D01*
X48606427Y-34855000D02*
X64092991Y-34855000D01*
X70533170Y-34855000D02*
X73732286Y-34855000D01*
X78993875Y-34855000D02*
X82192991Y-34855000D01*
X88633170Y-34855000D02*
X90601491Y-34855000D01*
X48584658Y-35007000D02*
X63865507Y-35007000D01*
X70760654Y-35007000D02*
X73504802Y-35007000D01*
X79221359Y-35007000D02*
X81965507Y-35007000D01*
X88860654Y-35007000D02*
X90612787Y-35007000D01*
X48575000Y-35159000D02*
X63638023Y-35159000D01*
X70988138Y-35159000D02*
X73277319Y-35159000D01*
X79448842Y-35159000D02*
X81738023Y-35159000D01*
X89088138Y-35159000D02*
X90617001Y-35159000D01*
X48575000Y-35311000D02*
X63528528Y-35311000D01*
X71097633Y-35311000D02*
X73049835Y-35311000D01*
X79676326Y-35311000D02*
X81628528Y-35311000D01*
X89197633Y-35311000D02*
X90617001Y-35311000D01*
X48575000Y-35463000D02*
X63426965Y-35463000D01*
X71199196Y-35463000D02*
X72854129Y-35463000D01*
X79872032Y-35463000D02*
X81526965Y-35463000D01*
X89299196Y-35463000D02*
X90617001Y-35463000D01*
X48575000Y-35615000D02*
X63325402Y-35615000D01*
X71300759Y-35615000D02*
X72752566Y-35615000D01*
X79973595Y-35615000D02*
X81425402Y-35615000D01*
X89400759Y-35615000D02*
X90617001Y-35615000D01*
X48575000Y-35767000D02*
X61067806Y-35767000D01*
X61487195Y-35767000D02*
X63223839Y-35767000D01*
X71402322Y-35767000D02*
X72651003Y-35767000D01*
X80075158Y-35767000D02*
X81323839Y-35767000D01*
X89502322Y-35767000D02*
X90617001Y-35767000D01*
X48575000Y-35919000D02*
X60914163Y-35919000D01*
X61640838Y-35919000D02*
X63122276Y-35919000D01*
X71503885Y-35919000D02*
X72549439Y-35919000D01*
X80176722Y-35919000D02*
X81222276Y-35919000D01*
X89603885Y-35919000D02*
X90617001Y-35919000D01*
X48575000Y-36071000D02*
X60860500Y-36071000D01*
X61694500Y-36071000D02*
X63020713Y-36071000D01*
X71605448Y-36071000D02*
X72447876Y-36071000D01*
X80278285Y-36071000D02*
X81120713Y-36071000D01*
X89705448Y-36071000D02*
X90617001Y-36071000D01*
X48575000Y-36223000D02*
X60864042Y-36223000D01*
X61690957Y-36223000D02*
X62942578Y-36223000D01*
X71683583Y-36223000D02*
X72346313Y-36223000D01*
X80379848Y-36223000D02*
X81042578Y-36223000D01*
X89783583Y-36223000D02*
X90617001Y-36223000D01*
X48575000Y-36375000D02*
X60931272Y-36375000D01*
X61623728Y-36375000D02*
X62912344Y-36375000D01*
X71713817Y-36375000D02*
X72244750Y-36375000D01*
X80481411Y-36375000D02*
X81012344Y-36375000D01*
X89813817Y-36375000D02*
X90617001Y-36375000D01*
X48575000Y-36527000D02*
X61142647Y-36527000D01*
X61412352Y-36527000D02*
X62882109Y-36527000D01*
X71744052Y-36527000D02*
X72211946Y-36527000D01*
X80514215Y-36527000D02*
X80982109Y-36527000D01*
X89844052Y-36527000D02*
X90617001Y-36527000D01*
X48575000Y-36679000D02*
X62851874Y-36679000D01*
X71774287Y-36679000D02*
X72181711Y-36679000D01*
X80544450Y-36679000D02*
X80951874Y-36679000D01*
X89874287Y-36679000D02*
X90617001Y-36679000D01*
X48575000Y-36831000D02*
X62821640Y-36831000D01*
X71804521Y-36831000D02*
X72151476Y-36831000D01*
X80574685Y-36831000D02*
X80921640Y-36831000D01*
X89904521Y-36831000D02*
X90617001Y-36831000D01*
X48575000Y-36983000D02*
X62791405Y-36983000D01*
X71834756Y-36983000D02*
X72121242Y-36983000D01*
X80604920Y-36983000D02*
X80891405Y-36983000D01*
X89934756Y-36983000D02*
X90617001Y-36983000D01*
X48575000Y-37135000D02*
X62761170Y-37135000D01*
X71864991Y-37135000D02*
X72091007Y-37135000D01*
X80635155Y-37135000D02*
X80861170Y-37135000D01*
X89964991Y-37135000D02*
X90617001Y-37135000D01*
X48575000Y-37287000D02*
X62730935Y-37287000D01*
X71895226Y-37287000D02*
X72060772Y-37287000D01*
X80665390Y-37287000D02*
X80830935Y-37287000D01*
X89995226Y-37287000D02*
X90617001Y-37287000D01*
X48575000Y-37439000D02*
X62716820Y-37439000D01*
X71909340Y-37439000D02*
X72030538Y-37439000D01*
X80695624Y-37439000D02*
X80816820Y-37439000D01*
X90009340Y-37439000D02*
X90617001Y-37439000D01*
X48575000Y-37591000D02*
X62716820Y-37591000D01*
X71909340Y-37591000D02*
X72016820Y-37591000D01*
X80709340Y-37591000D02*
X80816820Y-37591000D01*
X90009340Y-37591000D02*
X90617001Y-37591000D01*
X48575000Y-37743000D02*
X62716820Y-37743000D01*
X71909340Y-37743000D02*
X72016820Y-37743000D01*
X80709340Y-37743000D02*
X80816820Y-37743000D01*
X90009340Y-37743000D02*
X90617001Y-37743000D01*
X48575000Y-37895000D02*
X62716820Y-37895000D01*
X71909340Y-37895000D02*
X72016820Y-37895000D01*
X80709340Y-37895000D02*
X80816820Y-37895000D01*
X90009340Y-37895000D02*
X90617001Y-37895000D01*
X48575000Y-38047000D02*
X62716820Y-38047000D01*
X71909340Y-38047000D02*
X72016820Y-38047000D01*
X80709340Y-38047000D02*
X80816820Y-38047000D01*
X90009340Y-38047000D02*
X90617001Y-38047000D01*
X48575000Y-38199000D02*
X59460740Y-38199000D01*
X59665261Y-38199000D02*
X62716820Y-38199000D01*
X71909340Y-38199000D02*
X72016820Y-38199000D01*
X80709340Y-38199000D02*
X80816820Y-38199000D01*
X90009340Y-38199000D02*
X90617001Y-38199000D01*
X48575000Y-38351000D02*
X59230272Y-38351000D01*
X59895728Y-38351000D02*
X62716820Y-38351000D01*
X71909340Y-38351000D02*
X72016820Y-38351000D01*
X80709340Y-38351000D02*
X80816820Y-38351000D01*
X90009340Y-38351000D02*
X90617001Y-38351000D01*
X48575000Y-38503000D02*
X59155135Y-38503000D01*
X59970866Y-38503000D02*
X62716820Y-38503000D01*
X71909340Y-38503000D02*
X72016820Y-38503000D01*
X80709340Y-38503000D02*
X80816820Y-38503000D01*
X90009340Y-38503000D02*
X90617001Y-38503000D01*
X48575000Y-38655000D02*
X59146000Y-38655000D01*
X59980000Y-38655000D02*
X62716820Y-38655000D01*
X71909340Y-38655000D02*
X72016820Y-38655000D01*
X80709340Y-38655000D02*
X80816820Y-38655000D01*
X90009340Y-38655000D02*
X90617001Y-38655000D01*
X48575000Y-38807000D02*
X59194070Y-38807000D01*
X59931929Y-38807000D02*
X62716820Y-38807000D01*
X71909340Y-38807000D02*
X72016820Y-38807000D01*
X80709340Y-38807000D02*
X80816820Y-38807000D01*
X90009340Y-38807000D02*
X90617001Y-38807000D01*
X48575000Y-38959000D02*
X59324272Y-38959000D01*
X59801728Y-38959000D02*
X62716820Y-38959000D01*
X71909340Y-38959000D02*
X72016820Y-38959000D01*
X80709340Y-38959000D02*
X80816820Y-38959000D01*
X90009340Y-38959000D02*
X90617001Y-38959000D01*
X48575000Y-39111000D02*
X62716820Y-39111000D01*
X71909340Y-39111000D02*
X72016820Y-39111000D01*
X80709340Y-39111000D02*
X80816820Y-39111000D01*
X90009340Y-39111000D02*
X90617001Y-39111000D01*
X48575000Y-39263000D02*
X62716820Y-39263000D01*
X71909340Y-39263000D02*
X72016820Y-39263000D01*
X80709340Y-39263000D02*
X80816820Y-39263000D01*
X90009340Y-39263000D02*
X90617001Y-39263000D01*
X48575000Y-39415000D02*
X62716820Y-39415000D01*
X71909340Y-39415000D02*
X72016820Y-39415000D01*
X80709340Y-39415000D02*
X80816820Y-39415000D01*
X90009340Y-39415000D02*
X90617001Y-39415000D01*
X48575000Y-39567000D02*
X62716820Y-39567000D01*
X71909340Y-39567000D02*
X72016820Y-39567000D01*
X80709340Y-39567000D02*
X80816820Y-39567000D01*
X90009340Y-39567000D02*
X90617001Y-39567000D01*
X48575000Y-39719000D02*
X62716820Y-39719000D01*
X71909340Y-39719000D02*
X72016820Y-39719000D01*
X80709340Y-39719000D02*
X80816820Y-39719000D01*
X90009340Y-39719000D02*
X90617001Y-39719000D01*
X48575000Y-39871000D02*
X62716820Y-39871000D01*
X71909340Y-39871000D02*
X72016820Y-39871000D01*
X80709340Y-39871000D02*
X80816820Y-39871000D01*
X90009340Y-39871000D02*
X90617001Y-39871000D01*
X48575000Y-40023000D02*
X61000685Y-40023000D01*
X61427316Y-40023000D02*
X62716820Y-40023000D01*
X71909340Y-40023000D02*
X72016820Y-40023000D01*
X80709340Y-40023000D02*
X80816820Y-40023000D01*
X90009340Y-40023000D02*
X90617001Y-40023000D01*
X48575000Y-40175000D02*
X60850041Y-40175000D01*
X61577960Y-40175000D02*
X62716820Y-40175000D01*
X71909340Y-40175000D02*
X72016820Y-40175000D01*
X80709340Y-40175000D02*
X80816820Y-40175000D01*
X90009340Y-40175000D02*
X90617001Y-40175000D01*
X48575000Y-40327000D02*
X60797000Y-40327000D01*
X61631000Y-40327000D02*
X62716820Y-40327000D01*
X71909340Y-40327000D02*
X72020607Y-40327000D01*
X80705552Y-40327000D02*
X80816820Y-40327000D01*
X90009340Y-40327000D02*
X90617001Y-40327000D01*
X48575000Y-40479000D02*
X60801164Y-40479000D01*
X61626835Y-40479000D02*
X62740896Y-40479000D01*
X71885263Y-40479000D02*
X72050842Y-40479000D01*
X80675317Y-40479000D02*
X80840896Y-40479000D01*
X89985263Y-40479000D02*
X90617001Y-40479000D01*
X48575000Y-40631000D02*
X60869272Y-40631000D01*
X61558728Y-40631000D02*
X62771131Y-40631000D01*
X71855028Y-40631000D02*
X72081076Y-40631000D01*
X80645083Y-40631000D02*
X80871131Y-40631000D01*
X89955028Y-40631000D02*
X90617001Y-40631000D01*
X48575000Y-40783000D02*
X61082768Y-40783000D01*
X61345231Y-40783000D02*
X62801365Y-40783000D01*
X71824794Y-40783000D02*
X72111311Y-40783000D01*
X80614848Y-40783000D02*
X80901365Y-40783000D01*
X89924794Y-40783000D02*
X90617001Y-40783000D01*
X48575000Y-40935000D02*
X62831600Y-40935000D01*
X71794559Y-40935000D02*
X72141546Y-40935000D01*
X80584613Y-40935000D02*
X80931600Y-40935000D01*
X89894559Y-40935000D02*
X90617001Y-40935000D01*
X48575000Y-41087000D02*
X62861835Y-41087000D01*
X71764324Y-41087000D02*
X72171780Y-41087000D01*
X80554379Y-41087000D02*
X80961835Y-41087000D01*
X89864324Y-41087000D02*
X90617001Y-41087000D01*
X48575000Y-41239000D02*
X62892069Y-41239000D01*
X71734090Y-41239000D02*
X72202015Y-41239000D01*
X80524144Y-41239000D02*
X80992069Y-41239000D01*
X89834090Y-41239000D02*
X90617001Y-41239000D01*
X48575000Y-41391000D02*
X62922304Y-41391000D01*
X71703855Y-41391000D02*
X72232250Y-41391000D01*
X80493909Y-41391000D02*
X81022304Y-41391000D01*
X89803855Y-41391000D02*
X90617001Y-41391000D01*
X48575000Y-41543000D02*
X62952611Y-41543000D01*
X71673548Y-41543000D02*
X72312957Y-41543000D01*
X80413202Y-41543000D02*
X81052611Y-41543000D01*
X89773548Y-41543000D02*
X90617001Y-41543000D01*
X48575000Y-41695000D02*
X63054174Y-41695000D01*
X71571985Y-41695000D02*
X72414520Y-41695000D01*
X80311639Y-41695000D02*
X81154174Y-41695000D01*
X89671985Y-41695000D02*
X90617001Y-41695000D01*
X48575000Y-41847000D02*
X63155737Y-41847000D01*
X71470422Y-41847000D02*
X72516083Y-41847000D01*
X80210076Y-41847000D02*
X81255737Y-41847000D01*
X89570422Y-41847000D02*
X90617001Y-41847000D01*
X48575000Y-41999000D02*
X63257300Y-41999000D01*
X71368859Y-41999000D02*
X72617646Y-41999000D01*
X80108513Y-41999000D02*
X81357300Y-41999000D01*
X89468859Y-41999000D02*
X90617001Y-41999000D01*
X48575000Y-42151000D02*
X63358863Y-42151000D01*
X71267296Y-42151000D02*
X72719209Y-42151000D01*
X80006950Y-42151000D02*
X81458863Y-42151000D01*
X89367296Y-42151000D02*
X90617001Y-42151000D01*
X48575000Y-42303000D02*
X63460427Y-42303000D01*
X71165732Y-42303000D02*
X72820773Y-42303000D01*
X79905386Y-42303000D02*
X81560427Y-42303000D01*
X89265732Y-42303000D02*
X90617001Y-42303000D01*
X48575000Y-42455000D02*
X63561990Y-42455000D01*
X71064169Y-42455000D02*
X72975123Y-42455000D01*
X79751036Y-42455000D02*
X81661990Y-42455000D01*
X89164169Y-42455000D02*
X90617001Y-42455000D01*
X48575000Y-42607000D02*
X63712972Y-42607000D01*
X70913187Y-42607000D02*
X71674772Y-42607000D01*
X72216228Y-42607000D02*
X73202607Y-42607000D01*
X79523552Y-42607000D02*
X81812972Y-42607000D01*
X89013187Y-42607000D02*
X90617001Y-42607000D01*
X48575000Y-42759000D02*
X63940456Y-42759000D01*
X70685703Y-42759000D02*
X71563316Y-42759000D01*
X72327685Y-42759000D02*
X73430091Y-42759000D01*
X79296068Y-42759000D02*
X82040456Y-42759000D01*
X88785703Y-42759000D02*
X90617001Y-42759000D01*
X48575000Y-42911000D02*
X64167940Y-42911000D01*
X70458219Y-42911000D02*
X71528500Y-42911000D01*
X72362500Y-42911000D02*
X73657575Y-42911000D01*
X79068584Y-42911000D02*
X82267940Y-42911000D01*
X88558219Y-42911000D02*
X90617001Y-42911000D01*
X48575000Y-43063000D02*
X64395424Y-43063000D01*
X70230735Y-43063000D02*
X71550889Y-43063000D01*
X72340110Y-43063000D02*
X74001753Y-43063000D01*
X78724406Y-43063000D02*
X82495424Y-43063000D01*
X88330735Y-43063000D02*
X90617001Y-43063000D01*
X48575000Y-43215000D02*
X64622908Y-43215000D01*
X70003251Y-43215000D02*
X71644772Y-43215000D01*
X72246228Y-43215000D02*
X74765907Y-43215000D01*
X77960252Y-43215000D02*
X82722908Y-43215000D01*
X88103251Y-43215000D02*
X90617001Y-43215000D01*
X48575000Y-43367000D02*
X65374596Y-43367000D01*
X69251563Y-43367000D02*
X83474596Y-43367000D01*
X87351563Y-43367000D02*
X90617001Y-43367000D01*
X48575000Y-43519000D02*
X90617001Y-43519000D01*
X48575000Y-43671000D02*
X65413593Y-43671000D01*
X69312568Y-43671000D02*
X74413593Y-43671000D01*
X78312568Y-43671000D02*
X83413593Y-43671000D01*
X87312568Y-43671000D02*
X90617001Y-43671000D01*
X48575000Y-43823000D02*
X64780178Y-43823000D01*
X69945983Y-43823000D02*
X73780178Y-43823000D01*
X78945983Y-43823000D02*
X82780178Y-43823000D01*
X87945983Y-43823000D02*
X90617001Y-43823000D01*
X48575000Y-43975000D02*
X64552694Y-43975000D01*
X70173467Y-43975000D02*
X73552694Y-43975000D01*
X79173467Y-43975000D02*
X82552694Y-43975000D01*
X88173467Y-43975000D02*
X90617001Y-43975000D01*
X48575000Y-44127000D02*
X64325210Y-44127000D01*
X70400951Y-44127000D02*
X73325210Y-44127000D01*
X79400951Y-44127000D02*
X82325210Y-44127000D01*
X88400951Y-44127000D02*
X90617001Y-44127000D01*
X48575000Y-44279000D02*
X64097726Y-44279000D01*
X70628435Y-44279000D02*
X73097726Y-44279000D01*
X79628435Y-44279000D02*
X82097726Y-44279000D01*
X88628435Y-44279000D02*
X90617001Y-44279000D01*
X48575000Y-44431000D02*
X63875511Y-44431000D01*
X70850650Y-44431000D02*
X72875511Y-44431000D01*
X79850650Y-44431000D02*
X81875511Y-44431000D01*
X88850650Y-44431000D02*
X90617001Y-44431000D01*
X48575000Y-44583000D02*
X63773948Y-44583000D01*
X70952213Y-44583000D02*
X72773948Y-44583000D01*
X79952213Y-44583000D02*
X81773948Y-44583000D01*
X88952213Y-44583000D02*
X90617001Y-44583000D01*
X48575000Y-44735000D02*
X63672384Y-44735000D01*
X71053777Y-44735000D02*
X72672384Y-44735000D01*
X80053777Y-44735000D02*
X81672384Y-44735000D01*
X89053777Y-44735000D02*
X90617001Y-44735000D01*
X48575000Y-44887000D02*
X63570821Y-44887000D01*
X71155340Y-44887000D02*
X72570821Y-44887000D01*
X80155340Y-44887000D02*
X81570821Y-44887000D01*
X89155340Y-44887000D02*
X90617001Y-44887000D01*
X48575000Y-45039000D02*
X63469258Y-45039000D01*
X71256903Y-45039000D02*
X72469258Y-45039000D01*
X80256903Y-45039000D02*
X81469258Y-45039000D01*
X89256903Y-45039000D02*
X90617001Y-45039000D01*
X48575000Y-45191000D02*
X63367695Y-45191000D01*
X71358466Y-45191000D02*
X72367695Y-45191000D01*
X80358466Y-45191000D02*
X81367695Y-45191000D01*
X89358466Y-45191000D02*
X90617001Y-45191000D01*
X48575000Y-45343000D02*
X63266132Y-45343000D01*
X71460029Y-45343000D02*
X72266132Y-45343000D01*
X80460029Y-45343000D02*
X81266132Y-45343000D01*
X89460029Y-45343000D02*
X90617001Y-45343000D01*
X48575000Y-45495000D02*
X63218311Y-45495000D01*
X71507850Y-45495000D02*
X72218311Y-45495000D01*
X80507850Y-45495000D02*
X81218311Y-45495000D01*
X89507850Y-45495000D02*
X90617001Y-45495000D01*
X48575000Y-45647000D02*
X63188076Y-45647000D01*
X71538085Y-45647000D02*
X72188076Y-45647000D01*
X80538085Y-45647000D02*
X81188076Y-45647000D01*
X89538085Y-45647000D02*
X90617001Y-45647000D01*
X48575000Y-45799000D02*
X63157842Y-45799000D01*
X71568319Y-45799000D02*
X72157842Y-45799000D01*
X80568319Y-45799000D02*
X81157842Y-45799000D01*
X89568319Y-45799000D02*
X90617001Y-45799000D01*
X48575000Y-45951000D02*
X63127607Y-45951000D01*
X71598554Y-45951000D02*
X72127607Y-45951000D01*
X80598554Y-45951000D02*
X81127607Y-45951000D01*
X89598554Y-45951000D02*
X90617001Y-45951000D01*
X48575000Y-46103000D02*
X58448513Y-46103000D01*
X58797888Y-46103000D02*
X63097372Y-46103000D01*
X71628789Y-46103000D02*
X72097372Y-46103000D01*
X80628789Y-46103000D02*
X81097372Y-46103000D01*
X89628789Y-46103000D02*
X90617001Y-46103000D01*
X48575000Y-46255000D02*
X58265869Y-46255000D01*
X58980532Y-46255000D02*
X63067137Y-46255000D01*
X71659024Y-46255000D02*
X72067137Y-46255000D01*
X80659024Y-46255000D02*
X81067137Y-46255000D01*
X89659024Y-46255000D02*
X90617001Y-46255000D01*
X48575000Y-46407000D02*
X58206200Y-46407000D01*
X59040200Y-46407000D02*
X63036903Y-46407000D01*
X71689258Y-46407000D02*
X72036903Y-46407000D01*
X80689258Y-46407000D02*
X81036903Y-46407000D01*
X89689258Y-46407000D02*
X90617001Y-46407000D01*
X48575000Y-46559000D02*
X58206200Y-46559000D01*
X59040200Y-46559000D02*
X63016820Y-46559000D01*
X71709340Y-46559000D02*
X72016820Y-46559000D01*
X80709340Y-46559000D02*
X81016820Y-46559000D01*
X89709340Y-46559000D02*
X90617001Y-46559000D01*
X48575000Y-46711000D02*
X58266696Y-46711000D01*
X58979703Y-46711000D02*
X63016820Y-46711000D01*
X71709340Y-46711000D02*
X72016820Y-46711000D01*
X80709340Y-46711000D02*
X81016820Y-46711000D01*
X89709340Y-46711000D02*
X90617001Y-46711000D01*
X48575000Y-46863000D02*
X58453340Y-46863000D01*
X58793059Y-46863000D02*
X59570941Y-46863000D01*
X59910660Y-46863000D02*
X63016820Y-46863000D01*
X71709340Y-46863000D02*
X72016820Y-46863000D01*
X80709340Y-46863000D02*
X81016820Y-46863000D01*
X89709340Y-46863000D02*
X90617001Y-46863000D01*
X48575000Y-47015000D02*
X59384297Y-47015000D01*
X60097304Y-47015000D02*
X63016820Y-47015000D01*
X71709340Y-47015000D02*
X72016820Y-47015000D01*
X80709340Y-47015000D02*
X81016820Y-47015000D01*
X89709340Y-47015000D02*
X90617001Y-47015000D01*
X48575000Y-47167000D02*
X59323800Y-47167000D01*
X60157800Y-47167000D02*
X63016820Y-47167000D01*
X71709340Y-47167000D02*
X72016820Y-47167000D01*
X80709340Y-47167000D02*
X81016820Y-47167000D01*
X89709340Y-47167000D02*
X90617001Y-47167000D01*
X48575000Y-47319000D02*
X59323800Y-47319000D01*
X60157800Y-47319000D02*
X63016820Y-47319000D01*
X71709340Y-47319000D02*
X72016820Y-47319000D01*
X80709340Y-47319000D02*
X81016820Y-47319000D01*
X89709340Y-47319000D02*
X90617001Y-47319000D01*
X48575000Y-47471000D02*
X59383468Y-47471000D01*
X60098131Y-47471000D02*
X63016820Y-47471000D01*
X71709340Y-47471000D02*
X72016820Y-47471000D01*
X80709340Y-47471000D02*
X81016820Y-47471000D01*
X89709340Y-47471000D02*
X90617001Y-47471000D01*
X48575000Y-47623000D02*
X59566112Y-47623000D01*
X59915487Y-47623000D02*
X63016820Y-47623000D01*
X71709340Y-47623000D02*
X72016820Y-47623000D01*
X80709340Y-47623000D02*
X81016820Y-47623000D01*
X89709340Y-47623000D02*
X90617001Y-47623000D01*
X48575000Y-47775000D02*
X58467672Y-47775000D01*
X59083528Y-47775000D02*
X63016820Y-47775000D01*
X71709340Y-47775000D02*
X72016820Y-47775000D01*
X80709340Y-47775000D02*
X81016820Y-47775000D01*
X89709340Y-47775000D02*
X90617001Y-47775000D01*
X48575000Y-47927000D02*
X58378008Y-47927000D01*
X59173193Y-47927000D02*
X63016820Y-47927000D01*
X71709340Y-47927000D02*
X72016820Y-47927000D01*
X80709340Y-47927000D02*
X81016820Y-47927000D01*
X89709340Y-47927000D02*
X90617001Y-47927000D01*
X48575000Y-48079000D02*
X57706472Y-48079000D01*
X58219128Y-48079000D02*
X58358600Y-48079000D01*
X59192600Y-48079000D02*
X63016820Y-48079000D01*
X71709340Y-48079000D02*
X72016820Y-48079000D01*
X80709340Y-48079000D02*
X81016820Y-48079000D01*
X89709340Y-48079000D02*
X90617001Y-48079000D01*
X48575000Y-48231000D02*
X57586581Y-48231000D01*
X58339020Y-48231000D02*
X58396397Y-48231000D01*
X59154802Y-48231000D02*
X63016820Y-48231000D01*
X71709340Y-48231000D02*
X72016820Y-48231000D01*
X80709340Y-48231000D02*
X81016820Y-48231000D01*
X89709340Y-48231000D02*
X90617001Y-48231000D01*
X48575000Y-48383000D02*
X57545800Y-48383000D01*
X58379800Y-48383000D02*
X58512072Y-48383000D01*
X59039128Y-48383000D02*
X63016820Y-48383000D01*
X71709340Y-48383000D02*
X72016820Y-48383000D01*
X80709340Y-48383000D02*
X81016820Y-48383000D01*
X89709340Y-48383000D02*
X90617001Y-48383000D01*
X48575000Y-48535000D02*
X57562224Y-48535000D01*
X58363375Y-48535000D02*
X63016820Y-48535000D01*
X71709340Y-48535000D02*
X72016820Y-48535000D01*
X80709340Y-48535000D02*
X81016820Y-48535000D01*
X89709340Y-48535000D02*
X90617001Y-48535000D01*
X48575000Y-48687000D02*
X57647672Y-48687000D01*
X58277928Y-48687000D02*
X63016820Y-48687000D01*
X71709340Y-48687000D02*
X72016820Y-48687000D01*
X80709340Y-48687000D02*
X81016820Y-48687000D01*
X89709340Y-48687000D02*
X90617001Y-48687000D01*
X48575000Y-48839000D02*
X63016820Y-48839000D01*
X71709340Y-48839000D02*
X72016820Y-48839000D01*
X80709340Y-48839000D02*
X81016820Y-48839000D01*
X89709340Y-48839000D02*
X90617001Y-48839000D01*
X48575000Y-48991000D02*
X63016820Y-48991000D01*
X71709340Y-48991000D02*
X72016820Y-48991000D01*
X80709340Y-48991000D02*
X81016820Y-48991000D01*
X89709340Y-48991000D02*
X90617001Y-48991000D01*
X48575000Y-49143000D02*
X63016820Y-49143000D01*
X71709340Y-49143000D02*
X72016820Y-49143000D01*
X80709340Y-49143000D02*
X81016820Y-49143000D01*
X89709340Y-49143000D02*
X90617001Y-49143000D01*
X48575000Y-49295000D02*
X63016820Y-49295000D01*
X71709340Y-49295000D02*
X72016820Y-49295000D01*
X80709340Y-49295000D02*
X81016820Y-49295000D01*
X89709340Y-49295000D02*
X90617001Y-49295000D01*
X48575000Y-49447000D02*
X63044476Y-49447000D01*
X71681683Y-49447000D02*
X72044476Y-49447000D01*
X80681683Y-49447000D02*
X81044476Y-49447000D01*
X89681683Y-49447000D02*
X90617001Y-49447000D01*
X48575000Y-49599000D02*
X63074711Y-49599000D01*
X71651448Y-49599000D02*
X72074711Y-49599000D01*
X80651448Y-49599000D02*
X81074711Y-49599000D01*
X89651448Y-49599000D02*
X90617001Y-49599000D01*
X48575000Y-49751000D02*
X63104946Y-49751000D01*
X71621213Y-49751000D02*
X72104946Y-49751000D01*
X80621213Y-49751000D02*
X81104946Y-49751000D01*
X89621213Y-49751000D02*
X90617001Y-49751000D01*
X48575000Y-49903000D02*
X63135180Y-49903000D01*
X71590979Y-49903000D02*
X72135180Y-49903000D01*
X80590979Y-49903000D02*
X81135180Y-49903000D01*
X89590979Y-49903000D02*
X90617001Y-49903000D01*
X48575000Y-50055000D02*
X63165415Y-50055000D01*
X71560744Y-50055000D02*
X72165415Y-50055000D01*
X80560744Y-50055000D02*
X81165415Y-50055000D01*
X89560744Y-50055000D02*
X90617001Y-50055000D01*
X48575000Y-50207000D02*
X63195650Y-50207000D01*
X71530509Y-50207000D02*
X72195650Y-50207000D01*
X80530509Y-50207000D02*
X81195650Y-50207000D01*
X89530509Y-50207000D02*
X90617001Y-50207000D01*
X48575000Y-50359000D02*
X63225885Y-50359000D01*
X71500274Y-50359000D02*
X72225885Y-50359000D01*
X80500274Y-50359000D02*
X81225885Y-50359000D01*
X89500274Y-50359000D02*
X90617001Y-50359000D01*
X48575000Y-50511000D02*
X63291575Y-50511000D01*
X71434584Y-50511000D02*
X72291575Y-50511000D01*
X80434584Y-50511000D02*
X81291575Y-50511000D01*
X89434584Y-50511000D02*
X90617001Y-50511000D01*
X48575000Y-50663000D02*
X63393138Y-50663000D01*
X71333021Y-50663000D02*
X72393138Y-50663000D01*
X80333021Y-50663000D02*
X81393138Y-50663000D01*
X89333021Y-50663000D02*
X90617001Y-50663000D01*
X48575000Y-50815000D02*
X63494701Y-50815000D01*
X71231458Y-50815000D02*
X72494701Y-50815000D01*
X80231458Y-50815000D02*
X81494701Y-50815000D01*
X89231458Y-50815000D02*
X90617001Y-50815000D01*
X48575000Y-50967000D02*
X63596264Y-50967000D01*
X71129895Y-50967000D02*
X72596264Y-50967000D01*
X80129895Y-50967000D02*
X81596264Y-50967000D01*
X89129895Y-50967000D02*
X90617001Y-50967000D01*
X48575000Y-51119000D02*
X63697828Y-51119000D01*
X71028331Y-51119000D02*
X72697828Y-51119000D01*
X80028331Y-51119000D02*
X81697828Y-51119000D01*
X89028331Y-51119000D02*
X90617001Y-51119000D01*
X48575000Y-51271000D02*
X63799391Y-51271000D01*
X70926768Y-51271000D02*
X72799391Y-51271000D01*
X79926768Y-51271000D02*
X81799391Y-51271000D01*
X88926768Y-51271000D02*
X90617001Y-51271000D01*
X48575000Y-51423000D02*
X63927232Y-51423000D01*
X70798927Y-51423000D02*
X72927232Y-51423000D01*
X79798927Y-51423000D02*
X81927232Y-51423000D01*
X88798927Y-51423000D02*
X90617001Y-51423000D01*
X48575000Y-51575000D02*
X64154716Y-51575000D01*
X70571443Y-51575000D02*
X73154716Y-51575000D01*
X79571443Y-51575000D02*
X82154716Y-51575000D01*
X88571443Y-51575000D02*
X90617001Y-51575000D01*
X48575000Y-51727000D02*
X64382200Y-51727000D01*
X70343959Y-51727000D02*
X73382200Y-51727000D01*
X79343959Y-51727000D02*
X82382200Y-51727000D01*
X88343959Y-51727000D02*
X90617001Y-51727000D01*
X48575000Y-51879000D02*
X64609684Y-51879000D01*
X70116475Y-51879000D02*
X73609684Y-51879000D01*
X79116475Y-51879000D02*
X82609684Y-51879000D01*
X88116475Y-51879000D02*
X90617001Y-51879000D01*
X48575000Y-52031000D02*
X64840878Y-52031000D01*
X69885281Y-52031000D02*
X73840878Y-52031000D01*
X78885281Y-52031000D02*
X82840878Y-52031000D01*
X87885281Y-52031000D02*
X90617001Y-52031000D01*
X48575000Y-52183000D02*
X65605033Y-52183000D01*
X69121126Y-52183000D02*
X74605033Y-52183000D01*
X78121126Y-52183000D02*
X83605033Y-52183000D01*
X87121126Y-52183000D02*
X90617001Y-52183000D01*
X48575000Y-52335000D02*
X90617001Y-52335000D01*
X48575000Y-52487000D02*
X66938272Y-52487000D01*
X67554728Y-52487000D02*
X71383272Y-52487000D01*
X71999728Y-52487000D02*
X72018272Y-52487000D01*
X72634728Y-52487000D02*
X90617001Y-52487000D01*
X48575000Y-52639000D02*
X66848783Y-52639000D01*
X67644218Y-52639000D02*
X71293783Y-52639000D01*
X72724218Y-52639000D02*
X90617001Y-52639000D01*
X48575000Y-52791000D02*
X66829500Y-52791000D01*
X67663500Y-52791000D02*
X71274500Y-52791000D01*
X72743500Y-52791000D02*
X90617001Y-52791000D01*
X48575000Y-52943000D02*
X66867422Y-52943000D01*
X67625577Y-52943000D02*
X71312422Y-52943000D01*
X72705577Y-52943000D02*
X90617001Y-52943000D01*
X48575000Y-53095000D02*
X66983272Y-53095000D01*
X67509728Y-53095000D02*
X71428272Y-53095000D01*
X71954728Y-53095000D02*
X72063272Y-53095000D01*
X72589728Y-53095000D02*
X90617001Y-53095000D01*
X48575000Y-53247000D02*
X90617001Y-53247000D01*
X48575000Y-53399000D02*
X90617001Y-53399000D01*
X48575000Y-53551000D02*
X90617001Y-53551000D01*
X48575000Y-53703000D02*
X50018179Y-53703000D01*
X53060865Y-53703000D02*
X53636772Y-53703000D01*
X60060865Y-53703000D02*
X60636772Y-53703000D01*
X67060865Y-53703000D02*
X67636772Y-53703000D01*
X74060865Y-53703000D02*
X74636772Y-53703000D01*
X81060865Y-53703000D02*
X81636772Y-53703000D01*
X89207982Y-53703000D02*
X90617001Y-53703000D01*
X48575000Y-53855000D02*
X49575784Y-53855000D01*
X53327165Y-53855000D02*
X53374345Y-53855000D01*
X60327165Y-53855000D02*
X60374345Y-53855000D01*
X67327165Y-53855000D02*
X67374345Y-53855000D01*
X74327165Y-53855000D02*
X74374345Y-53855000D01*
X81327165Y-53855000D02*
X81374345Y-53855000D01*
X89650377Y-53855000D02*
X90617001Y-53855000D01*
X48575000Y-54007000D02*
X49328773Y-54007000D01*
X89897388Y-54007000D02*
X90617001Y-54007000D01*
X48575000Y-54159000D02*
X49152035Y-54159000D01*
X90074125Y-54159000D02*
X90617001Y-54159000D01*
X48575000Y-54311000D02*
X49011464Y-54311000D01*
X90214697Y-54311000D02*
X90617001Y-54311000D01*
X48575000Y-54463000D02*
X48902420Y-54463000D01*
X90323741Y-54463000D02*
X90617001Y-54463000D01*
X48575000Y-54615000D02*
X48813148Y-54615000D01*
X90413013Y-54615000D02*
X90617001Y-54615000D01*
X48575000Y-54767000D02*
X48745769Y-54767000D01*
X90480392Y-54767000D02*
X90617001Y-54767000D01*
X48575000Y-54919000D02*
X48692360Y-54919000D01*
X90533801Y-54919000D02*
X90617001Y-54919000D01*
X48575000Y-55071000D02*
X48656541Y-55071000D01*
X90569620Y-55071000D02*
X90617001Y-55071000D01*
X48575000Y-55223000D02*
X48632157Y-55223000D01*
X90594004Y-55223000D02*
X90617001Y-55223000D01*
X48575000Y-55375000D02*
X48623593Y-55375000D01*
X90602567Y-55375000D02*
X90617001Y-55375000D01*
X48575000Y-55527000D02*
X48618778Y-55527000D01*
X90607382Y-55527000D02*
X90617001Y-55527000D01*
X48575000Y-55679000D02*
X48618778Y-55679000D01*
X90607382Y-55679000D02*
X90617001Y-55679000D01*
X48575000Y-55831000D02*
X48618778Y-55831000D01*
X90607382Y-55831000D02*
X90617001Y-55831000D01*
X48575000Y-55983000D02*
X48618778Y-55983000D01*
X90607382Y-55983000D02*
X90617001Y-55983000D01*
X48575000Y-56135000D02*
X48618778Y-56135000D01*
X90607382Y-56135000D02*
X90617001Y-56135000D01*
X48575000Y-56287000D02*
X48618778Y-56287000D01*
X90607382Y-56287000D02*
X90617001Y-56287000D01*
X48575000Y-56439000D02*
X48618778Y-56439000D01*
X90607382Y-56439000D02*
X90617001Y-56439000D01*
X48575000Y-56591000D02*
X48618778Y-56591000D01*
X90607382Y-56591000D02*
X90617001Y-56591000D01*
X48575000Y-56743000D02*
X48618778Y-56743000D01*
X90607382Y-56743000D02*
X90617001Y-56743000D01*
X48575000Y-56895000D02*
X48618778Y-56895000D01*
X90607382Y-56895000D02*
X90617001Y-56895000D01*
X48575000Y-57047000D02*
X48618778Y-57047000D01*
X90607382Y-57047000D02*
X90617001Y-57047000D01*
X48575000Y-57199000D02*
X48618778Y-57199000D01*
X90607382Y-57199000D02*
X90617001Y-57199000D01*
X48575000Y-57351000D02*
X48618778Y-57351000D01*
X90607382Y-57351000D02*
X90617001Y-57351000D01*
X48575000Y-57503000D02*
X48618778Y-57503000D01*
X90607382Y-57503000D02*
X90617001Y-57503000D01*
X48575000Y-57655000D02*
X48618778Y-57655000D01*
X90607382Y-57655000D02*
X90617001Y-57655000D01*
X48575000Y-57807000D02*
X48618778Y-57807000D01*
X90607382Y-57807000D02*
X90617001Y-57807000D01*
X48575000Y-57959000D02*
X48618778Y-57959000D01*
X90607382Y-57959000D02*
X90617001Y-57959000D01*
X48575000Y-58111000D02*
X48618778Y-58111000D01*
X90607382Y-58111000D02*
X90617001Y-58111000D01*
X48575000Y-58263000D02*
X48618778Y-58263000D01*
X90607382Y-58263000D02*
X90617001Y-58263000D01*
X48575000Y-58415000D02*
X48618778Y-58415000D01*
X90607382Y-58415000D02*
X90617001Y-58415000D01*
X48575000Y-58567000D02*
X48618778Y-58567000D01*
X90607382Y-58567000D02*
X90617001Y-58567000D01*
X48575000Y-58719000D02*
X48618778Y-58719000D01*
X90607382Y-58719000D02*
X90617001Y-58719000D01*
X48575000Y-58871000D02*
X48618778Y-58871000D01*
X90607382Y-58871000D02*
X90617001Y-58871000D01*
X48575000Y-59023000D02*
X48618778Y-59023000D01*
X90607382Y-59023000D02*
X90617001Y-59023000D01*
X48575000Y-59175000D02*
X48618778Y-59175000D01*
X90607382Y-59175000D02*
X90617001Y-59175000D01*
X48575000Y-59327000D02*
X48618778Y-59327000D01*
X90607382Y-59327000D02*
X90617001Y-59327000D01*
X48575000Y-59479000D02*
X48618778Y-59479000D01*
X90607382Y-59479000D02*
X90617001Y-59479000D01*
X48575000Y-59631000D02*
X48618778Y-59631000D01*
X90607382Y-59631000D02*
X90617001Y-59631000D01*
X48575000Y-59783000D02*
X48618778Y-59783000D01*
X90607382Y-59783000D02*
X90617001Y-59783000D01*
X48575000Y-59935000D02*
X48618778Y-59935000D01*
X90607382Y-59935000D02*
X90617001Y-59935000D01*
X48575000Y-60087000D02*
X48618778Y-60087000D01*
X90607382Y-60087000D02*
X90617001Y-60087000D01*
X48575000Y-60239000D02*
X48618778Y-60239000D01*
X90607382Y-60239000D02*
X90617001Y-60239000D01*
X48575000Y-60391000D02*
X48618778Y-60391000D01*
X90607382Y-60391000D02*
X90617001Y-60391000D01*
X48575000Y-60543000D02*
X48618778Y-60543000D01*
X90607382Y-60543000D02*
X90617001Y-60543000D01*
X48575000Y-60695000D02*
X48618778Y-60695000D01*
X90607382Y-60695000D02*
X90617001Y-60695000D01*
X48575000Y-60847000D02*
X48618778Y-60847000D01*
X90607382Y-60847000D02*
X90617001Y-60847000D01*
X48575000Y-60999000D02*
X48618778Y-60999000D01*
X90607382Y-60999000D02*
X90617001Y-60999000D01*
X48575000Y-61151000D02*
X48618778Y-61151000D01*
X90607382Y-61151000D02*
X90617001Y-61151000D01*
X48575000Y-61303000D02*
X48618778Y-61303000D01*
X90607382Y-61303000D02*
X90617001Y-61303000D01*
X48575000Y-61455000D02*
X48618778Y-61455000D01*
X90607382Y-61455000D02*
X90617001Y-61455000D01*
X48575000Y-61607000D02*
X48618778Y-61607000D01*
X90607382Y-61607000D02*
X90617001Y-61607000D01*
X48575000Y-61759000D02*
X48618778Y-61759000D01*
X90607382Y-61759000D02*
X90617001Y-61759000D01*
X48575000Y-61911000D02*
X48618778Y-61911000D01*
X90607382Y-61911000D02*
X90617001Y-61911000D01*
X48575000Y-62063000D02*
X48618778Y-62063000D01*
X90607382Y-62063000D02*
X90617001Y-62063000D01*
X48575000Y-62215000D02*
X48618778Y-62215000D01*
X90607382Y-62215000D02*
X90617001Y-62215000D01*
X48575000Y-62367000D02*
X48618778Y-62367000D01*
X90607382Y-62367000D02*
X90617001Y-62367000D01*
X48575000Y-62519000D02*
X48618778Y-62519000D01*
X90607382Y-62519000D02*
X90617001Y-62519000D01*
X48575000Y-62671000D02*
X48618778Y-62671000D01*
X90607382Y-62671000D02*
X90617001Y-62671000D01*
X48575000Y-62823000D02*
X48618778Y-62823000D01*
X90607382Y-62823000D02*
X90617001Y-62823000D01*
X48575000Y-62975000D02*
X48618778Y-62975000D01*
X90607382Y-62975000D02*
X90617001Y-62975000D01*
X48575000Y-63127000D02*
X48618778Y-63127000D01*
X90607382Y-63127000D02*
X90617001Y-63127000D01*
X48575000Y-63279000D02*
X48618778Y-63279000D01*
X90607382Y-63279000D02*
X90617001Y-63279000D01*
X48575000Y-63431000D02*
X48623361Y-63431000D01*
X90602798Y-63431000D02*
X90617001Y-63431000D01*
X48582037Y-63583000D02*
X48631179Y-63583000D01*
X90594980Y-63583000D02*
X90601900Y-63583000D01*
X48593333Y-63735000D02*
X48654567Y-63735000D01*
X90571592Y-63735000D02*
X90580131Y-63735000D01*
X48637019Y-63887000D02*
X48689350Y-63887000D01*
X90536809Y-63887000D02*
X90558363Y-63887000D01*
X48682477Y-64039000D02*
X48741659Y-64039000D01*
X90484500Y-64039000D02*
X90518531Y-64039000D01*
X48727935Y-64191000D02*
X48807844Y-64191000D01*
X90418315Y-64191000D02*
X90449421Y-64191000D01*
X48816734Y-64343000D02*
X48895790Y-64343000D01*
X90330369Y-64343000D02*
X90380310Y-64343000D01*
X48915255Y-64495000D02*
X49003322Y-64495000D01*
X90222837Y-64495000D02*
X90282035Y-64495000D01*
X49024229Y-64647000D02*
X49142115Y-64647000D01*
X90084045Y-64647000D02*
X90151064Y-64647000D01*
X49200634Y-64799000D02*
X49314157Y-64799000D01*
X89912002Y-64799000D02*
X90014947Y-64799000D01*
X49384537Y-64951000D02*
X49557224Y-64951000D01*
X53351529Y-64951000D02*
X53361830Y-64951000D01*
X60351529Y-64951000D02*
X60361830Y-64951000D01*
X67351529Y-64951000D02*
X67361830Y-64951000D01*
X74351529Y-64951000D02*
X74361830Y-64951000D01*
X81351529Y-64951000D02*
X81361830Y-64951000D01*
X89668935Y-64951000D02*
X89780440Y-64951000D01*
X49718843Y-65103000D02*
X49968307Y-65103000D01*
X53054663Y-65103000D02*
X53615424Y-65103000D01*
X60054663Y-65103000D02*
X60615424Y-65103000D01*
X67054663Y-65103000D02*
X67615424Y-65103000D01*
X74054663Y-65103000D02*
X74615424Y-65103000D01*
X81054663Y-65103000D02*
X81615424Y-65103000D01*
X89257852Y-65103000D02*
X89460814Y-65103000D01*
X90617001Y-35063703D02*
X90617001Y-35063704D01*
X90465001Y-34364126D02*
X90465001Y-54729843D01*
X90465001Y-64086078D02*
X90465001Y-64156731D01*
X90313001Y-34112935D02*
X90313001Y-54446928D01*
X90313001Y-64368993D02*
X90313001Y-64459062D01*
X90161001Y-33899165D02*
X90161001Y-54245876D01*
X90161001Y-64570044D02*
X90161001Y-64635466D01*
X90009001Y-33768194D02*
X90009001Y-37356256D01*
X90009001Y-40359665D02*
X90009001Y-54096526D01*
X90009001Y-64719395D02*
X90009001Y-64802853D01*
X89857001Y-33637223D02*
X89857001Y-36592102D01*
X89857001Y-41123819D02*
X89857001Y-53980015D01*
X89857001Y-64835906D02*
X89857001Y-64901375D01*
X89705001Y-33554412D02*
X89705001Y-36070332D01*
X89705001Y-41645589D02*
X89705001Y-46486147D01*
X89705001Y-49329774D02*
X89705001Y-53884198D01*
X89705001Y-64931723D02*
X89705001Y-64999896D01*
X89553001Y-33485302D02*
X89553001Y-35842848D01*
X89553001Y-41873073D02*
X89553001Y-45721992D01*
X89553001Y-50093929D02*
X89553001Y-53810929D01*
X89553001Y-65004992D02*
X89553001Y-65075429D01*
X89401001Y-33416192D02*
X89401001Y-35615364D01*
X89401001Y-42100557D02*
X89401001Y-45254659D01*
X89401001Y-50561262D02*
X89401001Y-53752092D01*
X89401001Y-65063829D02*
X89401001Y-65120887D01*
X89249001Y-33388195D02*
X89249001Y-35387880D01*
X89249001Y-42328041D02*
X89249001Y-45027175D01*
X89249001Y-50788746D02*
X89249001Y-53711160D01*
X89249001Y-65104761D02*
X89249001Y-65166345D01*
X89097001Y-33366427D02*
X89097001Y-35164923D01*
X89097001Y-42550998D02*
X89097001Y-44799691D01*
X89097001Y-51016230D02*
X89097001Y-53681859D01*
X89097001Y-65134062D02*
X89097001Y-65201491D01*
X88945001Y-33344658D02*
X88945001Y-35063360D01*
X88945001Y-42652561D02*
X88945001Y-44572207D01*
X88945001Y-51243714D02*
X88945001Y-53668473D01*
X88945001Y-65147447D02*
X88945001Y-65212787D01*
X88793001Y-33335000D02*
X88793001Y-34961797D01*
X88793001Y-42754124D02*
X88793001Y-44388960D01*
X88793001Y-51426961D02*
X88793001Y-53663658D01*
X88793001Y-65152262D02*
X88793001Y-65217000D01*
X88641001Y-33335000D02*
X88641001Y-34860233D01*
X88641001Y-42855688D02*
X88641001Y-44287397D01*
X88641001Y-51528524D02*
X88641001Y-53663658D01*
X88641001Y-65152262D02*
X88641001Y-65217000D01*
X88489001Y-33335000D02*
X88489001Y-34758670D01*
X88489001Y-42957251D02*
X88489001Y-44185834D01*
X88489001Y-51630087D02*
X88489001Y-53663658D01*
X88489001Y-65152262D02*
X88489001Y-65217000D01*
X88337001Y-33335000D02*
X88337001Y-34657107D01*
X88337001Y-43058814D02*
X88337001Y-44084271D01*
X88337001Y-51731650D02*
X88337001Y-53663658D01*
X88337001Y-65152262D02*
X88337001Y-65217000D01*
X88185001Y-33335000D02*
X88185001Y-34555544D01*
X88185001Y-43160377D02*
X88185001Y-43982707D01*
X88185001Y-51833214D02*
X88185001Y-53663658D01*
X88185001Y-65152262D02*
X88185001Y-65217000D01*
X88033001Y-33335000D02*
X88033001Y-34484467D01*
X88033001Y-43231454D02*
X88033001Y-43881144D01*
X88033001Y-51934777D02*
X88033001Y-53663658D01*
X88033001Y-65152262D02*
X88033001Y-65217000D01*
X87881001Y-33335000D02*
X87881001Y-34454232D01*
X87881001Y-43261689D02*
X87881001Y-43784069D01*
X87881001Y-52031852D02*
X87881001Y-53663658D01*
X87881001Y-65152262D02*
X87881001Y-65217000D01*
X87729001Y-33335000D02*
X87729001Y-34423997D01*
X87729001Y-43291924D02*
X87729001Y-43753834D01*
X87729001Y-52062087D02*
X87729001Y-53663658D01*
X87729001Y-65152262D02*
X87729001Y-65217000D01*
X87577001Y-33335000D02*
X87577001Y-34393763D01*
X87577001Y-43322158D02*
X87577001Y-43723600D01*
X87577001Y-52092321D02*
X87577001Y-53663658D01*
X87577001Y-65152262D02*
X87577001Y-65217000D01*
X87425001Y-33335000D02*
X87425001Y-34363528D01*
X87425001Y-43352393D02*
X87425001Y-43693365D01*
X87425001Y-52122556D02*
X87425001Y-53663658D01*
X87425001Y-65152262D02*
X87425001Y-65217000D01*
X87273001Y-33335000D02*
X87273001Y-34333293D01*
X87273001Y-43382628D02*
X87273001Y-43663130D01*
X87273001Y-52152791D02*
X87273001Y-53663658D01*
X87273001Y-65152262D02*
X87273001Y-65217000D01*
X87121001Y-33335000D02*
X87121001Y-34303059D01*
X87121001Y-43412862D02*
X87121001Y-43632896D01*
X87121001Y-52183025D02*
X87121001Y-53663658D01*
X87121001Y-65152262D02*
X87121001Y-65217000D01*
X86969001Y-33335000D02*
X86969001Y-34272824D01*
X86969001Y-43443097D02*
X86969001Y-43602661D01*
X86969001Y-52213260D02*
X86969001Y-53663658D01*
X86969001Y-65152262D02*
X86969001Y-65217000D01*
X86817001Y-33335000D02*
X86817001Y-34261700D01*
X86817001Y-43454220D02*
X86817001Y-43572426D01*
X86817001Y-52243495D02*
X86817001Y-53663658D01*
X86817001Y-65152262D02*
X86817001Y-65217000D01*
X86665001Y-33335000D02*
X86665001Y-34261700D01*
X86665001Y-43454220D02*
X86665001Y-43561700D01*
X86665001Y-52254220D02*
X86665001Y-53663658D01*
X86665001Y-65152262D02*
X86665001Y-65217000D01*
X86513001Y-33335000D02*
X86513001Y-34261700D01*
X86513001Y-43454220D02*
X86513001Y-43561700D01*
X86513001Y-52254220D02*
X86513001Y-53663658D01*
X86513001Y-65152262D02*
X86513001Y-65217000D01*
X86361001Y-33335000D02*
X86361001Y-34261700D01*
X86361001Y-43454220D02*
X86361001Y-43561700D01*
X86361001Y-52254220D02*
X86361001Y-53663658D01*
X86361001Y-65152262D02*
X86361001Y-65217000D01*
X86209001Y-33335000D02*
X86209001Y-34261700D01*
X86209001Y-43454220D02*
X86209001Y-43561700D01*
X86209001Y-52254220D02*
X86209001Y-53663658D01*
X86209001Y-65152262D02*
X86209001Y-65217000D01*
X86057001Y-33335000D02*
X86057001Y-34261700D01*
X86057001Y-43454220D02*
X86057001Y-43561700D01*
X86057001Y-52254220D02*
X86057001Y-53663658D01*
X86057001Y-65152262D02*
X86057001Y-65217000D01*
X85905001Y-33335000D02*
X85905001Y-34261700D01*
X85905001Y-43454220D02*
X85905001Y-43561700D01*
X85905001Y-52254220D02*
X85905001Y-53663658D01*
X85905001Y-65152262D02*
X85905001Y-65217000D01*
X85753001Y-33335000D02*
X85753001Y-34261700D01*
X85753001Y-43454220D02*
X85753001Y-43561700D01*
X85753001Y-52254220D02*
X85753001Y-53663658D01*
X85753001Y-65152262D02*
X85753001Y-65217000D01*
X85601001Y-33335000D02*
X85601001Y-34261700D01*
X85601001Y-43454220D02*
X85601001Y-43561700D01*
X85601001Y-52254220D02*
X85601001Y-53663658D01*
X85601001Y-65152262D02*
X85601001Y-65217000D01*
X85449001Y-33335000D02*
X85449001Y-34261700D01*
X85449001Y-43454220D02*
X85449001Y-43561700D01*
X85449001Y-52254220D02*
X85449001Y-53663658D01*
X85449001Y-65152262D02*
X85449001Y-65217000D01*
X85297001Y-33335000D02*
X85297001Y-34261700D01*
X85297001Y-43454220D02*
X85297001Y-43561700D01*
X85297001Y-52254220D02*
X85297001Y-53663658D01*
X85297001Y-65152262D02*
X85297001Y-65217000D01*
X85145001Y-33335000D02*
X85145001Y-34261700D01*
X85145001Y-43454220D02*
X85145001Y-43561700D01*
X85145001Y-52254220D02*
X85145001Y-53663658D01*
X85145001Y-65152262D02*
X85145001Y-65217000D01*
X84993001Y-33335000D02*
X84993001Y-34261700D01*
X84993001Y-43454220D02*
X84993001Y-43561700D01*
X84993001Y-52254220D02*
X84993001Y-53663658D01*
X84993001Y-65152262D02*
X84993001Y-65217000D01*
X84841001Y-33335000D02*
X84841001Y-34261700D01*
X84841001Y-43454220D02*
X84841001Y-43561700D01*
X84841001Y-52254220D02*
X84841001Y-53663658D01*
X84841001Y-65152262D02*
X84841001Y-65217000D01*
X84689001Y-33335000D02*
X84689001Y-34261700D01*
X84689001Y-43454220D02*
X84689001Y-43561700D01*
X84689001Y-52254220D02*
X84689001Y-53663658D01*
X84689001Y-65152262D02*
X84689001Y-65217000D01*
X84537001Y-33335000D02*
X84537001Y-34261700D01*
X84537001Y-43454220D02*
X84537001Y-43561700D01*
X84537001Y-52254220D02*
X84537001Y-53663658D01*
X84537001Y-65152262D02*
X84537001Y-65217000D01*
X84385001Y-33335000D02*
X84385001Y-34261700D01*
X84385001Y-43454220D02*
X84385001Y-43561700D01*
X84385001Y-52254220D02*
X84385001Y-53663658D01*
X84385001Y-65152262D02*
X84385001Y-65217000D01*
X84233001Y-33335000D02*
X84233001Y-34261700D01*
X84233001Y-43454220D02*
X84233001Y-43561700D01*
X84233001Y-52254220D02*
X84233001Y-53663658D01*
X84233001Y-65152262D02*
X84233001Y-65217000D01*
X84081001Y-33335000D02*
X84081001Y-34261700D01*
X84081001Y-43454220D02*
X84081001Y-43561700D01*
X84081001Y-52254220D02*
X84081001Y-53663658D01*
X84081001Y-65152262D02*
X84081001Y-65217000D01*
X83929001Y-33335000D02*
X83929001Y-34261700D01*
X83929001Y-43454220D02*
X83929001Y-43568478D01*
X83929001Y-52247441D02*
X83929001Y-53663658D01*
X83929001Y-65152262D02*
X83929001Y-65217000D01*
X83777001Y-33335000D02*
X83777001Y-34288767D01*
X83777001Y-43427152D02*
X83777001Y-43598713D01*
X83777001Y-52217206D02*
X83777001Y-53663658D01*
X83777001Y-65152262D02*
X83777001Y-65217000D01*
X83625001Y-33335000D02*
X83625001Y-34319002D01*
X83625001Y-43396917D02*
X83625001Y-43628948D01*
X83625001Y-52186971D02*
X83625001Y-53663658D01*
X83625001Y-65152262D02*
X83625001Y-65217000D01*
X83473001Y-33335000D02*
X83473001Y-34349237D01*
X83473001Y-43366682D02*
X83473001Y-43659182D01*
X83473001Y-52156737D02*
X83473001Y-53663658D01*
X83473001Y-65152262D02*
X83473001Y-65217000D01*
X83321001Y-33335000D02*
X83321001Y-34379471D01*
X83321001Y-43336448D02*
X83321001Y-43689417D01*
X83321001Y-52126502D02*
X83321001Y-53663658D01*
X83321001Y-65152262D02*
X83321001Y-65217000D01*
X83169001Y-33335000D02*
X83169001Y-34409706D01*
X83169001Y-43306213D02*
X83169001Y-43719652D01*
X83169001Y-52096267D02*
X83169001Y-53663658D01*
X83169001Y-65152262D02*
X83169001Y-65217000D01*
X83017001Y-33335000D02*
X83017001Y-34439941D01*
X83017001Y-43275978D02*
X83017001Y-43749887D01*
X83017001Y-52066032D02*
X83017001Y-53663658D01*
X83017001Y-65152262D02*
X83017001Y-65217000D01*
X82865001Y-33335000D02*
X82865001Y-34470176D01*
X82865001Y-43245743D02*
X82865001Y-43780121D01*
X82865001Y-52035798D02*
X82865001Y-53663658D01*
X82865001Y-65152262D02*
X82865001Y-65217000D01*
X82713001Y-33335000D02*
X82713001Y-34507539D01*
X82713001Y-43208380D02*
X82713001Y-43867885D01*
X82713001Y-51948034D02*
X82713001Y-53663658D01*
X82713001Y-65152262D02*
X82713001Y-65217000D01*
X82561001Y-33335000D02*
X82561001Y-34609103D01*
X82561001Y-43106816D02*
X82561001Y-43969448D01*
X82561001Y-51846471D02*
X82561001Y-53663658D01*
X82561001Y-65152262D02*
X82561001Y-65217000D01*
X82409001Y-33335000D02*
X82409001Y-34710666D01*
X82409001Y-43005253D02*
X82409001Y-44071012D01*
X82409001Y-51744907D02*
X82409001Y-53663658D01*
X82409001Y-65152262D02*
X82409001Y-65217000D01*
X82257001Y-33335000D02*
X82257001Y-34812229D01*
X82257001Y-42903690D02*
X82257001Y-44172575D01*
X82257001Y-51643344D02*
X82257001Y-53663658D01*
X82257001Y-65152262D02*
X82257001Y-65217000D01*
X82105001Y-33335000D02*
X82105001Y-34913792D01*
X82105001Y-42802127D02*
X82105001Y-44274138D01*
X82105001Y-51541781D02*
X82105001Y-53663658D01*
X82105001Y-65152262D02*
X82105001Y-65217000D01*
X81953001Y-33335000D02*
X81953001Y-35015355D01*
X81953001Y-42700564D02*
X81953001Y-44375701D01*
X81953001Y-51440218D02*
X81953001Y-53663658D01*
X81953001Y-65152262D02*
X81953001Y-65217000D01*
X81801001Y-33335000D02*
X81801001Y-35116919D01*
X81801001Y-42599000D02*
X81801001Y-44542511D01*
X81801001Y-51273408D02*
X81801001Y-53672470D01*
X81801001Y-65139913D02*
X81801001Y-65217000D01*
X81649001Y-33335000D02*
X81649001Y-35280359D01*
X81649001Y-42435560D02*
X81649001Y-44769994D01*
X81649001Y-51045925D02*
X81649001Y-53696658D01*
X81649001Y-65109678D02*
X81649001Y-65217000D01*
X81497001Y-33335000D02*
X81497001Y-35507843D01*
X81497001Y-42208076D02*
X81497001Y-44997478D01*
X81497001Y-50818441D02*
X81497001Y-53775480D01*
X81497001Y-65041317D02*
X81497001Y-65217000D01*
X81345001Y-33335000D02*
X81345001Y-35735327D01*
X81345001Y-41980592D02*
X81345001Y-45224962D01*
X81345001Y-50590957D02*
X81345001Y-53868402D01*
X81345001Y-64956496D02*
X81345001Y-65217000D01*
X81193001Y-33335000D02*
X81193001Y-35962811D01*
X81193001Y-41753108D02*
X81193001Y-45622239D01*
X81193001Y-50193680D02*
X81193001Y-53754194D01*
X81193001Y-65067430D02*
X81193001Y-65217000D01*
X81041001Y-33335000D02*
X81041001Y-36230927D01*
X81041001Y-41484992D02*
X81041001Y-46386394D01*
X81041001Y-49429525D02*
X81041001Y-53699049D01*
X81041001Y-65106514D02*
X81041001Y-65217000D01*
X80889001Y-33335000D02*
X80889001Y-36995082D01*
X80889001Y-40720837D02*
X80889001Y-46507960D01*
X80889001Y-46507960D02*
X80889001Y-53668815D01*
X80889001Y-65145597D02*
X80889001Y-65217000D01*
X80737001Y-33335000D02*
X80737001Y-37357960D01*
X80737001Y-37357960D02*
X80737001Y-46507960D01*
X80737001Y-46507960D02*
X80737001Y-53663658D01*
X80737001Y-65152262D02*
X80737001Y-65217000D01*
X80585001Y-33335000D02*
X80585001Y-36882865D01*
X80585001Y-40933054D02*
X80585001Y-45882867D01*
X80585001Y-49933054D02*
X80585001Y-53663658D01*
X80585001Y-65152262D02*
X80585001Y-65217000D01*
X80433001Y-33335000D02*
X80433001Y-36302550D01*
X80433001Y-41513371D02*
X80433001Y-45302550D01*
X80433001Y-50513371D02*
X80433001Y-53663658D01*
X80433001Y-65152262D02*
X80433001Y-65217000D01*
X80281001Y-33335000D02*
X80281001Y-36075066D01*
X80281001Y-41740855D02*
X80281001Y-45075066D01*
X80281001Y-50740855D02*
X80281001Y-53663658D01*
X80281001Y-65152262D02*
X80281001Y-65217000D01*
X80129001Y-33335000D02*
X80129001Y-35847582D01*
X80129001Y-41968339D02*
X80129001Y-44847582D01*
X80129001Y-50968339D02*
X80129001Y-53663658D01*
X80129001Y-65152262D02*
X80129001Y-65217000D01*
X79977001Y-33335000D02*
X79977001Y-35620099D01*
X79977001Y-42195822D02*
X79977001Y-44620099D01*
X79977001Y-51195822D02*
X79977001Y-53663658D01*
X79977001Y-65152262D02*
X79977001Y-65217000D01*
X79825001Y-33335000D02*
X79825001Y-35410342D01*
X79825001Y-42405579D02*
X79825001Y-44410342D01*
X79825001Y-51405579D02*
X79825001Y-53663658D01*
X79825001Y-65152262D02*
X79825001Y-65217000D01*
X79673001Y-33335000D02*
X79673001Y-35308779D01*
X79673001Y-42507142D02*
X79673001Y-44308779D01*
X79673001Y-51507142D02*
X79673001Y-53663658D01*
X79673001Y-65152262D02*
X79673001Y-65217000D01*
X79521001Y-33335000D02*
X79521001Y-35207216D01*
X79521001Y-42608705D02*
X79521001Y-44207216D01*
X79521001Y-51608705D02*
X79521001Y-53663658D01*
X79521001Y-65152262D02*
X79521001Y-65217000D01*
X79369001Y-33335000D02*
X79369001Y-35105652D01*
X79369001Y-42710269D02*
X79369001Y-44105652D01*
X79369001Y-51710269D02*
X79369001Y-53663658D01*
X79369001Y-65152262D02*
X79369001Y-65217000D01*
X79217001Y-33335000D02*
X79217001Y-35004089D01*
X79217001Y-42811832D02*
X79217001Y-44004089D01*
X79217001Y-51811832D02*
X79217001Y-53663658D01*
X79217001Y-65152262D02*
X79217001Y-65217000D01*
X79065001Y-33335000D02*
X79065001Y-34902526D01*
X79065001Y-42913395D02*
X79065001Y-43902526D01*
X79065001Y-51913395D02*
X79065001Y-53663658D01*
X79065001Y-65152262D02*
X79065001Y-65217000D01*
X78913001Y-33335000D02*
X78913001Y-34800963D01*
X78913001Y-43014958D02*
X78913001Y-43800963D01*
X78913001Y-52014958D02*
X78913001Y-53663658D01*
X78913001Y-65152262D02*
X78913001Y-65217000D01*
X78761001Y-33335000D02*
X78761001Y-34760200D01*
X78761001Y-43055721D02*
X78761001Y-43760200D01*
X78761001Y-52055721D02*
X78761001Y-53663658D01*
X78761001Y-65152262D02*
X78761001Y-65217000D01*
X78609001Y-33335000D02*
X78609001Y-34729965D01*
X78609001Y-43085956D02*
X78609001Y-43729965D01*
X78609001Y-52085956D02*
X78609001Y-53663658D01*
X78609001Y-65152262D02*
X78609001Y-65217000D01*
X78457001Y-33335000D02*
X78457001Y-34699730D01*
X78457001Y-43116191D02*
X78457001Y-43699730D01*
X78457001Y-52116191D02*
X78457001Y-53663658D01*
X78457001Y-65152262D02*
X78457001Y-65217000D01*
X78305001Y-33335000D02*
X78305001Y-34669495D01*
X78305001Y-43146426D02*
X78305001Y-43669495D01*
X78305001Y-52146426D02*
X78305001Y-53663658D01*
X78305001Y-65152262D02*
X78305001Y-65217000D01*
X78153001Y-33335000D02*
X78153001Y-34639261D01*
X78153001Y-43176660D02*
X78153001Y-43639261D01*
X78153001Y-52176660D02*
X78153001Y-53663658D01*
X78153001Y-65152262D02*
X78153001Y-65217000D01*
X78001001Y-33335000D02*
X78001001Y-34609026D01*
X78001001Y-43206895D02*
X78001001Y-43609026D01*
X78001001Y-52206895D02*
X78001001Y-53663658D01*
X78001001Y-65152262D02*
X78001001Y-65217000D01*
X77849001Y-33335000D02*
X77849001Y-34578791D01*
X77849001Y-43237130D02*
X77849001Y-43578791D01*
X77849001Y-52237130D02*
X77849001Y-53663658D01*
X77849001Y-65152262D02*
X77849001Y-65217000D01*
X77697001Y-33335000D02*
X77697001Y-34561700D01*
X77697001Y-43254220D02*
X77697001Y-43561700D01*
X77697001Y-52254220D02*
X77697001Y-53663658D01*
X77697001Y-65152262D02*
X77697001Y-65217000D01*
X77545001Y-33335000D02*
X77545001Y-34561700D01*
X77545001Y-43254220D02*
X77545001Y-43561700D01*
X77545001Y-52254220D02*
X77545001Y-53663658D01*
X77545001Y-65152262D02*
X77545001Y-65217000D01*
X77393001Y-33335000D02*
X77393001Y-34561700D01*
X77393001Y-43254220D02*
X77393001Y-43561700D01*
X77393001Y-52254220D02*
X77393001Y-53663658D01*
X77393001Y-65152262D02*
X77393001Y-65217000D01*
X77241001Y-33335000D02*
X77241001Y-34561700D01*
X77241001Y-43254220D02*
X77241001Y-43561700D01*
X77241001Y-52254220D02*
X77241001Y-53663658D01*
X77241001Y-65152262D02*
X77241001Y-65217000D01*
X77089001Y-33335000D02*
X77089001Y-34561700D01*
X77089001Y-43254220D02*
X77089001Y-43561700D01*
X77089001Y-52254220D02*
X77089001Y-53663658D01*
X77089001Y-65152262D02*
X77089001Y-65217000D01*
X76937001Y-33335000D02*
X76937001Y-34561700D01*
X76937001Y-43254220D02*
X76937001Y-43561700D01*
X76937001Y-52254220D02*
X76937001Y-53663658D01*
X76937001Y-65152262D02*
X76937001Y-65217000D01*
X76785001Y-33335000D02*
X76785001Y-34561700D01*
X76785001Y-43254220D02*
X76785001Y-43561700D01*
X76785001Y-52254220D02*
X76785001Y-53663658D01*
X76785001Y-65152262D02*
X76785001Y-65217000D01*
X76633001Y-33335000D02*
X76633001Y-34561700D01*
X76633001Y-43254220D02*
X76633001Y-43561700D01*
X76633001Y-52254220D02*
X76633001Y-53663658D01*
X76633001Y-65152262D02*
X76633001Y-65217000D01*
X76481001Y-33335000D02*
X76481001Y-34561700D01*
X76481001Y-43254220D02*
X76481001Y-43561700D01*
X76481001Y-52254220D02*
X76481001Y-53663658D01*
X76481001Y-65152262D02*
X76481001Y-65217000D01*
X76329001Y-33335000D02*
X76329001Y-34561700D01*
X76329001Y-43254220D02*
X76329001Y-43561700D01*
X76329001Y-52254220D02*
X76329001Y-53663658D01*
X76329001Y-65152262D02*
X76329001Y-65217000D01*
X76177001Y-33335000D02*
X76177001Y-34561700D01*
X76177001Y-43254220D02*
X76177001Y-43561700D01*
X76177001Y-52254220D02*
X76177001Y-53663658D01*
X76177001Y-65152262D02*
X76177001Y-65217000D01*
X76025001Y-33335000D02*
X76025001Y-34561700D01*
X76025001Y-43254220D02*
X76025001Y-43561700D01*
X76025001Y-52254220D02*
X76025001Y-53663658D01*
X76025001Y-65152262D02*
X76025001Y-65217000D01*
X75873001Y-33335000D02*
X75873001Y-34561700D01*
X75873001Y-43254220D02*
X75873001Y-43561700D01*
X75873001Y-52254220D02*
X75873001Y-53663658D01*
X75873001Y-65152262D02*
X75873001Y-65217000D01*
X75721001Y-33335000D02*
X75721001Y-34561700D01*
X75721001Y-43254220D02*
X75721001Y-43561700D01*
X75721001Y-52254220D02*
X75721001Y-53663658D01*
X75721001Y-65152262D02*
X75721001Y-65217000D01*
X75569001Y-33335000D02*
X75569001Y-34561700D01*
X75569001Y-43254220D02*
X75569001Y-43561700D01*
X75569001Y-52254220D02*
X75569001Y-53663658D01*
X75569001Y-65152262D02*
X75569001Y-65217000D01*
X75417001Y-33335000D02*
X75417001Y-34561700D01*
X75417001Y-43254220D02*
X75417001Y-43561700D01*
X75417001Y-52254220D02*
X75417001Y-53663658D01*
X75417001Y-65152262D02*
X75417001Y-65217000D01*
X75265001Y-33335000D02*
X75265001Y-34561700D01*
X75265001Y-43254220D02*
X75265001Y-43561700D01*
X75265001Y-52254220D02*
X75265001Y-53663658D01*
X75265001Y-65152262D02*
X75265001Y-65217000D01*
X75113001Y-33335000D02*
X75113001Y-34561700D01*
X75113001Y-43254220D02*
X75113001Y-43561700D01*
X75113001Y-52254220D02*
X75113001Y-53663658D01*
X75113001Y-65152262D02*
X75113001Y-65217000D01*
X74961001Y-33335000D02*
X74961001Y-34562113D01*
X74961001Y-43253806D02*
X74961001Y-43562113D01*
X74961001Y-52253806D02*
X74961001Y-53663658D01*
X74961001Y-65152262D02*
X74961001Y-65217000D01*
X74809001Y-33335000D02*
X74809001Y-34592348D01*
X74809001Y-43223571D02*
X74809001Y-43592348D01*
X74809001Y-52223571D02*
X74809001Y-53671335D01*
X74809001Y-65141504D02*
X74809001Y-65217000D01*
X74657001Y-33335000D02*
X74657001Y-34622582D01*
X74657001Y-43193337D02*
X74657001Y-43622582D01*
X74657001Y-52193337D02*
X74657001Y-53692913D01*
X74657001Y-65111270D02*
X74657001Y-65217000D01*
X74505001Y-33335000D02*
X74505001Y-34652817D01*
X74505001Y-43163102D02*
X74505001Y-43652817D01*
X74505001Y-52163102D02*
X74505001Y-53771331D01*
X74505001Y-65046663D02*
X74505001Y-65217000D01*
X74353001Y-33335000D02*
X74353001Y-34683052D01*
X74353001Y-43132867D02*
X74353001Y-43683052D01*
X74353001Y-52132867D02*
X74353001Y-53874413D01*
X74353001Y-64949762D02*
X74353001Y-65217000D01*
X74201001Y-33335000D02*
X74201001Y-34713287D01*
X74201001Y-43102632D02*
X74201001Y-43713287D01*
X74201001Y-52102632D02*
X74201001Y-53760205D01*
X74201001Y-65065373D02*
X74201001Y-65217000D01*
X74049001Y-33335000D02*
X74049001Y-34743521D01*
X74049001Y-43072398D02*
X74049001Y-43743521D01*
X74049001Y-52072398D02*
X74049001Y-53700641D01*
X74049001Y-65104457D02*
X74049001Y-65217000D01*
X73897001Y-33335000D02*
X73897001Y-34773756D01*
X73897001Y-43042163D02*
X73897001Y-43773756D01*
X73897001Y-52042163D02*
X73897001Y-53670406D01*
X73897001Y-65143540D02*
X73897001Y-65217000D01*
X73745001Y-33335000D02*
X73745001Y-34846504D01*
X73745001Y-42969415D02*
X73745001Y-43846504D01*
X73745001Y-51969415D02*
X73745001Y-53663658D01*
X73745001Y-65152262D02*
X73745001Y-65217000D01*
X73593001Y-33335000D02*
X73593001Y-34948067D01*
X73593001Y-42867852D02*
X73593001Y-43948067D01*
X73593001Y-51867852D02*
X73593001Y-53663658D01*
X73593001Y-65152262D02*
X73593001Y-65217000D01*
X73441001Y-33335000D02*
X73441001Y-35049630D01*
X73441001Y-42766289D02*
X73441001Y-44049630D01*
X73441001Y-51766289D02*
X73441001Y-53663658D01*
X73441001Y-65152262D02*
X73441001Y-65217000D01*
X73289001Y-33335000D02*
X73289001Y-35151193D01*
X73289001Y-42664726D02*
X73289001Y-44151193D01*
X73289001Y-51664726D02*
X73289001Y-53663658D01*
X73289001Y-65152262D02*
X73289001Y-65217000D01*
X73137001Y-33335000D02*
X73137001Y-35252756D01*
X73137001Y-42563163D02*
X73137001Y-44252756D01*
X73137001Y-51563163D02*
X73137001Y-53663658D01*
X73137001Y-65152262D02*
X73137001Y-65217000D01*
X72985001Y-33335000D02*
X72985001Y-35354320D01*
X72985001Y-42461599D02*
X72985001Y-44354320D01*
X72985001Y-51461599D02*
X72985001Y-53663658D01*
X72985001Y-65152262D02*
X72985001Y-65217000D01*
X72833001Y-33335000D02*
X72833001Y-35494619D01*
X72833001Y-42321300D02*
X72833001Y-44494619D01*
X72833001Y-51321300D02*
X72833001Y-53663658D01*
X72833001Y-65152262D02*
X72833001Y-65217000D01*
X72681001Y-33335000D02*
X72681001Y-35722103D01*
X72681001Y-42093816D02*
X72681001Y-44722103D01*
X72681001Y-51093816D02*
X72681001Y-52534667D01*
X72681001Y-53002334D02*
X72681001Y-53663658D01*
X72681001Y-65152262D02*
X72681001Y-65217000D01*
X72529001Y-33335000D02*
X72529001Y-35949587D01*
X72529001Y-41866332D02*
X72529001Y-44949587D01*
X72529001Y-50866332D02*
X72529001Y-52401021D01*
X72529001Y-53135980D02*
X72529001Y-53663658D01*
X72529001Y-65152262D02*
X72529001Y-65217000D01*
X72377001Y-33335000D02*
X72377001Y-36177071D01*
X72377001Y-41638848D02*
X72377001Y-45177071D01*
X72377001Y-50638848D02*
X72377001Y-52351500D01*
X72377001Y-53185500D02*
X72377001Y-53663658D01*
X72377001Y-65152262D02*
X72377001Y-65217000D01*
X72225001Y-33335000D02*
X72225001Y-36461364D01*
X72225001Y-41354555D02*
X72225001Y-42615773D01*
X72225001Y-43236227D02*
X72225001Y-45461364D01*
X72225001Y-50354555D02*
X72225001Y-52359184D01*
X72225001Y-53177815D02*
X72225001Y-53663658D01*
X72225001Y-65152262D02*
X72225001Y-65217000D01*
X72073001Y-33335000D02*
X72073001Y-37225519D01*
X72073001Y-40590400D02*
X72073001Y-42527455D01*
X72073001Y-43324546D02*
X72073001Y-46225519D01*
X72073001Y-49590400D02*
X72073001Y-52432271D01*
X72073001Y-53104729D02*
X72073001Y-53663658D01*
X72073001Y-65152262D02*
X72073001Y-65217000D01*
X71921001Y-33335000D02*
X71921001Y-37507960D01*
X71921001Y-37507960D02*
X71921001Y-42509000D01*
X71921001Y-43343000D02*
X71921001Y-46507960D01*
X71921001Y-46507960D02*
X71921001Y-52412205D01*
X71921001Y-53124796D02*
X71921001Y-53663658D01*
X71921001Y-65152262D02*
X71921001Y-65217000D01*
X71769001Y-33335000D02*
X71769001Y-36652430D01*
X71769001Y-41063491D02*
X71769001Y-42547750D01*
X71769001Y-43304249D02*
X71769001Y-46507960D01*
X71769001Y-46507960D02*
X71769001Y-52351500D01*
X71769001Y-53185500D02*
X71769001Y-53663658D01*
X71769001Y-65152262D02*
X71769001Y-65217000D01*
X71617001Y-33335000D02*
X71617001Y-36088291D01*
X71617001Y-41627630D02*
X71617001Y-42664771D01*
X71617001Y-43187229D02*
X71617001Y-46043742D01*
X71617001Y-49772179D02*
X71617001Y-52351500D01*
X71617001Y-53185500D02*
X71617001Y-53663658D01*
X71617001Y-65152262D02*
X71617001Y-65217000D01*
X71465001Y-33335000D02*
X71465001Y-35860807D01*
X71465001Y-41855114D02*
X71465001Y-42843053D01*
X71465001Y-42843053D02*
X71465001Y-45350442D01*
X71465001Y-50465479D02*
X71465001Y-52410960D01*
X71465001Y-53126039D02*
X71465001Y-53663658D01*
X71465001Y-65152262D02*
X71465001Y-65217000D01*
X71313001Y-33335000D02*
X71313001Y-35633323D01*
X71313001Y-42082598D02*
X71313001Y-42843053D01*
X71313001Y-42843053D02*
X71313001Y-45122958D01*
X71313001Y-50692963D02*
X71313001Y-52592602D01*
X71313001Y-52944397D02*
X71313001Y-53663658D01*
X71313001Y-65152262D02*
X71313001Y-65217000D01*
X71161001Y-33335000D02*
X71161001Y-35405839D01*
X71161001Y-42310082D02*
X71161001Y-42843053D01*
X71161001Y-42843053D02*
X71161001Y-44895474D01*
X71161001Y-50920447D02*
X71161001Y-52685553D01*
X71161001Y-52685553D02*
X71161001Y-53663658D01*
X71161001Y-65152262D02*
X71161001Y-65217000D01*
X71009001Y-33335000D02*
X71009001Y-35178355D01*
X71009001Y-42537566D02*
X71009001Y-42843053D01*
X71009001Y-42843053D02*
X71009001Y-44667990D01*
X71009001Y-51147931D02*
X71009001Y-52685553D01*
X71009001Y-52685553D02*
X71009001Y-53663658D01*
X71009001Y-65152262D02*
X71009001Y-65217000D01*
X70857001Y-33335000D02*
X70857001Y-35071378D01*
X70857001Y-42644543D02*
X70857001Y-42843053D01*
X70857001Y-42843053D02*
X70857001Y-44440506D01*
X70857001Y-51375415D02*
X70857001Y-52685553D01*
X70857001Y-52685553D02*
X70857001Y-53663658D01*
X70857001Y-65152262D02*
X70857001Y-65217000D01*
X70705001Y-33335000D02*
X70705001Y-34969815D01*
X70705001Y-42746106D02*
X70705001Y-42843053D01*
X70705001Y-42843053D02*
X70705001Y-44330161D01*
X70705001Y-51485760D02*
X70705001Y-52685553D01*
X70705001Y-52685553D02*
X70705001Y-53663658D01*
X70705001Y-65152262D02*
X70705001Y-65217000D01*
X70553001Y-33335000D02*
X70553001Y-34868251D01*
X70553001Y-42847669D02*
X70553001Y-44228597D01*
X70553001Y-51587324D02*
X70553001Y-52685553D01*
X70553001Y-52685553D02*
X70553001Y-53663658D01*
X70553001Y-65152262D02*
X70553001Y-65217000D01*
X70401001Y-33335000D02*
X70401001Y-34766688D01*
X70401001Y-42949233D02*
X70401001Y-44127034D01*
X70401001Y-51688887D02*
X70401001Y-52685553D01*
X70401001Y-52685553D02*
X70401001Y-53663658D01*
X70401001Y-65152262D02*
X70401001Y-65217000D01*
X70249001Y-33335000D02*
X70249001Y-34665125D01*
X70249001Y-43050796D02*
X70249001Y-44025471D01*
X70249001Y-51790450D02*
X70249001Y-52685553D01*
X70249001Y-52685553D02*
X70249001Y-53663658D01*
X70249001Y-65152262D02*
X70249001Y-65217000D01*
X70097001Y-33335000D02*
X70097001Y-34563562D01*
X70097001Y-43152359D02*
X70097001Y-43923908D01*
X70097001Y-51892013D02*
X70097001Y-52685553D01*
X70097001Y-52685553D02*
X70097001Y-53663658D01*
X70097001Y-65152262D02*
X70097001Y-65217000D01*
X69945001Y-33335000D02*
X69945001Y-34486854D01*
X69945001Y-43229067D02*
X69945001Y-43822344D01*
X69945001Y-51993577D02*
X69945001Y-52685553D01*
X69945001Y-52685553D02*
X69945001Y-53663658D01*
X69945001Y-65152262D02*
X69945001Y-65217000D01*
X69793001Y-33335000D02*
X69793001Y-34456619D01*
X69793001Y-43259302D02*
X69793001Y-43766565D01*
X69793001Y-52049356D02*
X69793001Y-52685553D01*
X69793001Y-52685553D02*
X69793001Y-53663658D01*
X69793001Y-65152262D02*
X69793001Y-65217000D01*
X69641001Y-33335000D02*
X69641001Y-34426384D01*
X69641001Y-43289537D02*
X69641001Y-43736330D01*
X69641001Y-52079591D02*
X69641001Y-52685553D01*
X69641001Y-52685553D02*
X69641001Y-53663658D01*
X69641001Y-65152262D02*
X69641001Y-65217000D01*
X69489001Y-33335000D02*
X69489001Y-34396150D01*
X69489001Y-43319771D02*
X69489001Y-43706095D01*
X69489001Y-52109826D02*
X69489001Y-52685553D01*
X69489001Y-52685553D02*
X69489001Y-53663658D01*
X69489001Y-65152262D02*
X69489001Y-65217000D01*
X69337001Y-33335000D02*
X69337001Y-34365915D01*
X69337001Y-43350006D02*
X69337001Y-43675861D01*
X69337001Y-52140060D02*
X69337001Y-52685553D01*
X69337001Y-52685553D02*
X69337001Y-53663658D01*
X69337001Y-65152262D02*
X69337001Y-65217000D01*
X69185001Y-33335000D02*
X69185001Y-34335680D01*
X69185001Y-43380241D02*
X69185001Y-43645626D01*
X69185001Y-52170295D02*
X69185001Y-52685553D01*
X69185001Y-52685553D02*
X69185001Y-53663658D01*
X69185001Y-65152262D02*
X69185001Y-65217000D01*
X69033001Y-33335000D02*
X69033001Y-34305446D01*
X69033001Y-43410475D02*
X69033001Y-43615391D01*
X69033001Y-52200530D02*
X69033001Y-52685553D01*
X69033001Y-52685553D02*
X69033001Y-53663658D01*
X69033001Y-65152262D02*
X69033001Y-65217000D01*
X68881001Y-33335000D02*
X68881001Y-34275211D01*
X68881001Y-43440710D02*
X68881001Y-43585156D01*
X68881001Y-52230765D02*
X68881001Y-52685553D01*
X68881001Y-52685553D02*
X68881001Y-53663658D01*
X68881001Y-65152262D02*
X68881001Y-65217000D01*
X68729001Y-33335000D02*
X68729001Y-34261700D01*
X68729001Y-43454220D02*
X68729001Y-43561700D01*
X68729001Y-52254220D02*
X68729001Y-52685553D01*
X68729001Y-52685553D02*
X68729001Y-53663658D01*
X68729001Y-65152262D02*
X68729001Y-65217000D01*
X68577001Y-33335000D02*
X68577001Y-34261700D01*
X68577001Y-43454220D02*
X68577001Y-43561700D01*
X68577001Y-52254220D02*
X68577001Y-52685553D01*
X68577001Y-52685553D02*
X68577001Y-53663658D01*
X68577001Y-65152262D02*
X68577001Y-65217000D01*
X68425001Y-33335000D02*
X68425001Y-34261700D01*
X68425001Y-43454220D02*
X68425001Y-43561700D01*
X68425001Y-52254220D02*
X68425001Y-52685553D01*
X68425001Y-52685553D02*
X68425001Y-53663658D01*
X68425001Y-65152262D02*
X68425001Y-65217000D01*
X68273001Y-33335000D02*
X68273001Y-34261700D01*
X68273001Y-43454220D02*
X68273001Y-43561700D01*
X68273001Y-52254220D02*
X68273001Y-52685553D01*
X68273001Y-52685553D02*
X68273001Y-53663658D01*
X68273001Y-65152262D02*
X68273001Y-65217000D01*
X68121001Y-33335000D02*
X68121001Y-34261700D01*
X68121001Y-43454220D02*
X68121001Y-43561700D01*
X68121001Y-52254220D02*
X68121001Y-52685553D01*
X68121001Y-52685553D02*
X68121001Y-53663658D01*
X68121001Y-65152262D02*
X68121001Y-65217000D01*
X67969001Y-33335000D02*
X67969001Y-34261700D01*
X67969001Y-43454220D02*
X67969001Y-43561700D01*
X67969001Y-52254220D02*
X67969001Y-52685553D01*
X67969001Y-52685553D02*
X67969001Y-53663658D01*
X67969001Y-65152262D02*
X67969001Y-65217000D01*
X67817001Y-33335000D02*
X67817001Y-34261700D01*
X67817001Y-43454220D02*
X67817001Y-43561700D01*
X67817001Y-52254220D02*
X67817001Y-52685553D01*
X67817001Y-52685553D02*
X67817001Y-53670199D01*
X67817001Y-65143096D02*
X67817001Y-65217000D01*
X67665001Y-33335000D02*
X67665001Y-34261700D01*
X67665001Y-43454220D02*
X67665001Y-43561700D01*
X67665001Y-52254220D02*
X67665001Y-52685553D01*
X67665001Y-52685553D02*
X67665001Y-53691777D01*
X67665001Y-65112861D02*
X67665001Y-65217000D01*
X67513001Y-33335000D02*
X67513001Y-34261700D01*
X67513001Y-43454220D02*
X67513001Y-43561700D01*
X67513001Y-52254220D02*
X67513001Y-52445273D01*
X67513001Y-53091727D02*
X67513001Y-53767183D01*
X67513001Y-65052008D02*
X67513001Y-65217000D01*
X67361001Y-33335000D02*
X67361001Y-34261700D01*
X67361001Y-43454220D02*
X67361001Y-43561700D01*
X67361001Y-52254220D02*
X67361001Y-52364571D01*
X67361001Y-53172430D02*
X67361001Y-53870851D01*
X67361001Y-64950445D02*
X67361001Y-65217000D01*
X67209001Y-33335000D02*
X67209001Y-34261700D01*
X67209001Y-43454220D02*
X67209001Y-43561700D01*
X67209001Y-52254220D02*
X67209001Y-52351500D01*
X67209001Y-53185500D02*
X67209001Y-53766216D01*
X67209001Y-65063316D02*
X67209001Y-65217000D01*
X67057001Y-33335000D02*
X67057001Y-34261700D01*
X67057001Y-43454220D02*
X67057001Y-43561700D01*
X67057001Y-52254220D02*
X67057001Y-52395634D01*
X67057001Y-53141365D02*
X67057001Y-53702232D01*
X67057001Y-65102400D02*
X67057001Y-65217000D01*
X66905001Y-33335000D02*
X66905001Y-34261700D01*
X66905001Y-43454220D02*
X66905001Y-43561700D01*
X66905001Y-52254220D02*
X66905001Y-52520271D01*
X66905001Y-53016729D02*
X66905001Y-53671997D01*
X66905001Y-65141483D02*
X66905001Y-65217000D01*
X66753001Y-33335000D02*
X66753001Y-34261700D01*
X66753001Y-43454220D02*
X66753001Y-43561700D01*
X66753001Y-52254220D02*
X66753001Y-52685553D01*
X66753001Y-52685553D02*
X66753001Y-53663658D01*
X66753001Y-65152262D02*
X66753001Y-65217000D01*
X66601001Y-33335000D02*
X66601001Y-34261700D01*
X66601001Y-43454220D02*
X66601001Y-43561700D01*
X66601001Y-52254220D02*
X66601001Y-52685553D01*
X66601001Y-52685553D02*
X66601001Y-53663658D01*
X66601001Y-65152262D02*
X66601001Y-65217000D01*
X66449001Y-33335000D02*
X66449001Y-34261700D01*
X66449001Y-43454220D02*
X66449001Y-43561700D01*
X66449001Y-52254220D02*
X66449001Y-52685553D01*
X66449001Y-52685553D02*
X66449001Y-53663658D01*
X66449001Y-65152262D02*
X66449001Y-65217000D01*
X66297001Y-33335000D02*
X66297001Y-34261700D01*
X66297001Y-43454220D02*
X66297001Y-43561700D01*
X66297001Y-52254220D02*
X66297001Y-52685553D01*
X66297001Y-52685553D02*
X66297001Y-53663658D01*
X66297001Y-65152262D02*
X66297001Y-65217000D01*
X66145001Y-33335000D02*
X66145001Y-34261700D01*
X66145001Y-43454220D02*
X66145001Y-43561700D01*
X66145001Y-52254220D02*
X66145001Y-52685553D01*
X66145001Y-52685553D02*
X66145001Y-53663658D01*
X66145001Y-65152262D02*
X66145001Y-65217000D01*
X65993001Y-33335000D02*
X65993001Y-34261700D01*
X65993001Y-43454220D02*
X65993001Y-43561700D01*
X65993001Y-52254220D02*
X65993001Y-52685553D01*
X65993001Y-52685553D02*
X65993001Y-53663658D01*
X65993001Y-65152262D02*
X65993001Y-65217000D01*
X65841001Y-33335000D02*
X65841001Y-34261700D01*
X65841001Y-43454220D02*
X65841001Y-43585983D01*
X65841001Y-52229936D02*
X65841001Y-52685553D01*
X65841001Y-52685553D02*
X65841001Y-53663658D01*
X65841001Y-65152262D02*
X65841001Y-65217000D01*
X65689001Y-33335000D02*
X65689001Y-34286380D01*
X65689001Y-43429539D02*
X65689001Y-43616217D01*
X65689001Y-52199702D02*
X65689001Y-52685553D01*
X65689001Y-52685553D02*
X65689001Y-53663658D01*
X65689001Y-65152262D02*
X65689001Y-65217000D01*
X65537001Y-33335000D02*
X65537001Y-34316615D01*
X65537001Y-43399304D02*
X65537001Y-43646452D01*
X65537001Y-52169467D02*
X65537001Y-52685553D01*
X65537001Y-52685553D02*
X65537001Y-53663658D01*
X65537001Y-65152262D02*
X65537001Y-65217000D01*
X65385001Y-33335000D02*
X65385001Y-34346850D01*
X65385001Y-43369069D02*
X65385001Y-43676687D01*
X65385001Y-52139232D02*
X65385001Y-52685553D01*
X65385001Y-52685553D02*
X65385001Y-53663658D01*
X65385001Y-65152262D02*
X65385001Y-65217000D01*
X65233001Y-33335000D02*
X65233001Y-34377085D01*
X65233001Y-43338834D02*
X65233001Y-43706921D01*
X65233001Y-52108998D02*
X65233001Y-52685553D01*
X65233001Y-52685553D02*
X65233001Y-53663658D01*
X65233001Y-65152262D02*
X65233001Y-65217000D01*
X65081001Y-33335000D02*
X65081001Y-34407319D01*
X65081001Y-43308600D02*
X65081001Y-43737156D01*
X65081001Y-52078763D02*
X65081001Y-52685553D01*
X65081001Y-52685553D02*
X65081001Y-53663658D01*
X65081001Y-65152262D02*
X65081001Y-65217000D01*
X64929001Y-33335000D02*
X64929001Y-34437554D01*
X64929001Y-43278365D02*
X64929001Y-43767391D01*
X64929001Y-52048528D02*
X64929001Y-52685553D01*
X64929001Y-52685553D02*
X64929001Y-53663658D01*
X64929001Y-65152262D02*
X64929001Y-65217000D01*
X64777001Y-33335000D02*
X64777001Y-34467789D01*
X64777001Y-43248130D02*
X64777001Y-43825122D01*
X64777001Y-51990797D02*
X64777001Y-52685553D01*
X64777001Y-52685553D02*
X64777001Y-53663658D01*
X64777001Y-65152262D02*
X64777001Y-65217000D01*
X64625001Y-33335000D02*
X64625001Y-34499521D01*
X64625001Y-43216398D02*
X64625001Y-43926685D01*
X64625001Y-51889234D02*
X64625001Y-52685553D01*
X64625001Y-52685553D02*
X64625001Y-53663658D01*
X64625001Y-65152262D02*
X64625001Y-65217000D01*
X64473001Y-33335000D02*
X64473001Y-34601085D01*
X64473001Y-43114834D02*
X64473001Y-44028248D01*
X64473001Y-51787671D02*
X64473001Y-52685553D01*
X64473001Y-52685553D02*
X64473001Y-53663658D01*
X64473001Y-65152262D02*
X64473001Y-65217000D01*
X64321001Y-33335000D02*
X64321001Y-34702648D01*
X64321001Y-43013271D02*
X64321001Y-44129811D01*
X64321001Y-51686108D02*
X64321001Y-52685553D01*
X64321001Y-52685553D02*
X64321001Y-53663658D01*
X64321001Y-65152262D02*
X64321001Y-65217000D01*
X64169001Y-33335000D02*
X64169001Y-34804211D01*
X64169001Y-42911708D02*
X64169001Y-44231375D01*
X64169001Y-51584544D02*
X64169001Y-52685553D01*
X64169001Y-52685553D02*
X64169001Y-53663658D01*
X64169001Y-65152262D02*
X64169001Y-65217000D01*
X64017001Y-33335000D02*
X64017001Y-34905774D01*
X64017001Y-42810145D02*
X64017001Y-44332938D01*
X64017001Y-51482981D02*
X64017001Y-52685553D01*
X64017001Y-52685553D02*
X64017001Y-53663658D01*
X64017001Y-65152262D02*
X64017001Y-65217000D01*
X63865001Y-33335000D02*
X63865001Y-35007337D01*
X63865001Y-42708582D02*
X63865001Y-44446728D01*
X63865001Y-51369191D02*
X63865001Y-52685553D01*
X63865001Y-52685553D02*
X63865001Y-53663658D01*
X63865001Y-65152262D02*
X63865001Y-65217000D01*
X63713001Y-33335000D02*
X63713001Y-35108900D01*
X63713001Y-42607019D02*
X63713001Y-44674212D01*
X63713001Y-51141707D02*
X63713001Y-52685553D01*
X63713001Y-52685553D02*
X63713001Y-53663658D01*
X63713001Y-65152262D02*
X63713001Y-65217000D01*
X63561001Y-33335000D02*
X63561001Y-35262400D01*
X63561001Y-42453519D02*
X63561001Y-44901696D01*
X63561001Y-50914223D02*
X63561001Y-52685553D01*
X63561001Y-52685553D02*
X63561001Y-53663658D01*
X63561001Y-65152262D02*
X63561001Y-65217000D01*
X63409001Y-33335000D02*
X63409001Y-35489884D01*
X63409001Y-42226035D02*
X63409001Y-45129180D01*
X63409001Y-50686739D02*
X63409001Y-52685553D01*
X63409001Y-52685553D02*
X63409001Y-53663658D01*
X63409001Y-65152262D02*
X63409001Y-65217000D01*
X63257001Y-33335000D02*
X63257001Y-35717368D01*
X63257001Y-41998551D02*
X63257001Y-45356664D01*
X63257001Y-50459255D02*
X63257001Y-52685553D01*
X63257001Y-52685553D02*
X63257001Y-53663658D01*
X63257001Y-65152262D02*
X63257001Y-65217000D01*
X63105001Y-33335000D02*
X63105001Y-35944852D01*
X63105001Y-41771067D02*
X63105001Y-46064644D01*
X63105001Y-49751275D02*
X63105001Y-52685553D01*
X63105001Y-52685553D02*
X63105001Y-53663658D01*
X63105001Y-65152262D02*
X63105001Y-65217000D01*
X62953001Y-33335000D02*
X62953001Y-36172336D01*
X62953001Y-41543583D02*
X62953001Y-46507960D01*
X62953001Y-46507960D02*
X62953001Y-52685553D01*
X62953001Y-52685553D02*
X62953001Y-53663658D01*
X62953001Y-65152262D02*
X62953001Y-65217000D01*
X62801001Y-33335000D02*
X62801001Y-36934754D01*
X62801001Y-40781165D02*
X62801001Y-46507960D01*
X62801001Y-46507960D02*
X62801001Y-52685553D01*
X62801001Y-52685553D02*
X62801001Y-53663658D01*
X62801001Y-65152262D02*
X62801001Y-65217000D01*
X62649001Y-33335000D02*
X62649001Y-37357960D01*
X62649001Y-37357960D02*
X62649001Y-46507960D01*
X62649001Y-46507960D02*
X62649001Y-52685553D01*
X62649001Y-52685553D02*
X62649001Y-53663658D01*
X62649001Y-65152262D02*
X62649001Y-65217000D01*
X62497001Y-33335000D02*
X62497001Y-37357960D01*
X62497001Y-37357960D02*
X62497001Y-46507960D01*
X62497001Y-46507960D02*
X62497001Y-52685553D01*
X62497001Y-52685553D02*
X62497001Y-53663658D01*
X62497001Y-65152262D02*
X62497001Y-65217000D01*
X62345001Y-33335000D02*
X62345001Y-37357960D01*
X62345001Y-37357960D02*
X62345001Y-46507960D01*
X62345001Y-46507960D02*
X62345001Y-52685553D01*
X62345001Y-52685553D02*
X62345001Y-53663658D01*
X62345001Y-65152262D02*
X62345001Y-65217000D01*
X62193001Y-33335000D02*
X62193001Y-37357960D01*
X62193001Y-37357960D02*
X62193001Y-46507960D01*
X62193001Y-46507960D02*
X62193001Y-52685553D01*
X62193001Y-52685553D02*
X62193001Y-53663658D01*
X62193001Y-65152262D02*
X62193001Y-65217000D01*
X62041001Y-33335000D02*
X62041001Y-37357960D01*
X62041001Y-37357960D02*
X62041001Y-46507960D01*
X62041001Y-46507960D02*
X62041001Y-52685553D01*
X62041001Y-52685553D02*
X62041001Y-53663658D01*
X62041001Y-65152262D02*
X62041001Y-65217000D01*
X61889001Y-33335000D02*
X61889001Y-37357960D01*
X61889001Y-37357960D02*
X61889001Y-46507960D01*
X61889001Y-46507960D02*
X61889001Y-52685553D01*
X61889001Y-52685553D02*
X61889001Y-53663658D01*
X61889001Y-65152262D02*
X61889001Y-65217000D01*
X61737001Y-33335000D02*
X61737001Y-37357960D01*
X61737001Y-37357960D02*
X61737001Y-46507960D01*
X61737001Y-46507960D02*
X61737001Y-52685553D01*
X61737001Y-52685553D02*
X61737001Y-53663658D01*
X61737001Y-65152262D02*
X61737001Y-65217000D01*
X61585001Y-33335000D02*
X61585001Y-35849273D01*
X61585001Y-36413727D02*
X61585001Y-37357960D01*
X61585001Y-37357960D02*
X61585001Y-40192001D01*
X61585001Y-40580000D02*
X61585001Y-46507960D01*
X61585001Y-46507960D02*
X61585001Y-52685553D01*
X61585001Y-52685553D02*
X61585001Y-53663658D01*
X61585001Y-65152262D02*
X61585001Y-65217000D01*
X61433001Y-33335000D02*
X61433001Y-35744553D01*
X61433001Y-36518448D02*
X61433001Y-37357960D01*
X61433001Y-37357960D02*
X61433001Y-40025356D01*
X61433001Y-40746645D02*
X61433001Y-46507960D01*
X61433001Y-46507960D02*
X61433001Y-52685553D01*
X61433001Y-52685553D02*
X61433001Y-53663658D01*
X61433001Y-65152262D02*
X61433001Y-65217000D01*
X61281001Y-33335000D02*
X61281001Y-35714500D01*
X61281001Y-36548500D02*
X61281001Y-37357960D01*
X61281001Y-37357960D02*
X61281001Y-39969000D01*
X61281001Y-40803000D02*
X61281001Y-46507960D01*
X61281001Y-46507960D02*
X61281001Y-52685553D01*
X61281001Y-52685553D02*
X61281001Y-53663658D01*
X61281001Y-65152262D02*
X61281001Y-65217000D01*
X61129001Y-33335000D02*
X61129001Y-35741652D01*
X61129001Y-36521347D02*
X61129001Y-37357960D01*
X61129001Y-37357960D02*
X61129001Y-39969849D01*
X61129001Y-40802150D02*
X61129001Y-46507960D01*
X61129001Y-46507960D02*
X61129001Y-52685553D01*
X61129001Y-52685553D02*
X61129001Y-53663658D01*
X61129001Y-65152262D02*
X61129001Y-65217000D01*
X60977001Y-33335000D02*
X60977001Y-35842271D01*
X60977001Y-36420729D02*
X60977001Y-37357960D01*
X60977001Y-37357960D02*
X60977001Y-40033271D01*
X60977001Y-40738729D02*
X60977001Y-46507960D01*
X60977001Y-46507960D02*
X60977001Y-52685553D01*
X60977001Y-52685553D02*
X60977001Y-53663658D01*
X60977001Y-65152262D02*
X60977001Y-65217000D01*
X60825001Y-33335000D02*
X60825001Y-36048553D01*
X60825001Y-36048553D02*
X60825001Y-37357960D01*
X60825001Y-37357960D02*
X60825001Y-40235452D01*
X60825001Y-40536547D02*
X60825001Y-46507960D01*
X60825001Y-46507960D02*
X60825001Y-52685553D01*
X60825001Y-52685553D02*
X60825001Y-53669063D01*
X60825001Y-65144687D02*
X60825001Y-65217000D01*
X60673001Y-33335000D02*
X60673001Y-36048553D01*
X60673001Y-36048553D02*
X60673001Y-37357960D01*
X60673001Y-37357960D02*
X60673001Y-40303053D01*
X60673001Y-40303053D02*
X60673001Y-46507960D01*
X60673001Y-46507960D02*
X60673001Y-52685553D01*
X60673001Y-52685553D02*
X60673001Y-53690642D01*
X60673001Y-65114452D02*
X60673001Y-65217000D01*
X60521001Y-33335000D02*
X60521001Y-36048553D01*
X60521001Y-36048553D02*
X60521001Y-37357960D01*
X60521001Y-37357960D02*
X60521001Y-40303053D01*
X60521001Y-40303053D02*
X60521001Y-46507960D01*
X60521001Y-46507960D02*
X60521001Y-52685553D01*
X60521001Y-52685553D02*
X60521001Y-53763034D01*
X60521001Y-65057353D02*
X60521001Y-65217000D01*
X60369001Y-33335000D02*
X60369001Y-36048553D01*
X60369001Y-36048553D02*
X60369001Y-37357960D01*
X60369001Y-37357960D02*
X60369001Y-40303053D01*
X60369001Y-40303053D02*
X60369001Y-46507960D01*
X60369001Y-46507960D02*
X60369001Y-52685553D01*
X60369001Y-52685553D02*
X60369001Y-53861347D01*
X60369001Y-64955791D02*
X60369001Y-65217000D01*
X60217001Y-33335000D02*
X60217001Y-36048553D01*
X60217001Y-36048553D02*
X60217001Y-37357960D01*
X60217001Y-37357960D02*
X60217001Y-40303053D01*
X60217001Y-40303053D02*
X60217001Y-46507960D01*
X60217001Y-46507960D02*
X60217001Y-52685553D01*
X60217001Y-52685553D02*
X60217001Y-53772227D01*
X60217001Y-65061259D02*
X60217001Y-65217000D01*
X60065001Y-33335000D02*
X60065001Y-36048553D01*
X60065001Y-36048553D02*
X60065001Y-37357960D01*
X60065001Y-37357960D02*
X60065001Y-40303053D01*
X60065001Y-40303053D02*
X60065001Y-46507960D01*
X60065001Y-46507960D02*
X60065001Y-46978473D01*
X60065001Y-47509527D02*
X60065001Y-52685553D01*
X60065001Y-52685553D02*
X60065001Y-53703823D01*
X60065001Y-65100342D02*
X60065001Y-65217000D01*
X59913001Y-33335000D02*
X59913001Y-36048553D01*
X59913001Y-36048553D02*
X59913001Y-37357960D01*
X59913001Y-37357960D02*
X59913001Y-38368273D01*
X59913001Y-38847727D02*
X59913001Y-40303053D01*
X59913001Y-40303053D02*
X59913001Y-46507960D01*
X59913001Y-46507960D02*
X59913001Y-46863970D01*
X59913001Y-47624031D02*
X59913001Y-52685553D01*
X59913001Y-52685553D02*
X59913001Y-53673588D01*
X59913001Y-65139426D02*
X59913001Y-65217000D01*
X59761001Y-33335000D02*
X59761001Y-36048553D01*
X59761001Y-36048553D02*
X59761001Y-37357960D01*
X59761001Y-37357960D02*
X59761001Y-38238657D01*
X59761001Y-38977344D02*
X59761001Y-40303053D01*
X59761001Y-40303053D02*
X59761001Y-46507960D01*
X59761001Y-46507960D02*
X59761001Y-46827000D01*
X59761001Y-47661000D02*
X59761001Y-52685553D01*
X59761001Y-52685553D02*
X59761001Y-53663658D01*
X59761001Y-65152262D02*
X59761001Y-65217000D01*
X59609001Y-33335000D02*
X59609001Y-36048553D01*
X59609001Y-36048553D02*
X59609001Y-37357960D01*
X59609001Y-37357960D02*
X59609001Y-38191000D01*
X59609001Y-39025000D02*
X59609001Y-40303053D01*
X59609001Y-40303053D02*
X59609001Y-46507960D01*
X59609001Y-46507960D02*
X59609001Y-46847235D01*
X59609001Y-47640764D02*
X59609001Y-52685553D01*
X59609001Y-52685553D02*
X59609001Y-53663658D01*
X59609001Y-65152262D02*
X59609001Y-65217000D01*
X59457001Y-33335000D02*
X59457001Y-36048553D01*
X59457001Y-36048553D02*
X59457001Y-37357960D01*
X59457001Y-37357960D02*
X59457001Y-38200548D01*
X59457001Y-39015451D02*
X59457001Y-40303053D01*
X59457001Y-40303053D02*
X59457001Y-46507960D01*
X59457001Y-46507960D02*
X59457001Y-46938071D01*
X59457001Y-47549929D02*
X59457001Y-52685553D01*
X59457001Y-52685553D02*
X59457001Y-53663658D01*
X59457001Y-65152262D02*
X59457001Y-65217000D01*
X59305001Y-33335000D02*
X59305001Y-36048553D01*
X59305001Y-36048553D02*
X59305001Y-37357960D01*
X59305001Y-37357960D02*
X59305001Y-38276271D01*
X59305001Y-38939729D02*
X59305001Y-40303053D01*
X59305001Y-40303053D02*
X59305001Y-46507960D01*
X59305001Y-46507960D02*
X59305001Y-47161053D01*
X59305001Y-47161053D02*
X59305001Y-52685553D01*
X59305001Y-52685553D02*
X59305001Y-53663658D01*
X59305001Y-65152262D02*
X59305001Y-65217000D01*
X59153001Y-33335000D02*
X59153001Y-36048553D01*
X59153001Y-36048553D02*
X59153001Y-37357960D01*
X59153001Y-37357960D02*
X59153001Y-38508150D01*
X59153001Y-38707849D02*
X59153001Y-40303053D01*
X59153001Y-40303053D02*
X59153001Y-46507960D01*
X59153001Y-46507960D02*
X59153001Y-47161053D01*
X59153001Y-47161053D02*
X59153001Y-47878252D01*
X59153001Y-48235349D02*
X59153001Y-52685553D01*
X59153001Y-52685553D02*
X59153001Y-53663658D01*
X59153001Y-65152262D02*
X59153001Y-65217000D01*
X59001001Y-33335000D02*
X59001001Y-36048553D01*
X59001001Y-36048553D02*
X59001001Y-37357960D01*
X59001001Y-37357960D02*
X59001001Y-38525053D01*
X59001001Y-38525053D02*
X59001001Y-40303053D01*
X59001001Y-40303053D02*
X59001001Y-46304418D01*
X59001001Y-46659583D02*
X59001001Y-47161053D01*
X59001001Y-47161053D02*
X59001001Y-47698806D01*
X59001001Y-48414795D02*
X59001001Y-52685553D01*
X59001001Y-52685553D02*
X59001001Y-53663658D01*
X59001001Y-65152262D02*
X59001001Y-65217000D01*
X58849001Y-33335000D02*
X58849001Y-36048553D01*
X58849001Y-36048553D02*
X58849001Y-37357960D01*
X58849001Y-37357960D02*
X58849001Y-38525053D01*
X58849001Y-38525053D02*
X58849001Y-40303053D01*
X58849001Y-40303053D02*
X58849001Y-46124172D01*
X58849001Y-46839829D02*
X58849001Y-47161053D01*
X58849001Y-47161053D02*
X58849001Y-47639800D01*
X58849001Y-48473800D02*
X58849001Y-52685553D01*
X58849001Y-52685553D02*
X58849001Y-53663658D01*
X58849001Y-65152262D02*
X58849001Y-65217000D01*
X58697001Y-33335000D02*
X58697001Y-36048553D01*
X58697001Y-36048553D02*
X58697001Y-37357960D01*
X58697001Y-37357960D02*
X58697001Y-38525053D01*
X58697001Y-38525053D02*
X58697001Y-40303053D01*
X58697001Y-40303053D02*
X58697001Y-46065000D01*
X58697001Y-46899000D02*
X58697001Y-47161053D01*
X58697001Y-47161053D02*
X58697001Y-47639800D01*
X58697001Y-48473800D02*
X58697001Y-52685553D01*
X58697001Y-52685553D02*
X58697001Y-53663658D01*
X58697001Y-65152262D02*
X58697001Y-65217000D01*
X58545001Y-33335000D02*
X58545001Y-36048553D01*
X58545001Y-36048553D02*
X58545001Y-37357960D01*
X58545001Y-37357960D02*
X58545001Y-38525053D01*
X58545001Y-38525053D02*
X58545001Y-40303053D01*
X58545001Y-40303053D02*
X58545001Y-46065000D01*
X58545001Y-46899000D02*
X58545001Y-47161053D01*
X58545001Y-47161053D02*
X58545001Y-47700959D01*
X58545001Y-48412640D02*
X58545001Y-52685553D01*
X58545001Y-52685553D02*
X58545001Y-53663658D01*
X58545001Y-65152262D02*
X58545001Y-65217000D01*
X58393001Y-33335000D02*
X58393001Y-36048553D01*
X58393001Y-36048553D02*
X58393001Y-37357960D01*
X58393001Y-37357960D02*
X58393001Y-38525053D01*
X58393001Y-38525053D02*
X58393001Y-40303053D01*
X58393001Y-40303053D02*
X58393001Y-46125993D01*
X58393001Y-46838006D02*
X58393001Y-47161053D01*
X58393001Y-47161053D02*
X58393001Y-47890801D01*
X58393001Y-48222798D02*
X58393001Y-52685553D01*
X58393001Y-52685553D02*
X58393001Y-53663658D01*
X58393001Y-65152262D02*
X58393001Y-65217000D01*
X58241001Y-33335000D02*
X58241001Y-36048553D01*
X58241001Y-36048553D02*
X58241001Y-37357960D01*
X58241001Y-37357960D02*
X58241001Y-38525053D01*
X58241001Y-38525053D02*
X58241001Y-40303053D01*
X58241001Y-40303053D02*
X58241001Y-46315035D01*
X58241001Y-46648964D02*
X58241001Y-47161053D01*
X58241001Y-47161053D02*
X58241001Y-47973853D01*
X58241001Y-47973853D02*
X58241001Y-48100873D01*
X58241001Y-48723927D02*
X58241001Y-52685553D01*
X58241001Y-52685553D02*
X58241001Y-53663658D01*
X58241001Y-65152262D02*
X58241001Y-65217000D01*
X58089001Y-33335000D02*
X58089001Y-36048553D01*
X58089001Y-36048553D02*
X58089001Y-37357960D01*
X58089001Y-37357960D02*
X58089001Y-38525053D01*
X58089001Y-38525053D02*
X58089001Y-40303053D01*
X58089001Y-40303053D02*
X58089001Y-46399053D01*
X58089001Y-46399053D02*
X58089001Y-47161053D01*
X58089001Y-47161053D02*
X58089001Y-47973853D01*
X58089001Y-47973853D02*
X58089001Y-48013317D01*
X58089001Y-48811484D02*
X58089001Y-52685553D01*
X58089001Y-52685553D02*
X58089001Y-53663658D01*
X58089001Y-65152262D02*
X58089001Y-65217000D01*
X57937001Y-33335000D02*
X57937001Y-36048553D01*
X57937001Y-36048553D02*
X57937001Y-37357960D01*
X57937001Y-37357960D02*
X57937001Y-38525053D01*
X57937001Y-38525053D02*
X57937001Y-40303053D01*
X57937001Y-40303053D02*
X57937001Y-46399053D01*
X57937001Y-46399053D02*
X57937001Y-47161053D01*
X57937001Y-47161053D02*
X57937001Y-47973853D01*
X57937001Y-47973853D02*
X57937001Y-47995400D01*
X57937001Y-48829400D02*
X57937001Y-52685553D01*
X57937001Y-52685553D02*
X57937001Y-53663658D01*
X57937001Y-65152262D02*
X57937001Y-65217000D01*
X57785001Y-33335000D02*
X57785001Y-36048553D01*
X57785001Y-36048553D02*
X57785001Y-37357960D01*
X57785001Y-37357960D02*
X57785001Y-38525053D01*
X57785001Y-38525053D02*
X57785001Y-40303053D01*
X57785001Y-40303053D02*
X57785001Y-46399053D01*
X57785001Y-46399053D02*
X57785001Y-47161053D01*
X57785001Y-47161053D02*
X57785001Y-47973853D01*
X57785001Y-47973853D02*
X57785001Y-48034688D01*
X57785001Y-48790111D02*
X57785001Y-52685553D01*
X57785001Y-52685553D02*
X57785001Y-53663658D01*
X57785001Y-65152262D02*
X57785001Y-65217000D01*
X57633001Y-33335000D02*
X57633001Y-36048553D01*
X57633001Y-36048553D02*
X57633001Y-37357960D01*
X57633001Y-37357960D02*
X57633001Y-38525053D01*
X57633001Y-38525053D02*
X57633001Y-40303053D01*
X57633001Y-40303053D02*
X57633001Y-46399053D01*
X57633001Y-46399053D02*
X57633001Y-47161053D01*
X57633001Y-47161053D02*
X57633001Y-47973853D01*
X57633001Y-47973853D02*
X57633001Y-48152471D01*
X57633001Y-48672329D02*
X57633001Y-52685553D01*
X57633001Y-52685553D02*
X57633001Y-53663658D01*
X57633001Y-65152262D02*
X57633001Y-65217000D01*
X57481001Y-33335000D02*
X57481001Y-36048553D01*
X57481001Y-36048553D02*
X57481001Y-37357960D01*
X57481001Y-37357960D02*
X57481001Y-38525053D01*
X57481001Y-38525053D02*
X57481001Y-40303053D01*
X57481001Y-40303053D02*
X57481001Y-46399053D01*
X57481001Y-46399053D02*
X57481001Y-47161053D01*
X57481001Y-47161053D02*
X57481001Y-47973853D01*
X57481001Y-47973853D02*
X57481001Y-48329453D01*
X57481001Y-48329453D02*
X57481001Y-52685553D01*
X57481001Y-52685553D02*
X57481001Y-53663658D01*
X57481001Y-65152262D02*
X57481001Y-65217000D01*
X57329001Y-33335000D02*
X57329001Y-36048553D01*
X57329001Y-36048553D02*
X57329001Y-37357960D01*
X57329001Y-37357960D02*
X57329001Y-38525053D01*
X57329001Y-38525053D02*
X57329001Y-40303053D01*
X57329001Y-40303053D02*
X57329001Y-46399053D01*
X57329001Y-46399053D02*
X57329001Y-47161053D01*
X57329001Y-47161053D02*
X57329001Y-47973853D01*
X57329001Y-47973853D02*
X57329001Y-48329453D01*
X57329001Y-48329453D02*
X57329001Y-52685553D01*
X57329001Y-52685553D02*
X57329001Y-53663658D01*
X57329001Y-65152262D02*
X57329001Y-65217000D01*
X57177001Y-33335000D02*
X57177001Y-36048553D01*
X57177001Y-36048553D02*
X57177001Y-37357960D01*
X57177001Y-37357960D02*
X57177001Y-38525053D01*
X57177001Y-38525053D02*
X57177001Y-40303053D01*
X57177001Y-40303053D02*
X57177001Y-46399053D01*
X57177001Y-46399053D02*
X57177001Y-47161053D01*
X57177001Y-47161053D02*
X57177001Y-47973853D01*
X57177001Y-47973853D02*
X57177001Y-48329453D01*
X57177001Y-48329453D02*
X57177001Y-52685553D01*
X57177001Y-52685553D02*
X57177001Y-53663658D01*
X57177001Y-65152262D02*
X57177001Y-65217000D01*
X57025001Y-33335000D02*
X57025001Y-36048553D01*
X57025001Y-36048553D02*
X57025001Y-37357960D01*
X57025001Y-37357960D02*
X57025001Y-38525053D01*
X57025001Y-38525053D02*
X57025001Y-40303053D01*
X57025001Y-40303053D02*
X57025001Y-46399053D01*
X57025001Y-46399053D02*
X57025001Y-47161053D01*
X57025001Y-47161053D02*
X57025001Y-47973853D01*
X57025001Y-47973853D02*
X57025001Y-48329453D01*
X57025001Y-48329453D02*
X57025001Y-52685553D01*
X57025001Y-52685553D02*
X57025001Y-53663658D01*
X57025001Y-65152262D02*
X57025001Y-65217000D01*
X56873001Y-33335000D02*
X56873001Y-36048553D01*
X56873001Y-36048553D02*
X56873001Y-37357960D01*
X56873001Y-37357960D02*
X56873001Y-38525053D01*
X56873001Y-38525053D02*
X56873001Y-40303053D01*
X56873001Y-40303053D02*
X56873001Y-46399053D01*
X56873001Y-46399053D02*
X56873001Y-47161053D01*
X56873001Y-47161053D02*
X56873001Y-47973853D01*
X56873001Y-47973853D02*
X56873001Y-48329453D01*
X56873001Y-48329453D02*
X56873001Y-52685553D01*
X56873001Y-52685553D02*
X56873001Y-53663658D01*
X56873001Y-65152262D02*
X56873001Y-65217000D01*
X56721001Y-33335000D02*
X56721001Y-36048553D01*
X56721001Y-36048553D02*
X56721001Y-37357960D01*
X56721001Y-37357960D02*
X56721001Y-38525053D01*
X56721001Y-38525053D02*
X56721001Y-40303053D01*
X56721001Y-40303053D02*
X56721001Y-46399053D01*
X56721001Y-46399053D02*
X56721001Y-47161053D01*
X56721001Y-47161053D02*
X56721001Y-47973853D01*
X56721001Y-47973853D02*
X56721001Y-48329453D01*
X56721001Y-48329453D02*
X56721001Y-52685553D01*
X56721001Y-52685553D02*
X56721001Y-53663658D01*
X56721001Y-65152262D02*
X56721001Y-65217000D01*
X56569001Y-33335000D02*
X56569001Y-36048553D01*
X56569001Y-36048553D02*
X56569001Y-37357960D01*
X56569001Y-37357960D02*
X56569001Y-38525053D01*
X56569001Y-38525053D02*
X56569001Y-40303053D01*
X56569001Y-40303053D02*
X56569001Y-46399053D01*
X56569001Y-46399053D02*
X56569001Y-47161053D01*
X56569001Y-47161053D02*
X56569001Y-47973853D01*
X56569001Y-47973853D02*
X56569001Y-48329453D01*
X56569001Y-48329453D02*
X56569001Y-52685553D01*
X56569001Y-52685553D02*
X56569001Y-53663658D01*
X56569001Y-65152262D02*
X56569001Y-65217000D01*
X56417001Y-33335000D02*
X56417001Y-36048553D01*
X56417001Y-36048553D02*
X56417001Y-37357960D01*
X56417001Y-37357960D02*
X56417001Y-38525053D01*
X56417001Y-38525053D02*
X56417001Y-40303053D01*
X56417001Y-40303053D02*
X56417001Y-46399053D01*
X56417001Y-46399053D02*
X56417001Y-47161053D01*
X56417001Y-47161053D02*
X56417001Y-47973853D01*
X56417001Y-47973853D02*
X56417001Y-48329453D01*
X56417001Y-48329453D02*
X56417001Y-52685553D01*
X56417001Y-52685553D02*
X56417001Y-53663658D01*
X56417001Y-65152262D02*
X56417001Y-65217000D01*
X56265001Y-33335000D02*
X56265001Y-36048553D01*
X56265001Y-36048553D02*
X56265001Y-37357960D01*
X56265001Y-37357960D02*
X56265001Y-38525053D01*
X56265001Y-38525053D02*
X56265001Y-40303053D01*
X56265001Y-40303053D02*
X56265001Y-46399053D01*
X56265001Y-46399053D02*
X56265001Y-47161053D01*
X56265001Y-47161053D02*
X56265001Y-47973853D01*
X56265001Y-47973853D02*
X56265001Y-48329453D01*
X56265001Y-48329453D02*
X56265001Y-52685553D01*
X56265001Y-52685553D02*
X56265001Y-53663658D01*
X56265001Y-65152262D02*
X56265001Y-65217000D01*
X56113001Y-33335000D02*
X56113001Y-36048553D01*
X56113001Y-36048553D02*
X56113001Y-37357960D01*
X56113001Y-37357960D02*
X56113001Y-38525053D01*
X56113001Y-38525053D02*
X56113001Y-40303053D01*
X56113001Y-40303053D02*
X56113001Y-46399053D01*
X56113001Y-46399053D02*
X56113001Y-47161053D01*
X56113001Y-47161053D02*
X56113001Y-47973853D01*
X56113001Y-47973853D02*
X56113001Y-48329453D01*
X56113001Y-48329453D02*
X56113001Y-52685553D01*
X56113001Y-52685553D02*
X56113001Y-53663658D01*
X56113001Y-65152262D02*
X56113001Y-65217000D01*
X55961001Y-33335000D02*
X55961001Y-36048553D01*
X55961001Y-36048553D02*
X55961001Y-37357960D01*
X55961001Y-37357960D02*
X55961001Y-38525053D01*
X55961001Y-38525053D02*
X55961001Y-40303053D01*
X55961001Y-40303053D02*
X55961001Y-46399053D01*
X55961001Y-46399053D02*
X55961001Y-47161053D01*
X55961001Y-47161053D02*
X55961001Y-47973853D01*
X55961001Y-47973853D02*
X55961001Y-48329453D01*
X55961001Y-48329453D02*
X55961001Y-52685553D01*
X55961001Y-52685553D02*
X55961001Y-53663658D01*
X55961001Y-65152262D02*
X55961001Y-65217000D01*
X55809001Y-33335000D02*
X55809001Y-36048553D01*
X55809001Y-36048553D02*
X55809001Y-37357960D01*
X55809001Y-37357960D02*
X55809001Y-38525053D01*
X55809001Y-38525053D02*
X55809001Y-40303053D01*
X55809001Y-40303053D02*
X55809001Y-46399053D01*
X55809001Y-46399053D02*
X55809001Y-47161053D01*
X55809001Y-47161053D02*
X55809001Y-47973853D01*
X55809001Y-47973853D02*
X55809001Y-48329453D01*
X55809001Y-48329453D02*
X55809001Y-52685553D01*
X55809001Y-52685553D02*
X55809001Y-53663658D01*
X55809001Y-65152262D02*
X55809001Y-65217000D01*
X55657001Y-33335000D02*
X55657001Y-36048553D01*
X55657001Y-36048553D02*
X55657001Y-37357960D01*
X55657001Y-37357960D02*
X55657001Y-38525053D01*
X55657001Y-38525053D02*
X55657001Y-40303053D01*
X55657001Y-40303053D02*
X55657001Y-46399053D01*
X55657001Y-46399053D02*
X55657001Y-47161053D01*
X55657001Y-47161053D02*
X55657001Y-47973853D01*
X55657001Y-47973853D02*
X55657001Y-48329453D01*
X55657001Y-48329453D02*
X55657001Y-52685553D01*
X55657001Y-52685553D02*
X55657001Y-53663658D01*
X55657001Y-65152262D02*
X55657001Y-65217000D01*
X55505001Y-33335000D02*
X55505001Y-36048553D01*
X55505001Y-36048553D02*
X55505001Y-37357960D01*
X55505001Y-37357960D02*
X55505001Y-38525053D01*
X55505001Y-38525053D02*
X55505001Y-40303053D01*
X55505001Y-40303053D02*
X55505001Y-46399053D01*
X55505001Y-46399053D02*
X55505001Y-47161053D01*
X55505001Y-47161053D02*
X55505001Y-47973853D01*
X55505001Y-47973853D02*
X55505001Y-48329453D01*
X55505001Y-48329453D02*
X55505001Y-52685553D01*
X55505001Y-52685553D02*
X55505001Y-53663658D01*
X55505001Y-65152262D02*
X55505001Y-65217000D01*
X55353001Y-33335000D02*
X55353001Y-36048553D01*
X55353001Y-36048553D02*
X55353001Y-37357960D01*
X55353001Y-37357960D02*
X55353001Y-38525053D01*
X55353001Y-38525053D02*
X55353001Y-40303053D01*
X55353001Y-40303053D02*
X55353001Y-46399053D01*
X55353001Y-46399053D02*
X55353001Y-47161053D01*
X55353001Y-47161053D02*
X55353001Y-47973853D01*
X55353001Y-47973853D02*
X55353001Y-48329453D01*
X55353001Y-48329453D02*
X55353001Y-52685553D01*
X55353001Y-52685553D02*
X55353001Y-53663658D01*
X55353001Y-65152262D02*
X55353001Y-65217000D01*
X55201001Y-33335000D02*
X55201001Y-36048553D01*
X55201001Y-36048553D02*
X55201001Y-37357960D01*
X55201001Y-37357960D02*
X55201001Y-38525053D01*
X55201001Y-38525053D02*
X55201001Y-40303053D01*
X55201001Y-40303053D02*
X55201001Y-46399053D01*
X55201001Y-46399053D02*
X55201001Y-47161053D01*
X55201001Y-47161053D02*
X55201001Y-47973853D01*
X55201001Y-47973853D02*
X55201001Y-48329453D01*
X55201001Y-48329453D02*
X55201001Y-52685553D01*
X55201001Y-52685553D02*
X55201001Y-53663658D01*
X55201001Y-65152262D02*
X55201001Y-65217000D01*
X55049001Y-33335000D02*
X55049001Y-36048553D01*
X55049001Y-36048553D02*
X55049001Y-37357960D01*
X55049001Y-37357960D02*
X55049001Y-38525053D01*
X55049001Y-38525053D02*
X55049001Y-40303053D01*
X55049001Y-40303053D02*
X55049001Y-46399053D01*
X55049001Y-46399053D02*
X55049001Y-47161053D01*
X55049001Y-47161053D02*
X55049001Y-47973853D01*
X55049001Y-47973853D02*
X55049001Y-48329453D01*
X55049001Y-48329453D02*
X55049001Y-52685553D01*
X55049001Y-52685553D02*
X55049001Y-53663658D01*
X55049001Y-65152262D02*
X55049001Y-65217000D01*
X54897001Y-33335000D02*
X54897001Y-36048553D01*
X54897001Y-36048553D02*
X54897001Y-37357960D01*
X54897001Y-37357960D02*
X54897001Y-38525053D01*
X54897001Y-38525053D02*
X54897001Y-40303053D01*
X54897001Y-40303053D02*
X54897001Y-46399053D01*
X54897001Y-46399053D02*
X54897001Y-47161053D01*
X54897001Y-47161053D02*
X54897001Y-47973853D01*
X54897001Y-47973853D02*
X54897001Y-48329453D01*
X54897001Y-48329453D02*
X54897001Y-52685553D01*
X54897001Y-52685553D02*
X54897001Y-53663658D01*
X54897001Y-65152262D02*
X54897001Y-65217000D01*
X54745001Y-33335000D02*
X54745001Y-36048553D01*
X54745001Y-36048553D02*
X54745001Y-37357960D01*
X54745001Y-37357960D02*
X54745001Y-38525053D01*
X54745001Y-38525053D02*
X54745001Y-40303053D01*
X54745001Y-40303053D02*
X54745001Y-46399053D01*
X54745001Y-46399053D02*
X54745001Y-47161053D01*
X54745001Y-47161053D02*
X54745001Y-47973853D01*
X54745001Y-47973853D02*
X54745001Y-48329453D01*
X54745001Y-48329453D02*
X54745001Y-52685553D01*
X54745001Y-52685553D02*
X54745001Y-53663658D01*
X54745001Y-65152262D02*
X54745001Y-65217000D01*
X54593001Y-33335000D02*
X54593001Y-36048553D01*
X54593001Y-36048553D02*
X54593001Y-37357960D01*
X54593001Y-37357960D02*
X54593001Y-38525053D01*
X54593001Y-38525053D02*
X54593001Y-40303053D01*
X54593001Y-40303053D02*
X54593001Y-46399053D01*
X54593001Y-46399053D02*
X54593001Y-47161053D01*
X54593001Y-47161053D02*
X54593001Y-47973853D01*
X54593001Y-47973853D02*
X54593001Y-48329453D01*
X54593001Y-48329453D02*
X54593001Y-52685553D01*
X54593001Y-52685553D02*
X54593001Y-53663658D01*
X54593001Y-65152262D02*
X54593001Y-65217000D01*
X54441001Y-33335000D02*
X54441001Y-36048553D01*
X54441001Y-36048553D02*
X54441001Y-37357960D01*
X54441001Y-37357960D02*
X54441001Y-38525053D01*
X54441001Y-38525053D02*
X54441001Y-40303053D01*
X54441001Y-40303053D02*
X54441001Y-46399053D01*
X54441001Y-46399053D02*
X54441001Y-47161053D01*
X54441001Y-47161053D02*
X54441001Y-47973853D01*
X54441001Y-47973853D02*
X54441001Y-48329453D01*
X54441001Y-48329453D02*
X54441001Y-52685553D01*
X54441001Y-52685553D02*
X54441001Y-53663658D01*
X54441001Y-65152262D02*
X54441001Y-65217000D01*
X54289001Y-33335000D02*
X54289001Y-36048553D01*
X54289001Y-36048553D02*
X54289001Y-37357960D01*
X54289001Y-37357960D02*
X54289001Y-38525053D01*
X54289001Y-38525053D02*
X54289001Y-40303053D01*
X54289001Y-40303053D02*
X54289001Y-46399053D01*
X54289001Y-46399053D02*
X54289001Y-47161053D01*
X54289001Y-47161053D02*
X54289001Y-47973853D01*
X54289001Y-47973853D02*
X54289001Y-48329453D01*
X54289001Y-48329453D02*
X54289001Y-52685553D01*
X54289001Y-52685553D02*
X54289001Y-53663658D01*
X54289001Y-65152262D02*
X54289001Y-65217000D01*
X54137001Y-33335000D02*
X54137001Y-36048553D01*
X54137001Y-36048553D02*
X54137001Y-37357960D01*
X54137001Y-37357960D02*
X54137001Y-38525053D01*
X54137001Y-38525053D02*
X54137001Y-40303053D01*
X54137001Y-40303053D02*
X54137001Y-46399053D01*
X54137001Y-46399053D02*
X54137001Y-47161053D01*
X54137001Y-47161053D02*
X54137001Y-47973853D01*
X54137001Y-47973853D02*
X54137001Y-48329453D01*
X54137001Y-48329453D02*
X54137001Y-52685553D01*
X54137001Y-52685553D02*
X54137001Y-53663658D01*
X54137001Y-65152262D02*
X54137001Y-65217000D01*
X53985001Y-33335000D02*
X53985001Y-36048553D01*
X53985001Y-36048553D02*
X53985001Y-37357960D01*
X53985001Y-37357960D02*
X53985001Y-38525053D01*
X53985001Y-38525053D02*
X53985001Y-40303053D01*
X53985001Y-40303053D02*
X53985001Y-46399053D01*
X53985001Y-46399053D02*
X53985001Y-47161053D01*
X53985001Y-47161053D02*
X53985001Y-47973853D01*
X53985001Y-47973853D02*
X53985001Y-48329453D01*
X53985001Y-48329453D02*
X53985001Y-52685553D01*
X53985001Y-52685553D02*
X53985001Y-53663658D01*
X53985001Y-65152262D02*
X53985001Y-65217000D01*
X53833001Y-33335000D02*
X53833001Y-36048553D01*
X53833001Y-36048553D02*
X53833001Y-37357960D01*
X53833001Y-37357960D02*
X53833001Y-38525053D01*
X53833001Y-38525053D02*
X53833001Y-40303053D01*
X53833001Y-40303053D02*
X53833001Y-46399053D01*
X53833001Y-46399053D02*
X53833001Y-47161053D01*
X53833001Y-47161053D02*
X53833001Y-47973853D01*
X53833001Y-47973853D02*
X53833001Y-48329453D01*
X53833001Y-48329453D02*
X53833001Y-52685553D01*
X53833001Y-52685553D02*
X53833001Y-53667928D01*
X53833001Y-65146278D02*
X53833001Y-65217000D01*
X53681001Y-33335000D02*
X53681001Y-36048553D01*
X53681001Y-36048553D02*
X53681001Y-37357960D01*
X53681001Y-37357960D02*
X53681001Y-38525053D01*
X53681001Y-38525053D02*
X53681001Y-40303053D01*
X53681001Y-40303053D02*
X53681001Y-46399053D01*
X53681001Y-46399053D02*
X53681001Y-47161053D01*
X53681001Y-47161053D02*
X53681001Y-47973853D01*
X53681001Y-47973853D02*
X53681001Y-48329453D01*
X53681001Y-48329453D02*
X53681001Y-52685553D01*
X53681001Y-52685553D02*
X53681001Y-53689506D01*
X53681001Y-65116043D02*
X53681001Y-65217000D01*
X53529001Y-33335000D02*
X53529001Y-36048553D01*
X53529001Y-36048553D02*
X53529001Y-37357960D01*
X53529001Y-37357960D02*
X53529001Y-38525053D01*
X53529001Y-38525053D02*
X53529001Y-40303053D01*
X53529001Y-40303053D02*
X53529001Y-46399053D01*
X53529001Y-46399053D02*
X53529001Y-47161053D01*
X53529001Y-47161053D02*
X53529001Y-47973853D01*
X53529001Y-47973853D02*
X53529001Y-48329453D01*
X53529001Y-48329453D02*
X53529001Y-52685553D01*
X53529001Y-52685553D02*
X53529001Y-53758886D01*
X53529001Y-65062699D02*
X53529001Y-65217000D01*
X53377001Y-33335000D02*
X53377001Y-36048553D01*
X53377001Y-36048553D02*
X53377001Y-37357960D01*
X53377001Y-37357960D02*
X53377001Y-38525053D01*
X53377001Y-38525053D02*
X53377001Y-40303053D01*
X53377001Y-40303053D02*
X53377001Y-46399053D01*
X53377001Y-46399053D02*
X53377001Y-47161053D01*
X53377001Y-47161053D02*
X53377001Y-47973853D01*
X53377001Y-47973853D02*
X53377001Y-48329453D01*
X53377001Y-48329453D02*
X53377001Y-52685553D01*
X53377001Y-52685553D02*
X53377001Y-53851844D01*
X53377001Y-64961136D02*
X53377001Y-65217000D01*
X53225001Y-33335000D02*
X53225001Y-36048553D01*
X53225001Y-36048553D02*
X53225001Y-37357960D01*
X53225001Y-37357960D02*
X53225001Y-38525053D01*
X53225001Y-38525053D02*
X53225001Y-40303053D01*
X53225001Y-40303053D02*
X53225001Y-46399053D01*
X53225001Y-46399053D02*
X53225001Y-47161053D01*
X53225001Y-47161053D02*
X53225001Y-47973853D01*
X53225001Y-47973853D02*
X53225001Y-48329453D01*
X53225001Y-48329453D02*
X53225001Y-52685553D01*
X53225001Y-52685553D02*
X53225001Y-53778238D01*
X53225001Y-65057510D02*
X53225001Y-65217000D01*
X53073001Y-33335000D02*
X53073001Y-36048553D01*
X53073001Y-36048553D02*
X53073001Y-37357960D01*
X53073001Y-37357960D02*
X53073001Y-38525053D01*
X53073001Y-38525053D02*
X53073001Y-40303053D01*
X53073001Y-40303053D02*
X53073001Y-46399053D01*
X53073001Y-46399053D02*
X53073001Y-47161053D01*
X53073001Y-47161053D02*
X53073001Y-47973853D01*
X53073001Y-47973853D02*
X53073001Y-48329453D01*
X53073001Y-48329453D02*
X53073001Y-52685553D01*
X53073001Y-52685553D02*
X53073001Y-53705415D01*
X53073001Y-65098285D02*
X53073001Y-65217000D01*
X52921001Y-33335000D02*
X52921001Y-36048553D01*
X52921001Y-36048553D02*
X52921001Y-37357960D01*
X52921001Y-37357960D02*
X52921001Y-38525053D01*
X52921001Y-38525053D02*
X52921001Y-40303053D01*
X52921001Y-40303053D02*
X52921001Y-46399053D01*
X52921001Y-46399053D02*
X52921001Y-47161053D01*
X52921001Y-47161053D02*
X52921001Y-47973853D01*
X52921001Y-47973853D02*
X52921001Y-48329453D01*
X52921001Y-48329453D02*
X52921001Y-52685553D01*
X52921001Y-52685553D02*
X52921001Y-53675180D01*
X52921001Y-65137369D02*
X52921001Y-65217000D01*
X52769001Y-33335000D02*
X52769001Y-36048553D01*
X52769001Y-36048553D02*
X52769001Y-37357960D01*
X52769001Y-37357960D02*
X52769001Y-38525053D01*
X52769001Y-38525053D02*
X52769001Y-40303053D01*
X52769001Y-40303053D02*
X52769001Y-46399053D01*
X52769001Y-46399053D02*
X52769001Y-47161053D01*
X52769001Y-47161053D02*
X52769001Y-47973853D01*
X52769001Y-47973853D02*
X52769001Y-48329453D01*
X52769001Y-48329453D02*
X52769001Y-52685553D01*
X52769001Y-52685553D02*
X52769001Y-53663658D01*
X52769001Y-65152262D02*
X52769001Y-65217000D01*
X52617001Y-33335000D02*
X52617001Y-36048553D01*
X52617001Y-36048553D02*
X52617001Y-37357960D01*
X52617001Y-37357960D02*
X52617001Y-38525053D01*
X52617001Y-38525053D02*
X52617001Y-40303053D01*
X52617001Y-40303053D02*
X52617001Y-46399053D01*
X52617001Y-46399053D02*
X52617001Y-47161053D01*
X52617001Y-47161053D02*
X52617001Y-47973853D01*
X52617001Y-47973853D02*
X52617001Y-48329453D01*
X52617001Y-48329453D02*
X52617001Y-52685553D01*
X52617001Y-52685553D02*
X52617001Y-53663658D01*
X52617001Y-65152262D02*
X52617001Y-65217000D01*
X52465001Y-33335000D02*
X52465001Y-36048553D01*
X52465001Y-36048553D02*
X52465001Y-37357960D01*
X52465001Y-37357960D02*
X52465001Y-38525053D01*
X52465001Y-38525053D02*
X52465001Y-40303053D01*
X52465001Y-40303053D02*
X52465001Y-46399053D01*
X52465001Y-46399053D02*
X52465001Y-47161053D01*
X52465001Y-47161053D02*
X52465001Y-47973853D01*
X52465001Y-47973853D02*
X52465001Y-48329453D01*
X52465001Y-48329453D02*
X52465001Y-52685553D01*
X52465001Y-52685553D02*
X52465001Y-53663658D01*
X52465001Y-65152262D02*
X52465001Y-65217000D01*
X52313001Y-33335000D02*
X52313001Y-36048553D01*
X52313001Y-36048553D02*
X52313001Y-37357960D01*
X52313001Y-37357960D02*
X52313001Y-38525053D01*
X52313001Y-38525053D02*
X52313001Y-40303053D01*
X52313001Y-40303053D02*
X52313001Y-46399053D01*
X52313001Y-46399053D02*
X52313001Y-47161053D01*
X52313001Y-47161053D02*
X52313001Y-47973853D01*
X52313001Y-47973853D02*
X52313001Y-48329453D01*
X52313001Y-48329453D02*
X52313001Y-52685553D01*
X52313001Y-52685553D02*
X52313001Y-53663658D01*
X52313001Y-65152262D02*
X52313001Y-65217000D01*
X52161001Y-33335000D02*
X52161001Y-36048553D01*
X52161001Y-36048553D02*
X52161001Y-37357960D01*
X52161001Y-37357960D02*
X52161001Y-38525053D01*
X52161001Y-38525053D02*
X52161001Y-40303053D01*
X52161001Y-40303053D02*
X52161001Y-46399053D01*
X52161001Y-46399053D02*
X52161001Y-47161053D01*
X52161001Y-47161053D02*
X52161001Y-47973853D01*
X52161001Y-47973853D02*
X52161001Y-48329453D01*
X52161001Y-48329453D02*
X52161001Y-52685553D01*
X52161001Y-52685553D02*
X52161001Y-53663658D01*
X52161001Y-65152262D02*
X52161001Y-65217000D01*
X52009001Y-33335000D02*
X52009001Y-36048553D01*
X52009001Y-36048553D02*
X52009001Y-37357960D01*
X52009001Y-37357960D02*
X52009001Y-38525053D01*
X52009001Y-38525053D02*
X52009001Y-40303053D01*
X52009001Y-40303053D02*
X52009001Y-46399053D01*
X52009001Y-46399053D02*
X52009001Y-47161053D01*
X52009001Y-47161053D02*
X52009001Y-47973853D01*
X52009001Y-47973853D02*
X52009001Y-48329453D01*
X52009001Y-48329453D02*
X52009001Y-52685553D01*
X52009001Y-52685553D02*
X52009001Y-53663658D01*
X52009001Y-65152262D02*
X52009001Y-65217000D01*
X51857001Y-33335000D02*
X51857001Y-36048553D01*
X51857001Y-36048553D02*
X51857001Y-37357960D01*
X51857001Y-37357960D02*
X51857001Y-38525053D01*
X51857001Y-38525053D02*
X51857001Y-40303053D01*
X51857001Y-40303053D02*
X51857001Y-46399053D01*
X51857001Y-46399053D02*
X51857001Y-47161053D01*
X51857001Y-47161053D02*
X51857001Y-47973853D01*
X51857001Y-47973853D02*
X51857001Y-48329453D01*
X51857001Y-48329453D02*
X51857001Y-52685553D01*
X51857001Y-52685553D02*
X51857001Y-53663658D01*
X51857001Y-65152262D02*
X51857001Y-65217000D01*
X51705001Y-33335000D02*
X51705001Y-36048553D01*
X51705001Y-36048553D02*
X51705001Y-37357960D01*
X51705001Y-37357960D02*
X51705001Y-38525053D01*
X51705001Y-38525053D02*
X51705001Y-40303053D01*
X51705001Y-40303053D02*
X51705001Y-46399053D01*
X51705001Y-46399053D02*
X51705001Y-47161053D01*
X51705001Y-47161053D02*
X51705001Y-47973853D01*
X51705001Y-47973853D02*
X51705001Y-48329453D01*
X51705001Y-48329453D02*
X51705001Y-52685553D01*
X51705001Y-52685553D02*
X51705001Y-53663658D01*
X51705001Y-65152262D02*
X51705001Y-65217000D01*
X51553001Y-33335000D02*
X51553001Y-36048553D01*
X51553001Y-36048553D02*
X51553001Y-37357960D01*
X51553001Y-37357960D02*
X51553001Y-38525053D01*
X51553001Y-38525053D02*
X51553001Y-40303053D01*
X51553001Y-40303053D02*
X51553001Y-46399053D01*
X51553001Y-46399053D02*
X51553001Y-47161053D01*
X51553001Y-47161053D02*
X51553001Y-47973853D01*
X51553001Y-47973853D02*
X51553001Y-48329453D01*
X51553001Y-48329453D02*
X51553001Y-52685553D01*
X51553001Y-52685553D02*
X51553001Y-53663658D01*
X51553001Y-65152262D02*
X51553001Y-65217000D01*
X51401001Y-33335000D02*
X51401001Y-36048553D01*
X51401001Y-36048553D02*
X51401001Y-37357960D01*
X51401001Y-37357960D02*
X51401001Y-38525053D01*
X51401001Y-38525053D02*
X51401001Y-40303053D01*
X51401001Y-40303053D02*
X51401001Y-46399053D01*
X51401001Y-46399053D02*
X51401001Y-47161053D01*
X51401001Y-47161053D02*
X51401001Y-47973853D01*
X51401001Y-47973853D02*
X51401001Y-48329453D01*
X51401001Y-48329453D02*
X51401001Y-52685553D01*
X51401001Y-52685553D02*
X51401001Y-53663658D01*
X51401001Y-65152262D02*
X51401001Y-65217000D01*
X51249001Y-33335000D02*
X51249001Y-36048553D01*
X51249001Y-36048553D02*
X51249001Y-37357960D01*
X51249001Y-37357960D02*
X51249001Y-38525053D01*
X51249001Y-38525053D02*
X51249001Y-40303053D01*
X51249001Y-40303053D02*
X51249001Y-46399053D01*
X51249001Y-46399053D02*
X51249001Y-47161053D01*
X51249001Y-47161053D02*
X51249001Y-47973853D01*
X51249001Y-47973853D02*
X51249001Y-48329453D01*
X51249001Y-48329453D02*
X51249001Y-52685553D01*
X51249001Y-52685553D02*
X51249001Y-53663658D01*
X51249001Y-65152262D02*
X51249001Y-65217000D01*
X51097001Y-33335000D02*
X51097001Y-36048553D01*
X51097001Y-36048553D02*
X51097001Y-37357960D01*
X51097001Y-37357960D02*
X51097001Y-38525053D01*
X51097001Y-38525053D02*
X51097001Y-40303053D01*
X51097001Y-40303053D02*
X51097001Y-46399053D01*
X51097001Y-46399053D02*
X51097001Y-47161053D01*
X51097001Y-47161053D02*
X51097001Y-47973853D01*
X51097001Y-47973853D02*
X51097001Y-48329453D01*
X51097001Y-48329453D02*
X51097001Y-52685553D01*
X51097001Y-52685553D02*
X51097001Y-53663658D01*
X51097001Y-65152262D02*
X51097001Y-65217000D01*
X50945001Y-33335000D02*
X50945001Y-36048553D01*
X50945001Y-36048553D02*
X50945001Y-37357960D01*
X50945001Y-37357960D02*
X50945001Y-38525053D01*
X50945001Y-38525053D02*
X50945001Y-40303053D01*
X50945001Y-40303053D02*
X50945001Y-46399053D01*
X50945001Y-46399053D02*
X50945001Y-47161053D01*
X50945001Y-47161053D02*
X50945001Y-47973853D01*
X50945001Y-47973853D02*
X50945001Y-48329453D01*
X50945001Y-48329453D02*
X50945001Y-52685553D01*
X50945001Y-52685553D02*
X50945001Y-53663658D01*
X50945001Y-65152262D02*
X50945001Y-65217000D01*
X50793001Y-33335000D02*
X50793001Y-36048553D01*
X50793001Y-36048553D02*
X50793001Y-37357960D01*
X50793001Y-37357960D02*
X50793001Y-38525053D01*
X50793001Y-38525053D02*
X50793001Y-40303053D01*
X50793001Y-40303053D02*
X50793001Y-46399053D01*
X50793001Y-46399053D02*
X50793001Y-47161053D01*
X50793001Y-47161053D02*
X50793001Y-47973853D01*
X50793001Y-47973853D02*
X50793001Y-48329453D01*
X50793001Y-48329453D02*
X50793001Y-52685553D01*
X50793001Y-52685553D02*
X50793001Y-53663658D01*
X50793001Y-65152262D02*
X50793001Y-65217000D01*
X50641001Y-33335000D02*
X50641001Y-36048553D01*
X50641001Y-36048553D02*
X50641001Y-37357960D01*
X50641001Y-37357960D02*
X50641001Y-38525053D01*
X50641001Y-38525053D02*
X50641001Y-40303053D01*
X50641001Y-40303053D02*
X50641001Y-46399053D01*
X50641001Y-46399053D02*
X50641001Y-47161053D01*
X50641001Y-47161053D02*
X50641001Y-47973853D01*
X50641001Y-47973853D02*
X50641001Y-48329453D01*
X50641001Y-48329453D02*
X50641001Y-52685553D01*
X50641001Y-52685553D02*
X50641001Y-53663658D01*
X50641001Y-65152262D02*
X50641001Y-65217000D01*
X50489001Y-33335000D02*
X50489001Y-36048553D01*
X50489001Y-36048553D02*
X50489001Y-37357960D01*
X50489001Y-37357960D02*
X50489001Y-38525053D01*
X50489001Y-38525053D02*
X50489001Y-40303053D01*
X50489001Y-40303053D02*
X50489001Y-46399053D01*
X50489001Y-46399053D02*
X50489001Y-47161053D01*
X50489001Y-47161053D02*
X50489001Y-47973853D01*
X50489001Y-47973853D02*
X50489001Y-48329453D01*
X50489001Y-48329453D02*
X50489001Y-52685553D01*
X50489001Y-52685553D02*
X50489001Y-53663658D01*
X50489001Y-65152262D02*
X50489001Y-65217000D01*
X50337001Y-33335000D02*
X50337001Y-36048553D01*
X50337001Y-36048553D02*
X50337001Y-37357960D01*
X50337001Y-37357960D02*
X50337001Y-38525053D01*
X50337001Y-38525053D02*
X50337001Y-40303053D01*
X50337001Y-40303053D02*
X50337001Y-46399053D01*
X50337001Y-46399053D02*
X50337001Y-47161053D01*
X50337001Y-47161053D02*
X50337001Y-47973853D01*
X50337001Y-47973853D02*
X50337001Y-48329453D01*
X50337001Y-48329453D02*
X50337001Y-52685553D01*
X50337001Y-52685553D02*
X50337001Y-53668473D01*
X50337001Y-65147447D02*
X50337001Y-65217000D01*
X50185001Y-33343821D02*
X50185001Y-36048553D01*
X50185001Y-36048553D02*
X50185001Y-37357960D01*
X50185001Y-37357960D02*
X50185001Y-38525053D01*
X50185001Y-38525053D02*
X50185001Y-40303053D01*
X50185001Y-40303053D02*
X50185001Y-46399053D01*
X50185001Y-46399053D02*
X50185001Y-47161053D01*
X50185001Y-47161053D02*
X50185001Y-47973853D01*
X50185001Y-47973853D02*
X50185001Y-48329453D01*
X50185001Y-48329453D02*
X50185001Y-52685553D01*
X50185001Y-52685553D02*
X50185001Y-53676358D01*
X50185001Y-65139561D02*
X50185001Y-65198463D01*
X50033001Y-33358739D02*
X50033001Y-36048553D01*
X50033001Y-36048553D02*
X50033001Y-37357960D01*
X50033001Y-37357960D02*
X50033001Y-38525053D01*
X50033001Y-38525053D02*
X50033001Y-40303053D01*
X50033001Y-40303053D02*
X50033001Y-46399053D01*
X50033001Y-46399053D02*
X50033001Y-47161053D01*
X50033001Y-47161053D02*
X50033001Y-47973853D01*
X50033001Y-47973853D02*
X50033001Y-48329453D01*
X50033001Y-48329453D02*
X50033001Y-52685553D01*
X50033001Y-52685553D02*
X50033001Y-53700051D01*
X50033001Y-65115868D02*
X50033001Y-65176694D01*
X49881001Y-33404197D02*
X49881001Y-36048553D01*
X49881001Y-36048553D02*
X49881001Y-37357960D01*
X49881001Y-37357960D02*
X49881001Y-38525053D01*
X49881001Y-38525053D02*
X49881001Y-40303053D01*
X49881001Y-40303053D02*
X49881001Y-46399053D01*
X49881001Y-46399053D02*
X49881001Y-47161053D01*
X49881001Y-47161053D02*
X49881001Y-47973853D01*
X49881001Y-47973853D02*
X49881001Y-48329453D01*
X49881001Y-48329453D02*
X49881001Y-52685553D01*
X49881001Y-52685553D02*
X49881001Y-53735151D01*
X49881001Y-65080768D02*
X49881001Y-65154926D01*
X49729001Y-33449654D02*
X49729001Y-36048553D01*
X49729001Y-36048553D02*
X49729001Y-37357960D01*
X49729001Y-37357960D02*
X49729001Y-38525053D01*
X49729001Y-38525053D02*
X49729001Y-40303053D01*
X49729001Y-40303053D02*
X49729001Y-46399053D01*
X49729001Y-46399053D02*
X49729001Y-47161053D01*
X49729001Y-47161053D02*
X49729001Y-47973853D01*
X49729001Y-47973853D02*
X49729001Y-48329453D01*
X49729001Y-48329453D02*
X49729001Y-52685553D01*
X49729001Y-52685553D02*
X49729001Y-53787797D01*
X49729001Y-65028122D02*
X49729001Y-65107619D01*
X49577001Y-33495112D02*
X49577001Y-36048553D01*
X49577001Y-36048553D02*
X49577001Y-37357960D01*
X49577001Y-37357960D02*
X49577001Y-38525053D01*
X49577001Y-38525053D02*
X49577001Y-40303053D01*
X49577001Y-40303053D02*
X49577001Y-46399053D01*
X49577001Y-46399053D02*
X49577001Y-47161053D01*
X49577001Y-47161053D02*
X49577001Y-47973853D01*
X49577001Y-47973853D02*
X49577001Y-48329453D01*
X49577001Y-48329453D02*
X49577001Y-52685553D01*
X49577001Y-52685553D02*
X49577001Y-53854349D01*
X49577001Y-64961570D02*
X49577001Y-65038509D01*
X49425001Y-33592289D02*
X49425001Y-36048553D01*
X49425001Y-36048553D02*
X49425001Y-37357960D01*
X49425001Y-37357960D02*
X49425001Y-38525053D01*
X49425001Y-38525053D02*
X49425001Y-40303053D01*
X49425001Y-40303053D02*
X49425001Y-46399053D01*
X49425001Y-46399053D02*
X49425001Y-47161053D01*
X49425001Y-47161053D02*
X49425001Y-47973853D01*
X49425001Y-47973853D02*
X49425001Y-48329453D01*
X49425001Y-48329453D02*
X49425001Y-52685553D01*
X49425001Y-52685553D02*
X49425001Y-53942701D01*
X49425001Y-64873218D02*
X49425001Y-64969399D01*
X49273001Y-33690810D02*
X49273001Y-36048553D01*
X49273001Y-36048553D02*
X49273001Y-37357960D01*
X49273001Y-37357960D02*
X49273001Y-38525053D01*
X49273001Y-38525053D02*
X49273001Y-40303053D01*
X49273001Y-40303053D02*
X49273001Y-46399053D01*
X49273001Y-46399053D02*
X49273001Y-47161053D01*
X49273001Y-47161053D02*
X49273001Y-47973853D01*
X49273001Y-47973853D02*
X49273001Y-48329453D01*
X49273001Y-48329453D02*
X49273001Y-52685553D01*
X49273001Y-52685553D02*
X49273001Y-54050696D01*
X49273001Y-64765223D02*
X49273001Y-64861357D01*
X49121001Y-33812081D02*
X49121001Y-36048553D01*
X49121001Y-36048553D02*
X49121001Y-37357960D01*
X49121001Y-37357960D02*
X49121001Y-38525053D01*
X49121001Y-38525053D02*
X49121001Y-40303053D01*
X49121001Y-40303053D02*
X49121001Y-46399053D01*
X49121001Y-46399053D02*
X49121001Y-47161053D01*
X49121001Y-47161053D02*
X49121001Y-47973853D01*
X49121001Y-47973853D02*
X49121001Y-48329453D01*
X49121001Y-48329453D02*
X49121001Y-52685553D01*
X49121001Y-52685553D02*
X49121001Y-54190034D01*
X49121001Y-64625886D02*
X49121001Y-64730385D01*
X48969001Y-33988486D02*
X48969001Y-36048553D01*
X48969001Y-36048553D02*
X48969001Y-37357960D01*
X48969001Y-37357960D02*
X48969001Y-38525053D01*
X48969001Y-38525053D02*
X48969001Y-40303053D01*
X48969001Y-40303053D02*
X48969001Y-46399053D01*
X48969001Y-46399053D02*
X48969001Y-47161053D01*
X48969001Y-47161053D02*
X48969001Y-47973853D01*
X48969001Y-47973853D02*
X48969001Y-48329453D01*
X48969001Y-48329453D02*
X48969001Y-52685553D01*
X48969001Y-52685553D02*
X48969001Y-54363353D01*
X48969001Y-64452566D02*
X48969001Y-64577921D01*
X48817001Y-34197320D02*
X48817001Y-36048553D01*
X48817001Y-36048553D02*
X48817001Y-37357960D01*
X48817001Y-37357960D02*
X48817001Y-38525053D01*
X48817001Y-38525053D02*
X48817001Y-40303053D01*
X48817001Y-40303053D02*
X48817001Y-46399053D01*
X48817001Y-46399053D02*
X48817001Y-47161053D01*
X48817001Y-47161053D02*
X48817001Y-47973853D01*
X48817001Y-47973853D02*
X48817001Y-48329453D01*
X48817001Y-48329453D02*
X48817001Y-52685553D01*
X48817001Y-52685553D02*
X48817001Y-54607789D01*
X48817001Y-64208130D02*
X48817001Y-64343414D01*
X48665001Y-34531626D02*
X48665001Y-36048553D01*
X48665001Y-36048553D02*
X48665001Y-37357960D01*
X48665001Y-37357960D02*
X48665001Y-38525053D01*
X48665001Y-38525053D02*
X48665001Y-40303053D01*
X48665001Y-40303053D02*
X48665001Y-46399053D01*
X48665001Y-46399053D02*
X48665001Y-47161053D01*
X48665001Y-47161053D02*
X48665001Y-47973853D01*
X48665001Y-47973853D02*
X48665001Y-48329453D01*
X48665001Y-48329453D02*
X48665001Y-52685553D01*
X48665001Y-52685553D02*
X48665001Y-55028465D01*
X48665001Y-63787454D02*
X48665001Y-63980566D01*
D17*
X89381003Y-33407100D02*
X89823339Y-33608218D01*
X90191446Y-33925399D01*
X90455737Y-34333150D01*
X90598082Y-34809120D01*
X90617001Y-35063704D01*
X90617000Y-63477556D01*
X90544900Y-63981003D01*
X90343782Y-64423339D01*
X90026601Y-64791446D01*
X89618850Y-65055737D01*
X89142880Y-65198082D01*
X88888309Y-65217000D01*
X50314444Y-65217000D01*
X49810997Y-65144900D01*
X49368661Y-64943782D01*
X49000554Y-64626601D01*
X48736263Y-64218850D01*
X48593918Y-63742880D01*
X48575000Y-63488309D01*
X48575000Y-55407960D01*
X48618778Y-55407960D01*
X48618778Y-63407960D01*
X48623593Y-63432166D01*
X48623593Y-63505977D01*
X48637895Y-63651185D01*
X48676140Y-63843453D01*
X48718495Y-63983077D01*
X48793514Y-64164189D01*
X48862295Y-64292870D01*
X48971206Y-64455866D01*
X49063769Y-64568654D01*
X49202386Y-64707271D01*
X49315174Y-64799834D01*
X49478170Y-64908745D01*
X49606851Y-64977526D01*
X49787963Y-65052545D01*
X49927587Y-65094900D01*
X50119855Y-65133145D01*
X50265063Y-65147447D01*
X50338874Y-65147447D01*
X50363080Y-65152262D01*
X52863080Y-65152262D01*
X53222108Y-65059945D01*
X53356088Y-64947163D01*
X53578248Y-65095605D01*
X53863080Y-65152262D01*
X59863080Y-65152262D01*
X60222108Y-65059945D01*
X60356088Y-64947163D01*
X60578248Y-65095605D01*
X60863080Y-65152262D01*
X66863080Y-65152262D01*
X67222108Y-65059945D01*
X67356088Y-64947163D01*
X67578248Y-65095605D01*
X67863080Y-65152262D01*
X73863080Y-65152262D01*
X74222108Y-65059945D01*
X74356088Y-64947163D01*
X74578248Y-65095605D01*
X74863080Y-65152262D01*
X80863080Y-65152262D01*
X81222108Y-65059945D01*
X81356088Y-64947163D01*
X81578248Y-65095605D01*
X81863080Y-65152262D01*
X88863080Y-65152262D01*
X88887286Y-65147447D01*
X88961097Y-65147447D01*
X89106305Y-65133145D01*
X89298573Y-65094900D01*
X89438197Y-65052545D01*
X89619309Y-64977526D01*
X89747990Y-64908745D01*
X89910986Y-64799834D01*
X90023774Y-64707271D01*
X90162391Y-64568654D01*
X90254954Y-64455866D01*
X90363865Y-64292870D01*
X90432646Y-64164189D01*
X90507665Y-63983077D01*
X90550020Y-63843453D01*
X90588265Y-63651185D01*
X90602567Y-63505977D01*
X90602567Y-63432166D01*
X90607382Y-63407960D01*
X90607382Y-55407960D01*
X90602567Y-55383754D01*
X90602567Y-55309943D01*
X90588265Y-55164735D01*
X90550020Y-54972467D01*
X90507665Y-54832843D01*
X90432646Y-54651731D01*
X90363865Y-54523050D01*
X90254954Y-54360054D01*
X90162391Y-54247266D01*
X90023774Y-54108649D01*
X89910986Y-54016086D01*
X89747990Y-53907175D01*
X89619309Y-53838394D01*
X89438197Y-53763375D01*
X89298573Y-53721020D01*
X89106305Y-53682775D01*
X88961097Y-53668473D01*
X88887286Y-53668473D01*
X88863080Y-53663658D01*
X81863080Y-53663658D01*
X81655928Y-53693066D01*
X81398118Y-53826758D01*
X81356065Y-53876715D01*
X81147912Y-53720315D01*
X80863080Y-53663658D01*
X74863080Y-53663658D01*
X74655928Y-53693066D01*
X74398118Y-53826758D01*
X74356065Y-53876715D01*
X74147912Y-53720315D01*
X73863080Y-53663658D01*
X67863080Y-53663658D01*
X67655928Y-53693066D01*
X67398118Y-53826758D01*
X67356065Y-53876715D01*
X67147912Y-53720315D01*
X66863080Y-53663658D01*
X60863080Y-53663658D01*
X60655928Y-53693066D01*
X60398118Y-53826758D01*
X60356065Y-53876715D01*
X60147912Y-53720315D01*
X59863080Y-53663658D01*
X53863080Y-53663658D01*
X53655928Y-53693066D01*
X53398118Y-53826758D01*
X53356065Y-53876715D01*
X53147912Y-53720315D01*
X52863080Y-53663658D01*
X50363080Y-53663658D01*
X50338874Y-53668473D01*
X50265063Y-53668473D01*
X50119855Y-53682775D01*
X49927587Y-53721020D01*
X49787963Y-53763375D01*
X49606851Y-53838394D01*
X49478170Y-53907175D01*
X49315174Y-54016086D01*
X49202386Y-54108649D01*
X49063769Y-54247266D01*
X48971206Y-54360054D01*
X48862295Y-54523050D01*
X48793514Y-54651731D01*
X48718495Y-54832843D01*
X48676140Y-54972467D01*
X48637895Y-55164735D01*
X48623593Y-55309943D01*
X48623593Y-55383754D01*
X48618778Y-55407960D01*
X48575000Y-55407960D01*
X48575000Y-52685553D01*
X66829500Y-52685553D01*
X66829500Y-52851447D01*
X66892984Y-53004712D01*
X67010288Y-53122016D01*
X67163553Y-53185500D01*
X67329447Y-53185500D01*
X67482712Y-53122016D01*
X67600016Y-53004712D01*
X67663500Y-52851447D01*
X67663500Y-52685553D01*
X71274500Y-52685553D01*
X71274500Y-52851447D01*
X71337984Y-53004712D01*
X71455288Y-53122016D01*
X71608553Y-53185500D01*
X71774447Y-53185500D01*
X71927712Y-53122016D01*
X72009000Y-53040728D01*
X72090288Y-53122016D01*
X72243553Y-53185500D01*
X72409447Y-53185500D01*
X72562712Y-53122016D01*
X72680016Y-53004712D01*
X72743500Y-52851447D01*
X72743500Y-52685553D01*
X72680016Y-52532288D01*
X72562712Y-52414984D01*
X72409447Y-52351500D01*
X72243553Y-52351500D01*
X72090288Y-52414984D01*
X72009000Y-52496272D01*
X71927712Y-52414984D01*
X71774447Y-52351500D01*
X71608553Y-52351500D01*
X71455288Y-52414984D01*
X71337984Y-52532288D01*
X71274500Y-52685553D01*
X67663500Y-52685553D01*
X67600016Y-52532288D01*
X67482712Y-52414984D01*
X67329447Y-52351500D01*
X67163553Y-52351500D01*
X67010288Y-52414984D01*
X66892984Y-52532288D01*
X66829500Y-52685553D01*
X48575000Y-52685553D01*
X48575000Y-48329453D01*
X57545800Y-48329453D01*
X57545800Y-48495347D01*
X57609284Y-48648612D01*
X57726588Y-48765916D01*
X57879853Y-48829400D01*
X58045747Y-48829400D01*
X58199012Y-48765916D01*
X58316316Y-48648612D01*
X58379800Y-48495347D01*
X58379800Y-48329453D01*
X58316316Y-48176188D01*
X58199012Y-48058884D01*
X58045747Y-47995400D01*
X57879853Y-47995400D01*
X57726588Y-48058884D01*
X57609284Y-48176188D01*
X57545800Y-48329453D01*
X48575000Y-48329453D01*
X48575000Y-47973853D01*
X58358600Y-47973853D01*
X58358600Y-48139747D01*
X58422084Y-48293012D01*
X58539388Y-48410316D01*
X58692653Y-48473800D01*
X58858547Y-48473800D01*
X59011812Y-48410316D01*
X59129116Y-48293012D01*
X59192600Y-48139747D01*
X59192600Y-47973853D01*
X59129116Y-47820588D01*
X59011812Y-47703284D01*
X58858547Y-47639800D01*
X58692653Y-47639800D01*
X58539388Y-47703284D01*
X58422084Y-47820588D01*
X58358600Y-47973853D01*
X48575000Y-47973853D01*
X48575000Y-47161053D01*
X59323800Y-47161053D01*
X59323800Y-47326947D01*
X59387284Y-47480212D01*
X59504588Y-47597516D01*
X59657853Y-47661000D01*
X59823747Y-47661000D01*
X59977012Y-47597516D01*
X60094316Y-47480212D01*
X60157800Y-47326947D01*
X60157800Y-47161053D01*
X60094316Y-47007788D01*
X59977012Y-46890484D01*
X59823747Y-46827000D01*
X59657853Y-46827000D01*
X59504588Y-46890484D01*
X59387284Y-47007788D01*
X59323800Y-47161053D01*
X48575000Y-47161053D01*
X48575000Y-46399053D01*
X58206200Y-46399053D01*
X58206200Y-46564947D01*
X58269684Y-46718212D01*
X58386988Y-46835516D01*
X58540253Y-46899000D01*
X58706147Y-46899000D01*
X58859412Y-46835516D01*
X58976716Y-46718212D01*
X59040200Y-46564947D01*
X59040200Y-46507960D01*
X63016820Y-46507960D01*
X63016820Y-49307960D01*
X63241091Y-50435445D01*
X63879760Y-51391280D01*
X64835595Y-52029949D01*
X65963080Y-52254220D01*
X68763080Y-52254220D01*
X69890565Y-52029949D01*
X70846400Y-51391280D01*
X71485069Y-50435445D01*
X71709340Y-49307960D01*
X71709340Y-46507960D01*
X72016820Y-46507960D01*
X72016820Y-49307960D01*
X72241091Y-50435445D01*
X72879760Y-51391280D01*
X73835595Y-52029949D01*
X74963080Y-52254220D01*
X77763080Y-52254220D01*
X78890565Y-52029949D01*
X79846400Y-51391280D01*
X80485069Y-50435445D01*
X80709340Y-49307960D01*
X80709340Y-46507960D01*
X81016820Y-46507960D01*
X81016820Y-49307960D01*
X81241091Y-50435445D01*
X81879760Y-51391280D01*
X82835595Y-52029949D01*
X83963080Y-52254220D01*
X86763080Y-52254220D01*
X87890565Y-52029949D01*
X88846400Y-51391280D01*
X89485069Y-50435445D01*
X89709340Y-49307960D01*
X89709340Y-46507960D01*
X89485069Y-45380475D01*
X88846400Y-44424640D01*
X87890565Y-43785971D01*
X86763080Y-43561700D01*
X83963080Y-43561700D01*
X82835595Y-43785971D01*
X81879760Y-44424640D01*
X81241091Y-45380475D01*
X81016820Y-46507960D01*
X80709340Y-46507960D01*
X80485069Y-45380475D01*
X79846400Y-44424640D01*
X78890565Y-43785971D01*
X77763080Y-43561700D01*
X74963080Y-43561700D01*
X73835595Y-43785971D01*
X72879760Y-44424640D01*
X72241091Y-45380475D01*
X72016820Y-46507960D01*
X71709340Y-46507960D01*
X71485069Y-45380475D01*
X70846400Y-44424640D01*
X69890565Y-43785971D01*
X68763080Y-43561700D01*
X65963080Y-43561700D01*
X64835595Y-43785971D01*
X63879760Y-44424640D01*
X63241091Y-45380475D01*
X63016820Y-46507960D01*
X59040200Y-46507960D01*
X59040200Y-46399053D01*
X58976716Y-46245788D01*
X58859412Y-46128484D01*
X58706147Y-46065000D01*
X58540253Y-46065000D01*
X58386988Y-46128484D01*
X58269684Y-46245788D01*
X58206200Y-46399053D01*
X48575000Y-46399053D01*
X48575000Y-40303053D01*
X60797000Y-40303053D01*
X60797000Y-40468947D01*
X60860484Y-40622212D01*
X60977788Y-40739516D01*
X61131053Y-40803000D01*
X61296947Y-40803000D01*
X61450212Y-40739516D01*
X61567516Y-40622212D01*
X61631000Y-40468947D01*
X61631000Y-40303053D01*
X61567516Y-40149788D01*
X61450212Y-40032484D01*
X61296947Y-39969000D01*
X61131053Y-39969000D01*
X60977788Y-40032484D01*
X60860484Y-40149788D01*
X60797000Y-40303053D01*
X48575000Y-40303053D01*
X48575000Y-38525053D01*
X59146000Y-38525053D01*
X59146000Y-38690947D01*
X59209484Y-38844212D01*
X59326788Y-38961516D01*
X59480053Y-39025000D01*
X59645947Y-39025000D01*
X59799212Y-38961516D01*
X59916516Y-38844212D01*
X59980000Y-38690947D01*
X59980000Y-38525053D01*
X59916516Y-38371788D01*
X59799212Y-38254484D01*
X59645947Y-38191000D01*
X59480053Y-38191000D01*
X59326788Y-38254484D01*
X59209484Y-38371788D01*
X59146000Y-38525053D01*
X48575000Y-38525053D01*
X48575000Y-37357960D01*
X62716820Y-37357960D01*
X62716820Y-40357960D01*
X62952509Y-41542847D01*
X63623694Y-42547346D01*
X64628193Y-43218531D01*
X65813080Y-43454220D01*
X68813080Y-43454220D01*
X69997967Y-43218531D01*
X70559909Y-42843053D01*
X71528500Y-42843053D01*
X71528500Y-43008947D01*
X71591984Y-43162212D01*
X71709288Y-43279516D01*
X71862553Y-43343000D01*
X72028447Y-43343000D01*
X72181712Y-43279516D01*
X72299016Y-43162212D01*
X72362500Y-43008947D01*
X72362500Y-42843053D01*
X72299016Y-42689788D01*
X72181712Y-42572484D01*
X72028447Y-42509000D01*
X71862553Y-42509000D01*
X71709288Y-42572484D01*
X71591984Y-42689788D01*
X71528500Y-42843053D01*
X70559909Y-42843053D01*
X71002466Y-42547346D01*
X71673651Y-41542847D01*
X71909340Y-40357960D01*
X71909340Y-37507960D01*
X72016820Y-37507960D01*
X72016820Y-40307960D01*
X72241091Y-41435445D01*
X72879760Y-42391280D01*
X73835595Y-43029949D01*
X74963080Y-43254220D01*
X77763080Y-43254220D01*
X78890565Y-43029949D01*
X79846400Y-42391280D01*
X80485069Y-41435445D01*
X80709340Y-40307960D01*
X80709340Y-37507960D01*
X80679504Y-37357960D01*
X80816820Y-37357960D01*
X80816820Y-40357960D01*
X81052509Y-41542847D01*
X81723694Y-42547346D01*
X82728193Y-43218531D01*
X83913080Y-43454220D01*
X86913080Y-43454220D01*
X88097967Y-43218531D01*
X89102466Y-42547346D01*
X89773651Y-41542847D01*
X90009340Y-40357960D01*
X90009340Y-37357960D01*
X89773651Y-36173073D01*
X89102466Y-35168574D01*
X88097967Y-34497389D01*
X86913080Y-34261700D01*
X83913080Y-34261700D01*
X82728193Y-34497389D01*
X81723694Y-35168574D01*
X81052509Y-36173073D01*
X80816820Y-37357960D01*
X80679504Y-37357960D01*
X80485069Y-36380475D01*
X79846400Y-35424640D01*
X78890565Y-34785971D01*
X77763080Y-34561700D01*
X74963080Y-34561700D01*
X73835595Y-34785971D01*
X72879760Y-35424640D01*
X72241091Y-36380475D01*
X72016820Y-37507960D01*
X71909340Y-37507960D01*
X71909340Y-37357960D01*
X71673651Y-36173073D01*
X71002466Y-35168574D01*
X69997967Y-34497389D01*
X68813080Y-34261700D01*
X65813080Y-34261700D01*
X64628193Y-34497389D01*
X63623694Y-35168574D01*
X62952509Y-36173073D01*
X62716820Y-37357960D01*
X48575000Y-37357960D01*
X48575000Y-36048553D01*
X60860500Y-36048553D01*
X60860500Y-36214447D01*
X60923984Y-36367712D01*
X61041288Y-36485016D01*
X61194553Y-36548500D01*
X61360447Y-36548500D01*
X61513712Y-36485016D01*
X61631016Y-36367712D01*
X61694500Y-36214447D01*
X61694500Y-36048553D01*
X61631016Y-35895288D01*
X61513712Y-35777984D01*
X61360447Y-35714500D01*
X61194553Y-35714500D01*
X61041288Y-35777984D01*
X60923984Y-35895288D01*
X60860500Y-36048553D01*
X48575000Y-36048553D01*
X48575000Y-35074444D01*
X48647100Y-34570997D01*
X48848218Y-34128661D01*
X49165399Y-33760554D01*
X49573150Y-33496263D01*
X50049120Y-33353918D01*
X50303691Y-33335000D01*
X88877556Y-33335000D01*
X89381003Y-33407100D01*
G04 #@! TD*
M02*
